<svg xmlns="http://www.w3.org/2000/svg" viewBox="0 0 207.67 310.06"><defs><style>.cls-1{fill:#092619;}.cls-2{fill:#05331e;}.cls-3{fill:#ffdcd1;}.cls-4{fill:#74757c;}.cls-5{fill:#0c8e56;}.cls-6{fill:#09ab6f;}.cls-7{fill:#515151;}.cls-8{fill:#f4f4f4;}</style></defs><g id="レイヤー_2" data-name="レイヤー 2"><g id="レイヤー_4" data-name="レイヤー 4"><path class="cls-1" d="M170.88,229.39s18.2,3.17,22.36,8.31-6.73,18.79-6.73,18.79-45.3,2.38-50.64,0-44.9-15-44.9-15l39-15.63Z"/><path class="cls-2" d="M112.61,193.55s-58.43,45.74-56.85,58.89c2.09,17.31,11.14,22.37,19.37,24.19s10.5,1.56,46.37,3.93c34.16,2.26,35.71-2.18,35.71-2.18l-2.08-20.45s-27.87-16.66-47.3-14.33,36-.73,56.79-7.22c17.17-5.34,27.3-17.1,25.9-30.6S181.09,173,181.09,173Z"/><path class="cls-3" d="M77.31,49.24c3.12,3,3.65,7.79,5,11.69A7.22,7.22,0,0,0,86,60.37c-.66-2.45-2.17-10.79,2.68-7,2.29,1.8,3.68,5.3,4.91,7.73.91,1.81,1.84,3.56,2.75,5.36,1.08,2.15,1,2.92,3.51,2.59a40.47,40.47,0,0,0,6.89-2c3.19-1.07,5-3,7.55-4.83,2.73-2,5.58-3.08,7.61-6,.12-.17.23-.39.35-.57-.37,4.56-3,7.49-7.41,10.82h0c-9,6.76-18.47,10.91-24.26,9.66S76.12,63.24,73.86,56.58c-.77-2.27-2.3-6-3.64-10.34C72.93,46.68,75.52,47.5,77.31,49.24Z"/><path class="cls-4" d="M70.23,46.26c2.71.42,5.28,1.22,7.09,3,3.1,3,3.63,7.77,5,11.67A6.83,6.83,0,0,0,86,60.37c-.65-2.45-2.16-10.79,2.69-6.95,2.3,1.77,3.67,5.32,4.92,7.75q1.36,2.67,2.74,5.34c1.11,2.12,1,2.94,3.53,2.57a38.88,38.88,0,0,0,6.85-2c3.23-1.08,5-3,7.58-4.82,2.72-2,5.59-3.11,7.63-6a5.07,5.07,0,0,1,.33-.59,16.83,16.83,0,0,0-.12-3.7c-.63-4.61-1.29-13.49-2-18.91-1.84-13.13-12-19-20.77-20.38S82.85,11.38,71.6,22.14C65.81,27.65,67.63,37.94,70.23,46.26Z"/><path class="cls-5" d="M66.22,44.57s-9.41,1-8.52-5S72.67,24.33,88,22.52Z"/><path class="cls-6" d="M84.2,1.17a29.68,29.68,0,0,1,36.74,20.3c.11.39.12.79.22,1.19.21.86.34,1.73.47,2.59.28,7.84-9.92,16.92-24.41,21.09s-28,1.92-31.89-4.86c-.35-.81-.7-1.61-1-2.45-.13-.39-.34-.73-.45-1.12A29.68,29.68,0,0,1,84.2,1.17Z"/><path class="cls-7" d="M191,235.79l16.67.46s.43,17.18-1.45,28.32-13.07,24.86-20.88,20c-3.85-2.38,6.36-11.84,3.55-18.33a33.12,33.12,0,0,0-5.88-9.59Z"/><path class="cls-7" d="M155.11,258s7.07-2.78,12.11-3.05,7.87.83,9.42,5.55.47,12.84-5,24.28c-5.21,11-15.05,29.05-23,24.61-19-10.69,10.7-22.61-2.92-28Z"/><path class="cls-5" d="M148.66,204.6c-32.4,8.24-41.32-8.11-41.32-8.11s-9.24-36.13-14.6-52.81S82.67,103,93.57,91s29.75-25.13,29.75-25.13,16.58-11.41,22.94-6.61S158,88.45,159.09,98.07,183,177.82,183,177.82,181.07,196.37,148.66,204.6Z"/><path class="cls-8" d="M131.83,61s-9.63-4.79-18.94,1.21S97.05,87.41,97.05,87.41Z"/><path class="cls-3" d="M15.78,167,3.19,162.61s-4.27-.3-2.93,1.89,5.87,5,5.87,5L2.2,168S.9,169,.86,170s1.06,1.62,1.73,5a13.94,13.94,0,0,0,4,7.13c1.38,1.31,10.16,1.52,10.16,1.52Z"/><path class="cls-5" d="M89.36,97.9,59.51,151.44,16.4,165.32s-7.85,19.36,4.36,19.26l48.91-13.67,24-26.65Z"/></g></g></svg>