<svg xmlns="http://www.w3.org/2000/svg" viewBox="0 0 161.15 482.02"><defs><style>.cls-1{fill:#ffdcd1;}.cls-2{fill:#d9fcf2;}.cls-3{fill:#1c2229;}.cls-4{fill:#1e252b;}.cls-5{fill:#2c3640;}.cls-6{fill:#ddc1ba;}.cls-7{fill:#fff;}</style></defs><g id="レイヤー_2" data-name="レイヤー 2"><g id="レイヤー_6" data-name="レイヤー 6"><path class="cls-1" d="M.37,184.35A3.35,3.35,0,0,0,3,185.91c1.66,0,3.87-4.35,5.81-5.9.75-.6,5.19,3.56,8.33,5.22,4.59,2.43,11.81,5.34,12.59,7.44,5.83,2.15,13.61.5,13.61.5s-1.45-16.1-3.89-16.57-14.71.23-14.71.23-6.17-5.9-12.63-6.58A14.25,14.25,0,0,0,7.35,173c-2.44,2.34-5.1,3-6.36,5.47A7.14,7.14,0,0,0,.37,184.35Z"/><path class="cls-1" d="M7.09,184.89c-.58.09-3.45.69-3.88.14-.55-.72,3.73-5.84,5.26-6a9.72,9.72,0,0,1,4.74.95c2.33,1.05,5.12,2.62,5.34,2.76,2.51,1.67,3.4,4.67,9.13.74,1-.7,1.09,7.74,1,8.91,0,.33,0,.77-.24,1-.67.65-2.62-.19-3.3-.41-3.72-1.25-13-10.06-15.48-9.22C8.84,184.07,8,185.09,7.09,184.89Z"/><path class="cls-2" d="M39.89,174.29l-4.44,1.25c1.1.19,4.44,18.67,3.31,20.45-.6.94,2.41,1.27,3.3,1C45.66,195.77,43.12,173.94,39.89,174.29Z"/><path class="cls-3" d="M105.35,453.56c-3.29,1.28-21.86,4-21.86,4l-22.63.64c-3.4,0-9.92,9.37-8.63,12.51,1.49,3.66,15.35,6.34,21.8,7.91,2.84.69,10.84.13,18.72.75,10,.8,10.91,4.05,23.3,2,5.12-.95,3.18-18.31-.38-29.93Z"/><path class="cls-3" d="M146.58,414.25c-3.61,1.9-26.5,3.49-26.5,3.49l-19.52.28c-3.91.4-3.39,14-1.51,17.48,2.18,4,9,3,13.71,4.8,2.72,1,12.88,2.47,18.09,4.19,2.44.81,7.83,6.33,10.45,7.11,11,3.3,14.13,1.43,17.32-.88,5.56-4,.21-28.18.21-28.18Z"/><path class="cls-4" d="M152.55,343.34s-1.82-29-1.06-56.1c.3-10.63,4.15-23.37,3.92-30.3-.81-24.58-5.81-34.89-5.81-34.89s-.41,1.92-6.83,6.9c.68-6.85.3-13-1.58-17.69-5.22-13-32.7-16.7-32.7-16.7-7.69,4-33,22.41-37.08,39.55-8.45,35.24,2.19,82,4.51,106.23,1.65,17.22,13.15,118.21,13.15,118.21,2.24,13,18.55,10,26.09-.18s-7.71-94.06-7.71-94.06l12.79-76.06c.19,3.56.39,7.4.6,11.55.62,12.31,4.23,53.76,4.23,66.11,0,21.39,2.12,42.26.52,53.63a9.82,9.82,0,0,0,5,9.93c11.07,6.16,19.69,1.29,28.54-5.54Z"/><path class="cls-4" d="M121,163.94s-78.75,7-80.09,9.75S40.22,195,43,196.36s68.64-1.18,68.64-1.18Z"/><path class="cls-5" d="M155.41,256.94c-1,6.11-44.66,15.7-53.91,18C83.82,279.25,75.69,255.29,71,250c-8.84-10,13.17-37.16,12.41-51-1.75-31.93-9.38-51.83-10.94-61.56-1-6.35-.64-16.25,2.88-21.08C80.73,109,93,102.45,100.55,98.46c3-1.6-.72-9.67,1.16-11.78.53-.59,1.26-3.42,2.4-4,3.16-1.63,22.12-3.45,27.66-3.51a10,10,0,0,1,4.81,1.15s.46,8.69,5,8.17c9.73-1.12,9.53.4,14.64,6.13,4,4.51,4.9,16.09,4.9,33s-6.05,63.6-11,81.56C149.68,210.85,156.11,252.63,155.41,256.94Z"/><path class="cls-4" d="M135.4,207.73c-6,4.15.18,8.66-2,12.16-4.44,7.26-28.71,18.38-28.55,22.12,5-3.21,25.26-12,28.38-13.76,7.65-4.38,15.75-19.78,15.75-19.78C146.09,204.26,141.36,203.57,135.4,207.73Z"/><path class="cls-4" d="M101.45,243.05c-.17,2.35-1.84,12.51-5.13,12.49a77.36,77.36,0,0,1-8.87-1.64l5.35-43.31,5.29-60.18c.09,2.16.14,4.33.08,6.54-.24,8.41-1,16.81-2,25.16-1.19,9.91.79,20.28,1.5,30.2C98.59,225.24,102,235.52,101.45,243.05Z"/><path class="cls-1" d="M77.89,254c-3.57,2.71-6.2,1-11.2,2.83-2.15.8-3.69,6.37-4.69,12.67-1.67,1.94-3.9,3.6-5,6a18.07,18.07,0,0,0-1.54,7.08c0,3.81,3.53,1.2,4.85-.93.14-.22.27-.44.39-.67-.09,1.53-1.15,2.08-1.17,3.28-.2,9.12-2.1,7.47-.15,10.15s14.52,2.28,15.74,1.12,2-3.47,2.36-4.25c2-4,4.79-12.59,5.63-20.08C83.51,268,83.23,249.93,77.89,254Z"/><path class="cls-5" d="M99.26,137.11l-1.17,13.3L92.8,210.59,87.45,253.9l-.72,3.82c-9.77,4.66-20.67,4.5-27.27-2.92l7.28-57.45s-3.41-39.93,4-65.71C77.4,108.31,98.16,122.36,99.26,137.11Z"/><path class="cls-2" d="M85.57,257.26l-.5,6.68c-9.78,4.66-17.5,5.86-24.09-1.56l-.35-7C69.52,260.24,76.33,258.47,85.57,257.26Z"/><path class="cls-1" d="M134.1,42.64a77.79,77.79,0,0,1-2,10c-1.29,9.79-2.43,19.29-1,24,0,0-9.48,5.21-17.26,6.74s-9.72-.73-9.72-.73l1.14-5.2S92.73,76.39,90.5,73.61s-5.71-8.22-6.89-12.46c-1-3.71-4.77-17.81-5.22-23.78C77.68,27.9,80.56,18,87,11s22-6.87,31.09-4.12c7.9,2.41,13.63,8.77,15.5,14.2S135,33.23,134.1,42.64Z"/><path class="cls-6" d="M96.21,42c4.44.15,6,4.7,5.24,8.65s-5.14,6.54-7.35,5.93Z"/><path class="cls-5" d="M83.51,32.42a1.22,1.22,0,0,0-.07-.17l-11-.62A19.1,19.1,0,0,1,82.7,15.8,19.09,19.09,0,0,1,77.44,1.54h0L116.82,0c4,.22,10.19,3.78,11.29,7.69,10.49.91,12.51,15.81,13.35,26.51,1.09,13.92-13.56,21.06-8.93,32.47-3.3-1.64-5.14-.14-6,3.44-3-3.8-10-4.87-14.35-7a17.51,17.51,0,0,1-10-12.66c-.73-3.35,1.09-9-2.11-10.22-2-.76-6-.7-7.23,1-.71,1,0,9.72.18,10.94-1.2-2.18-6.11-8.64-6.55-11.1-.54-3-.28-6.49-.41-8.75l-2.44-.13Z"/><path class="cls-7" d="M104.24,89s-1.45-4.08-2.52-6.33c9.66-.73,29.9-9.54,29.9-9.54s3.85,7.19,3.66,7.93c-.14.55-4.85,1.42-9.84,3.28C117.13,87.45,104.24,89,104.24,89Z"/></g></g></svg>