<svg xmlns="http://www.w3.org/2000/svg" viewBox="0 0 225.23 446.01"><defs><style>.cls-1{fill:#dbbb96;}.cls-2{fill:#bc9e80;}.cls-3{fill:#e3cb9d;}.cls-4{fill:#b48331;}.cls-5{fill:#ffdcd1;}.cls-6{fill:#74757c;}.cls-7{fill:#0c8e56;}.cls-8{fill:#09ab6f;}.cls-9{fill:#515151;}.cls-10{fill:#05331e;}.cls-11{fill:#f4f4f4;}</style></defs><g id="レイヤー_2" data-name="レイヤー 2"><g id="レイヤー_6" data-name="レイヤー 6"><polygon class="cls-1" points="115.27 117.47 90.47 131.79 82.42 136.44 57.64 150.75 0 117.47 24.79 103.16 32.84 98.51 57.64 84.2 115.27 117.47"/><polygon class="cls-2" points="57.63 208.84 57.63 150.75 0 117.47 0 175.56 57.63 208.84"/><polygon class="cls-3" points="90.47 131.79 82.42 136.44 24.79 103.16 32.84 98.51 90.47 131.79"/><polygon class="cls-1" points="115.27 117.47 57.63 150.75 57.63 208.84 115.27 175.56 115.27 117.47"/><polygon class="cls-4" points="90.47 131.79 82.42 136.44 82.42 144.86 90.47 140.21 90.47 131.79"/><path class="cls-5" d="M109.94,44.28c2.17,3.78,1.35,8.5,1.58,12.63a7.11,7.11,0,0,0,3.66.46c0-2.53.9-11,4.51-5.94,1.7,2.36,2.06,6.11,2.57,8.79.38,2,.79,3.93,1.16,5.91.44,2.37.2,3.1,2.66,3.46a39.93,39.93,0,0,0,7.17,0c3.36-.15,5.64-1.51,8.59-2.56,3.17-1.13,6.22-1.41,9-3.68.16-.13.33-.31.49-.45-1.62,4.27-4.91,6.37-10.12,8.34h0c-10.57,4-20.77,5.38-26,2.57s-10.29-16.4-10.62-23.43c-.11-2.4-.54-6.44-.63-10.94C106.44,40.61,108.7,42.12,109.94,44.28Z"/><path class="cls-6" d="M104,39.46c2.49,1.15,4.75,2.63,6,4.84,2.16,3.73,1.34,8.47,1.58,12.59a6.71,6.71,0,0,0,3.64.48c0-2.54.91-11,4.5-5.94,1.73,2.35,2.06,6.13,2.59,8.81q.57,3,1.15,5.89c.48,2.35.19,3.12,2.68,3.45a38.6,38.6,0,0,0,7.13,0c3.4-.14,5.65-1.48,8.62-2.54,3.16-1.15,6.23-1.43,9-3.68a3.11,3.11,0,0,1,.48-.48,18.06,18.06,0,0,0,.91-3.59c.67-4.6,2.49-13.32,3.3-18.73,1.87-13.12-6.27-21.55-14.32-25.33S125.75,9.43,112,16.67C104.87,20.35,103.77,30.74,104,39.46Z"/><path class="cls-7" d="M100.58,36.73s-9.32-1.62-6.81-7.13,18.61-10.53,33.87-8Z"/><path class="cls-8" d="M129.88,0a29.68,29.68,0,0,1,29.68,29.68c0,.41-.11.79-.12,1.2,0,.89-.16,1.76-.27,2.63C157.28,41.12,145,47,129.88,47s-27.4-5.89-29.3-13.5c-.11-.87-.23-1.74-.26-2.63,0-.41-.12-.79-.12-1.2A29.68,29.68,0,0,1,129.88,0Z"/><path class="cls-9" d="M218,404.72l7.25,12.2s-14.69,8.9-25.3,12.79-28.07,1-27.75-8.19c.17-4.52,13.44-.35,17.69-6s4.24-9.19,4.24-9.19Z"/><path class="cls-9" d="M92.48,425.73s1,7.54,0,12.49-2.73,7.42-7.68,7.78-11.15-4.78-20.39-13.44c-8.29-7.78-23.45-20.8-19.57-27.23,8.84-14.68,17.68,6.72,27.23,5.65Z"/><path class="cls-7" d="M133.11,232.67c-33.42-1.06-34.49-10.08-34.49-10.08s.53-65.78,0-83.28,1.6-41.91,15.39-50.4S149.55,73,149.55,73s19.1-6.37,23.87,0,3.18,31.3,1.59,40.85.69,90.71.69,90.71S166.53,233.73,133.11,232.67Z"/><path class="cls-10" d="M218,404.72s-20,11-28.47,6.19l-52.69-99.73-5.31-30.76L95,429.66s-10.61,1.59-20.69-12.73l-5.73-8.14,30.06-186.2s1.07,9,34.49,10.08,42.59-28.11,42.59-28.11l-7.41,94.24Z"/><line class="cls-10" x1="153.79" y1="246.46" x2="131.51" y2="280.42"/><path class="cls-11" d="M159.07,70.72s-7.93-7.27-18.54-4.09-22.19,19.79-22.19,19.79Z"/><path class="cls-7" d="M134.86,233.79c32.41,0,40.58-26.8,40.67-27.09l.11-4.46c-.37,1.16-10.36,30.32-42.5,29.34-31.5-1-34.49-10.43-34.5-10.51l-.19,2.59c.12,1,1.23,9,34.62,10.1Z"/><path class="cls-5" d="M24.48,181.36l-12.75-4s-4.27-.14-2.85,2,6,4.81,6,4.81l-4-1.4s-1.27,1.11-1.27,2.06,1.11,1.58,1.9,4.92a13.93,13.93,0,0,0,4.29,7c1.43,1.27,10.21,1.16,10.21,1.16Z"/><path class="cls-7" d="M108.15,94.31,67.63,164.24,25,179.62s-7.17,19.63,5,19.1l48.4-15.38L98.85,160Z"/></g></g></svg>