<svg xmlns="http://www.w3.org/2000/svg" viewBox="0 0 575.69 651.85"><defs><style>.cls-1{fill:#efefef;}.cls-2{fill:#f9f9f9;}.cls-3{fill:#f4f4f4;}.cls-4{fill:#a0a0a0;}.cls-5{fill:#9b9898;}.cls-6{fill:#ddd;}.cls-7{fill:#03190f;}.cls-8{fill:#9b9b9b;}.cls-9{fill:#bfbfbf;}.cls-10{fill:#494949;}.cls-11{fill:#d3d1d1;}.cls-12{fill:#c2c3c4;}.cls-13{fill:#eaeaea;}.cls-14{fill:#b2b2b2;}.cls-15,.cls-16{fill:none;stroke-miterlimit:10;}.cls-15{stroke:#707070;}.cls-16{stroke:#aaa;stroke-width:0.5px;}.cls-17{fill:#727272;}.cls-18{fill:#e0e0e0;}</style></defs><g id="レイヤー_2" data-name="レイヤー 2"><g id="parts"><polygon class="cls-1" points="282.25 325.93 282.25 651.85 564.51 488.89 564.51 162.96 282.25 325.93"/><polygon class="cls-1" points="292.64 331.14 292.64 621.04 575.69 458.02 574.22 168.56 292.64 331.14"/><polygon class="cls-2" points="0 488.89 282.26 651.85 282.26 325.18 0 162.96 0 488.89"/><polygon class="cls-3" points="282.26 0 574.22 168.56 292.64 331.14 0 162.96 282.26 0"/><polygon class="cls-4" points="282.26 641.68 564.52 477.16 575.69 458.02 292.64 621.04 282.26 641.68"/><polygon class="cls-2" points="282.26 325.18 292.64 331.14 292.64 621.04 282.26 641.68 282.26 325.18"/><ellipse class="cls-5" cx="448.47" cy="436.99" rx="72.73" ry="41.99" transform="translate(-154.21 606.88) rotate(-60)"/><polygon class="cls-5" points="500.32 382.95 483.79 373.43 410.73 499.13 428.38 509.34 500.32 382.95"/><ellipse class="cls-6" cx="463.52" cy="445.68" rx="72.73" ry="41.99" transform="translate(-154.21 624.25) rotate(-60)"/><path class="cls-7" d="M503.45,421.05c-1.38,25.93-20.14,58.42-41.91,72.58s-38.28,4.63-36.9-21.3,20.15-58.42,41.91-72.58c5.78-3.76,11.19-5.85,16-6.41C495.83,391.81,504.47,402,503.45,421.05Z"/><path class="cls-8" d="M448.47,435.79a14.42,14.42,0,0,1-6.52,11.3c-3.61,2.08-6.53.39-6.53-3.77A14.41,14.41,0,0,1,442,432c1.73-1,3.31-1.13,4.48-.53S448.47,433.63,448.47,435.79Z"/><path class="cls-8" d="M480,451.49l-39.78-23.67s-2,3.08-4.39,7.6-4.17,8.76-4.17,8.76l39.46,23.46Z"/><ellipse class="cls-9" cx="475.75" cy="459.63" rx="9.23" ry="5.33" transform="translate(-160.18 641.82) rotate(-60)"/><path class="cls-8" d="M221.87,206.13a9.36,9.36,0,0,0,4.25,7.35c2.34,1.36,4.24.26,4.24-2.45a9.38,9.38,0,0,0-4.24-7.35,3,3,0,0,0-2.92-.35A2.93,2.93,0,0,0,221.87,206.13Z"/><ellipse class="cls-9" cx="225.16" cy="209.13" rx="3.47" ry="6.01" transform="translate(-74.4 140.6) rotate(-30)"/><path class="cls-8" d="M57.57,343.67A9.39,9.39,0,0,0,61.82,351c2.34,1.35,4.24.25,4.24-2.46a9.38,9.38,0,0,0-4.24-7.35,3,3,0,0,0-2.92-.35A2.94,2.94,0,0,0,57.57,343.67Z"/><ellipse class="cls-9" cx="60.86" cy="346.67" rx="3.47" ry="6.01" transform="matrix(0.87, -0.5, 0.5, 0.87, -165.19, 76.88)"/><path class="cls-10" d="M349.9,409.13a9.41,9.41,0,0,1-4.24,7.36c-2.35,1.35-4.25.25-4.25-2.45a9.38,9.38,0,0,1,4.25-7.36,3.16,3.16,0,0,1,2.72-.43.88.88,0,0,1,.2.09A2.93,2.93,0,0,1,349.9,409.13Z"/><polygon class="cls-10" points="350.39 407.4 348.38 406.25 342.45 416.65 344.59 417.88 350.39 407.4"/><ellipse class="cls-6" cx="347.37" cy="412.57" rx="6.01" ry="3.47" transform="translate(-183.61 507.11) rotate(-60)"/><path class="cls-10" d="M336.39,416.1a9.39,9.39,0,0,1-4.25,7.36c-2.34,1.35-4.25.26-4.25-2.45a9.42,9.42,0,0,1,4.25-7.36,3.18,3.18,0,0,1,2.73-.43,1.63,1.63,0,0,1,.19.09A2.92,2.92,0,0,1,336.39,416.1Z"/><polygon class="cls-10" points="336.88 414.38 334.87 413.22 328.93 423.62 331.08 424.86 336.88 414.38"/><ellipse class="cls-6" cx="333.85" cy="419.54" rx="6.01" ry="3.47" transform="translate(-196.41 498.89) rotate(-60)"/><path class="cls-10" d="M367.33,424.39a4.59,4.59,0,0,1-2.08,3.6c-1.15.66-2.08.13-2.08-1.2a4.58,4.58,0,0,1,2.08-3.6,1.5,1.5,0,0,1,1.33-.21l.1,0A1.43,1.43,0,0,1,367.33,424.39Z"/><polygon class="cls-10" points="370.27 425.07 366.74 423.04 363.83 428.14 367.33 430.15 370.27 425.07"/><ellipse class="cls-9" cx="368.84" cy="427.66" rx="2.94" ry="1.7" transform="translate(-185.95 533.25) rotate(-60)"/><path class="cls-10" d="M361.65,428a4.58,4.58,0,0,1-2.08,3.6c-1.15.66-2.08.13-2.08-1.2a4.58,4.58,0,0,1,2.08-3.6,1.58,1.58,0,0,1,1.34-.21l.09,0A1.44,1.44,0,0,1,361.65,428Z"/><polygon class="cls-10" points="364.59 428.65 361.06 426.63 358.15 431.72 361.65 433.74 364.59 428.65"/><ellipse class="cls-9" cx="363.17" cy="431.24" rx="2.94" ry="1.7" transform="translate(-191.89 530.13) rotate(-60)"/><ellipse class="cls-11" cx="469.22" cy="449.12" rx="5.17" ry="3.8"/><path class="cls-11" d="M464.05,401.47v48h10.34V395.55a40.58,40.58,0,0,0-5.08,2.51A58.44,58.44,0,0,0,464.05,401.47Z"/><polygon class="cls-5" points="451.62 356.36 451.62 374.98 483.88 356.36 483.88 337.73 451.62 356.36"/><polygon class="cls-12" points="435.49 347.05 451.62 356.36 451.62 374.98 435.49 365.67 435.49 347.05"/><polygon class="cls-13" points="467.75 328.42 435.49 347.05 451.62 356.36 483.88 337.73 467.75 328.42"/><ellipse class="cls-11" cx="469.22" cy="336.21" rx="5.17" ry="3.8"/><rect class="cls-11" x="464.05" y="255.18" width="10.35" height="81.04"/><ellipse class="cls-13" cx="469.22" cy="255.18" rx="5.17" ry="3.58"/><ellipse class="cls-11" cx="469.22" cy="374.98" rx="5.17" ry="3.8"/><polygon class="cls-11" points="464.05 367.81 464.05 374.98 474.39 374.98 474.39 361.83 464.05 367.81"/><ellipse class="cls-11" cx="450.82" cy="345.41" rx="5.17" ry="3.8"/><rect class="cls-11" x="445.65" y="264.37" width="10.35" height="81.04"/><ellipse class="cls-13" cx="450.82" cy="264.37" rx="5.17" ry="3.58"/><polygon class="cls-6" points="318.41 580.26 365.3 553.2 365.3 471.23 318.12 498.73 318.41 580.26"/><polygon class="cls-14" points="308.46 574.86 318.41 580.26 318.12 498.73 308.46 493.15 308.46 574.86"/><polygon class="cls-13" points="318.12 498.73 308.46 493.15 355.76 465.61 365.3 471.23 318.12 498.73"/><path class="cls-15" d="M317.33,475.3l52.25-30.17a7.34,7.34,0,0,0,3.68-6.36V378.54a7.34,7.34,0,0,0-11-6.36l-52.68,30.41a7.38,7.38,0,0,0-3.68,6.42l.44,60A7.34,7.34,0,0,0,317.33,475.3Z"/><polygon class="cls-16" points="277.22 587.62 196.57 541.05 196.57 358.2 277.22 404.76 277.22 587.62"/><polygon class="cls-16" points="186.88 536.47 106.23 489.91 106.23 307.06 186.88 353.62 186.88 536.47"/><polygon class="cls-16" points="91.9 483.12 11.26 436.56 11.26 253.7 91.9 300.26 91.9 483.12"/><polygon class="cls-14" points="125.15 453.17 163.33 475.21 163.33 409.09 125.15 387.05 125.15 453.17"/><polygon class="cls-17" points="358.03 529.04 360.57 527.58 360.46 511.57 358.03 512.97 358.03 529.04"/><polygon class="cls-10" points="321.4 461.05 325.42 458.73 325.25 433.31 321.4 435.53 321.4 461.05"/><polygon class="cls-10" points="327.95 457.24 331.97 454.92 331.8 429.49 327.95 431.72 327.95 457.24"/><polygon class="cls-10" points="334.49 453.43 338.52 451.1 338.34 425.68 334.49 427.9 334.49 453.43"/><polygon class="cls-10" points="341.04 449.61 345.06 447.29 344.89 421.87 341.04 424.09 341.04 449.61"/><polygon class="cls-10" points="347.59 445.8 351.61 443.48 351.44 418.05 347.59 420.28 347.59 445.8"/><path class="cls-7" d="M440.17,317.25c.61,3.62,0,7.56-.59,11.14a111.58,111.58,0,0,1-3.08,13.37,40.69,40.69,0,0,1-4.64,11c-3,4.5-7,8.14-10.76,12a49.47,49.47,0,0,0-9.65,13.1,64.11,64.11,0,0,0-5,15.9c-1.1,5.75-1.71,11.58-2.36,17.39-.72,6.54-1.39,13.08-1.9,19.64-1,13.22-1.35,26.55.08,39.75.71,6.51,2,12.89,3.31,19.31s2.47,13,1.91,19.54c-.79,9.23-6.57,20-16.58,21.41-3.29.48-5.54-1.25-7.54-3.67a22.15,22.15,0,0,1-3.94-7.41c-1.94-6-1.77-12.3-1.15-18.46.68-6.7,1.6-13.38,2.42-20.06S382.55,468,383,461.35c.36-5.48.59-12-2.11-16.92-2.37-4.36-6.38-7.82-10.45-10.54a40.55,40.55,0,0,0-6-3.36c-1.32-.58-2.46,1.36-1.14,1.94a39,39,0,0,1,12.48,8.76,17.94,17.94,0,0,1,4,6.15,29,29,0,0,1,1.14,9.22c0,6.73-1.06,13.46-1.88,20.13l-2.46,20c-.79,6.55-1.48,13.21-.23,19.75,1,5.34,3.46,10.88,7.74,14.42a9,9,0,0,0,7.81,1.89,17.32,17.32,0,0,0,6.52-2.62,24.72,24.72,0,0,0,8.82-10.83c5.07-11.51,1.76-24.11-.61-35.86a171.19,171.19,0,0,1-2.87-40.17c.48-13.37,1.87-26.73,3.52-40,1.42-11.46,3.74-23.45,11.31-32.59,3.47-4.19,7.61-7.75,11.23-11.8A36.23,36.23,0,0,0,437,347.28a94.35,94.35,0,0,0,3.61-12.64,76.28,76.28,0,0,0,1.93-13.09,23.62,23.62,0,0,0-.24-4.9c-.25-1.43-2.41-.82-2.17.6Z"/><path class="cls-7" d="M445.53,316.53c.76,4.47-.22,9.39-1.06,13.78a101.44,101.44,0,0,1-4.05,15.16c-1.94,5.38-5.28,9.69-9.24,13.76s-8.34,7.92-11.44,12.74a76.74,76.74,0,0,0-5.25,10.1c-2.07,4.58-3.94,9.25-5.7,13.95a231.06,231.06,0,0,0-8.87,28.24c-2.11,9.05-2.73,18.88,0,27.85,1.29,4.19,3.21,8.14,4.79,12.21a106.42,106.42,0,0,1,4.88,18.15c2.62,13.24,6.88,28.38-2,40.28a19.43,19.43,0,0,1-6.46,5.67c-2.59,1.36-6.33,2.52-9.05,1-2.91-1.65-5-4.95-6.34-7.92a29.5,29.5,0,0,1-2.39-9.74c-.66-8,.83-16.08,1.8-24L386.64,476c.44-3.51,1-7,1.12-10.56a94.82,94.82,0,0,0-1-18.74,20.75,20.75,0,0,0-2.76-8.24,26.44,26.44,0,0,0-6.08-6.58,35.78,35.78,0,0,0-7.59-4.59c-1.31-.58-2.46,1.36-1.14,1.95,5.61,2.49,11.25,6.56,13.91,12.26,1.27,2.72,1.56,5.9,1.89,8.85a98.91,98.91,0,0,1,.63,10c.1,7.05-1,14-1.84,21-1,8.11-2.4,16.3-2.69,24.47-.26,7,.75,14.35,4.76,20.25,1.73,2.55,4.18,5.38,7.33,6.08,2.82.63,6-.31,8.58-1.53,5.2-2.48,8.94-7.37,11.13-12.58,2.71-6.46,2.81-13.5,1.91-20.36-.5-3.91-1.3-7.76-2.1-11.61-.76-3.64-1.38-7.31-2.21-10.93a97.11,97.11,0,0,0-5.25-15.67A59.57,59.57,0,0,1,401,447.06a52.77,52.77,0,0,1,0-16.64,89.47,89.47,0,0,1,2.59-11.4c1.38-4.95,2.94-9.85,4.61-14.71,3.2-9.31,6.67-18.68,11.28-27.39a48,48,0,0,1,8.29-11.08c4.41-4.51,9.25-8.79,12.4-14.34,2.38-4.18,3.7-9,4.9-13.62a88.63,88.63,0,0,0,2.82-16.08,25.06,25.06,0,0,0-.19-5.87c-.24-1.42-2.41-.82-2.17.6Z"/><polygon class="cls-12" points="425.94 309.88 424.44 215.89 444.6 227.53 444.61 320.65 425.94 309.88"/><polygon class="cls-5" points="444.54 227.6 484.87 204.32 484.87 297.44 444.55 320.72 444.54 227.6"/><polygon class="cls-18" points="484.87 204.32 168.8 21.84 129.35 45.62 444.6 227.56 484.87 204.32"/><polygon class="cls-12" points="425.08 254.67 424.44 215.99 129.35 45.62 129.35 88.47 134.9 85.47 425.08 254.67"/></g></g></svg>