<svg xmlns="http://www.w3.org/2000/svg" xmlns:xlink="http://www.w3.org/1999/xlink" viewBox="0 0 449.16 687.75"><defs><style>.cls-1{fill:none;}.cls-2{fill:#9b9898;}.cls-3{fill:#d1d1d1;}.cls-4{fill:#afafaf;}.cls-5{fill:#8e8e8e;}.cls-6{fill:#727272;}.cls-7{fill:#898989;}.cls-8{fill:#9b9b9b;}.cls-9{fill:#070707;}.cls-10{fill:#282828;}.cls-11{fill:#a8a8a8;}.cls-12{fill:#c1c1c1;}.cls-13{fill:#7c7c7c;}.cls-14{fill:#686868;}.cls-15{fill:#cecece;}.cls-16{fill:#c2c3c4;}.cls-17{clip-path:url(#clip-path);}.cls-18{fill:#dbdbdb;}.cls-19{fill:#f4f4f4;}.cls-20{fill:#efefef;}.cls-21{fill:#4c4c4c;}.cls-22{fill:#1e1e1e;}.cls-23{fill:#bcbcbc;}</style><clipPath id="clip-path"><path class="cls-1" d="M130.75,440.49c0-19,12.58-38,37.73-52.54s58.08-21.77,91-21.77,65.9,7.28,91,21.77,37.7,33.53,37.7,52.54-4.29,27.19-29.44,41.56-66.32,32.58-99.28,32.58-71.23-15.06-96.35-29.58S130.75,459.51,130.75,440.49Z"/></clipPath></defs><g id="レイヤー_2" data-name="レイヤー 2"><g id="parts"><g id="レイヤー_2-2" data-name="レイヤー 2-2"><polygon class="cls-2" points="185.07 401.75 0 506.66 0 262.11 185.07 155.19 185.07 401.75"/><rect class="cls-3" x="288.33" y="557.09" width="4.14" height="31.24" transform="translate(-319.36 774.04) rotate(-81.38)"/><polygon class="cls-4" points="275.85 454.21 183.9 401.12 0 506.66 89.91 561.19 275.85 454.21"/><polygon class="cls-5" points="204.47 330.43 204.47 419.54 88.72 486.36 88.72 397.26 204.47 330.43"/><polygon class="cls-6" points="11.56 441.81 88.72 486.36 88.72 397.26 11.56 352.71 11.56 441.81"/><path class="cls-7" d="M185,401.75V155.18l71.85,41.41V443.13Z"/><polygon class="cls-8" points="11.56 352.71 88.72 397.26 254.95 301.15 177.76 256.63 11.56 352.71"/><polygon class="cls-9" points="431.75 563.28 425.7 566.31 440.07 592.21 446.03 589.24 431.75 563.28"/><path class="cls-10" d="M431.15,563.55a7.35,7.35,0,0,1,7.58.72,23,23,0,0,1,10.39,18.17,6.39,6.39,0,0,1-10.54,6,21.17,21.17,0,0,1-7.43-7.81,21.63,21.63,0,0,1-3-10.33A7.4,7.4,0,0,1,431.15,563.55Z"/><path class="cls-9" d="M425.64,566.31a7.35,7.35,0,0,1,7.43.71,21.65,21.65,0,0,1,7.42,7.85,21.39,21.39,0,0,1,3,10.33,6.34,6.34,0,0,1-10.42,6,22.74,22.74,0,0,1-10.42-18.18A7.33,7.33,0,0,1,425.64,566.31Z"/><polygon class="cls-10" points="268.87 658.2 262.85 661.22 277.23 687.15 283.18 684.15 268.87 658.2"/><path class="cls-10" d="M265.28,665.23a6.41,6.41,0,0,1,10.51-6,21.57,21.57,0,0,1,7.39,7.85,21.25,21.25,0,0,1,3,10.33,6.38,6.38,0,0,1-10.48,6,21.35,21.35,0,0,1-7.43-7.82,21.63,21.63,0,0,1-3-10.33Z"/><path class="cls-9" d="M259.77,668a6.41,6.41,0,0,1,10.51-6,23,23,0,0,1,10.39,18.17,6.38,6.38,0,0,1-10.48,6,21.25,21.25,0,0,1-7.43-7.81,21.63,21.63,0,0,1-3-10.33Z"/><ellipse class="cls-11" cx="270.27" cy="674.06" rx="2.57" ry="4.46" transform="translate(-300.82 225.44) rotate(-30)"/><polygon class="cls-10" points="72.91 545.8 66.86 548.79 81.23 574.72 87.22 571.73 72.91 545.8"/><path class="cls-10" d="M70.79,547.41a6.39,6.39,0,0,1,9-.57A23,23,0,0,1,90.27,565a6.38,6.38,0,0,1-10.48,6,23.17,23.17,0,0,1-10.48-18.18A6.4,6.4,0,0,1,70.79,547.41Z"/><path class="cls-9" d="M63.8,555.62a6.38,6.38,0,0,1,10.48-6,23,23,0,0,1,10.48,18.14,6.41,6.41,0,0,1-10.48,6A23.15,23.15,0,0,1,63.8,555.59Z"/><ellipse class="cls-11" cx="74.3" cy="561.64" rx="2.57" ry="4.46" transform="translate(-270.87 112.4) rotate(-30)"/><path class="cls-12" d="M70.06,533l201.15,116,172.4-99.55L242.52,433.28Zm201.15,99.41L98.81,533l143.71-83.08,172.34,99.52Z"/><polygon class="cls-13" points="443.61 549.39 443.61 565.98 271.21 665.53 271.21 648.94 443.61 549.39"/><polygon class="cls-14" points="271.21 648.94 70.06 532.8 70.06 549.39 147.64 594.18 271.21 665.53 271.21 648.94"/><rect class="cls-15" x="130.75" y="327.23" width="257.46" height="113.12"/><polygon class="cls-16" points="259.5 577.77 139.02 466.57 379.98 466.57 259.5 577.77"/><path class="cls-15" d="M130.75,440.49c0-19,12.58-38,37.73-52.54s58.08-21.77,91-21.77,65.9,7.28,91,21.77,37.7,33.53,37.7,52.54-4.29,27.19-29.44,41.56-66.32,32.58-99.28,32.58-71.23-15.06-96.35-29.58S130.75,459.51,130.75,440.49Z"/><g class="cls-17"><polygon class="cls-18" points="294.89 383.81 294.89 519.48 339.92 494.48 339.92 382.29 294.89 383.81"/></g><polygon class="cls-15" points="111.11 348.15 68 324.89 68 31.02 111.11 54.31 111.11 348.15"/><polygon class="cls-19" points="125.48 0 68 31.02 111.11 54.31 168.57 23.26 125.48 0"/><path class="cls-20" d="M111.11,348.16l57.46-31V23.26L111.11,54.31Zm14.82-88.75V51.89L155,36.32V243.81Z"/><path class="cls-19" d="M130.75,324.26c0-19,12.58-38,37.73-52.54S226.56,250,259.5,250s65.9,7.24,91,21.77,37.7,33.53,37.7,52.54-12.55,38-37.7,52.55-58.06,21.77-91,21.77-65.9-7.25-91-21.77S130.75,343.27,130.75,324.26Z"/><polygon class="cls-3" points="294.77 253.27 294.77 167.55 304.8 173.36 304.8 273.36 294.77 253.27"/><path class="cls-21" d="M196.32,288c0-9.31,6.17-18.65,18.51-25.78a91.2,91.2,0,0,1,44.67-10.68,91.25,91.25,0,0,1,44.67,10.8c12.34,7.13,18.51,16.44,18.51,25.78s-6.17,18.69-18.51,25.81a91.31,91.31,0,0,1-44.67,10.69,91.31,91.31,0,0,1-44.67-10.69C202.49,306.78,196.32,297.29,196.32,288Z"/><rect class="cls-21" x="196.32" y="280.34" width="126.35" height="7.75"/><path class="cls-22" d="M196.32,280.28c0-9.34,6.17-18.68,18.51-25.78a91.31,91.31,0,0,1,44.67-10.63,91.31,91.31,0,0,1,44.67,10.69c12.34,7.1,18.51,16.44,18.51,25.78s-6.17,18.68-18.51,25.78a91.31,91.31,0,0,1-44.67,10.69,91.31,91.31,0,0,1-44.67-10.69C202.49,299,196.32,289.62,196.32,280.28Z"/><path class="cls-3" d="M209.11,310.1V212l10.06,5.51v98.52l-5.77-3Z"/><rect class="cls-13" x="238.69" y="557.92" width="41.8" height="18.38"/><path class="cls-13" d="M238.81,576.31a10.41,10.41,0,0,1,6.14-8.54,32.67,32.67,0,0,1,29.55,0,10.47,10.47,0,0,1,6,8.54c0,3.08-.72,4.4-4.79,6.76a37.06,37.06,0,0,1-16.14,5.3,34.67,34.67,0,0,1-15.63-4.79C239.83,581.22,238.66,579.39,238.81,576.31Z"/><path class="cls-16" d="M238.66,556.9a10.36,10.36,0,0,1,6.29-8.62,32.67,32.67,0,0,1,29.55,0,10.42,10.42,0,0,1,6,8.54c0,3.08-.72,4.4-4.79,6.73a36.79,36.79,0,0,1-16.14,5.33,34.39,34.39,0,0,1-15.63-4.73C239.83,561.82,238.66,559.9,238.66,556.9Z"/><polygon class="cls-15" points="0 506.66 0 262.11 70.06 302.56 70.06 549.39 0 506.66"/><polygon class="cls-3" points="317.41 177.31 231.21 227.07 193.6 205.37 279.83 155.6 317.41 177.31"/><polygon class="cls-19" points="317.41 156.35 231.21 206.12 193.6 184.41 279.83 134.65 317.41 156.35"/><polygon class="cls-23" points="231.21 206.12 231.21 227.07 317.41 177.31 317.41 156.35 231.21 206.12"/><polygon class="cls-11" points="231.21 227.07 193.6 205.37 193.6 184.41 231.21 206.12 231.21 227.07"/></g><polygon class="cls-3" points="125.93 51.89 155.03 36.32 155.03 243.81 125.93 259.41 125.93 51.89"/><polygon class="cls-20" points="70.06 302.56 79.79 297.24 79.79 527.33 70.06 532.95 70.06 302.56"/><polygon class="cls-19" points="70.06 302.56 79.79 297.24 8.96 256.93 0 262.11 70.06 302.56"/><polygon class="cls-20" points="15.38 260.58 68 230.21 68 222.82 8.96 256.93 15.38 260.58"/><polygon class="cls-20" points="184.95 155.19 190.1 158.15 168.57 171.03 168.57 164.72 184.95 155.19"/><polygon class="cls-20" points="190.1 158.15 214.61 172.28 209.36 175.31 185.07 161.16 190.1 158.15"/><polygon class="cls-20" points="256.81 212.29 256.81 243.85 252.31 244.01 252.31 214.89 256.81 212.29"/><polygon class="cls-20" points="220.88 221.11 220.88 316.82 219.17 316.07 219.17 220.13 220.88 221.11"/><polygon class="cls-20" points="304.8 184.59 306.23 183.76 306.23 255.8 304.8 254.68 304.8 184.59"/></g></g></svg>