<svg xmlns="http://www.w3.org/2000/svg" viewBox="0 0 535.88 560.21"><defs><style>.cls-1,.cls-8{fill:#efefef;}.cls-2{fill:#b7b7b7;}.cls-3{fill:#e8e8e8;}.cls-4{fill:#f9f9f9;}.cls-5{fill:#f4f4f4;}.cls-6{fill:#515151;}.cls-7{fill:none;stroke:#5e5e5e;}.cls-7,.cls-8{stroke-miterlimit:10;}.cls-8{stroke:#efefef;}.cls-9{fill:#ddd;}.cls-10{fill:#b2b2b2;}.cls-11{fill:#eaeaea;}.cls-12{fill:#cecece;}.cls-13{fill:#af2f2f;}.cls-14{fill:#e23d3d;}.cls-15{fill:#247019;}.cls-16{fill:#32b224;}.cls-17{fill:#333;}</style></defs><g id="レイヤー_2" data-name="レイヤー 2"><g id="parts"><path class="cls-1" d="M274.63,368.25c10.45-5.17,21.39-9.8,30.84-16.7,4.19-3.07,8.22-6.37,12.51-9.31a62.07,62.07,0,0,1,14.08-7.17,91,91,0,0,0,14.79-6.67c4.52-2.63,8.83-5.6,13.25-8.39a81.66,81.66,0,0,1,14.07-7.46c5-1.95,10.07-3.58,14.37-6.87s7.78-7.51,12.5-10.13c4.38-2.43,10-2.75,13.33-6.9,1.18-1.5-.93-3.64-2.12-2.13-2.82,3.56-7.81,4-11.68,5.9-4.33,2.08-7.71,5.63-11.27,8.76a33,33,0,0,1-6.05,4.38,58,58,0,0,1-7.39,3.15,84.25,84.25,0,0,0-14.36,6.9c-9,5.45-17.44,11.85-27.43,15.54-5.13,1.9-10.14,3.76-14.81,6.67-4.34,2.7-8.36,5.9-12.43,9a100.88,100.88,0,0,1-15.29,9.73c-6.11,3.1-12.28,6.08-18.42,9.12-1.73.85-.21,3.44,1.51,2.59Z"/><ellipse class="cls-2" cx="133.29" cy="508.73" rx="18.14" ry="6.59"/><rect class="cls-2" x="115.14" y="504.66" width="36.29" height="4.07"/><ellipse class="cls-3" cx="133.29" cy="504.66" rx="18.14" ry="6.59"/><ellipse class="cls-2" cx="133.29" cy="504.6" rx="8.5" ry="3.09"/><rect class="cls-2" x="124.78" y="469.84" width="17" height="34.76"/><ellipse class="cls-3" cx="133.29" cy="469.84" rx="8.5" ry="3.09"/><ellipse class="cls-2" cx="45.57" cy="455.97" rx="18.14" ry="6.59"/><rect class="cls-2" x="27.42" y="451.9" width="36.29" height="4.07"/><ellipse class="cls-3" cx="45.57" cy="451.9" rx="18.14" ry="6.59"/><ellipse class="cls-2" cx="45.57" cy="451.84" rx="8.5" ry="3.09"/><rect class="cls-2" x="37.07" y="417.08" width="17" height="34.76"/><ellipse class="cls-3" cx="45.57" cy="417.08" rx="8.5" ry="3.09"/><ellipse class="cls-2" cx="517.74" cy="283.91" rx="18.14" ry="6.59"/><rect class="cls-2" x="499.6" y="279.85" width="36.29" height="4.07"/><ellipse class="cls-3" cx="517.74" cy="279.85" rx="18.14" ry="6.59"/><ellipse class="cls-2" cx="517.74" cy="279.78" rx="8.5" ry="3.09"/><rect class="cls-2" x="509.24" y="245.03" width="17" height="34.76"/><ellipse class="cls-3" cx="517.74" cy="245.03" rx="8.5" ry="3.09"/><polygon class="cls-4" points="276.75 407.74 276.74 240.46 168.09 177.73 168.09 345.01 276.75 407.74"/><polygon class="cls-5" points="168.09 177.73 423.94 30.03 532.13 89.46 276.74 240.46 168.09 177.73"/><polygon class="cls-1" points="276.74 240.46 532.13 89.46 532.13 259.87 276.75 407.74 276.74 240.46"/><polygon class="cls-6" points="289.93 252.76 289.92 388.2 524.66 254.11 524.66 117.25 289.93 252.76"/><polygon class="cls-1" points="400.86 275.13 400.86 251.1 408 246.97 408 271.01 400.86 275.13"/><polygon class="cls-1" points="422.69 262.68 422.69 238.65 429.83 234.52 429.83 258.56 422.69 262.68"/><line class="cls-7" x1="416" y1="180.13" x2="416" y2="315.66"/><polygon class="cls-4" points="132.81 491.04 132.81 323.75 24.16 261.02 24.16 428.31 132.81 491.04"/><polygon class="cls-5" points="24.16 261.02 169.03 177.39 277.68 240.12 132.81 323.75 24.16 261.02"/><polygon class="cls-1" points="132.8 323.75 277.68 240.12 277.68 407.39 132.81 491.04 132.8 323.75"/><ellipse class="cls-2" cx="374.07" cy="85.21" rx="18.52" ry="6.72"/><rect class="cls-2" x="355.55" y="34.81" width="37.04" height="50.39"/><ellipse class="cls-3" cx="374.07" cy="34.81" rx="18.52" ry="6.72"/><ellipse class="cls-2" cx="416.93" cy="57.12" rx="18.52" ry="6.72"/><rect class="cls-2" x="398.41" y="6.72" width="37.04" height="50.39"/><ellipse class="cls-3" cx="416.93" cy="6.72" rx="18.52" ry="6.72"/><ellipse class="cls-2" cx="273.17" cy="553.63" rx="18.14" ry="6.59"/><rect class="cls-2" x="255.02" y="549.56" width="36.29" height="4.07"/><ellipse class="cls-3" cx="273.17" cy="549.56" rx="18.14" ry="6.59"/><ellipse class="cls-2" cx="273.17" cy="549.5" rx="8.5" ry="3.09"/><rect class="cls-2" x="264.67" y="514.74" width="17" height="34.76"/><ellipse class="cls-3" cx="273.17" cy="514.74" rx="8.5" ry="3.09"/><ellipse class="cls-2" cx="400.53" cy="481.6" rx="18.14" ry="6.59"/><rect class="cls-2" x="382.39" y="477.53" width="36.29" height="4.07"/><ellipse class="cls-3" cx="400.53" cy="477.53" rx="18.14" ry="6.59"/><ellipse class="cls-2" cx="400.53" cy="477.47" rx="8.5" ry="3.09"/><rect class="cls-2" x="392.03" y="442.71" width="17" height="34.76"/><ellipse class="cls-3" cx="400.53" cy="442.71" rx="8.5" ry="3.09"/><rect class="cls-1" x="413.33" y="162.58" width="5.34" height="155.07"/><polygon class="cls-1" points="272.05 368.83 416.93 285.19 416.94 452.47 272.06 536.11 272.05 368.83"/><polygon class="cls-8" points="272.8 367.61 417.67 283.97 417.68 451.25 272.8 534.89 272.8 367.61"/><polygon class="cls-4" points="272.06 536.11 272.05 368.83 163.4 306.1 163.4 473.38 272.06 536.11"/><polygon class="cls-5" points="163.4 306.1 308.28 222.46 416.93 285.19 272.09 368.85 163.4 306.1"/><polygon class="cls-6" points="285.23 381.13 285.23 516.57 407.29 446.84 406.56 311.09 285.23 381.13"/><polygon class="cls-1" points="337.35 435.19 337.35 411.16 344.49 407.02 344.49 431.06 337.35 435.19"/><polygon class="cls-1" points="356.95 424.95 356.95 400.93 364.09 396.79 364.09 420.83 356.95 424.95"/><rect class="cls-1" x="349.59" y="333.12" width="5.34" height="155.07"/><polygon class="cls-9" points="294.29 145.22 343.97 117.16 343.97 27.74 293.96 56.17 294.29 145.22"/><polygon class="cls-10" points="271.66 133.63 294.29 145.92 293.96 56.87 271.66 43.99 271.66 133.63"/><polygon class="cls-11" points="293.96 56.87 271.66 43.99 320.62 15.43 343.97 27.74 293.96 56.87"/><polygon class="cls-6" points="274.78 155.41 292.66 145.03 291.52 58.89 274.47 68.83 274.78 155.41"/><polygon class="cls-6" points="255.16 144.93 274.78 155.41 274.47 68.83 255.16 57.67 255.16 144.93"/><polygon class="cls-6" points="274.47 68.83 255.16 57.67 272.4 48.12 291.52 58.89 274.47 68.83"/><polygon class="cls-9" points="239.79 177.76 290.2 148.14 288.88 60.56 239.47 89.31 239.79 177.76"/><polygon class="cls-10" points="217.16 165.36 239.79 177.76 239.47 89.31 217.16 76.43 217.16 165.36"/><polygon class="cls-11" points="239.45 89.37 217.16 76.43 266.8 48.12 288.88 60.56 239.45 89.37"/><polygon class="cls-9" points="404.39 156.48 455.59 126.92 455.59 37.41 404.07 67.43 404.39 156.48"/><polygon class="cls-10" points="381.76 144.19 404.39 156.48 404.07 67.43 381.76 54.55 381.76 144.19"/><polygon class="cls-11" points="404.07 67.43 381.76 54.55 434.83 25.16 455.59 37.41 404.07 67.43"/><polygon class="cls-9" points="55.23 275.73 140.59 226.46 140.59 177.57 55.06 226.56 55.23 275.73"/><polygon class="cls-10" points="42.74 268.94 55.23 275.73 55.06 226.56 42.74 219.44 42.74 268.94"/><polygon class="cls-11" points="55.06 226.56 42.74 219.44 127.22 171.05 140.59 177.57 55.06 226.56"/><ellipse class="cls-12" cx="222.42" cy="302.79" rx="24.29" ry="8.82"/><rect class="cls-12" x="198.13" y="236.71" width="48.57" height="66.08"/><ellipse class="cls-3" cx="222.42" cy="236.71" rx="24.29" ry="8.82"/><ellipse class="cls-2" cx="276.74" cy="332.43" rx="35.66" ry="12.95"/><rect class="cls-2" x="241.08" y="235.41" width="71.32" height="97.03"/><ellipse class="cls-3" cx="276.74" cy="235.41" rx="35.66" ry="12.95"/><rect class="cls-12" x="157.59" y="104.71" width="11.63" height="179.45"/><ellipse class="cls-12" cx="163.4" cy="284.16" rx="5.82" ry="1.87"/><polygon class="cls-9" points="146.34 162.06 184.62 139.97 184.62 73.05 146.1 95.49 146.34 162.06"/><polygon class="cls-10" points="138.22 157.65 146.34 162.06 146.1 95.49 138.22 90.94 138.22 157.65"/><polygon class="cls-11" points="146.1 95.49 138.22 90.94 176.84 68.45 184.62 73.05 146.1 95.49"/><polygon class="cls-6" points="147.84 117.15 148.02 97.36 164.89 87.62 164.89 107.3 147.84 117.15"/><polygon class="cls-6" points="166.54 106.45 166.72 86.67 183.59 76.93 183.59 96.61 166.54 106.45"/><polygon class="cls-6" points="147.84 138.74 148.02 118.95 164.89 109.21 164.89 128.89 147.84 138.74"/><polygon class="cls-6" points="166.54 128.04 166.72 108.26 183.59 98.52 183.59 118.2 166.54 128.04"/><polygon class="cls-13" points="180.81 129.21 179.26 128.31 172.41 140.1 174.07 141.06 180.81 129.21"/><ellipse class="cls-13" cx="175.95" cy="134.28" rx="6.82" ry="3.94" transform="translate(-28.31 219.51) rotate(-60)"/><ellipse class="cls-14" cx="177.36" cy="135.09" rx="6.82" ry="3.94" transform="translate(-28.31 221.14) rotate(-60)"/><polygon class="cls-15" points="162.89 139.18 161.34 138.29 154.49 150.08 156.15 151.04 162.89 139.18"/><ellipse class="cls-15" cx="158.03" cy="144.25" rx="6.82" ry="3.94" transform="translate(-45.91 208.98) rotate(-60)"/><ellipse class="cls-16" cx="159.44" cy="145.07" rx="6.82" ry="3.94" transform="translate(-45.91 210.61) rotate(-60)"/><polygon class="cls-17" points="30.16 260.74 54.16 246.48 53.39 215.63 30.05 229.23 30.16 260.74"/><polygon class="cls-17" points="20.26 255.35 30.16 260.74 30.05 229.23 19.95 223.39 20.26 255.35"/><polygon class="cls-17" points="30.05 229.23 19.95 223.39 43.98 210.08 53.39 215.63 30.05 229.23"/><polygon class="cls-9" points="17.2 259.72 57.59 235.72 56.28 183.8 17.01 206.69 17.2 259.72"/><polygon class="cls-10" points="0.53 250.66 17.2 259.72 17.01 206.69 0 196.87 0.53 250.66"/><polygon class="cls-11" points="17.01 206.69 0 196.87 40.46 174.46 56.28 183.8 17.01 206.69"/><polygon class="cls-6" points="20.75 207.66 20.43 243.97 54.83 224.52 54.16 188.37 20.75 207.66"/></g></g></svg>