<svg xmlns="http://www.w3.org/2000/svg" xmlns:xlink="http://www.w3.org/1999/xlink" viewBox="0 0 921.45 611.86"><defs><style>.cls-1,.cls-9{fill:none;}.cls-2,.cls-7{fill:#efefef;}.cls-3{fill:#b7b7b7;}.cls-4{fill:#e8e8e8;}.cls-5{fill:#f9f9f9;}.cls-6{fill:#f4f4f4;}.cls-7{stroke:#efefef;}.cls-7,.cls-9{stroke-miterlimit:10;}.cls-8{fill:#515151;}.cls-9{stroke:#5e5e5e;}.cls-10{fill:#ddd;}.cls-11{fill:#b2b2b2;}.cls-12{fill:#eaeaea;}.cls-13{fill:#333;}.cls-14{fill:#d1d1d1;}.cls-15{fill:#5e5e5e;}.cls-16{clip-path:url(#clip-path);}.cls-17{fill:#cecece;}.cls-18{fill:#247019;}.cls-19{fill:#af2f2f;}</style><clipPath id="clip-path" transform="translate(323.78)"><line class="cls-1" x1="385.55" y1="114.67" x2="470.86" y2="151.59"/></clipPath></defs><g id="レイヤー_2" data-name="レイヤー 2"><g id="parts"><path class="cls-2" d="M311.45,399.68l17.78-8.78a106.68,106.68,0,0,0,15.57-9.26c4.58-3.34,9-6.94,13.65-10.15a68.55,68.55,0,0,1,15.62-7.93,96.28,96.28,0,0,0,16-7.28c4.88-2.85,9.54-6.06,14.31-9.08a90,90,0,0,1,15-7.95c5.38-2.11,10.9-3.84,15.56-7.37s8.6-8.32,13.84-11.18c4.72-2.58,10.81-2.95,14.34-7.42,1.18-1.5-.93-3.64-2.12-2.12-3.06,3.87-8.47,4.38-12.68,6.41-4.79,2.3-8.49,6.23-12.44,9.68a34.43,34.43,0,0,1-6.44,4.62,62.58,62.58,0,0,1-8,3.39,92.34,92.34,0,0,0-15.5,7.43c-9.78,5.9-18.87,12.85-29.66,16.86-5.61,2.09-11.11,4.09-16.22,7.27-4.81,3-9.24,6.53-13.75,9.94a107.92,107.92,0,0,1-16.5,10.47c-6.61,3.35-13.28,6.58-19.92,9.86-1.73.85-.21,3.44,1.51,2.59Z" transform="translate(323.78)"/><ellipse class="cls-3" cx="481.84" cy="552.31" rx="19.7" ry="7.15"/><rect class="cls-3" x="462.14" y="547.89" width="39.4" height="4.42"/><ellipse class="cls-4" cx="481.84" cy="547.89" rx="19.7" ry="7.15"/><ellipse class="cls-3" cx="481.84" cy="547.82" rx="9.23" ry="3.35"/><rect class="cls-3" x="472.61" y="510.09" width="18.46" height="37.73"/><ellipse class="cls-4" cx="481.84" cy="510.09" rx="9.23" ry="3.35"/><ellipse class="cls-3" cx="386.61" cy="495.03" rx="19.7" ry="7.15"/><rect class="cls-3" x="366.91" y="490.61" width="39.4" height="4.42"/><ellipse class="cls-4" cx="386.61" cy="490.61" rx="19.7" ry="7.15"/><ellipse class="cls-3" cx="386.61" cy="490.54" rx="9.23" ry="3.35"/><rect class="cls-3" x="377.38" y="452.81" width="18.46" height="37.73"/><ellipse class="cls-4" cx="386.61" cy="452.81" rx="9.23" ry="3.35"/><ellipse class="cls-3" cx="899.23" cy="308.23" rx="19.7" ry="7.15"/><rect class="cls-3" x="879.53" y="303.82" width="39.4" height="4.42"/><ellipse class="cls-4" cx="899.23" cy="303.82" rx="19.7" ry="7.15"/><ellipse class="cls-3" cx="899.23" cy="303.75" rx="9.23" ry="3.35"/><rect class="cls-3" x="890" y="266.01" width="18.46" height="37.73"/><ellipse class="cls-4" cx="899.23" cy="266.01" rx="9.23" ry="3.35"/><polygon class="cls-5" points="637.59 442.67 637.59 261.06 519.63 192.96 519.63 374.57 637.59 442.67"/><polygon class="cls-6" points="519.63 192.96 797.39 32.6 914.85 97.12 637.59 261.06 519.63 192.96"/><polygon class="cls-2" points="637.59 261.06 914.85 97.12 914.85 282.13 637.59 442.67 637.59 261.06"/><polygon class="cls-7" points="651.9 274.42 651.9 421.45 906.74 275.88 906.74 127.29 651.9 274.42"/><polygon class="cls-8" points="772.34 298.7 772.34 272.62 780.09 268.13 780.09 294.23 772.34 298.7"/><polygon class="cls-8" points="796.03 285.18 796.03 259.1 803.79 254.61 803.79 280.71 796.03 285.18"/><line class="cls-9" x1="788.78" y1="195.56" x2="788.78" y2="342.7"/><polygon class="cls-5" points="481.33 533.1 481.32 351.49 363.36 283.38 363.37 465 481.33 533.1"/><polygon class="cls-6" points="363.36 283.38 520.65 192.58 638.61 260.68 481.32 351.49 363.36 283.38"/><polygon class="cls-2" points="481.32 351.49 638.61 260.68 638.61 442.29 481.32 533.1 481.32 351.49"/><ellipse class="cls-3" cx="743.25" cy="92.5" rx="20.11" ry="7.3"/><rect class="cls-3" x="723.15" y="37.79" width="40.21" height="54.71"/><ellipse class="cls-4" cx="743.25" cy="37.79" rx="20.11" ry="7.3"/><ellipse class="cls-3" cx="789.78" cy="62.01" rx="20.11" ry="7.3"/><rect class="cls-3" x="769.67" y="7.3" width="40.21" height="54.71"/><ellipse class="cls-4" cx="789.78" cy="7.3" rx="20.11" ry="7.3"/><ellipse class="cls-3" cx="633.71" cy="604.71" rx="19.7" ry="7.15"/><rect class="cls-3" x="614.01" y="600.3" width="39.4" height="4.42"/><ellipse class="cls-4" cx="633.71" cy="600.3" rx="19.7" ry="7.15"/><ellipse class="cls-3" cx="633.71" cy="600.23" rx="9.23" ry="3.35"/><rect class="cls-3" x="624.48" y="562.5" width="18.46" height="37.73"/><ellipse class="cls-4" cx="633.71" cy="562.5" rx="9.23" ry="3.35"/><ellipse class="cls-3" cx="771.98" cy="522.85" rx="19.7" ry="7.15"/><rect class="cls-3" x="752.28" y="518.44" width="39.4" height="4.42"/><ellipse class="cls-4" cx="771.98" cy="518.44" rx="19.7" ry="7.15"/><ellipse class="cls-3" cx="771.98" cy="518.37" rx="9.23" ry="3.35"/><rect class="cls-3" x="762.75" y="480.63" width="18.46" height="37.73"/><ellipse class="cls-4" cx="771.98" cy="480.63" rx="9.23" ry="3.35"/><rect class="cls-2" x="785.88" y="176.51" width="5.8" height="168.35"/><polygon class="cls-2" points="632.49 400.43 789.78 309.62 789.79 491.23 632.5 582.03 632.49 400.43"/><polygon class="cls-7" points="633.3 399.1 790.59 308.3 790.59 489.91 633.31 580.71 633.3 399.1"/><polygon class="cls-5" points="632.5 582.03 632.49 400.43 514.53 332.32 514.54 513.93 632.5 582.03"/><polygon class="cls-6" points="514.53 332.32 671.82 241.52 789.78 309.62 632.54 400.45 514.53 332.32"/><polygon class="cls-7" points="646.81 413.78 646.8 560.82 779.32 485.12 778.52 337.74 646.81 413.78"/><polygon class="cls-8" points="703.38 472.47 703.38 446.38 711.14 441.89 711.14 467.99 703.38 472.47"/><polygon class="cls-8" points="724.66 461.36 724.66 435.27 732.41 430.78 732.41 456.88 724.66 461.36"/><rect class="cls-2" x="716.68" y="361.65" width="5.8" height="168.35"/><polygon class="cls-10" points="656.64 157.65 710.57 127.19 710.57 30.11 656.29 60.98 656.64 157.65"/><polygon class="cls-11" points="632.07 145.07 656.64 158.42 656.29 61.74 632.07 47.76 632.07 145.07"/><polygon class="cls-12" points="656.29 61.74 632.07 47.76 685.22 16.75 710.57 30.11 656.29 61.74"/><polygon class="cls-8" points="635.46 168.72 654.87 157.46 653.63 63.94 635.12 74.72 635.46 168.72"/><polygon class="cls-8" points="614.15 157.35 635.46 168.72 635.12 74.72 614.15 62.61 614.15 157.35"/><polygon class="cls-8" points="635.12 74.72 614.15 62.61 632.88 52.24 653.63 63.94 635.12 74.72"/><polygon class="cls-10" points="597.47 192.99 652.2 160.83 650.76 65.75 597.12 96.96 597.47 192.99"/><polygon class="cls-11" points="572.9 179.53 597.47 192.99 597.12 96.96 572.9 82.97 572.9 179.53"/><polygon class="cls-12" points="597.1 97.02 572.9 82.97 626.79 52.24 650.76 65.75 597.1 97.02"/><polygon class="cls-10" points="397.1 299.35 489.77 245.86 489.77 192.79 396.91 245.96 397.1 299.35"/><polygon class="cls-11" points="383.54 291.98 397.1 299.35 396.91 245.96 383.54 238.24 383.54 291.98"/><polygon class="cls-12" points="396.91 245.96 383.54 238.24 475.25 185.71 489.77 192.79 396.91 245.96"/><polygon class="cls-13" points="369.89 283.07 395.94 267.59 395.1 234.1 369.76 248.87 369.89 283.07"/><polygon class="cls-13" points="359.14 277.23 369.89 283.07 369.76 248.87 358.79 242.53 359.14 277.23"/><polygon class="cls-13" points="369.76 248.87 358.79 242.53 384.89 228.07 395.1 234.1 369.76 248.87"/><polygon class="cls-10" points="355.81 281.97 399.66 255.92 398.25 199.55 355.6 224.4 355.81 281.97"/><polygon class="cls-11" points="337.72 272.13 355.81 281.97 355.6 224.4 337.14 213.73 337.72 272.13"/><polygon class="cls-12" points="355.6 224.4 337.14 213.73 381.06 189.4 398.25 199.55 355.6 224.4"/><polygon class="cls-8" points="359.66 225.45 359.31 264.87 396.67 243.75 395.94 204.5 359.66 225.45"/><polygon class="cls-14" points="369.89 371.61 768.52 141.84 722.55 115.32 323.78 345.53 369.89 371.61"/><polygon class="cls-15" points="768.52 150.09 768.52 141.47 369.89 371.61 369.76 380.02 768.52 150.09"/><polygon class="cls-3" points="369.76 380.02 323.78 353.48 323.78 345.53 369.89 371.61 369.76 380.02"/><polygon class="cls-15" points="326.48 344.01 372.11 370.35 377.41 367.29 331.69 341 326.48 344.01"/><polygon class="cls-15" points="335.96 338.52 381.59 364.87 386.9 361.8 341.17 335.52 335.96 338.52"/><polygon class="cls-15" points="345.45 333.04 391.08 359.38 396.38 356.32 350.66 330.04 345.45 333.04"/><polygon class="cls-15" points="354.94 327.56 400.56 353.9 405.87 350.84 360.15 324.56 354.94 327.56"/><polygon class="cls-15" points="364.43 322.08 410.05 348.42 415.36 345.36 369.63 319.07 364.43 322.08"/><polygon class="cls-15" points="373.91 316.6 419.54 342.94 424.85 339.88 379.12 313.59 373.91 316.6"/><polygon class="cls-15" points="383.4 311.12 429.02 337.46 434.33 334.39 388.61 308.11 383.4 311.12"/><polygon class="cls-15" points="392.89 305.63 438.51 331.98 443.82 328.91 398.09 302.63 392.89 305.63"/><polygon class="cls-15" points="402.37 300.15 448 326.5 453.31 323.43 407.58 297.15 402.37 300.15"/><polygon class="cls-15" points="411.86 294.67 457.49 321.01 462.79 317.95 417.07 291.67 411.86 294.67"/><polygon class="cls-15" points="421.35 289.19 466.97 315.53 472.28 312.47 426.55 286.18 421.35 289.19"/><polygon class="cls-15" points="430.83 283.71 476.46 310.05 481.77 306.99 436.04 280.7 430.83 283.71"/><polygon class="cls-15" points="440.32 278.23 485.95 304.57 491.25 301.5 445.53 275.22 440.32 278.23"/><polygon class="cls-15" points="449.81 272.75 495.43 299.09 500.74 296.02 455.01 269.74 449.81 272.75"/><polygon class="cls-15" points="459.29 267.26 504.92 293.61 510.23 290.54 464.5 264.26 459.29 267.26"/><polygon class="cls-15" points="468.78 261.78 514.41 288.12 519.71 285.06 473.99 258.77 468.78 261.78"/><polygon class="cls-15" points="478.27 256.3 523.89 282.64 529.2 279.58 483.47 253.29 478.27 256.3"/><polygon class="cls-15" points="487.75 250.82 533.38 277.16 538.69 274.1 492.96 247.81 487.75 250.82"/><polygon class="cls-15" points="497.24 245.34 542.87 271.68 548.17 268.62 502.45 242.33 497.24 245.34"/><polygon class="cls-15" points="506.73 239.85 552.35 266.2 557.66 263.13 511.94 236.85 506.73 239.85"/><polygon class="cls-15" points="516.21 234.37 561.84 260.71 567.15 257.65 521.42 231.37 516.21 234.37"/><polygon class="cls-15" points="525.7 228.89 571.33 255.23 576.63 252.17 530.91 225.88 525.7 228.89"/><polygon class="cls-15" points="535.19 223.41 580.81 249.75 586.12 246.69 540.39 220.4 535.19 223.41"/><polygon class="cls-15" points="544.67 217.93 590.3 244.27 595.61 241.21 549.88 214.92 544.67 217.93"/><polygon class="cls-15" points="554.16 212.45 599.79 238.79 605.09 235.72 559.37 209.44 554.16 212.45"/><polygon class="cls-15" points="563.65 206.97 609.27 233.31 614.58 230.24 568.86 203.96 563.65 206.97"/><polygon class="cls-15" points="573.13 201.48 618.76 227.82 624.07 224.76 578.34 198.48 573.13 201.48"/><polygon class="cls-15" points="582.62 196 628.25 222.34 633.55 219.28 587.83 193 582.62 196"/><polygon class="cls-15" points="592.11 190.52 637.73 216.86 643.04 213.8 597.32 187.51 592.11 190.52"/><polygon class="cls-15" points="601.6 185.04 647.22 211.38 652.53 208.32 606.8 182.03 601.6 185.04"/><polygon class="cls-15" points="611.08 179.56 656.71 205.9 662.01 202.84 616.29 176.55 611.08 179.56"/><polygon class="cls-15" points="620.57 174.07 666.19 200.42 671.5 197.35 625.78 171.07 620.57 174.07"/><polygon class="cls-15" points="630.05 168.59 675.68 194.94 680.99 191.87 635.26 165.59 630.05 168.59"/><polygon class="cls-15" points="639.54 163.11 685.17 189.45 690.48 186.39 644.75 160.1 639.54 163.11"/><polygon class="cls-15" points="649.03 157.63 694.65 183.97 699.96 180.91 654.24 154.62 649.03 157.63"/><polygon class="cls-15" points="658.51 152.15 704.14 178.49 709.45 175.43 663.72 149.14 658.51 152.15"/><polygon class="cls-15" points="668 146.67 713.63 173.01 718.93 169.94 673.21 143.66 668 146.67"/><polygon class="cls-15" points="677.49 141.19 723.12 167.53 728.42 164.46 682.7 138.18 677.49 141.19"/><polygon class="cls-15" points="686.98 135.7 732.6 162.04 737.91 158.98 692.18 132.7 686.98 135.7"/><polygon class="cls-15" points="696.46 130.22 742.09 156.56 747.39 153.5 701.67 127.22 696.46 130.22"/><polygon class="cls-15" points="705.95 124.74 751.58 151.08 756.88 148.02 711.16 121.73 705.95 124.74"/><polygon class="cls-15" points="715.44 119.26 761.06 145.6 766.37 142.54 720.64 116.25 715.44 119.26"/><line class="cls-1" x1="740.9" y1="130.93" x2="569.53" y2="230.04"/><g class="cls-16"><polygon class="cls-15" points="0 485.04 117.01 552.6 127.92 546.29 10.66 478.89 0 485.04"/><line class="cls-15" x1="109.02" y1="421.83" x2="98.35" y2="427.98"/><line class="cls-15" x1="224.17" y1="355.14" x2="213.51" y2="361.3"/><line class="cls-15" x1="240.43" y1="345.82" x2="229.77" y2="351.97"/><line class="cls-15" x1="346.78" y1="419.53" x2="357.69" y2="413.22"/><line class="cls-15" x1="256.7" y1="336.49" x2="246.03" y2="342.65"/><line class="cls-15" x1="363.04" y1="410.2" x2="373.96" y2="403.9"/><line class="cls-15" x1="379.31" y1="400.88" x2="390.22" y2="394.58"/><line class="cls-15" x1="272.96" y1="327.17" x2="262.3" y2="333.32"/><polygon class="cls-15" points="278.56 324 395.57 391.56 406.49 385.25 289.23 317.84 278.56 324"/><polygon class="cls-15" points="294.83 314.68 411.83 382.23 422.75 375.93 305.49 308.52 294.83 314.68"/><polygon class="cls-15" points="311.09 305.35 428.1 372.9 439.01 366.6 321.75 299.19 311.09 305.35"/></g><ellipse class="cls-17" cx="561.81" cy="320.88" rx="26.37" ry="9.57"/><rect class="cls-17" x="535.44" y="249.14" width="52.73" height="71.74"/><ellipse class="cls-4" cx="561.81" cy="249.14" rx="26.37" ry="9.57"/><ellipse class="cls-3" cx="620.78" cy="353.07" rx="38.71" ry="14.05"/><rect class="cls-3" x="582.07" y="247.73" width="77.43" height="105.34"/><ellipse class="cls-4" cx="620.78" cy="247.73" rx="38.71" ry="14.05"/><polyline class="cls-17" points="510.37 309.67 510.37 114.86 523 114.86 523 309.67"/><path class="cls-13" d="M181.84,160.8a11.57,11.57,0,0,1,5.23-9.07c2.9-1.67,5.24-.31,5.24,3a11.56,11.56,0,0,1-5.24,9.07" transform="translate(323.78)"/><path class="cls-8" d="M183.37,161.69a11.56,11.56,0,0,1,5.24-9.07c2.89-1.67,5.23-.32,5.23,3a11.57,11.57,0,0,1-5.23,9.07" transform="translate(323.78)"/><polyline class="cls-18" points="508.81 165.15 516.13 152.28 514.45 151.31 507.01 164.11"/><polyline class="cls-10" points="498.17 177.12 539.73 153.13 539.72 80.48 497.91 104.84 498.17 177.12"/><polyline class="cls-11" points="498.17 177.12 497.91 104.84 489.35 99.9 489.35 172.33"/><polygon class="cls-12" points="497.91 104.84 489.35 99.9 531.28 75.49 539.72 80.48 497.91 104.84"/><polygon class="cls-8" points="499.8 128.35 499.99 106.87 518.31 96.3 518.31 117.67 499.8 128.35"/><polygon class="cls-8" points="520.1 116.75 520.29 95.27 538.61 84.69 538.61 106.06 520.1 116.75"/><polygon class="cls-8" points="499.8 151.79 499.99 130.31 518.31 119.74 518.31 141.11 499.8 151.79"/><polygon class="cls-8" points="520.1 140.19 520.29 118.71 538.61 108.13 538.61 129.5 520.1 140.19"/><polygon class="cls-19" points="536.35 139.34 534.67 138.37 527.23 151.17 529.02 152.21 536.35 139.34"/><ellipse class="cls-13" cx="207.29" cy="144.84" rx="7.41" ry="4.28" transform="translate(301.99 251.94) rotate(-60)"/><ellipse class="cls-8" cx="208.82" cy="145.73" rx="7.41" ry="4.28" transform="translate(301.99 253.71) rotate(-60)"/><polygon class="cls-19" points="516.9 149.58 515.22 148.61 507.78 161.41 509.57 162.45 516.9 149.58"/><ellipse class="cls-13" cx="187.84" cy="155.08" rx="7.41" ry="4.28" transform="translate(283.39 240.21) rotate(-60)"/><ellipse class="cls-8" cx="189.37" cy="155.97" rx="7.41" ry="4.28" transform="translate(283.39 241.98) rotate(-60)"/><ellipse class="cls-17" cx="516.69" cy="309.67" rx="6.31" ry="2.53"/><polygon class="cls-14" points="737.61 158.48 921.45 52.34 875.48 25.82 691.66 131.95 737.61 158.48"/><polygon class="cls-15" points="921.44 60.59 921.44 51.98 737.6 158.11 737.6 166.6 921.44 60.59"/><polygon class="cls-15" points="696.99 128.87 742.62 155.22 747.92 152.15 702.2 125.87 696.99 128.87"/><polygon class="cls-15" points="706.01 123.66 751.64 150 756.94 146.94 711.22 120.65 706.01 123.66"/><polygon class="cls-15" points="715.03 118.44 760.66 144.78 765.96 141.72 720.24 115.43 715.03 118.44"/><polygon class="cls-15" points="724.05 113.22 769.67 139.57 774.98 136.5 729.26 110.22 724.05 113.22"/><polygon class="cls-15" points="733.07 108.01 778.69 134.35 784 131.29 738.28 105 733.07 108.01"/><polygon class="cls-15" points="742.09 102.79 787.71 129.13 793.02 126.07 747.3 99.78 742.09 102.79"/><polygon class="cls-15" points="751.11 97.58 796.73 123.92 802.04 120.85 756.32 94.57 751.11 97.58"/><polygon class="cls-15" points="760.13 92.36 805.75 118.7 811.06 115.64 765.34 89.35 760.13 92.36"/><polygon class="cls-15" points="769.15 87.14 814.77 113.48 820.08 110.42 774.35 84.14 769.15 87.14"/><polygon class="cls-15" points="778.17 81.92 823.79 108.27 829.1 105.2 783.37 78.92 778.17 81.92"/><polygon class="cls-15" points="787.18 76.71 832.81 103.05 838.12 99.99 792.39 73.7 787.18 76.71"/><polygon class="cls-15" points="796.21 71.49 841.83 97.83 847.14 94.77 801.41 68.49 796.21 71.49"/><polygon class="cls-15" points="805.22 66.28 850.85 92.62 856.16 89.55 810.43 63.27 805.22 66.28"/><polygon class="cls-15" points="814.24 61.06 859.87 87.4 865.18 84.34 819.45 58.05 814.24 61.06"/><polygon class="cls-15" points="823.26 55.84 868.89 82.19 874.2 79.12 828.47 52.84 823.26 55.84"/><polygon class="cls-15" points="832.28 50.63 877.91 76.97 883.22 73.91 837.49 47.62 832.28 50.63"/><polygon class="cls-15" points="841.3 45.41 886.93 71.75 892.24 68.69 846.51 42.4 841.3 45.41"/><polygon class="cls-15" points="850.32 40.19 895.95 66.54 901.25 63.47 855.53 37.19 850.32 40.19"/><polygon class="cls-15" points="859.34 34.98 904.97 61.32 910.27 58.26 864.55 31.97 859.34 34.98"/><polygon class="cls-15" points="868.36 29.76 913.99 56.1 919.29 53.04 873.57 26.75 868.36 29.76"/><polygon class="cls-10" points="744.32 204.42 799.91 172.33 799.91 75.15 743.97 107.75 744.32 204.42"/><polygon class="cls-11" points="719.76 191.07 744.32 204.42 743.97 107.75 719.76 93.76 719.76 191.07"/><polygon class="cls-12" points="743.97 107.75 719.76 93.76 777.37 61.84 799.91 75.15 743.97 107.75"/></g></g></svg>