<svg xmlns="http://www.w3.org/2000/svg" viewBox="0 0 734.74 898.08"><defs><style>.cls-1{fill:#ddd;}.cls-2{fill:#b2b2b2;}.cls-3{fill:#eaeaea;}.cls-4{fill:#b7b7b7;}.cls-5{fill:#e8e8e8;}.cls-6{fill:#f9f9f9;}.cls-7{fill:#f4f4f4;}.cls-8{fill:#efefef;}.cls-9{fill:#515151;}.cls-10,.cls-14{fill:none;}.cls-10{stroke:#5e5e5e;stroke-miterlimit:10;}.cls-11{fill:#282828;}.cls-12{fill:#247019;}.cls-13{fill:#03190f;}</style></defs><g id="レイヤー_2" data-name="レイヤー 2"><g id="parts"><polygon class="cls-1" points="134.66 801.86 384.56 657.58 384.56 30.08 132.4 177 134.66 801.86"/><polygon class="cls-2" points="80.78 770.71 134.66 801.86 132.4 177 80.78 147.19 80.78 770.71"/><polygon class="cls-3" points="132.4 177 80.78 147.19 333.62 0 384.56 30.08 132.4 177"/><ellipse class="cls-4" cx="273.91" cy="890.45" rx="21" ry="7.63"/><rect class="cls-4" x="252.92" y="885.74" width="41.99" height="4.71"/><ellipse class="cls-5" cx="273.91" cy="885.74" rx="21" ry="7.63"/><ellipse class="cls-4" cx="273.91" cy="885.67" rx="9.84" ry="3.57"/><rect class="cls-4" x="264.07" y="845.44" width="19.68" height="40.23"/><ellipse class="cls-4" cx="713.74" cy="633.86" rx="21" ry="7.63"/><rect class="cls-4" x="692.74" y="629.15" width="41.99" height="4.71"/><ellipse class="cls-5" cx="713.74" cy="629.15" rx="21" ry="7.63"/><ellipse class="cls-4" cx="713.74" cy="629.08" rx="9.84" ry="3.57"/><rect class="cls-4" x="703.9" y="588.85" width="19.68" height="40.23"/><ellipse class="cls-5" cx="273.11" cy="828.62" rx="9.84" ry="3.57"/><ellipse class="cls-4" cx="171.59" cy="812.56" rx="21" ry="7.63"/><rect class="cls-4" x="150.59" y="807.85" width="41.99" height="4.71"/><ellipse class="cls-5" cx="171.59" cy="807.85" rx="21" ry="7.63"/><ellipse class="cls-4" cx="171.59" cy="807.78" rx="9.84" ry="3.57"/><rect class="cls-4" x="161.75" y="767.55" width="19.68" height="40.23"/><ellipse class="cls-5" cx="171.59" cy="767.55" rx="9.84" ry="3.57"/><ellipse class="cls-5" cx="718.07" cy="568.42" rx="9.84" ry="3.57"/><polygon class="cls-6" points="439.16 756.75 439.15 563.13 313.4 490.53 313.4 684.14 439.16 756.75"/><polygon class="cls-7" points="313.4 490.53 609.51 319.59 734.74 388.36 439.15 563.13 313.4 490.53"/><polygon class="cls-8" points="439.15 563.13 734.74 388.36 734.74 585.6 439.15 756.75 439.15 563.13"/><polygon class="cls-9" points="454.4 577.37 454.4 734.12 726.08 578.92 726.08 420.52 454.4 577.37"/><polygon class="cls-8" points="582.8 603.26 582.8 575.46 591.07 570.66 591.07 598.48 582.8 603.26"/><polygon class="cls-8" points="608.07 588.85 608.07 561.03 616.33 556.25 616.33 584.07 608.07 588.85"/><line class="cls-10" x1="600.33" y1="493.31" x2="600.33" y2="650.16"/><polygon class="cls-6" points="272.56 853.14 272.56 659.54 146.8 586.93 146.81 780.53 272.56 853.14"/><polygon class="cls-7" points="146.8 586.93 314.48 490.13 440.23 562.74 272.56 659.54 146.8 586.93"/><polygon class="cls-8" points="272.55 659.54 440.23 562.74 440.23 756.34 272.56 853.14 272.55 659.54"/><polygon class="cls-1" points="559.57 384.92 618.83 350.71 618.83 247.1 559.2 281.84 559.57 384.92"/><polygon class="cls-2" points="533.38 370.68 559.57 384.92 559.2 281.84 533.38 266.94 533.38 370.68"/><polygon class="cls-3" points="559.2 281.84 533.38 266.94 594.8 232.91 618.83 247.1 559.2 281.84"/><rect class="cls-8" x="597.24" y="473" width="6.19" height="179.47"/><polygon class="cls-1" points="448.83 452.89 506.34 420.42 506.34 316.92 448.47 349.83 448.83 452.89"/><polygon class="cls-2" points="422.65 439.49 448.83 453.71 448.47 350.65 422.65 335.73 422.65 439.49"/><polygon class="cls-3" points="448.47 350.65 422.65 335.73 480.86 303.5 506.34 316.92 448.47 350.65"/><polygon class="cls-9" points="426.27 464.7 446.96 452.68 445.63 352.99 425.91 364.49 426.27 464.7"/><polygon class="cls-9" points="403.56 452.57 426.27 464.7 425.91 364.49 403.56 351.58 403.56 452.57"/><polygon class="cls-9" points="425.91 364.49 403.56 351.58 423.51 340.53 445.63 352.99 425.91 364.49"/><polygon class="cls-1" points="385.76 490.56 444.11 456.28 442.57 354.92 385.4 388.19 385.76 490.56"/><polygon class="cls-2" points="359.58 476.22 385.76 490.56 385.4 388.19 359.58 373.28 359.58 476.22"/><polygon class="cls-3" points="385.37 388.26 359.58 373.28 417.02 340.53 442.57 354.92 385.37 388.26"/><polygon class="cls-1" points="269.59 557.1 327.08 524.62 327.08 421.14 269.21 454.04 269.59 557.1"/><polygon class="cls-2" points="243.39 543.69 269.59 557.92 269.21 454.86 243.39 439.95 243.39 543.69"/><polygon class="cls-3" points="269.21 454.86 243.39 439.95 301.6 407.7 327.08 421.14 269.21 454.86"/><polygon class="cls-9" points="247.01 568.9 267.7 556.89 266.37 457.19 246.65 468.69 247.01 568.9"/><polygon class="cls-9" points="224.3 556.77 247.01 568.9 246.65 468.69 224.3 455.79 224.3 556.77"/><polygon class="cls-9" points="246.65 468.69 224.3 455.79 244.25 444.73 266.37 457.19 246.65 468.69"/><polygon class="cls-1" points="206.5 594.77 264.85 560.5 263.33 459.13 206.14 492.4 206.5 594.77"/><polygon class="cls-2" points="180.32 580.42 206.5 594.77 206.14 492.4 180.32 477.49 180.32 580.42"/><polygon class="cls-3" points="206.12 492.46 180.32 477.49 237.76 444.73 263.33 459.13 206.12 492.46"/><polygon class="cls-1" points="533.38 505.4 590.87 472.11 590.87 368.62 533 401.53 533.38 505.4"/><polygon class="cls-2" points="507.18 491.16 533.38 505.4 533 402.33 507.18 387.43 507.18 491.16"/><polygon class="cls-3" points="533 402.33 507.18 387.43 565.39 355.19 590.87 368.62 533 402.33"/><polygon class="cls-9" points="510.81 516.39 531.49 504.38 530.17 404.67 510.44 416.18 510.81 516.39"/><polygon class="cls-9" points="488.09 504.26 510.81 516.39 510.44 416.18 488.09 403.26 488.09 504.26"/><polygon class="cls-9" points="510.44 416.18 488.09 403.26 508.06 392.21 530.17 404.67 510.44 416.18"/><polygon class="cls-1" points="470.3 542.25 528.66 507.97 527.12 406.62 469.93 439.88 470.3 542.25"/><polygon class="cls-2" points="444.11 527.9 470.3 542.25 469.93 439.88 444.11 424.96 444.11 527.9"/><polygon class="cls-3" points="469.91 439.95 444.11 424.96 501.56 392.21 527.12 406.62 469.91 439.95"/><polygon class="cls-1" points="354.32 607.71 411.82 574.41 411.82 470.92 353.95 503.83 354.32 607.71"/><polygon class="cls-2" points="328.13 593.48 354.32 607.71 353.95 504.64 328.13 489.73 328.13 593.48"/><polygon class="cls-9" points="331.74 618.69 352.43 606.67 351.12 506.98 331.39 518.48 331.74 618.69"/><polygon class="cls-9" points="309.03 606.56 331.74 618.69 331.39 518.48 309.03 505.57 309.03 606.56"/><polygon class="cls-9" points="331.39 518.48 309.03 505.57 328.99 494.51 351.12 506.98 331.39 518.48"/><polygon class="cls-1" points="291.25 644.55 349.59 610.27 348.06 508.92 290.88 542.18 291.25 644.55"/><polygon class="cls-2" points="265.06 630.21 291.25 644.55 290.88 542.18 265.06 527.27 265.06 630.21"/><polygon class="cls-3" points="290.85 542.25 265.06 527.27 322.51 494.51 348.06 508.92 290.85 542.25"/><polygon class="cls-3" points="353.95 504.64 328.13 489.73 386.34 457.49 411.82 470.92 353.95 504.64"/><polygon class="cls-1" points="653.19 428.99 712.44 394.77 712.44 291.18 652.81 325.92 653.19 428.99"/><polygon class="cls-2" points="626.99 414.75 653.19 428.99 652.81 325.92 626.99 311.01 626.99 414.75"/><polygon class="cls-3" points="652.81 325.92 626.99 311.01 688.42 276.99 712.44 291.18 652.81 325.92"/><ellipse class="cls-11" cx="116.96" cy="426.67" rx="4.85" ry="9.7" transform="translate(-191.91 109.93) rotate(-28.95)"/><polygon class="cls-11" points="121.7 435.13 62.51 467.87 52.54 451.2 112.3 418.14 121.7 435.13"/><ellipse class="cls-4" cx="55.73" cy="455.15" rx="4.85" ry="9.7" transform="translate(-213.35 83.85) rotate(-28.95)"/><ellipse class="cls-11" cx="52.54" cy="460.99" rx="9.7" ry="4.85"/><polygon class="cls-11" points="42.84 460.99 42.84 393.35 62.24 392.69 62.24 460.99 42.84 460.99"/><ellipse class="cls-4" cx="52.54" cy="392.69" rx="9.7" ry="4.85"/><path class="cls-11" d="M42.87,461.38s1.25,6.53,6.81,8.34,12.83-1.85,12.83-1.85l-1.06-9.11Z"/><polygon class="cls-1" points="29.46 429.16 95.66 390.94 95.66 275.2 29.03 314.02 29.46 429.16"/><polygon class="cls-2" points="1.58 414.02 29.46 429.16 29.03 314.02 0 297.25 1.58 414.02"/><polygon class="cls-3" points="29.03 314.02 0 297.25 67.81 258.76 95.66 275.2 29.03 314.02"/><polygon class="cls-9" points="32.05 351.47 32.35 317.26 61.53 300.4 61.53 334.45 32.05 351.47"/><polygon class="cls-9" points="64.38 332.98 64.69 298.76 93.87 281.91 93.87 315.96 64.38 332.98"/><polygon class="cls-9" points="32.05 388.81 32.35 354.6 61.53 337.75 61.53 371.79 32.05 388.81"/><polygon class="cls-9" points="64.38 370.32 64.69 336.1 93.87 319.25 93.87 353.3 64.38 370.32"/><polygon class="cls-12" points="58.08 389.58 55.39 388.03 43.54 408.42 46.41 410.09 58.08 389.58"/><ellipse class="cls-4" cx="49.66" cy="398.34" rx="11.8" ry="6.81" transform="translate(-320.15 242.18) rotate(-60)"/><ellipse class="cls-9" cx="52.1" cy="399.76" rx="11.8" ry="6.81" transform="translate(-320.15 245) rotate(-60)"/><ellipse class="cls-4" cx="78.85" cy="381.65" rx="11.8" ry="6.81" transform="translate(-291.09 259.11) rotate(-60)"/><ellipse class="cls-9" cx="81.29" cy="383.06" rx="11.8" ry="6.81" transform="translate(-291.1 261.93) rotate(-60)"/><polygon class="cls-9" points="295.56 667.15 295.55 826.49 439.16 744.45 438.29 584.75 295.56 667.15"/><polygon class="cls-8" points="354.36 737.41 354.36 709.61 362.62 704.83 362.62 732.65 354.36 737.41"/><polygon class="cls-8" points="379.61 723 379.61 695.2 387.88 690.42 387.88 718.24 379.61 723"/><path class="cls-13" d="M400.45,473.54a23.68,23.68,0,0,1,30.49,3.27c4.05,4.3,5.77,9.87,7.05,15.51,1.41,5.91,2.54,11.73,5.3,17.16a78.25,78.25,0,0,0,12.23,16.58c1.82,2,4.81-1,3-3a74.58,74.58,0,0,1-11.57-15.72c-2.94-5.81-3.85-12.22-5.42-18.48a32.68,32.68,0,0,0-8.32-15.77A27.71,27.71,0,0,0,418,465.49a28.05,28.05,0,0,0-19.74,4.44c-2.26,1.51-.14,5.17,2.13,3.65Z"/><polygon class="cls-8" points="374.98 786.63 368.79 786.63 368.79 620.63 374.98 617.48 374.98 786.63"/><path class="cls-13" d="M576.12,373.17c.65-1.1,2-1.41,3.19-1.66,1.7-.47,3.42-.89,5.14-1.3A56.6,56.6,0,0,1,595,368.59c5.73-.24,12,.91,16.37,4.85,4.16,3.71,5.8,9.15,7.22,14.35s2.82,11,6.08,15.71a27.24,27.24,0,0,0,15.37,10.76,2.13,2.13,0,0,0,1.13-4.09,22.72,22.72,0,0,1-14-10.6c-2.93-5.14-3.85-11.13-5.64-16.71S617,372,612.05,368.62C606.73,365,600,364,593.72,364.39a71.31,71.31,0,0,0-12,2.1c-3.29.8-7.36,1.32-9.25,4.51a2.11,2.11,0,0,0,3.65,2.13Z"/><path class="cls-13" d="M483,315.85c3.41.1,6.17-1.66,9.08-3.21a13.11,13.11,0,0,1,8.32-1.6c5.73.82,10.95,4.85,14.1,9.61,3.82,5.73,5.42,12.69,6.92,19.27,1.41,6.39,2.82,12.78,5.64,18.74s7.22,11.52,13.37,14.37c2.45,1.13,4.61-2.51,2.14-3.65-12.28-5.64-14.76-20.59-17.5-32.36-1.55-6.69-3.44-13.72-7.53-19.35a26.61,26.61,0,0,0-14.62-10.42,17.39,17.39,0,0,0-9.8.28c-3.38,1.17-6.46,4.23-10.17,4.09-2.72-.07-2.72,4.16,0,4.23Z"/><path class="cls-13" d="M310.48,417.19c6.11-3.82,13.42-4.12,20.43-4.07,3.67,0,7.49-.19,10.75,1.77a24.49,24.49,0,0,1,6.71,6.52c7.22,9.67,9.29,22.07,12.69,33.37a71.26,71.26,0,0,0,8.09,18.83c1.48,2.27,5.15.15,3.65-2.14-7.15-11-8.95-24.26-13.07-36.48a55.32,55.32,0,0,0-8.6-16.92,27.93,27.93,0,0,0-7.32-6.81c-3.41-2.06-7.22-2.27-11.09-2.33-8.32-.13-17.08.08-24.36,4.62-2.29,1.41-.18,5.11,2.15,3.66Z"/><polygon class="cls-3" points="328.13 489.73 386.34 457.49 411.82 470.92 353.95 504.64 328.13 489.73"/><polygon class="cls-3" points="301.6 407.7 327.08 421.14 269.21 454.86 243.39 439.95 301.6 407.7"/><polygon class="cls-3" points="448.47 349.83 506.34 316.92 480.86 303.5 422.65 335.73 448.47 349.83"/><polygon class="cls-3" points="507.18 387.43 565.39 355.19 590.87 368.62 533 402.33 507.18 387.43"/><polygon class="cls-9" points="146.8 384.87 258.49 320.41 258.49 126.99 146.8 191.46 146.8 384.87"/><polygon class="cls-9" points="267.7 316.01 379.38 251.53 379.38 58.11 267.7 122.58 267.7 316.01"/><polygon class="cls-7" points="165.91 248.47 165.91 278.33 191.78 263.4 191.77 233.53 165.91 248.47"/><polygon class="cls-7" points="193.21 232.66 193.21 262.52 219.07 247.59 219.07 217.73 193.21 232.66"/><polygon class="cls-7" points="220.49 216.85 220.49 246.72 246.36 231.78 246.36 201.92 220.49 216.85"/><polygon class="cls-7" points="283.31 143.04 283.31 172.9 309.17 157.97 309.17 128.1 283.31 143.04"/><polygon class="cls-7" points="337.89 169.43 337.89 199.3 363.76 184.38 363.75 154.5 337.89 169.43"/><polygon class="cls-7" points="283.31 254.59 283.31 284.45 309.17 269.52 309.17 239.65 283.31 254.59"/><polygon class="cls-7" points="337.89 222.97 337.89 252.84 363.76 237.9 363.75 208.04 337.89 222.97"/><line class="cls-14" x1="350.84" y1="118.9" x2="296.24" y2="150.51"/><polygon class="cls-7" points="165.91 216.85 165.91 246.72 191.78 231.78 191.77 201.92 165.91 216.85"/><polygon class="cls-7" points="193.21 201.04 193.21 230.91 219.07 215.98 219.07 186.11 193.21 201.04"/><polygon class="cls-7" points="220.49 185.24 220.49 215.1 246.36 200.19 246.36 170.31 220.49 185.24"/><polygon class="cls-7" points="165.91 311.68 165.91 341.56 191.78 326.63 191.77 296.76 165.91 311.68"/><polygon class="cls-7" points="193.21 295.88 193.21 325.75 219.07 310.82 219.07 280.95 193.21 295.88"/><polygon class="cls-7" points="220.49 280.08 220.49 309.94 246.36 295.01 246.36 265.15 220.49 280.08"/><polygon class="cls-7" points="165.91 280.08 165.91 309.94 191.78 295.01 191.77 265.15 165.91 280.08"/><polygon class="cls-7" points="193.21 264.27 193.21 294.14 219.07 279.2 219.07 249.34 193.21 264.27"/><polygon class="cls-7" points="220.49 248.47 220.49 278.33 246.36 263.4 246.36 233.53 220.49 248.47"/></g></g></svg>