<svg xmlns="http://www.w3.org/2000/svg" xmlns:xlink="http://www.w3.org/1999/xlink" viewBox="0 0 577.52 604.96"><defs><style>.cls-1,.cls-28{fill:none;}.cls-2{fill:#b7b7b7;}.cls-3{fill:#e8e8e8;}.cls-4{fill:#f9f9f9;}.cls-5{fill:#efefef;}.cls-6{fill:#f4f4f4;}.cls-7{fill:#d1d1d1;}.cls-8{fill:#5e5e5e;}.cls-9{clip-path:url(#clip-path);}.cls-10{fill:#bc9e80;}.cls-11{fill:#dbbb96;}.cls-12{fill:#917963;}.cls-13{fill:#ccfffb;}.cls-14{fill:#dbfcf9;}.cls-15{fill:#05331e;}.cls-16{fill:#fff;}.cls-17{fill:#8f7743;}.cls-18{fill:#e3cb9d;}.cls-19{fill:#a0a0a0;}.cls-20{fill:#ddd;}.cls-21{fill:#b2b2b2;}.cls-22{fill:#eaeaea;}.cls-23{fill:#515151;}.cls-24{fill:#af2f2f;}.cls-25{fill:#e23d3d;}.cls-26{fill:#247019;}.cls-27{fill:#32b224;}.cls-28{stroke:#aaa;stroke-miterlimit:10;stroke-width:0.5px;}</style><clipPath id="clip-path" transform="translate(31.28)"><polyline class="cls-1" points="60.3 509.33 0 474.51 482.82 202.01 544.65 228.77"/></clipPath></defs><g id="レイヤー_2" data-name="レイヤー 2"><g id="レイヤー_3" data-name="レイヤー 3"><ellipse class="cls-2" cx="145.14" cy="600.97" rx="10.99" ry="3.99"/><rect class="cls-2" x="134.15" y="598.51" width="21.98" height="2.46"/><ellipse class="cls-3" cx="145.14" cy="598.51" rx="10.99" ry="3.99"/><ellipse class="cls-2" cx="145.14" cy="598.47" rx="5.15" ry="1.87"/><polygon class="cls-2" points="139.99 598.47 139.99 486.47 150.29 478.23 150.29 598.47 139.99 598.47"/><ellipse class="cls-2" cx="561.87" cy="365.77" rx="10.99" ry="3.99"/><rect class="cls-2" x="550.88" y="363.31" width="21.98" height="2.46"/><ellipse class="cls-3" cx="561.87" cy="363.31" rx="10.99" ry="3.99"/><ellipse class="cls-2" cx="561.87" cy="363.27" rx="5.15" ry="1.87"/><polygon class="cls-2" points="556.72 363.27 556.72 251.27 567.01 243.03 567.01 363.27 556.72 363.27"/><ellipse class="cls-2" cx="506.28" cy="346.31" rx="10.99" ry="3.99"/><rect class="cls-2" x="495.29" y="343.85" width="21.98" height="2.46"/><ellipse class="cls-3" cx="506.28" cy="343.85" rx="10.99" ry="3.99"/><ellipse class="cls-2" cx="506.28" cy="343.81" rx="5.15" ry="1.87"/><polygon class="cls-2" points="501.13 343.81 501.13 231.81 511.43 223.57 511.43 343.81 501.13 343.81"/><ellipse class="cls-2" cx="93.32" cy="574.04" rx="10.99" ry="3.99"/><rect class="cls-2" x="82.33" y="571.58" width="21.98" height="2.46"/><ellipse class="cls-3" cx="93.32" cy="571.58" rx="10.99" ry="3.99"/><ellipse class="cls-2" cx="93.32" cy="571.54" rx="5.15" ry="1.87"/><polygon class="cls-2" points="88.17 571.54 88.17 459.54 98.47 451.3 98.47 571.54 88.17 571.54"/><polygon class="cls-4" points="199.56 150.52 202.32 474.65 126.41 431.24 126.41 107.8 199.56 150.52"/><polygon class="cls-5" points="387.32 45.09 199.38 150.52 202.15 474.65 389.76 368.85 387.32 45.09"/><polygon class="cls-6" points="308.91 0 126.24 107.8 199.44 150.52 387.09 45.09 308.91 0"/><polygon class="cls-7" points="84.65 443.82 522.67 197.5 575.93 228.77 157.84 485.66 84.65 443.82"/><polygon class="cls-8" points="145.14 493.02 145.14 478.4 575.93 228.77 576.04 243.44 145.14 493.02"/><polygon class="cls-2" points="84.84 443.54 145.14 478.36 145.14 493.02 84.84 458.08 84.84 443.54"/><g class="cls-9"><polygon class="cls-8" points="0 470.45 84.81 519.41 92.72 514.84 7.73 465.99 0 470.45"/><polygon class="cls-8" points="71.28 429.1 156.09 478.06 164 473.49 79.01 424.63 71.28 429.1"/><polygon class="cls-8" points="83.23 422.17 168.03 471.13 175.95 466.56 90.96 417.7 83.23 422.17"/><polygon class="cls-8" points="95.17 415.24 179.98 464.2 187.89 459.63 102.9 410.77 95.17 415.24"/><polygon class="cls-8" points="107.12 408.31 191.93 457.27 199.84 452.7 114.85 403.85 107.12 408.31"/><polygon class="cls-8" points="119.06 401.38 203.87 450.34 211.78 445.77 126.79 396.92 119.06 401.38"/><polygon class="cls-8" points="131.01 394.45 215.81 443.41 223.73 438.84 138.74 389.99 131.01 394.45"/><polygon class="cls-8" points="142.96 387.52 227.76 436.48 235.67 431.91 150.68 383.06 142.96 387.52"/><polygon class="cls-8" points="154.74 380.76 239.55 429.73 247.46 425.16 162.47 376.3 154.74 380.76"/><polygon class="cls-8" points="166.53 374 251.34 422.97 259.25 418.4 174.26 369.54 166.53 374"/><polygon class="cls-8" points="178.32 367.25 263.12 416.21 271.04 411.64 186.05 362.78 178.32 367.25"/><polygon class="cls-8" points="190.11 360.49 274.91 409.45 282.82 404.88 197.84 356.03 190.11 360.49"/><polygon class="cls-8" points="201.9 353.73 286.7 402.69 294.61 398.12 209.62 349.27 201.9 353.73"/><polygon class="cls-8" points="213.68 346.97 298.49 395.93 306.4 391.36 221.41 342.51 213.68 346.97"/><polygon class="cls-8" points="225.47 340.21 310.28 389.17 318.19 384.61 233.2 335.75 225.47 340.21"/><polygon class="cls-8" points="237.26 333.45 322.06 382.42 329.98 377.85 244.99 328.99 237.26 333.45"/><polygon class="cls-8" points="249.05 326.7 333.85 375.66 341.76 371.09 256.77 322.23 249.05 326.7"/><polygon class="cls-8" points="260.83 319.94 345.64 368.9 353.55 364.33 268.56 315.48 260.83 319.94"/><polygon class="cls-8" points="272.62 313.18 357.43 362.14 365.34 357.57 280.35 308.72 272.62 313.18"/><polygon class="cls-8" points="284.41 306.42 369.22 355.38 377.13 350.81 292.14 301.96 284.41 306.42"/><polygon class="cls-8" points="296.2 299.66 381 348.62 388.92 344.06 303.93 295.2 296.2 299.66"/><polygon class="cls-8" points="307.99 292.9 392.79 341.87 400.7 337.3 315.71 288.44 307.99 292.9"/><polygon class="cls-8" points="319.77 286.14 404.58 335.11 412.49 330.54 327.5 281.68 319.77 286.14"/><polygon class="cls-8" points="331.56 279.39 416.37 328.35 424.28 323.78 339.29 274.93 331.56 279.39"/><polygon class="cls-8" points="343.35 272.63 428.15 321.59 436.07 317.02 351.08 268.17 343.35 272.63"/><polygon class="cls-8" points="355.14 265.87 439.94 314.83 447.86 310.26 362.87 261.41 355.14 265.87"/><polygon class="cls-8" points="366.93 259.11 451.73 308.07 459.64 303.5 374.65 254.65 366.93 259.11"/><polygon class="cls-8" points="378.71 252.35 463.52 301.31 471.43 296.75 386.44 247.89 378.71 252.35"/><polygon class="cls-8" points="390.5 245.59 475.31 294.56 483.22 289.99 398.23 241.13 390.5 245.59"/><polygon class="cls-8" points="402.29 238.84 487.1 287.8 495.01 283.23 410.02 234.37 402.29 238.84"/><polygon class="cls-8" points="414.08 232.08 498.88 281.04 506.8 276.47 421.81 227.62 414.08 232.08"/><polygon class="cls-8" points="425.87 225.32 510.67 274.28 518.58 269.71 433.6 220.86 425.87 225.32"/><polygon class="cls-8" points="437.65 218.56 522.46 267.52 530.37 262.95 445.38 214.1 437.65 218.56"/><polygon class="cls-8" points="449.44 211.8 534.25 260.76 542.16 256.19 457.17 207.34 449.44 211.8"/><polygon class="cls-8" points="461.23 205.04 546.03 254.01 553.95 249.44 468.96 200.58 461.23 205.04"/><polygon class="cls-8" points="473.02 198.28 557.82 247.25 565.74 242.68 480.75 193.82 473.02 198.28"/><polygon class="cls-8" points="484.81 191.53 569.61 240.49 577.52 235.92 492.54 187.06 484.81 191.53"/></g><polygon class="cls-10" points="554.85 232.51 497.64 265.53 496.57 221.29 554.85 187.64 554.85 232.51"/><polygon class="cls-11" points="457.71 198.86 458.35 242.78 497.64 265.53 496.57 221.29 457.71 198.86"/><polygon class="cls-11" points="351.23 264.3 389.62 286.46 332.05 319.7 293.66 297.54 351.23 264.3"/><polygon class="cls-10" points="351.24 265.46 351.77 306.71 387.57 286.54 351.24 265.46"/><polygon class="cls-12" points="351.24 265.46 295.27 297.54 332.05 318.37 351.77 306.71 351.24 265.46"/><ellipse class="cls-3" cx="349.61" cy="303.25" rx="7.94" ry="2.88"/><ellipse class="cls-13" cx="349.61" cy="324.84" rx="7.94" ry="2.88"/><path class="cls-13" d="M318.3,275.93v27.32h-7.91s-.33-11.42,1.52-14.53,3.54-5.9,3.73-8.63.28-4.16.28-4.16Z" transform="translate(31.28)"/><path class="cls-13" d="M318.29,275.93v27.32h8s.26-11.42-1.58-14.53-3.55-5.9-3.73-8.63-.28-4.16-.28-4.16Z" transform="translate(31.28)"/><path class="cls-4" d="M318.33,275.93v17.24h0s-8.23-1.34-6.39-4.45,3.55-5.9,3.73-8.63.28-4.16.28-4.16Z" transform="translate(31.28)"/><path class="cls-4" d="M318.32,275.93v17.24h0s8.22-1.34,6.38-4.45-3.55-5.9-3.73-8.63-.28-4.16-.28-4.16Z" transform="translate(31.28)"/><rect class="cls-13" x="341.67" y="303.25" width="15.88" height="21.6"/><path class="cls-13" d="M325.3,290.63c-.1-.35-.39-1.48-.39-1.48l-13.24.05-.35,3.33,7.41,2.13Z" transform="translate(31.28)"/><path class="cls-14" d="M325,289.52c0,1.36-3,2.47-6.8,2.47s-6.48-1.21-6.48-2.57,2.73-2.37,6.48-2.37S325,288.16,325,289.52Z" transform="translate(31.28)"/><path class="cls-15" d="M318.32,306.33c-4.38,0-7.93-1.29-7.93-2.88v8.3c0,1.59,3.55,2.88,7.93,2.88s7.94-1.29,7.94-2.88v-8.3C326.26,305,322.71,306.33,318.32,306.33Z" transform="translate(31.28)"/><ellipse class="cls-2" cx="349.62" cy="276.06" rx="3" ry="1.09"/><rect class="cls-2" x="346.61" y="275.38" width="6.01" height="0.67"/><ellipse class="cls-3" cx="349.62" cy="275.38" rx="3" ry="1.09"/><path class="cls-16" d="M316.65,277.05s-.92,8.82-1.65,10.28a13.26,13.26,0,0,0-1.46,3.9c-.16,1.17-.41,14.4-.41,14.4l1.2.31s-.29-12.77.44-15.16a33.26,33.26,0,0,0,1.51-3.68c.27-1.34,1.19-10,1.19-10Z" transform="translate(31.28)"/><ellipse class="cls-3" cx="362.89" cy="310.76" rx="7.94" ry="2.88"/><ellipse class="cls-13" cx="362.89" cy="332.36" rx="7.94" ry="2.88"/><path class="cls-13" d="M331.58,283.44v27.32h-7.91s-.32-11.41,1.52-14.52,3.54-5.91,3.73-8.64.28-4.16.28-4.16Z" transform="translate(31.28)"/><path class="cls-13" d="M331.57,283.44v27.32h8s.26-11.41-1.58-14.52-3.55-5.91-3.73-8.64-.28-4.16-.28-4.16Z" transform="translate(31.28)"/><path class="cls-4" d="M331.61,283.44v17.25h0s-8.23-1.34-6.39-4.45,3.55-5.91,3.73-8.64.28-4.16.28-4.16Z" transform="translate(31.28)"/><path class="cls-4" d="M331.6,283.44v17.25h0s8.22-1.34,6.38-4.45-3.55-5.91-3.73-8.64-.28-4.16-.28-4.16Z" transform="translate(31.28)"/><rect class="cls-13" x="354.95" y="310.76" width="15.88" height="21.6"/><path class="cls-13" d="M338.58,298.14c-.1-.34-.39-1.47-.39-1.47l-13.24,0-.34,3.33,7.4,2.14Z" transform="translate(31.28)"/><path class="cls-14" d="M338.23,297c0,1.36-3,2.46-6.8,2.46s-6.48-1.2-6.48-2.56,2.73-2.37,6.48-2.37S338.23,295.67,338.23,297Z" transform="translate(31.28)"/><path class="cls-15" d="M331.61,313.85c-4.39,0-7.94-1.29-7.94-2.88v8.29c0,1.59,3.55,2.88,7.94,2.88s7.93-1.29,7.93-2.88V311C339.54,312.56,336,313.85,331.61,313.85Z" transform="translate(31.28)"/><ellipse class="cls-2" cx="362.9" cy="283.57" rx="3" ry="1.09"/><rect class="cls-2" x="359.89" y="282.9" width="6.01" height="0.67"/><ellipse class="cls-3" cx="362.9" cy="282.9" rx="3" ry="1.09"/><path class="cls-16" d="M329.93,284.57s-.92,8.82-1.65,10.27a13.26,13.26,0,0,0-1.46,3.9c-.16,1.18-.41,14.4-.41,14.4l1.2.32s-.29-12.77.44-15.16a33.26,33.26,0,0,0,1.51-3.68c.28-1.34,1.19-10,1.19-10Z" transform="translate(31.28)"/><ellipse class="cls-3" cx="335" cy="310.76" rx="7.94" ry="2.88"/><ellipse class="cls-13" cx="335" cy="332.36" rx="7.94" ry="2.88"/><path class="cls-13" d="M303.69,283.44v27.32h-7.91s-.32-11.41,1.52-14.52,3.55-5.91,3.73-8.64.28-4.16.28-4.16Z" transform="translate(31.28)"/><path class="cls-13" d="M303.68,283.44v27.32h8s.26-11.41-1.59-14.52-3.54-5.91-3.73-8.64-.28-4.16-.28-4.16Z" transform="translate(31.28)"/><path class="cls-4" d="M303.73,283.44v17.25h0s-8.24-1.34-6.4-4.45,3.55-5.91,3.73-8.64.28-4.16.28-4.16Z" transform="translate(31.28)"/><path class="cls-4" d="M303.71,283.44l0,17.25h0s8.22-1.34,6.38-4.45-3.55-5.91-3.73-8.64-.28-4.16-.28-4.16Z" transform="translate(31.28)"/><rect class="cls-13" x="327.07" y="310.76" width="15.88" height="21.6"/><path class="cls-13" d="M310.69,298.14l-.39-1.47-13.24,0-.34,3.33,7.4,2.14Z" transform="translate(31.28)"/><path class="cls-14" d="M310.35,297c0,1.36-3.05,2.46-6.8,2.46s-6.49-1.2-6.49-2.56,2.73-2.37,6.49-2.37S310.35,295.67,310.35,297Z" transform="translate(31.28)"/><path class="cls-15" d="M303.72,313.85c-4.38,0-7.94-1.29-7.94-2.88v8.29c0,1.59,3.56,2.88,7.94,2.88s7.94-1.29,7.94-2.88V311C311.66,312.56,308.1,313.85,303.72,313.85Z" transform="translate(31.28)"/><ellipse class="cls-2" cx="335.01" cy="283.57" rx="3" ry="1.09"/><rect class="cls-2" x="332.01" y="282.9" width="6.01" height="0.67"/><ellipse class="cls-3" cx="335.01" cy="282.9" rx="3" ry="1.09"/><path class="cls-16" d="M302.05,284.57s-.92,8.82-1.66,10.27a13.55,13.55,0,0,0-1.46,3.9c-.16,1.18-.41,14.4-.41,14.4l1.21.32s-.29-12.77.43-15.16a31.42,31.42,0,0,0,1.51-3.68c.28-1.34,1.19-10,1.19-10Z" transform="translate(31.28)"/><ellipse class="cls-3" cx="349.58" cy="318.79" rx="7.94" ry="2.88"/><ellipse class="cls-13" cx="349.58" cy="340.39" rx="7.94" ry="2.88"/><path class="cls-13" d="M318.27,291.47v27.32h-7.92s-.32-11.41,1.52-14.52,3.55-5.91,3.73-8.64.28-4.16.28-4.16Z" transform="translate(31.28)"/><path class="cls-13" d="M318.25,291.47v27.32h8s.26-11.41-1.58-14.52-3.55-5.91-3.73-8.64-.28-4.16-.28-4.16Z" transform="translate(31.28)"/><path class="cls-4" d="M318.3,291.47v17.25h0s-8.24-1.34-6.4-4.45,3.55-5.91,3.74-8.64.27-4.16.27-4.16Z" transform="translate(31.28)"/><path class="cls-4" d="M318.29,291.47v17.25h0s8.22-1.34,6.38-4.45-3.55-5.91-3.73-8.64-.28-4.16-.28-4.16Z" transform="translate(31.28)"/><rect class="cls-13" x="341.64" y="318.79" width="15.88" height="21.6"/><path class="cls-13" d="M325.27,306.18c-.1-.35-.39-1.48-.39-1.48l-13.24,0-.35,3.33,7.41,2.14Z" transform="translate(31.28)"/><path class="cls-14" d="M324.92,305.07c0,1.36-3,2.46-6.8,2.46s-6.48-1.2-6.48-2.56,2.73-2.37,6.48-2.37S324.92,303.7,324.92,305.07Z" transform="translate(31.28)"/><path class="cls-15" d="M318.29,321.88c-4.38,0-7.94-1.29-7.94-2.88v8.29c0,1.59,3.56,2.88,7.94,2.88s7.94-1.29,7.94-2.88V319C326.23,320.59,322.68,321.88,318.29,321.88Z" transform="translate(31.28)"/><ellipse class="cls-2" cx="349.58" cy="291.6" rx="3" ry="1.09"/><rect class="cls-2" x="346.58" y="290.93" width="6.01" height="0.67"/><ellipse class="cls-3" cx="349.58" cy="290.93" rx="3" ry="1.09"/><path class="cls-16" d="M316.62,292.6s-.92,8.82-1.65,10.27a12.93,12.93,0,0,0-1.46,3.91c-.17,1.17-.41,14.39-.41,14.39l1.2.32s-.29-12.77.44-15.16a33.4,33.4,0,0,0,1.5-3.68c.28-1.34,1.19-10,1.19-10Z" transform="translate(31.28)"/><ellipse class="cls-3" cx="320.4" cy="318.79" rx="7.94" ry="2.88"/><ellipse class="cls-13" cx="320.4" cy="340.39" rx="7.94" ry="2.88"/><path class="cls-13" d="M289.09,291.47v27.32h-7.91s-.33-11.41,1.51-14.52,3.55-5.91,3.73-8.64.28-4.16.28-4.16Z" transform="translate(31.28)"/><path class="cls-13" d="M289.08,291.47v27.32h8s.26-11.41-1.58-14.52-3.55-5.91-3.73-8.64-.28-4.16-.28-4.16Z" transform="translate(31.28)"/><path class="cls-4" d="M289.12,291.47v17.25h0s-8.24-1.34-6.39-4.45,3.54-5.91,3.73-8.64.28-4.16.28-4.16Z" transform="translate(31.28)"/><path class="cls-4" d="M289.11,291.47v17.25h0s8.22-1.34,6.38-4.45-3.55-5.91-3.73-8.64-.28-4.16-.28-4.16Z" transform="translate(31.28)"/><rect class="cls-13" x="312.46" y="318.79" width="15.88" height="21.6"/><path class="cls-13" d="M296.09,306.18c-.1-.35-.39-1.48-.39-1.48l-13.24,0-.35,3.33,7.41,2.14Z" transform="translate(31.28)"/><path class="cls-14" d="M295.74,305.07c0,1.36-3,2.46-6.8,2.46s-6.48-1.2-6.48-2.56,2.73-2.37,6.48-2.37S295.74,303.7,295.74,305.07Z" transform="translate(31.28)"/><path class="cls-15" d="M289.11,321.88c-4.38,0-7.93-1.29-7.93-2.88v8.29c0,1.59,3.55,2.88,7.93,2.88s7.94-1.29,7.94-2.88V319C297.05,320.59,293.5,321.88,289.11,321.88Z" transform="translate(31.28)"/><ellipse class="cls-2" cx="320.4" cy="291.6" rx="3" ry="1.09"/><rect class="cls-2" x="317.4" y="290.93" width="6.01" height="0.67"/><ellipse class="cls-3" cx="320.4" cy="290.93" rx="3" ry="1.09"/><path class="cls-16" d="M287.44,292.6s-.92,8.82-1.65,10.27a13.21,13.21,0,0,0-1.46,3.91c-.17,1.17-.41,14.39-.41,14.39l1.2.32s-.29-12.77.44-15.16a31.54,31.54,0,0,0,1.5-3.68c.28-1.34,1.2-10,1.2-10Z" transform="translate(31.28)"/><ellipse class="cls-3" cx="335.96" cy="327.08" rx="7.94" ry="2.88"/><ellipse class="cls-13" cx="335.96" cy="348.68" rx="7.94" ry="2.88"/><path class="cls-13" d="M304.65,299.76v27.32h-7.91s-.32-11.41,1.52-14.52,3.55-5.91,3.73-8.64.28-4.16.28-4.16Z" transform="translate(31.28)"/><path class="cls-13" d="M304.64,299.76v27.32h8s.26-11.41-1.59-14.52-3.54-5.91-3.73-8.64-.28-4.16-.28-4.16Z" transform="translate(31.28)"/><path class="cls-4" d="M304.68,299.76V317h0s-8.23-1.34-6.39-4.45,3.55-5.91,3.73-8.64.28-4.16.28-4.16Z" transform="translate(31.28)"/><path class="cls-4" d="M304.67,299.76V317h0s8.23-1.34,6.39-4.45-3.55-5.91-3.74-8.64-.28-4.16-.28-4.16Z" transform="translate(31.28)"/><rect class="cls-13" x="328.03" y="327.08" width="15.88" height="21.6"/><path class="cls-13" d="M311.65,314.47l-.39-1.48L298,313l-.34,3.33,7.4,2.14Z" transform="translate(31.28)"/><path class="cls-14" d="M311.31,313.36c0,1.36-3.05,2.46-6.8,2.46s-6.49-1.2-6.49-2.56,2.73-2.37,6.49-2.37S311.31,312,311.31,313.36Z" transform="translate(31.28)"/><path class="cls-15" d="M304.68,330.17c-4.39,0-7.94-1.29-7.94-2.88v8.29c0,1.59,3.55,2.88,7.94,2.88s7.94-1.29,7.94-2.88v-8.29C312.62,328.88,309.06,330.17,304.68,330.17Z" transform="translate(31.28)"/><ellipse class="cls-2" cx="335.97" cy="299.89" rx="3" ry="1.09"/><rect class="cls-2" x="332.96" y="299.22" width="6.01" height="0.67"/><ellipse class="cls-3" cx="335.97" cy="299.22" rx="3" ry="1.09"/><path class="cls-16" d="M303,300.89s-.92,8.82-1.66,10.27a13.21,13.21,0,0,0-1.46,3.91c-.16,1.17-.41,14.39-.41,14.39l1.21.32s-.29-12.77.43-15.16a31.42,31.42,0,0,0,1.51-3.68c.28-1.34,1.19-10,1.19-10Z" transform="translate(31.28)"/><polygon class="cls-11" points="293.66 297.54 294.3 340.93 333.11 363.4 332.05 319.7 293.66 297.54"/><polygon class="cls-10" points="389.62 330.78 333.11 363.4 332.05 319.7 389.62 286.46 389.62 330.78"/><path class="cls-17" d="M276.5,319.21l7.8,4.5a1,1,0,0,0,1.52-.87v-.7a1,1,0,0,0-.52-.88l-7.84-4.4a1,1,0,0,0-1.49.94l0,.59A1,1,0,0,0,276.5,319.21Z" transform="translate(31.28)"/><polygon class="cls-18" points="307.54 305.69 307.54 313.9 318.17 319.9 318.17 311.82 307.54 305.69"/><polygon class="cls-11" points="293.66 297.54 280.63 280.92 339.43 247.68 351.23 264.3 293.66 297.54"/><polygon class="cls-11" points="332.05 319.7 352.82 316.73 405.26 286.46 389.62 286.46 332.05 319.7"/><polygon class="cls-11" points="293.66 297.54 332.05 319.7 389.62 286.46 388.5 285.81 332.05 318.37 294.53 297.04 293.66 297.54"/><path class="cls-17" d="M440.73,220.79l7.89,4.56a1,1,0,0,0,1.53-.88v-.71a1,1,0,0,0-.52-.89l-7.93-4.45a1,1,0,0,0-1.52,1l0,.6A1,1,0,0,0,440.73,220.79Z" transform="translate(31.28)"/><polygon class="cls-18" points="471.76 207.1 471.76 215.42 482.52 221.5 482.52 213.32 471.76 207.1"/><polygon class="cls-7" points="218.37 206.44 228.69 212.39 280.29 182.6 269.97 176.64 218.37 206.44"/><polygon class="cls-2" points="228.69 218.35 228.69 212.39 280.29 182.6 280.29 188.56 228.69 218.35"/><polygon class="cls-2" points="218.37 206.44 228.69 212.39 228.69 218.35 218.37 212.31 218.37 206.44"/><polygon class="cls-2" points="422.02 278.59 421.78 296.68 326.32 241.59 326.32 223.34 422.02 278.59"/><polygon class="cls-7" points="426.55 275.98 331.7 220.17 326.32 223.34 422.02 278.59 426.55 275.98"/><polygon class="cls-4" points="421.78 296.68 426.32 293.89 426.55 275.98 422.02 278.59 421.78 296.68"/><polygon class="cls-8" points="331.7 330.71 331.7 348.96 426.54 294.2 426.55 275.95 331.7 330.71"/><polygon class="cls-7" points="327.18 328.1 421.12 272.82 426.55 275.95 331.7 330.71 327.18 328.1"/><polygon class="cls-4" points="331.7 348.97 327.18 346.09 327.18 328.1 331.7 330.71 331.7 348.97"/><polygon class="cls-2" points="241.38 278.59 241.38 296.85 331.6 244.75 331.7 226.44 241.38 278.59"/><polygon class="cls-7" points="236.85 275.98 330.8 220.7 336.22 223.83 241.38 278.59 236.85 275.98"/><polygon class="cls-4" points="241.38 296.85 236.85 293.97 236.85 275.98 241.38 278.59 241.38 296.85"/><polygon class="cls-2" points="331.7 330.71 331.7 348.96 236.85 294.2 236.85 275.95 331.7 330.71"/><polygon class="cls-7" points="336.22 328.1 242.27 272.82 236.85 275.95 331.7 330.71 336.22 328.1"/><polygon class="cls-8" points="331.7 348.96 336.22 346.09 336.22 328.1 331.7 330.71 331.7 348.96"/><polygon class="cls-7" points="321.57 205.44 304.37 215.37 218.37 165.72 235.57 155.79 321.57 205.44"/><polygon class="cls-2" points="304.38 225.31 304.37 215.37 218.37 165.72 218.37 175.65 304.38 225.31"/><polygon class="cls-2" points="321.57 205.44 304.37 215.37 304.38 225.31 321.57 215.24 321.57 205.44"/><polygon class="cls-7" points="366.15 177.63 348.95 187.56 262.95 137.91 280.15 127.98 366.15 177.63"/><polygon class="cls-2" points="348.95 197.5 348.95 187.56 262.95 137.91 262.95 147.84 348.95 197.5"/><polygon class="cls-2" points="366.15 177.63 348.95 187.56 348.95 197.5 366.15 187.43 366.15 177.63"/><polygon class="cls-7" points="262.15 208.72 286.23 222.63 406.64 153.11 382.56 139.2 262.15 208.72"/><polygon class="cls-2" points="286.23 236.53 286.23 222.63 406.64 153.11 406.64 167.01 286.23 236.53"/><polygon class="cls-2" points="262.15 208.72 286.23 222.63 286.23 236.53 262.15 222.44 262.15 208.72"/><polygon class="cls-8" points="337.43 104.73 337.43 218.89 348.24 211.96 348.21 98.92 337.43 104.73"/><polygon class="cls-7" points="326.65 98.92 337.43 104.73 348.21 98.92 337.43 92.69 326.65 98.92"/><polygon class="cls-19" points="326.62 211.96 337.43 218.89 337.43 104.73 326.65 98.92 326.62 211.96"/><polygon class="cls-20" points="383.15 224.88 412.58 207.89 412.58 156.44 382.96 173.69 383.15 224.88"/><polygon class="cls-21" points="376.9 221.49 383.15 224.88 382.96 173.69 376.9 170.19 376.9 221.49"/><polygon class="cls-22" points="382.96 173.69 376.9 170.19 406.6 152.9 412.58 156.44 382.96 173.69"/><polygon class="cls-23" points="384.3 190.34 384.44 175.13 397.41 167.64 397.41 182.78 384.3 190.34"/><polygon class="cls-23" points="398.68 182.12 398.81 166.91 411.79 159.42 411.79 174.56 398.68 182.12"/><polygon class="cls-23" points="384.3 206.94 384.44 191.73 397.41 184.24 397.41 199.38 384.3 206.94"/><polygon class="cls-23" points="398.68 198.72 398.81 183.51 411.79 176.02 411.79 191.16 398.68 198.72"/><polygon class="cls-24" points="409.65 199.62 408.46 198.93 403.19 208 404.46 208.73 409.65 199.62"/><ellipse class="cls-24" cx="374.63" cy="203.51" rx="5.25" ry="3.03" transform="translate(42.35 426.19) rotate(-60)"/><ellipse class="cls-25" cx="375.71" cy="204.14" rx="5.25" ry="3.03" transform="translate(42.35 427.44) rotate(-60)"/><polygon class="cls-26" points="395.87 207.28 394.68 206.6 389.41 215.66 390.68 216.4 395.87 207.28"/><ellipse class="cls-26" cx="360.85" cy="211.18" rx="5.25" ry="3.03" transform="translate(28.82 418.09) rotate(-60)"/><ellipse class="cls-27" cx="361.93" cy="211.81" rx="5.25" ry="3.03" transform="translate(28.82 419.34) rotate(-60)"/><polygon class="cls-8" points="342.24 243.44 346.21 269.99 372.98 252.59 366.5 228.77 342.24 243.44"/><polygon class="cls-19" points="331.07 236.37 342.24 243.44 346.21 269.99 325.17 257.03 331.07 236.37"/><polygon class="cls-7" points="353.98 222.63 331.07 236.37 342.24 243.44 366.5 228.77 353.98 222.63"/><polygon class="cls-8" points="348.21 125.58 348.21 239.83 359.02 233.3 358.98 119.77 348.21 125.58"/><polygon class="cls-7" points="337.43 119.77 348.21 125.58 358.98 119.77 348.21 113.54 337.43 119.77"/><polygon class="cls-19" points="337.54 233.03 348.35 239.83 348.35 125.67 337.57 119.86 337.54 233.03"/><path class="cls-28" d="M113.15,166.21l42.69,24.66a6.38,6.38,0,0,1,3.2,5.53v49.67a6.39,6.39,0,0,1-9.42,5.63l-42.7-23a6.4,6.4,0,0,1-3.36-5.63V171.74A6.39,6.39,0,0,1,113.15,166.21Z" transform="translate(31.28)"/><polygon class="cls-11" points="457.71 198.86 496.57 221.29 554.85 187.64 515.99 165.21 457.71 198.86"/><polygon class="cls-18" points="482.52 213.32 540.38 179.29 529.09 172.77 471.76 207.1 482.52 213.32"/><polygon class="cls-11" points="169.07 368.09 207.46 390.25 149.89 423.49 111.5 401.33 169.07 368.09"/><polygon class="cls-10" points="169.08 369.25 169.62 410.5 205.41 390.33 169.08 369.25"/><polygon class="cls-12" points="169.08 369.25 113.12 401.33 149.89 422.16 169.62 410.5 169.08 369.25"/><polygon class="cls-11" points="111.5 401.33 112.14 444.72 150.95 467.2 149.89 423.49 111.5 401.33"/><polygon class="cls-10" points="207.46 434.57 150.95 467.2 149.89 423.49 207.46 390.25 207.46 434.57"/><path class="cls-17" d="M94.34,423l7.81,4.5a1,1,0,0,0,1.51-.87v-.7a1,1,0,0,0-.52-.88l-7.83-4.4a1,1,0,0,0-1.5.94l0,.6A1,1,0,0,0,94.34,423Z" transform="translate(31.28)"/><polygon class="cls-18" points="125.38 409.48 125.38 417.69 136.01 423.69 136.01 415.61 125.38 409.48"/><polygon class="cls-11" points="111.5 401.33 98.47 384.71 157.27 351.47 169.07 368.09 111.5 401.33"/><polygon class="cls-11" points="149.89 423.49 170.66 420.52 223.1 390.25 207.46 390.25 149.89 423.49"/><polygon class="cls-11" points="111.5 401.33 149.89 423.49 207.46 390.25 206.34 389.6 149.89 422.16 112.37 400.83 111.5 401.33"/></g></g></svg>