<svg xmlns="http://www.w3.org/2000/svg" xmlns:xlink="http://www.w3.org/1999/xlink" viewBox="0 0 628.91 895.26"><defs><style>.cls-1{fill:none;}.cls-2{fill:#b7b7b7;}.cls-3{fill:#e8e8e8;}.cls-4{fill:#ddd;}.cls-5{fill:#f9f9f9;}.cls-6{fill:#f4f4f4;}.cls-7{fill:#bfbfbf;}.cls-8{fill:#cecece;}.cls-9{fill:#e0e0e0;}.cls-10{fill:#efefef;}.cls-11{fill:#d1d1d1;}.cls-12{fill:#515151;}.cls-13{clip-path:url(#clip-path);}.cls-14{fill:#a0a0a0;}.cls-15{fill:#eaeaea;}.cls-16{fill:#247019;}.cls-17{fill:#b2b2b2;}.cls-18{fill:#03190f;}</style><clipPath id="clip-path"><path class="cls-1" d="M78,158.86V455.43C78,472.31,115.71,486,162.23,486s84.23-13.69,84.23-30.57V158.86Z"/></clipPath></defs><g id="レイヤー_2" data-name="レイヤー 2"><g id="parts"><g id="レイヤー_2-2" data-name="レイヤー 2"><g id="parts-2" data-name="parts"><ellipse class="cls-2" cx="174.21" cy="726.21" rx="20.72" ry="7.52"/><rect class="cls-2" x="153.49" y="721.57" width="41.44" height="4.65"/><ellipse class="cls-3" cx="174.21" cy="721.57" rx="20.72" ry="7.52"/><ellipse class="cls-2" cx="174.21" cy="721.5" rx="9.71" ry="3.52"/><rect class="cls-2" x="164.5" y="633.51" width="19.42" height="87.98"/><ellipse class="cls-2" cx="387.76" cy="609.46" rx="20.72" ry="7.52"/><rect class="cls-2" x="367.04" y="604.82" width="41.44" height="4.65"/><ellipse class="cls-3" cx="387.76" cy="604.82" rx="20.72" ry="7.52"/><ellipse class="cls-2" cx="387.76" cy="604.75" rx="9.71" ry="3.52"/><rect class="cls-2" x="378.06" y="516.76" width="19.42" height="87.98"/><ellipse class="cls-2" cx="20.77" cy="632.29" rx="20.72" ry="7.52"/><rect class="cls-2" x="0.06" y="627.64" width="41.44" height="4.65"/><ellipse class="cls-3" cx="20.77" cy="627.64" rx="20.72" ry="7.52"/><ellipse class="cls-2" cx="20.77" cy="627.57" rx="9.71" ry="3.52"/><rect class="cls-2" x="11.06" y="542.28" width="19.42" height="85.29"/><polygon class="cls-4" points="177.32 238.89 177.32 648.41 411.27 513.34 413.76 102.39 177.32 238.89"/><polygon class="cls-5" points="0 136.5 177.32 238.89 177.32 648.41 0 546.03 0 136.5"/><polygon class="cls-6" points="236.44 0 413.76 102.39 177.32 238.89 0 136.5 236.44 0"/><polygon class="cls-7" points="236.44 307.14 411.27 409.52 177.32 537.19 0 434.81 236.44 307.14"/><polygon class="cls-8" points="29.54 451.88 265.99 324.21 265.99 17.06 29.54 153.57 29.54 451.88"/><polygon class="cls-5" points="29.54 153.57 29.54 451.88 177.32 537.19 177.32 648.41 0 546.03 0 136.5 29.54 153.57"/><polygon class="cls-9" points="250.04 26.27 398.4 111.25 398.4 416.55 254.92 330.19 250.04 26.27"/><polygon class="cls-6" points="398.4 111.25 250.04 26.27 265.99 17.06 413.76 102.39 398.4 111.25"/><polygon class="cls-10" points="398.4 416.55 398.4 111.25 413.76 102.39 411.27 513.34 177.32 648.41 177.32 537.19 398.4 416.55"/><ellipse class="cls-2" cx="347.22" cy="826.3" rx="20.72" ry="7.52"/><rect class="cls-2" x="326.5" y="821.65" width="41.44" height="4.65"/><ellipse class="cls-3" cx="347.22" cy="821.65" rx="20.72" ry="7.52"/><ellipse class="cls-2" cx="347.22" cy="821.58" rx="9.71" ry="3.52"/><rect class="cls-2" x="337.52" y="781.89" width="19.42" height="39.69"/><ellipse class="cls-3" cx="347.22" cy="781.89" rx="9.71" ry="3.52"/><ellipse class="cls-2" cx="608.19" cy="803.21" rx="20.72" ry="7.52"/><rect class="cls-2" x="587.47" y="798.57" width="41.44" height="4.65"/><ellipse class="cls-3" cx="608.19" cy="798.57" rx="20.72" ry="7.52"/><ellipse class="cls-2" cx="608.19" cy="798.49" rx="9.71" ry="3.52"/><rect class="cls-2" x="598.48" y="758.81" width="19.42" height="39.69"/><ellipse class="cls-3" cx="608.19" cy="758.81" rx="9.71" ry="3.52"/><ellipse class="cls-2" cx="457.1" cy="887.74" rx="20.72" ry="7.52"/><rect class="cls-2" x="436.38" y="883.09" width="41.44" height="4.65"/><ellipse class="cls-3" cx="457.1" cy="883.09" rx="20.72" ry="7.52"/><ellipse class="cls-2" cx="457.1" cy="883.02" rx="9.71" ry="3.52"/><rect class="cls-2" x="447.39" y="843.34" width="19.42" height="39.69"/><ellipse class="cls-3" cx="457.1" cy="843.34" rx="9.71" ry="3.52"/><polygon class="cls-6" points="357.29 600.6 187.47 502.56 205.96 494.82 373.44 591.28 357.29 600.6"/><polygon class="cls-11" points="187.47 510.18 187.47 502.22 357.29 600.26 357.29 608.1 187.47 510.18"/><polygon class="cls-10" points="387.77 572.45 430.22 547.79 430.22 540.45 387.77 564.96 387.77 572.45"/><polygon class="cls-5" points="457.11 867.54 457.1 671.46 329.75 597.93 329.75 794.01 457.11 867.54"/><polygon class="cls-6" points="329.75 597.93 499.56 499.88 626.92 573.42 457.1 671.46 329.75 597.93"/><polygon class="cls-10" points="457.1 671.46 626.92 573.42 626.92 769.49 457.11 867.54 457.1 671.46"/><polygon class="cls-10" points="472.55 685.88 472.55 844.63 615.62 762.9 614.77 603.78 472.55 685.88"/><polygon class="cls-12" points="533.64 749.24 533.64 721.07 542.01 716.22 542.01 744.4 533.64 749.24"/><polygon class="cls-12" points="556.62 737.24 556.62 709.08 564.98 704.23 564.98 732.41 556.62 737.24"/><rect class="cls-10" x="548.89" y="637.43" width="2.25" height="170.89"/><path class="cls-5" d="M78,158.86V455.43C78,472.31,115.71,486,162.23,486s84.23-13.69,84.23-30.57V158.86Z"/><g class="cls-13"><polygon class="cls-8" points="103.19 166.05 124.47 175.36 124.47 488.25 101.54 479.59 103.19 166.05"/></g><ellipse class="cls-6" cx="162.23" cy="158.86" rx="84.23" ry="30.58"/><ellipse class="cls-12" cx="162.23" cy="158.86" rx="37.75" ry="13.71"/><ellipse class="cls-12" cx="225.12" cy="433.84" rx="8.76" ry="3.18"/><rect class="cls-12" x="216.36" y="368" width="17.51" height="65.82"/><ellipse class="cls-12" cx="225.12" cy="368" rx="8.76" ry="3.18"/><ellipse class="cls-2" cx="225.12" cy="386.12" rx="23.42" ry="8.51"/><rect class="cls-2" x="201.69" y="380.87" width="46.85" height="5.25"/><ellipse class="cls-3" cx="225.12" cy="380.87" rx="23.42" ry="8.51"/><ellipse class="cls-2" cx="225.12" cy="379.6" rx="29.75" ry="10.8"/><rect class="cls-2" x="195.36" y="360.39" width="59.51" height="19.22"/><ellipse class="cls-3" cx="225.12" cy="360.39" rx="29.75" ry="10.8"/><ellipse class="cls-12" cx="225.12" cy="360.81" rx="11.08" ry="4.02"/><rect class="cls-12" x="214.04" y="277.52" width="22.15" height="83.28"/><ellipse class="cls-12" cx="225.12" cy="277.52" rx="11.08" ry="4.02"/><ellipse class="cls-2" cx="225.12" cy="300.44" rx="29.63" ry="10.76"/><rect class="cls-2" x="195.48" y="293.8" width="59.27" height="6.64"/><ellipse class="cls-3" cx="225.12" cy="293.8" rx="29.63" ry="10.76"/><ellipse class="cls-2" cx="225.12" cy="292.2" rx="37.64" ry="13.67"/><rect class="cls-2" x="187.47" y="267.88" width="75.29" height="24.31"/><ellipse class="cls-3" cx="225.12" cy="267.88" rx="37.64" ry="13.67"/><polygon class="cls-2" points="229.8 197.18 227.78 298.55 398.4 213.48 398.4 110.72 229.8 197.18"/><polygon class="cls-9" points="174.22 165.09 229.8 197.18 229.8 300.15 174.21 268.52 174.22 165.09"/><polygon class="cls-6" points="342.8 78.63 174.22 165.09 229.8 197.18 398.4 110.72 342.8 78.63"/><polygon class="cls-4" points="339.62 238.29 384.49 215.36 384.49 133.96 339.33 158.87 339.62 238.29"/><polygon class="cls-14" points="329.5 232.33 339.62 237.82 339.33 158.87 329.5 153.13 329.5 232.33"/><polygon class="cls-15" points="339.33 158.87 329.5 153.13 375.37 128.57 384.49 133.96 339.33 158.87"/><polygon class="cls-12" points="341.4 183.91 341.6 161.41 361.36 151.03 361.36 174.1 341.4 183.91"/><polygon class="cls-12" points="363.3 173.11 363.5 149.92 383.28 138.91 383.28 162.63 363.3 173.11"/><polygon class="cls-12" points="341.39 209.71 341.6 186.12 361.36 176.34 361.36 199.42 341.39 209.71"/><polygon class="cls-12" points="363.3 198.42 363.5 175.23 383.28 164.89 383.28 188.62 363.3 198.42"/><polygon class="cls-16" points="359.02 211.47 357.21 210.43 349.17 224.24 351.11 225.37 359.02 211.47"/><ellipse class="cls-2" cx="353.32" cy="217.42" rx="7.99" ry="4.61" transform="translate(-11.63 414.69) rotate(-60)"/><ellipse class="cls-12" cx="354.97" cy="218.37" rx="7.99" ry="4.61" transform="translate(-11.63 416.6) rotate(-60)"/><ellipse class="cls-2" cx="374.04" cy="207.06" rx="7.99" ry="4.61" transform="translate(7.7 427.45) rotate(-60)"/><ellipse class="cls-12" cx="375.69" cy="208.01" rx="7.99" ry="4.61" transform="translate(7.7 429.36) rotate(-60)"/><polygon class="cls-4" points="354.26 434.44 376.96 422.17 375.53 327.3 353.91 336.89 354.26 434.44"/><polygon class="cls-17" points="329.47 420.97 354.26 434.44 353.91 336.89 330.59 324.59 329.47 420.97"/><polygon class="cls-15" points="353.91 336.89 330.59 324.59 350.4 314.84 375.53 327.3 353.91 336.89"/><polygon class="cls-12" points="332.89 444.84 352.47 433.47 351.22 339.1 332.55 349.98 332.89 444.84"/><polygon class="cls-12" points="311.39 433.36 332.89 444.84 332.55 349.98 311.39 337.76 311.39 433.36"/><polygon class="cls-12" points="332.55 349.98 311.39 337.76 332.06 328.3 351.22 339.1 332.55 349.98"/><polygon class="cls-4" points="327.1 448.22 349.77 436.16 348.33 340.94 326.76 351.61 327.1 448.22"/><polygon class="cls-17" points="299.68 433.84 327.1 448.22 326.76 351.61 299.95 338.2 299.68 433.84"/><polygon class="cls-15" points="326.76 351.61 299.95 338.2 324.15 327.3 348.33 340.94 326.76 351.61"/><path class="cls-18" d="M364.71,229a35,35,0,0,0,2.65,21.67c1.49,3.32,3.21,6.52,4.74,9.83a72.18,72.18,0,0,1,3.8,10.26c1.85,6.58,2.45,13.55.69,20.21a27.11,27.11,0,0,1-3.86,8.56,29.67,29.67,0,0,1-7.16,6.89c-5.69,4.18-12.82,9.2-12.41,17.19.09,1.54,2.49,1.55,2.4,0-.37-7,6.24-11.46,11.22-15.12a34.67,34.67,0,0,0,7.27-6.73,27.8,27.8,0,0,0,4.31-8.34c4.5-13.61-.8-27.5-6.89-39.7A48.93,48.93,0,0,1,367,242.31a30.4,30.4,0,0,1,0-12.67c.31-1.51-2-2.15-2.32-.64Z"/><path class="cls-18" d="M329.72,246.65a107.07,107.07,0,0,0,5.8,24.51c2.4,6.58,5.42,14.77,12.07,18.24a12.82,12.82,0,0,0,9.44,1.12c3.37-1,5.54-3.74,6.66-6.94,1.33-3.75,1.73-7.92,2.3-11.84q1-6.54,1.6-13.12a247.43,247.43,0,0,0,.9-30.07,1.2,1.2,0,0,0-2.4,0,241.48,241.48,0,0,1-3.52,49.5c-.54,3.1-1.2,6.67-3.71,8.81-2.25,1.93-5.51,2-8.23,1.19-6.69-2.07-9.75-9.7-12.07-15.64a104,104,0,0,1-6.41-25.78c-.18-1.52-2.59-1.53-2.4,0Z"/><path class="cls-18" d="M349.34,237.81a68.4,68.4,0,0,1,.23,38.9c-4.17,13.94-15.07,24.29-21.29,37.21-3.53,7.33-5.66,15.47-4.09,23.6.29,1.52,2.61.88,2.32-.64-2.89-15,7.35-28.27,15.22-39.91,3.92-5.78,7.61-11.76,9.77-18.42A66.88,66.88,0,0,0,354.57,259a70.66,70.66,0,0,0-2.9-21.82c-.45-1.48-2.77-.85-2.31.64Z"/><polygon class="cls-2" points="325.88 249.64 378.86 223.22 378.86 219.13 324.22 247.28 325.88 249.64"/></g></g></g></g></svg>