<svg xmlns="http://www.w3.org/2000/svg" viewBox="0 0 461.54 683.08"><defs><style>.cls-1{fill:#f9f9f9;}.cls-2{fill:#efefef;}.cls-3{fill:#f4f4f4;}.cls-4{fill:#b7b7b7;}.cls-5{fill:#d1cdcd;}.cls-6{fill:#d3d1d1;}.cls-7{fill:#282828;}.cls-8{fill:#515151;}.cls-9{fill:#7a7a7a;}.cls-10{fill:#cecece;}.cls-11{fill:#e8e8e8;}.cls-12{fill:#a3a3a3;}.cls-13{fill:#09ab6f;}.cls-14{fill:#e06636;}.cls-15{fill:#e5423e;}.cls-16{fill:#af2f2f;}.cls-17{fill:#e23d3d;}.cls-18{fill:#247019;}.cls-19{fill:#32b224;}</style></defs><g id="レイヤー_2" data-name="レイヤー 2"><g id="parts"><polygon class="cls-1" points="161.85 314.66 164.99 683.08 13.32 596.35 13.27 227.93 161.85 314.66"/><polygon class="cls-2" points="375.21 194.81 161.85 314.66 164.99 683.08 377.89 551.92 375.21 194.81"/><polygon class="cls-3" points="222.96 107 13.32 227.93 161.91 314.66 375.21 194.81 222.96 107"/><polygon class="cls-4" points="171.91 574.94 171.91 620.97 450.93 459.88 450.93 413.84 171.91 574.94"/><polygon class="cls-5" points="132.05 551.92 171.91 574.94 171.91 620.97 132.05 597.95 132.05 551.92"/><polygon class="cls-6" points="411.06 390.84 132.05 551.92 171.91 574.94 450.93 413.84 411.06 390.84"/><polygon class="cls-4" points="275.21 454.57 275.21 485.13 328.14 454.57 328.14 424.01 275.21 454.57"/><polygon class="cls-5" points="248.75 439.29 275.21 454.57 275.21 485.13 248.75 469.85 248.75 439.29"/><polygon class="cls-6" points="301.68 408.73 248.75 439.29 275.21 454.57 328.14 424.01 301.68 408.73"/><polygon class="cls-6" points="161.85 370.38 252.03 422.44 461.54 298.04 375.83 246.84 161.85 370.38"/><polygon class="cls-5" points="252.03 422.44 252.03 430.15 161.85 378.75 161.85 370.38 252.03 422.44"/><polygon class="cls-4" points="252.03 422.44 252.03 430.15 461.54 306.78 461.54 298.04 252.03 422.44"/><polygon class="cls-7" points="350.78 293.04 350.78 338.49 429.52 293.04 429.52 247.58 350.78 293.04"/><polygon class="cls-8" points="311.42 270.31 350.78 293.04 350.78 338.49 311.42 315.77 311.42 270.31"/><polygon class="cls-9" points="390.15 224.86 311.42 270.31 350.78 293.04 429.52 247.58 390.15 224.86"/><polygon class="cls-7" points="242.29 355.5 242.29 400.95 321.03 355.5 321.03 310.04 242.29 355.5"/><polygon class="cls-8" points="202.93 332.77 242.29 355.5 242.29 400.95 202.93 378.23 202.93 332.77"/><polygon class="cls-9" points="281.66 287.32 202.93 332.77 242.29 355.5 321.03 310.04 281.66 287.32"/><polygon class="cls-4" points="252.03 370.38 316.52 335.25 316.52 328.62 252.03 364.35 252.03 370.38"/><polygon class="cls-4" points="360.39 308.2 424.88 273.08 424.88 266.44 360.39 302.17 360.39 308.2"/><rect class="cls-10" x="51.94" y="104.68" width="6.21" height="130.2"/><ellipse class="cls-10" cx="55.05" cy="234.88" rx="3.11" ry="1.36"/><rect class="cls-4" x="40.73" y="5.24" width="28.63" height="133.99"/><ellipse class="cls-11" cx="55.05" cy="5.24" rx="14.32" ry="5.24"/><ellipse class="cls-4" cx="55.05" cy="139.23" rx="14.32" ry="5.24"/><polygon class="cls-12" points="198.99 170.78 229.39 188.33 259.8 170.78 229.39 153.22 198.99 170.78"/><polygon class="cls-7" points="151.39 123.06 229.38 168.1 307.4 123.06 229.38 78.02 151.39 123.06"/><polygon class="cls-7" points="229.39 188.33 229.38 168.1 307.4 123.06 259.8 170.78 229.39 188.33"/><polygon class="cls-9" points="151.39 123.06 229.38 168.1 229.39 188.33 198.99 170.78 151.39 123.06"/><polygon class="cls-12" points="120.98 215.82 151.38 233.38 181.79 215.82 151.38 198.27 120.98 215.82"/><polygon class="cls-7" points="73.38 168.1 151.38 213.14 229.39 168.11 151.38 123.06 73.38 168.1"/><polygon class="cls-7" points="151.38 233.38 151.38 213.14 229.39 168.11 181.79 215.82 151.38 233.38"/><polygon class="cls-4" points="73.38 168.1 151.38 213.14 151.38 233.38 120.98 215.82 73.38 168.1"/><polygon class="cls-9" points="73.8 146.31 149.83 190.21 307.4 99.24 231 55.56 73.8 146.31"/><polygon class="cls-4" points="151.38 213.14 151.38 189.32 73.8 146.31 73.38 168.1 151.38 213.14"/><polygon class="cls-7" points="307.4 123.06 307.4 99.24 151.38 189.32 151.38 213.14 307.4 123.06"/><ellipse class="cls-13" cx="55.05" cy="101.76" rx="14.32" ry="5.24"/><ellipse class="cls-13" cx="55.05" cy="67.02" rx="14.32" ry="5.24"/><rect class="cls-13" x="40.73" y="67.02" width="28.63" height="34.74"/><ellipse class="cls-14" cx="55.05" cy="74.73" rx="14.32" ry="5.24"/><ellipse class="cls-14" cx="55.05" cy="39.98" rx="14.32" ry="5.24"/><rect class="cls-14" x="40.73" y="39.98" width="28.63" height="34.74"/><ellipse class="cls-15" cx="55.05" cy="39.98" rx="14.32" ry="5.24"/><rect class="cls-15" x="40.73" y="5.24" width="28.63" height="34.74"/><ellipse class="cls-4" cx="55.05" cy="5.24" rx="14.32" ry="5.24"/><ellipse class="cls-7" cx="111.25" cy="407.23" rx="4.61" ry="9.23" transform="translate(-183.24 104.76) rotate(-28.95)"/><polygon class="cls-7" points="115.72 415.31 59.44 446.44 49.96 430.6 106.79 399.16 115.72 415.31"/><ellipse class="cls-4" cx="53.01" cy="434.32" rx="4.61" ry="9.23" transform="translate(-203.63 79.95) rotate(-28.95)"/><ellipse class="cls-7" cx="49.96" cy="439.9" rx="9.23" ry="4.61"/><polygon class="cls-7" points="40.73 439.9 40.73 375.58 59.19 374.95 59.19 439.9 40.73 439.9"/><ellipse class="cls-4" cx="49.96" cy="374.96" rx="9.23" ry="4.61"/><path class="cls-7" d="M40.76,440.27s1.19,6.22,6.48,7.93,12.2-1.76,12.2-1.76l-1-8.66Z"/><polygon class="cls-7" points="28.01 409.63 90.96 373.29 90.96 263.24 27.61 300.15 28.01 409.63"/><polygon class="cls-4" points="1.5 395.23 28.01 409.63 27.61 300.15 0 284.2 1.5 395.23"/><polygon class="cls-9" points="27.61 300.15 0 284.2 64.47 247.6 90.96 263.24 27.61 300.15"/><polygon class="cls-2" points="30.48 335.76 30.76 303.22 58.51 287.2 58.51 319.57 30.48 335.76"/><polygon class="cls-2" points="61.23 318.18 61.52 285.64 89.27 269.62 89.26 301.99 61.23 318.18"/><polygon class="cls-2" points="30.48 371.27 30.76 338.73 58.51 322.71 58.51 355.08 30.48 371.27"/><polygon class="cls-2" points="61.23 353.69 61.52 321.15 89.27 305.13 89.26 337.5 61.23 353.69"/><polygon class="cls-16" points="84.69 355.6 82.14 354.13 70.87 373.52 73.6 375.09 84.69 355.6"/><ellipse class="cls-16" cx="76.7" cy="363.93" rx="11.22" ry="6.48" transform="translate(-276.83 248.38) rotate(-60)"/><ellipse class="cls-17" cx="79.02" cy="365.27" rx="11.22" ry="6.48" transform="translate(-276.83 251.06) rotate(-60)"/><polygon class="cls-18" points="55.22 372 52.67 370.53 41.4 389.92 44.13 391.5 55.22 372"/><ellipse class="cls-18" cx="47.22" cy="380.34" rx="11.22" ry="6.48" transform="translate(-305.77 231.06) rotate(-60)"/><ellipse class="cls-19" cx="49.55" cy="381.68" rx="11.22" ry="6.48" transform="translate(-305.77 233.74) rotate(-60)"/><path class="cls-9" d="M310.53,395.7,293.88,421s-2.73,4.51,1,7.69,9.55-2.49,9.55-2.49l29.07-44Z"/><path class="cls-9" d="M281.66,412.7l2,21.73s-.58,3.09-4.47,4.86-6.68-3.14-6.68-3.14l-2.62-16.54Z"/></g></g></svg>