<?xml version="1.0" encoding="UTF-8"?><svg id="_イヤー_2" xmlns="http://www.w3.org/2000/svg" viewBox="0 0 665.06 788.34"><defs><style>.cls-1{fill:#b7b7b7;}.cls-2{fill:#939393;}.cls-3{fill:#f4f4f4;}.cls-4{stroke:#424242;stroke-miterlimit:10;}.cls-4,.cls-5{fill:none;}.cls-6{fill:#eaefec;}.cls-7{fill:#d6d8d6;}.cls-8{fill:#dbdbdb;}.cls-9{fill:#d8d8d8;}.cls-10{fill:#bfbfbf;}.cls-11{fill:#8c8c8c;}.cls-12{fill:#e0e0e0;}.cls-13{fill:#282828;}.cls-14{fill:#c2c3c4;}.cls-15{fill:#03190f;}.cls-16{fill:#9b9898;}.cls-17{fill:#f9f9f9;}.cls-18{fill:#353535;}.cls-19{fill:#e8e8e8;}.cls-20{fill:#515151;}.cls-21{fill:#efefef;}.cls-22{fill:#545454;}.cls-23{fill:#a8a8a8;}.cls-24{fill:#070707;}</style></defs><g id="parts"><g><g><polygon class="cls-13" points="537.22 658.07 530.08 661.69 546.69 693.5 553.93 689.87 537.22 658.07"/><path class="cls-13" d="M532.81,666.6c-.43-2.33,.23-4.73,1.79-6.52,2.82-3.24,7.74-3.58,10.99-.76,3.76,2.36,6.85,5.64,8.99,9.53,2.27,3.8,3.52,8.13,3.64,12.56,.45,2.36-.21,4.79-1.8,6.59-2.83,3.21-7.73,3.52-10.94,.69-3.77-2.34-6.88-5.61-9.03-9.5-2.25-3.81-3.5-8.13-3.64-12.56v-.04Z"/><path class="cls-24" d="M526.12,669.95c-.43-2.33,.23-4.73,1.79-6.52,2.82-3.24,7.74-3.58,10.99-.76,3.76,2.36,6.85,5.64,8.99,9.53,2.27,3.8,3.52,8.13,3.64,12.56,.45,2.36-.21,4.79-1.8,6.59-2.83,3.21-7.73,3.52-10.94,.69-3.77-2.34-6.88-5.61-9.03-9.5-2.25-3.81-3.5-8.13-3.64-12.56v-.04Z"/><ellipse class="cls-23" cx="538.88" cy="677.33" rx="3.13" ry="5.42" transform="translate(-266.47 360.18) rotate(-30)"/></g><g><polygon class="cls-13" points="643.75 605.16 636.61 608.79 653.22 640.6 660.46 636.96 643.75 605.16"/><path class="cls-13" d="M639.34,613.7c-.43-2.33,.23-4.73,1.79-6.52,2.82-3.24,7.74-3.58,10.99-.76,3.76,2.36,6.85,5.64,8.99,9.53,2.27,3.8,3.52,8.13,3.64,12.56,.45,2.36-.21,4.79-1.8,6.59-2.83,3.21-7.73,3.52-10.94,.69-3.77-2.34-6.88-5.61-9.03-9.5-2.25-3.81-3.5-8.13-3.64-12.56v-.04Z"/><path class="cls-24" d="M632.65,617.05c-.43-2.33,.23-4.73,1.79-6.52,2.82-3.24,7.74-3.58,10.99-.76,3.76,2.36,6.85,5.64,8.99,9.53,2.27,3.8,3.52,8.13,3.64,12.56,.45,2.36-.21,4.79-1.8,6.59-2.83,3.21-7.73,3.52-10.94,.69-3.77-2.34-6.88-5.61-9.03-9.5-2.25-3.81-3.5-8.13-3.64-12.56v-.04Z"/><ellipse class="cls-23" cx="645.41" cy="624.43" rx="3.13" ry="5.42" transform="translate(-225.74 406.36) rotate(-30)"/></g><polygon class="cls-21" points="548.71 677.94 662.62 612.18 661.77 443.27 547.27 509.19 548.71 677.94"/><polygon class="cls-17" points="428.57 410.84 546.92 479.04 548.71 677.94 427.5 611.31 428.57 410.84"/><polygon class="cls-3" points="425.65 278.08 435.83 414.34 535.24 474.51 650.79 408.09 425.65 278.08"/><polygon class="cls-12" points="485.14 443.27 595.9 376.39 595.9 226.65 483.85 292.47 485.14 443.27"/><polygon class="cls-21" points="394.21 237.19 483.78 289.81 485.14 443.27 393.4 391.86 394.21 237.19"/><polygon class="cls-17" points="513.62 180.4 403.36 242.53 483.85 292.47 595.9 226.65 513.62 180.4"/><g><ellipse class="cls-2" cx="593.09" cy="604.58" rx="7.9" ry="4.56" transform="translate(-227.04 815.91) rotate(-60)"/><polygon class="cls-2" points="603.39 601.41 597.01 597.72 589.16 611.43 595.58 615.14 603.39 601.41"/><ellipse class="cls-20" cx="599.39" cy="608.22" rx="7.9" ry="4.56" transform="translate(-227.04 823.19) rotate(-60)"/></g><g><ellipse class="cls-2" cx="595.82" cy="626.69" rx="4.39" ry="2.54" transform="translate(-244.82 829.33) rotate(-60)"/><polygon class="cls-2" points="604.01 626.35 597.85 622.79 593.74 630.55 599.67 633.98 604.01 626.35"/><ellipse class="cls-20" cx="601.79" cy="630.14" rx="4.39" ry="2.54" transform="translate(-244.82 836.23) rotate(-60)"/></g><g><ellipse class="cls-2" cx="578.9" cy="636.82" rx="4.39" ry="2.54" transform="translate(-262.06 819.75) rotate(-60)"/><polygon class="cls-2" points="587.09 636.48 580.93 632.92 576.82 640.68 582.75 644.11 587.09 636.48"/><ellipse class="cls-20" cx="584.87" cy="640.27" rx="4.39" ry="2.54" transform="translate(-262.06 826.64) rotate(-60)"/></g><g><ellipse class="cls-2" cx="576.15" cy="615.44" rx="7.9" ry="4.56" transform="translate(-244.91 806.67) rotate(-60)"/><polygon class="cls-2" points="586.45 612.26 580.07 608.58 572.22 622.28 578.64 625.99 586.45 612.26"/><ellipse class="cls-20" cx="582.46" cy="619.08" rx="7.9" ry="4.56" transform="translate(-244.91 813.95) rotate(-60)"/></g><polygon class="cls-12" points="547.27 509.19 535.24 474.51 650.79 408.09 661.77 443.27 547.27 509.19"/><polygon class="cls-22" points="582.53 476.15 577.66 462.11 624.46 435.21 628.9 449.46 582.53 476.15"/><polygon class="cls-22" points="561.2 488.56 556.32 474.52 564.94 469.56 569.58 483.73 561.2 488.56"/><g><polygon class="cls-21" points="599.65 464.55 597.92 459.58 600.97 457.82 602.62 462.84 599.65 464.55"/><polygon class="cls-21" points="604.43 461.79 602.71 456.81 605.76 455.06 607.4 460.08 604.43 461.79"/><polygon class="cls-21" points="609.22 459.02 607.49 454.05 610.55 452.29 612.19 457.31 609.22 459.02"/><polygon class="cls-21" points="614.01 456.26 612.28 451.28 615.33 449.53 616.98 454.55 614.01 456.26"/><polygon class="cls-21" points="618.79 453.49 617.07 448.52 620.12 446.76 621.76 451.78 618.79 453.49"/><polygon class="cls-21" points="623.58 450.72 621.85 445.75 624.91 443.99 626.55 449.01 623.58 450.72"/></g><g><polygon class="cls-21" points="597.62 458.56 595.9 453.58 598.95 451.82 600.59 456.84 597.62 458.56"/><polygon class="cls-21" points="602.41 455.79 600.69 450.81 603.74 449.06 605.38 454.08 602.41 455.79"/><polygon class="cls-21" points="607.2 453.02 605.47 448.05 608.53 446.29 610.17 451.31 607.2 453.02"/><polygon class="cls-21" points="611.99 450.26 610.26 445.28 613.31 443.53 614.96 448.55 611.99 450.26"/><polygon class="cls-21" points="616.77 447.49 615.05 442.52 618.1 440.76 619.74 445.78 616.77 447.49"/><polygon class="cls-21" points="621.56 444.72 619.83 439.75 622.89 437.99 624.53 443.01 621.56 444.72"/></g><polygon class="cls-22" points="506.68 307.59 577.66 264.26 577.66 387.4 509.59 428.5 506.68 307.59"/><polygon class="cls-11" points="577.66 387.4 569.58 383.42 569.58 269.2 577.66 264.26 577.66 387.4"/><polygon class="cls-3" points="509.36 431.28 581.21 389.15 569.58 383.42 509.36 418.78 509.36 431.28"/><path class="cls-22" d="M587.8,499.69c.31,5.4-.27,43.18-.27,43.18l64.92-37.89v-42.62l-64.65,37.33Z"/><path class="cls-22" d="M587.8,550.97c.31,5.4-.27,43.18-.27,43.18l64.92-37.89v-42.62l-64.65,37.33Z"/><path class="cls-22" d="M614.01,586.87c.31,5.4-.74,43.29-.74,43.29l39.18-22.86v-42.62l-38.44,22.2Z"/><g><ellipse class="cls-2" cx="641.52" cy="549.64" rx="4.39" ry="2.54" transform="translate(-155.24 830.39) rotate(-60)"/><polygon class="cls-2" points="650.21 551.23 643.55 545.74 639.44 553.5 647.32 556.4 650.21 551.23"/><ellipse class="cls-8" cx="648.7" cy="553.78" rx="2.96" ry="1.71" transform="translate(-155.24 838.67) rotate(-60)"/></g><g><ellipse class="cls-2" cx="632.22" cy="555.84" rx="4.39" ry="2.54" transform="translate(-165.26 825.43) rotate(-60)"/><polygon class="cls-2" points="640.91 557.43 634.25 551.94 630.14 559.7 638.03 562.6 640.91 557.43"/><ellipse class="cls-8" cx="639.4" cy="559.98" rx="2.96" ry="1.71" transform="translate(-165.26 833.72) rotate(-60)"/></g><g><ellipse class="cls-2" cx="570.06" cy="589.96" rx="4.39" ry="2.54" transform="translate(-225.89 788.66) rotate(-60)"/><polygon class="cls-2" points="578.75 591.56 572.09 586.06 567.98 593.83 575.87 596.72 578.75 591.56"/><ellipse class="cls-8" cx="577.24" cy="594.11" rx="2.96" ry="1.71" transform="translate(-225.89 796.95) rotate(-60)"/></g><g><ellipse class="cls-2" cx="555.04" cy="291.02" rx="9.99" ry="5.77" transform="translate(25.49 626.18) rotate(-60)"/><polygon class="cls-2" points="565.11 285.29 560.03 282.36 549.92 299.59 555.23 302.66 565.11 285.29"/><ellipse class="cls-8" cx="560.05" cy="293.91" rx="9.99" ry="5.77" transform="translate(25.49 631.97) rotate(-60)"/></g><g><ellipse class="cls-2" cx="519.05" cy="312.83" rx="9.99" ry="5.77" transform="translate(-11.39 605.91) rotate(-60)"/><polygon class="cls-2" points="529.11 307.1 524.03 304.17 513.92 321.39 519.23 324.46 529.11 307.1"/><ellipse class="cls-8" cx="524.06" cy="315.72" rx="9.99" ry="5.77" transform="translate(-11.4 611.7) rotate(-60)"/></g><line class="cls-5" x1="516.08" y1="347.01" x2="562.95" y2="320.14"/><polygon class="cls-3" points="544.29 347.11 543.82 335.93 563.67 324.46 563.91 335.79 544.29 347.11"/><polygon class="cls-3" points="512.24 364.6 511.7 351.81 534.39 338.71 534.66 351.65 512.24 364.6"/><g><polygon class="cls-3" points="630.14 485.14 630.14 491.96 636.05 488.55 636.05 481.73 630.14 485.14"/><polygon class="cls-3" points="636.38 481.53 636.38 488.35 642.28 484.94 642.28 478.12 636.38 481.53"/><polygon class="cls-3" points="642.61 477.92 642.61 484.74 648.52 481.33 648.52 474.51 642.61 477.92"/></g><g><g><polygon class="cls-3" points="614.76 541.38 614.76 549.8 622.05 545.59 622.05 537.17 614.76 541.38"/><polygon class="cls-3" points="622.45 536.93 622.45 545.35 629.75 541.14 629.74 532.72 622.45 536.93"/><polygon class="cls-3" points="630.15 532.47 630.15 540.89 637.44 536.68 637.44 528.26 630.15 532.47"/></g><g><polygon class="cls-3" points="591.76 554.65 591.76 563.07 599.06 558.86 599.05 550.44 591.76 554.65"/><polygon class="cls-3" points="599.46 550.19 599.46 558.61 606.75 554.4 606.75 545.98 599.46 550.19"/><polygon class="cls-3" points="607.15 545.73 607.15 554.15 614.45 549.94 614.44 541.52 607.15 545.73"/></g></g><g><g><polygon class="cls-3" points="633.48 609.47 633.48 615.8 638.96 612.64 638.96 606.3 633.48 609.47"/><polygon class="cls-3" points="639.27 606.12 639.26 612.45 644.75 609.28 644.75 602.95 639.27 606.12"/><polygon class="cls-3" points="645.05 602.77 645.05 609.1 650.54 605.93 650.54 599.6 645.05 602.77"/></g><g><polygon class="cls-3" points="616.18 619.44 616.18 625.78 621.67 622.61 621.67 616.28 616.18 619.44"/><polygon class="cls-3" points="621.97 616.09 621.97 622.42 627.46 619.26 627.45 612.93 621.97 616.09"/><polygon class="cls-3" points="627.76 612.74 627.76 619.07 633.24 615.91 633.24 609.57 627.76 612.74"/></g></g><g><polygon class="cls-3" points="633.59 577.8 633.59 584.14 639.08 580.97 639.08 574.64 633.59 577.8"/><g><polygon class="cls-3" points="616.3 587.78 616.3 594.11 621.79 590.94 621.78 584.61 616.3 587.78"/><polygon class="cls-3" points="622.09 584.43 622.09 590.76 627.57 587.59 627.57 581.26 622.09 584.43"/><polygon class="cls-3" points="627.88 581.07 627.88 587.41 633.36 584.24 633.36 577.91 627.88 581.07"/></g></g><g><g><polygon class="cls-3" points="630.14 506.87 630.14 513.65 636.01 510.26 636.01 503.48 630.14 506.87"/><polygon class="cls-3" points="636.34 503.28 636.34 510.06 642.21 506.67 642.21 499.89 636.34 503.28"/><polygon class="cls-3" points="642.53 499.69 642.53 506.47 648.41 503.08 648.4 496.3 642.53 499.69"/></g><g><polygon class="cls-3" points="630.14 499.69 630.14 506.47 636.01 503.08 636.01 496.3 630.14 499.69"/><polygon class="cls-3" points="636.34 496.11 636.34 502.89 642.21 499.5 642.21 492.72 636.34 496.11"/><polygon class="cls-3" points="642.53 492.52 642.53 499.3 648.41 495.91 648.4 489.13 642.53 492.52"/></g><g><polygon class="cls-3" points="630.14 492.52 630.14 499.3 636.01 495.91 636.01 489.13 630.14 492.52"/><polygon class="cls-3" points="636.34 488.93 636.34 495.71 642.21 492.32 642.21 485.54 636.34 488.93"/><polygon class="cls-3" points="642.53 485.34 642.53 492.12 648.41 488.73 648.4 481.95 642.53 485.34"/></g></g><g><g><polygon class="cls-3" points="604.14 521.22 604.14 528 610.01 524.61 610.01 517.83 604.14 521.22"/><polygon class="cls-3" points="610.34 517.63 610.34 524.41 616.21 521.02 616.21 514.24 610.34 517.63"/><polygon class="cls-3" points="616.53 514.04 616.53 520.82 622.4 517.43 622.4 510.65 616.53 514.04"/></g><g><polygon class="cls-3" points="604.14 514.04 604.14 520.82 610.01 517.43 610.01 510.65 604.14 514.04"/><polygon class="cls-3" points="610.34 510.46 610.34 517.24 616.21 513.85 616.21 507.07 610.34 510.46"/><polygon class="cls-3" points="616.53 506.87 616.53 513.65 622.4 510.26 622.4 503.48 616.53 506.87"/></g><g><polygon class="cls-3" points="604.14 506.87 604.14 513.65 610.01 510.26 610.01 503.48 604.14 506.87"/><polygon class="cls-3" points="610.34 503.28 610.34 510.06 616.21 506.67 616.21 499.89 610.34 503.28"/><polygon class="cls-3" points="616.53 499.69 616.53 506.47 622.4 503.08 622.4 496.3 616.53 499.69"/></g></g><g><polygon class="cls-13" points="124.96 752.43 117.83 756.05 134.43 787.86 141.67 784.22 124.96 752.43"/><path class="cls-13" d="M120.56,760.96c-.43-2.33,.23-4.73,1.79-6.52,2.82-3.24,7.74-3.58,10.99-.76,3.76,2.36,6.85,5.64,8.99,9.53,2.27,3.8,3.52,8.13,3.64,12.56,.45,2.36-.21,4.79-1.8,6.59-2.83,3.21-7.73,3.52-10.94,.69-3.77-2.34-6.88-5.61-9.03-9.5-2.25-3.81-3.5-8.13-3.64-12.56v-.04Z"/><path class="cls-24" d="M113.86,764.31c-.43-2.33,.23-4.73,1.79-6.52,2.82-3.24,7.74-3.58,10.99-.76,3.76,2.36,6.85,5.64,8.99,9.53,2.27,3.8,3.52,8.13,3.64,12.56,.45,2.36-.21,4.79-1.8,6.59-2.83,3.21-7.73,3.52-10.94,.69-3.77-2.34-6.88-5.61-9.03-9.5-2.25-3.81-3.5-8.13-3.64-12.56v-.04Z"/><ellipse class="cls-23" cx="126.62" cy="771.69" rx="3.13" ry="5.42" transform="translate(-368.88 166.7) rotate(-30)"/></g><g><polygon class="cls-13" points="410.39 604.33 403.25 607.95 419.85 639.76 427.09 636.12 410.39 604.33"/><path class="cls-13" d="M405.98,612.86c-.43-2.33,.23-4.73,1.79-6.52,2.82-3.24,7.74-3.58,10.99-.76,3.76,2.36,6.85,5.64,8.99,9.53,2.27,3.8,3.52,8.13,3.64,12.56,.45,2.36-.21,4.79-1.8,6.59-2.83,3.21-7.73,3.52-10.94,.69-3.77-2.34-6.88-5.61-9.03-9.5-2.25-3.81-3.5-8.13-3.64-12.56v-.04Z"/><path class="cls-24" d="M399.28,616.21c-.43-2.33,.23-4.73,1.79-6.52,2.82-3.24,7.74-3.58,10.99-.76,3.76,2.36,6.85,5.64,8.99,9.53,2.27,3.8,3.52,8.13,3.64,12.56,.45,2.36-.21,4.79-1.8,6.59-2.83,3.21-7.73,3.52-10.94,.69-3.77-2.34-6.88-5.61-9.03-9.5-2.25-3.81-3.5-8.13-3.64-12.56v-.04Z"/><ellipse class="cls-23" cx="412.04" cy="623.59" rx="3.13" ry="5.42" transform="translate(-256.59 289.57) rotate(-30)"/></g><g><polygon class="cls-13" points="46.21 708.87 39.07 712.49 55.68 744.31 62.92 740.67 46.21 708.87"/><path class="cls-13" d="M41.8,717.4c-.43-2.33,.23-4.73,1.79-6.52,2.82-3.24,7.74-3.58,10.99-.76,3.76,2.36,6.85,5.64,8.99,9.53,2.27,3.8,3.52,8.13,3.64,12.56,.45,2.36-.21,4.79-1.8,6.59-2.83,3.21-7.73,3.52-10.94,.69-3.77-2.34-6.88-5.61-9.03-9.5-2.25-3.81-3.5-8.13-3.64-12.56v-.04Z"/><path class="cls-24" d="M35.11,720.75c-.43-2.33,.23-4.73,1.79-6.52,2.82-3.24,7.74-3.58,10.99-.76,3.76,2.36,6.85,5.64,8.99,9.53,2.27,3.8,3.52,8.13,3.64,12.56,.45,2.36-.21,4.79-1.8,6.59-2.83,3.21-7.73,3.52-10.94,.69-3.77-2.34-6.88-5.61-9.03-9.5-2.25-3.81-3.5-8.13-3.64-12.56v-.04Z"/><ellipse class="cls-23" cx="47.87" cy="728.13" rx="3.13" ry="5.42" transform="translate(-357.65 121.49) rotate(-30)"/></g><polygon class="cls-1" points="172.39 748.9 172.39 762.67 434.79 610.15 434.79 595.41 172.39 748.9"/><polygon class="cls-3" points="132.8 772.5 424.71 601.31 347.16 528.92 29 703.46 132.8 772.5"/><g><polygon class="cls-19" points="314.5 6.18 325.23 0 439.48 65.55 428.41 71.94 314.5 6.18"/><polygon class="cls-16" points="314.5 6.33 428.41 72.09 428.9 602.13 314.5 536.81 314.5 6.33"/><polygon class="cls-1" points="428.41 72.09 439.48 65.69 438.18 596.07 428.9 602.13 428.41 72.09"/></g><g><ellipse class="cls-1" cx="226.1" cy="629.32" rx="114.37" ry="41.52"/><rect class="cls-1" x="111.73" y="603.68" width="228.75" height="25.64"/><ellipse class="cls-19" cx="226.1" cy="603.68" rx="114.37" ry="41.52"/><ellipse class="cls-1" cx="226.1" cy="603.95" rx="93.1" ry="33.8"/><rect class="cls-1" x="133.01" y="583.08" width="186.19" height="20.87"/><ellipse class="cls-19" cx="226.1" cy="583.08" rx="93.1" ry="33.8"/><ellipse class="cls-14" cx="226.1" cy="577.66" rx="42.71" ry="15.51"/><polygon class="cls-14" points="104.78 481.78 184.51 581.21 268.12 580.44 311.53 526.22 348.12 480.5 104.78 481.78"/><ellipse class="cls-12" cx="226.11" cy="472.47" rx="123.99" ry="45.01"/><polygon class="cls-12" points="102.12 472.47 102.12 269.04 350.09 265.98 350.09 472.47 102.12 472.47"/><polygon class="cls-3" points="204.7 320.45 206.98 516.95 217.8 517.49 216.09 321.73 204.7 320.45"/><path class="cls-16" d="M149.34,312.85v194.97s8.1,2.88,21.54,4.96c13.67,2.54,27.05,3.53,27.05,3.53l-2.27-197.32-46.31-6.14Z"/><ellipse class="cls-19" cx="226.11" cy="265.98" rx="123.99" ry="45.01"/><ellipse class="cls-7" cx="226.11" cy="273.73" rx="135.25" ry="49.1"/><ellipse class="cls-3" cx="226.11" cy="264.35" rx="135.25" ry="49.1"/><g><ellipse class="cls-12" cx="226.1" cy="259.88" rx="123.99" ry="45.01"/><polygon class="cls-12" points="102.12 259.88 102.12 89.03 350.09 85.98 350.09 259.88 102.12 259.88"/></g><g><ellipse class="cls-10" cx="263.53" cy="542.26" rx="18.36" ry="10.6" transform="translate(-304.77 340.94) rotate(-44.57)"/><polygon class="cls-10" points="279.77 532.58 276.39 529.16 250.17 554.84 253.78 558.52 279.77 532.58"/><ellipse class="cls-20" cx="266.61" cy="545.38" rx="18.36" ry="10.6" transform="translate(-306.08 344) rotate(-44.57)"/></g><g><polygon class="cls-2" points="298.03 223.66 292.6 220.84 270.77 258.09 276.57 261.11 298.03 223.66"/><ellipse class="cls-2" cx="281.38" cy="239.24" rx="21.61" ry="14.27" transform="translate(-70.47 351.54) rotate(-58.07)"/><ellipse class="cls-15" cx="285.31" cy="241.18" rx="21.61" ry="15.47" transform="translate(-70.26 355.79) rotate(-58.07)"/></g><path class="cls-15" d="M260.89,491.03c.04,4.17,3.73,7.36,7.86,6.78,4.52-.63,10.08-1.44,14.02-2.1,3.85-.65,8.57-1.73,12.35-2.67,3.92-.97,6.68-4.48,6.68-8.52v-72.13c0-2.79-2.57-4.86-5.3-4.27-3.34,.73-8.38,1.65-15.49,2.53-6.46,.8-11.21,1.23-14.53,1.46-3.51,.25-6.23,3.17-6.2,6.7l.62,72.22Z"/><path class="cls-4" d="M255.33,271.44c.04,4.84,4.56,8.54,9.62,7.87,5.53-.73,12.34-1.67,17.15-2.43s10.49-2.01,15.11-3.09,8.17-5.19,8.17-9.88v-83.68c0-3.24-3.15-5.64-6.49-4.95-4.08,.84-10.25,1.91-18.95,2.93-7.9,.93-13.72,1.43-17.78,1.69-4.3,.28-7.63,3.68-7.59,7.77l.75,83.78Z"/><path class="cls-4" d="M249.74,276.97c.05,5.5,5.56,9.7,11.72,8.94,6.74-.83,15.03-1.89,20.9-2.76s12.78-2.29,18.41-3.52c5.85-1.28,9.96-5.9,9.96-11.22v-95.07c0-3.68-3.84-6.41-7.9-5.63-4.97,.96-12.49,2.17-23.09,3.33-9.63,1.05-16.72,1.62-21.66,1.93-5.24,.32-9.29,4.18-9.25,8.83l.92,95.18Z"/><polygon class="cls-3" points="334.79 289.31 325.77 289.31 325.77 112.76 334.79 107.65 334.79 289.31"/><polygon class="cls-3" points="334.79 494.15 325.77 499.26 325.77 306.92 334.79 302.96 334.79 494.15"/><path class="cls-16" d="M149.33,121.32v173.9s11.52,3.16,22.8,5.19c11.28,2.03,25.54,3.29,25.54,3.29l-2.02-175.56-46.31-6.82Z"/><ellipse class="cls-3" cx="226.1" cy="85.98" rx="123.99" ry="45.01"/><path class="cls-16" d="M149.34,507.82l48.58,8.5,21.45,76.66s-7.48-.46-10.7-1.03-7.97-1.82-7.97-1.82l-51.36-82.31Z"/><polygon class="cls-3" points="204.7 126.11 206.79 306.48 217.65 306.48 216.09 127.4 204.7 126.11"/><polygon class="cls-3" points="206.98 516.95 224.4 593.38 229.7 593.52 217.8 517.49 206.98 516.95"/><path class="cls-9" d="M330.28,541.22l-5.51,8.72s-21.95-12.45-24.76-14.18c-.85-2.38-.63-6.24,1.79-9.2,2.42-2.96,6.9-3.58,7.94-2.96,1.17,1.32,20.54,17.62,20.54,17.62Z"/><path class="cls-14" d="M334.12,521.19c1.61,1.78,1.92,6.53-1.5,7.4-3.42,.87-22.21-5.05-22.21-5.05l4.59-11.55s17.5,7.42,19.12,9.2Z"/><ellipse class="cls-12" cx="327.28" cy="545.43" rx="5.18" ry="2.84" transform="translate(-308.32 520.64) rotate(-56.8)"/><path class="cls-16" d="M320.45,555.21c-.34,4.28-1.03,4.75-4.89,6.49-3.63,0-23.02-11.76-23.02-11.76l9.21-11.47s18.12,13.5,18.7,16.74Z"/></g><g><polygon class="cls-1" points="149.22 744.78 149.22 776.07 176.32 760.42 176.32 729.13 149.22 744.78"/><polygon class="cls-8" points="81.47 705.66 149.22 744.78 149.22 776.07 81.47 736.96 81.47 705.66"/><polygon class="cls-19" points="108.57 690.02 176.32 729.13 149.22 744.78 81.47 705.66 108.57 690.02"/><polygon class="cls-17" points="27.49 528.45 143.88 595.65 144.05 778.95 29.63 713.29 27.49 528.45"/><polygon class="cls-1" points="143.88 595.65 149.5 592.4 149.5 775.81 144.05 778.95 143.88 595.65"/><polygon class="cls-19" points="24.52 171.42 35.25 165.24 149.5 230.79 138.43 237.19 24.52 171.42"/><polygon class="cls-1" points="113.85 612.98 113.85 628.84 136.52 634.57 143.88 630.32 143.88 595.64 113.85 612.98"/><polygon class="cls-6" points="0 547.25 113.85 612.98 113.85 628.84 0 563.57 0 547.25"/><polygon class="cls-12" points="27.49 531.38 143.88 595.64 113.85 612.98 0 547.25 27.49 531.38"/><polygon class="cls-17" points="24.52 171.42 138.43 237.19 138.76 598.65 24.52 533.09 24.52 171.42"/><polygon class="cls-1" points="138.43 237.19 149.5 230.79 149.5 592.45 138.76 598.65 138.43 237.19"/><path class="cls-18" d="M132.83,625.15s2.01,21.28,0,22.33c-2.01,1.04-4.85,1.42-6.09,1.99-1.23,.57-.66,3.41,0,4.07s5.78-.95,5.78-.95c0,0,3.98-.85,5.12-3.5,1.14-2.65,1.15-10.12,1.11-13.26-.05-3.14-.35-10.8-.73-11.27s-5.19,.6-5.19,.6Z"/><g><ellipse class="cls-2" cx="131.83" cy="618.01" rx="6.32" ry="3.65" transform="translate(-469.3 423.17) rotate(-60)"/><polygon class="cls-2" points="141.85 616.5 134.49 612.26 128.18 623.2 135.6 627.49 141.85 616.5"/><ellipse class="cls-20" cx="138.65" cy="621.95" rx="6.32" ry="3.65" transform="translate(-469.3 431.05) rotate(-60)"/></g></g><ellipse class="cls-1" cx="470.43" cy="250.07" rx="17.59" ry="8.44"/><polygon class="cls-1" points="452.84 238.96 452.84 250.07 488.01 250.95 488.01 238.96 452.84 238.96"/><ellipse class="cls-3" cx="470.43" cy="238.96" rx="17.59" ry="8.44"/><ellipse class="cls-1" cx="470.43" cy="236.55" rx="9.56" ry="4.59"/><polygon class="cls-1" points="460.87 195.2 460.87 236.55 479.98 237.03 479.98 195.2 460.87 195.2"/><ellipse class="cls-3" cx="470.43" cy="195.2" rx="9.56" ry="4.59"/><ellipse class="cls-1" cx="522.85" cy="216.12" rx="17.59" ry="8.44"/><polygon class="cls-1" points="505.26 205 505.26 216.12 540.43 217 540.43 205 505.26 205"/><ellipse class="cls-3" cx="522.85" cy="205" rx="17.59" ry="8.44"/><ellipse class="cls-1" cx="522.85" cy="202.6" rx="9.56" ry="4.59"/><polygon class="cls-1" points="513.29 161.24 513.29 202.6 532.4 203.08 532.4 161.24 513.29 161.24"/><ellipse class="cls-3" cx="522.85" cy="161.24" rx="9.56" ry="4.59"/><path class="cls-1" d="M460.87,209.59s-2.77-17.66,4.37-27.43c7.14-9.77,46.46-32.81,59.66-30.54,6.66,7.18,7.5,12.51,7.5,12.51-18.06,10.75-50.28,19.92-52.41,32.43l-19.11,13.03Z"/><path class="cls-1" d="M465.25,182.16c7.14-9.77,46.46-32.81,59.66-30.54,8.72,2.48,7.5,12.51,7.5,12.51"/><ellipse class="cls-1" cx="496.37" cy="165.45" rx="7.12" ry="5.55"/><rect class="cls-1" x="489.25" y="114.67" width="14.25" height="50.77"/><ellipse class="cls-3" cx="496.37" cy="114.67" rx="7.12" ry="5.55"/><path class="cls-15" d="M576.72,595.56c5.14,4.35,8.01,10.31,9.8,16.69,1.91,6.8,3.06,13.88,3.59,20.92,1.11,14.82-.7,29.8-5.31,43.93-2.34,7.19-5.32,14.43-9.41,20.82s-9.71,10.91-16.1,14.52c-12.88,7.27-27.99,10.02-42.62,10.64-7.84,.33-15.79-.14-23.29-2.58-7.07-2.3-13.35-6.43-19.24-10.88-11.77-8.91-23.33-18.5-33.47-29.25-5.14-5.45-9.9-11.27-13.95-17.57-3.85-5.97-7.11-12.29-10.15-18.7-6.1-12.85-11.34-26.17-18.76-38.35-14.41-23.63-36.5-41.34-59.87-55.57-3-1.83-6.03-3.6-9.07-5.34-1.68-.96-3.19,1.63-1.51,2.59,24.49,14,47.95,30.82,64.24,54.26,8.31,11.96,13.91,25.49,19.94,38.67,3.08,6.73,6.29,13.42,10.05,19.8s8.11,12.31,12.95,17.88c10.03,11.53,21.85,21.34,33.79,30.81,5.86,4.64,11.89,9.2,18.71,12.34,7.06,3.25,14.69,4.66,22.43,4.92s15.68-.44,23.37-1.71,14.6-3.18,21.45-6.14,13.19-6.82,18.34-12.05c5.43-5.5,8.9-12.57,11.85-19.63,5.83-13.94,8.87-29.05,8.96-44.16,.05-7.69-.69-15.37-2.16-22.92-1.26-6.46-2.84-13.05-6.25-18.75-1.65-2.76-3.73-5.24-6.18-7.32-1.47-1.24-3.6,.87-2.12,2.12h0Z"/><path class="cls-15" d="M639.61,561.36c4.69,6.38,9.98,12.72,12.68,20.27,1.45,4.06,1.96,8.42,2.57,12.66s1.11,8.76,1.38,13.16c1.02,16.5-1.32,33.01-9.94,47.35-15.39,25.59-45.19,41.03-74.22,44.57-15.73,1.92-31.93,.46-46.75-5.28-16.06-6.23-29.37-17.92-41.82-29.52-6.34-5.91-12.31-12.19-17.36-19.25s-9.31-14.48-14.14-21.61-10.83-14.26-16.8-20.95c-5.36-6-10.74-11.97-16.22-17.86-20.89-22.47-43.93-44.38-72.63-56.38-3.49-1.46-7.05-2.76-10.67-3.9-1.85-.58-2.64,2.31-.8,2.89,30.6,9.63,55.2,31.33,76.93,54.14,5.55,5.82,10.96,11.77,16.34,17.74,6.02,6.69,12.13,13.34,17.52,20.55s9.82,14.91,14.76,22.34,10.46,14.16,16.77,20.39c6.17,6.1,12.72,11.88,19.44,17.35s13.84,10.52,21.68,14.27c14.52,6.94,30.8,9.61,46.81,8.69,30-1.72,60.69-15.57,79.11-39.82,9.7-12.77,14.55-27.97,15.17-43.93,.35-9.01-.5-18.02-1.83-26.93-.63-4.22-1.2-8.47-2.76-12.46-1.46-3.73-3.46-7.19-5.7-10.5s-4.59-6.35-6.91-9.51c-1.13-1.54-3.74-.04-2.59,1.51h0Z"/><path class="cls-15" d="M648.65,555.22c10.33,10.74,12.84,26.36,13.32,40.68,.56,16.94-1.25,33.65-6.53,49.8-2.78,8.51-6.34,16.77-10.53,24.69-3.95,7.47-8.61,14.68-15.03,20.27-12.04,10.48-28.35,14.13-43.66,16.83-18.18,3.21-36.65,6.19-55.18,5.31-16.77-.8-33.36-4.54-48.9-10.87s-29.79-15.4-42.39-26.47c-12.49-10.97-23.51-23.46-34.74-35.68-5.73-6.23-11.52-12.41-17.6-18.3s-12.74-11.47-19-17.33c-13.05-12.21-25.42-25.12-38.6-37.18-3.46-3.17-6.98-6.28-10.55-9.32-1.46-1.24-3.59,.87-2.12,2.12,14.34,12.21,27.53,25.64,41.03,38.74,6.45,6.26,13.06,12.31,19.78,18.27s12.57,11.9,18.51,18.19c11.74,12.45,22.88,25.49,35.32,37.26,12.41,11.73,26.19,21.79,41.66,29.11,15.45,7.31,32.09,11.99,49.09,13.79,18.82,2,37.54-.29,56.11-3.35,15.88-2.61,32.59-5.23,46.47-13.92,14.68-9.19,22.91-25.19,29.3-40.75,3.5-8.53,6.28-17.37,8.08-26.41,1.67-8.35,2.36-16.78,2.52-25.28,.29-14.84-.54-30.95-8.09-44.14-1.7-2.97-3.77-5.73-6.15-8.19-1.34-1.39-3.46,.73-2.12,2.12h0Z"/><path class="cls-14" d="M334.12,521.19c1.61,1.78,1.92,6.53-1.5,7.4-3.42,.87-22.21-5.05-22.21-5.05l4.59-11.55s17.5,7.42,19.12,9.2Z"/><path class="cls-16" d="M320.45,555.21c-.34,4.28-1.03,4.75-4.89,6.49-3.63,0-23.02-11.76-23.02-11.76l9.21-11.47s18.12,13.5,18.7,16.74Z"/></g></g></svg>