<svg xmlns="http://www.w3.org/2000/svg" viewBox="0 0 193.05 179.26"><defs><style>.cls-1{fill:#dbbb96;}.cls-2{fill:#bc9e80;}.cls-3{fill:#917963;}.cls-4{fill:#8f7743;}.cls-5{fill:#e3cb9d;}</style></defs><g id="レイヤー_2" data-name="レイヤー 2"><g id="parts"><polygon class="cls-1" points="109.36 25.75 168.82 60.08 79.64 111.56 20.18 77.23 109.36 25.75"/><polygon class="cls-2" points="109.37 27.55 110.2 91.44 165.65 60.2 109.37 27.55"/><polygon class="cls-2" points="168.82 128.73 81.28 179.26 79.64 111.56 168.82 60.08 168.82 128.73"/><polygon class="cls-1" points="20.18 77.23 21.16 144.45 81.28 179.26 79.64 111.56 20.18 77.23"/><polygon class="cls-3" points="109.37 27.55 22.68 77.24 79.64 109.5 110.2 91.44 109.37 27.55"/><path class="cls-4" d="M42.06,110.8l12.09,7a1.56,1.56,0,0,0,2.34-1.35v-1.08a1.53,1.53,0,0,0-.8-1.36l-12.14-6.82a1.56,1.56,0,0,0-2.32,1.45l.06.92A1.55,1.55,0,0,0,42.06,110.8Z"/><polygon class="cls-5" points="41.68 89.86 41.68 102.58 58.15 111.88 58.15 99.36 41.68 89.86"/><polygon class="cls-1" points="79.64 111.56 111.82 106.97 193.06 60.07 168.82 60.08 79.64 111.56"/><polygon class="cls-1" points="20.18 77.23 0 51.49 91.08 0 109.36 25.75 20.18 77.23"/></g></g></svg>