<svg xmlns="http://www.w3.org/2000/svg" viewBox="0 0 462.94 641.79"><defs><style>.cls-1{fill:#d1d1d1;}.cls-2{fill:#5e5e5e;}.cls-3{fill:#b7b7b7;}.cls-4{fill:#f4f4f4;}.cls-5{fill:#efefef;}.cls-6{fill:#f9f9f9;}.cls-7{fill:#cecece;}</style></defs><g id="レイヤー_2" data-name="レイヤー 2"><g id="parts"><polygon class="cls-1" points="256.03 333.44 462.94 213.98 411.2 184.13 204.31 303.58 256.03 333.44"/><polygon class="cls-2" points="462.94 223.27 462.94 213.57 256.02 333.02 256.02 342.58 462.94 223.27"/><polygon class="cls-3" points="256.02 342.58 204.31 312.52 204.31 303.58 256.03 333.44 256.02 342.58"/><polygon class="cls-2" points="210.31 300.11 261.67 329.76 267.64 326.31 216.17 296.73 210.31 300.11"/><polygon class="cls-2" points="220.46 294.24 271.82 323.89 277.79 320.44 226.32 290.86 220.46 294.24"/><polygon class="cls-2" points="230.62 288.37 281.97 318.02 287.94 314.57 236.48 284.99 230.62 288.37"/><polygon class="cls-2" points="240.77 282.5 292.12 312.15 298.09 308.7 246.63 279.12 240.77 282.5"/><polygon class="cls-2" points="250.92 276.63 302.27 306.28 308.24 302.83 256.78 273.25 250.92 276.63"/><polygon class="cls-2" points="261.07 270.76 312.42 300.41 318.4 296.96 266.93 267.37 261.07 270.76"/><polygon class="cls-2" points="271.22 264.89 322.57 294.54 328.55 291.09 277.08 261.5 271.22 264.89"/><polygon class="cls-2" points="281.37 259.02 332.73 288.67 338.7 285.22 287.23 255.63 281.37 259.02"/><polygon class="cls-2" points="291.52 253.15 342.88 282.79 348.85 279.35 297.39 249.76 291.52 253.15"/><polygon class="cls-2" points="301.68 247.27 353.03 276.92 359 273.47 307.54 243.89 301.68 247.27"/><polygon class="cls-2" points="311.83 241.4 363.18 271.05 369.15 267.6 317.69 238.02 311.83 241.4"/><polygon class="cls-2" points="321.98 235.53 373.33 265.18 379.31 261.73 327.84 232.15 321.98 235.53"/><polygon class="cls-2" points="332.13 229.66 383.48 259.31 389.46 255.86 337.99 226.28 332.13 229.66"/><polygon class="cls-2" points="342.28 223.79 393.63 253.44 399.61 249.99 348.14 220.41 342.28 223.79"/><polygon class="cls-2" points="352.43 217.92 403.79 247.57 409.76 244.12 358.3 214.53 352.43 217.92"/><polygon class="cls-2" points="362.58 212.05 413.94 241.69 419.91 238.25 368.45 208.66 362.58 212.05"/><polygon class="cls-2" points="372.74 206.18 424.09 235.82 430.06 232.38 378.6 202.79 372.74 206.18"/><polygon class="cls-2" points="382.89 200.31 434.24 229.95 440.21 226.5 388.75 196.92 382.89 200.31"/><polygon class="cls-2" points="393.04 194.43 444.39 224.08 450.37 220.63 398.9 191.05 393.04 194.43"/><polygon class="cls-2" points="403.19 188.56 454.54 218.21 460.52 214.76 409.05 185.18 403.19 188.56"/><polygon class="cls-4" points="436.78 194.96 414.63 207.75 76.33 12.42 97.84 0 436.78 194.96"/><polygon class="cls-5" points="414.64 641.79 436.78 629 436.78 194.96 414.63 207.75 414.64 641.79"/><path class="cls-6" d="M414.63,207.75,76.33,12.42l.94,433.5L414.64,641.79Zm-156,123.82L206.9,302.13V197.63l51.73,29Z"/><polygon class="cls-1" points="51.72 451.45 258.64 331.99 206.9 302.13 0 421.59 51.72 451.45"/><polygon class="cls-2" points="258.63 341.27 258.63 331.57 51.72 451.03 51.72 460.58 258.63 341.27"/><polygon class="cls-3" points="51.72 460.58 0 430.53 0 421.59 51.72 451.45 51.72 460.58"/><polygon class="cls-2" points="6 418.12 57.36 447.77 63.33 444.32 11.87 414.74 6 418.12"/><polygon class="cls-2" points="16.16 412.25 67.51 441.9 73.48 438.45 22.02 408.87 16.16 412.25"/><polygon class="cls-2" points="26.31 406.38 77.66 436.03 83.63 432.58 32.17 403 26.31 406.38"/><polygon class="cls-2" points="36.46 400.51 87.81 430.16 93.79 426.71 42.32 397.12 36.46 400.51"/><polygon class="cls-2" points="46.61 394.64 97.96 424.29 103.94 420.84 52.47 391.25 46.61 394.64"/><polygon class="cls-2" points="56.76 388.77 108.11 418.42 114.09 414.97 62.62 385.38 56.76 388.77"/><polygon class="cls-2" points="66.91 382.89 118.27 412.54 124.24 409.1 72.78 379.51 66.91 382.89"/><polygon class="cls-2" points="77.07 377.02 128.42 406.67 134.39 403.22 82.93 373.64 77.07 377.02"/><polygon class="cls-2" points="87.22 371.15 138.57 400.8 144.54 397.35 93.08 367.77 87.22 371.15"/><polygon class="cls-2" points="97.37 365.28 148.72 394.93 154.69 391.48 103.23 361.9 97.37 365.28"/><polygon class="cls-2" points="107.52 359.41 158.87 389.06 164.85 385.61 113.38 356.03 107.52 359.41"/><polygon class="cls-2" points="117.67 353.54 169.02 383.19 175 379.74 123.53 350.15 117.67 353.54"/><polygon class="cls-2" points="127.82 347.67 179.18 377.32 185.15 373.87 133.69 344.28 127.82 347.67"/><polygon class="cls-2" points="137.97 341.8 189.33 371.44 195.3 368 143.84 338.41 137.97 341.8"/><polygon class="cls-2" points="148.13 335.93 199.48 365.57 205.45 362.13 153.99 332.54 148.13 335.93"/><polygon class="cls-2" points="158.28 330.06 209.63 359.7 215.6 356.25 164.14 326.67 158.28 330.06"/><polygon class="cls-2" points="168.43 324.18 219.78 353.83 225.75 350.38 174.29 320.8 168.43 324.18"/><polygon class="cls-2" points="178.58 318.31 229.93 347.96 235.91 344.51 184.44 314.93 178.58 318.31"/><polygon class="cls-2" points="188.73 312.44 240.09 342.09 246.06 338.64 194.59 309.06 188.73 312.44"/><polygon class="cls-2" points="198.88 306.57 250.24 336.22 256.21 332.77 204.75 303.19 198.88 306.57"/><polygon class="cls-7" points="206.9 197.63 182.1 184.13 182.1 316.45 206.9 302.13 206.9 197.63"/></g></g></svg>