<?xml version="1.0" encoding="UTF-8"?><svg id="_イヤー_2" xmlns="http://www.w3.org/2000/svg" viewBox="0 0 669.12 736.97"><defs><style>.cls-1{fill:none;stroke:#e0e0e0;stroke-miterlimit:10;stroke-width:4px;}.cls-2{fill:#f4f4f4;}.cls-3{fill:#01321c;}.cls-4,.cls-5{fill:#e0e0e0;}.cls-5{opacity:.14;}.cls-6{fill:#c2c3c4;}.cls-7{fill:#9b9898;}.cls-8{fill:#f9f9f9;}.cls-9{fill:#09ab6f;}.cls-10{fill:#efefef;}.cls-11{fill:#ace8cf;}.cls-12{fill:#606060;}.cls-13{fill:#cecece;}.cls-14{fill:#0c8e56;}</style></defs><g id="parts"><g><polygon class="cls-5" points="152.31 183.5 458.11 7.15 460.34 262.34 153.24 441.59 152.31 183.5"/><line class="cls-1" x1="458.09" y1="1.38" x2="460.49" y2="271.59"/><g><polygon class="cls-13" points="428.1 523.26 669.12 384.1 460.34 262.34 219.04 402.56 428.1 523.26"/><polygon class="cls-6" points="428.1 537.33 428.1 523.26 669.12 384.1 669.12 399.4 428.1 537.33"/><polygon class="cls-8" points="197.75 403.57 197.75 390.27 428.1 523.26 428.1 537.33 197.75 403.57"/></g><g><g><polygon class="cls-4" points="448.37 316.13 448.37 359.27 523.09 316.13 523.09 272.99 448.37 316.13"/><polygon class="cls-8" points="411.02 294.56 448.37 316.13 448.37 359.27 411.02 337.7 411.02 294.56"/><polygon class="cls-2" points="485.73 251.42 411.02 294.56 448.37 316.13 523.09 272.99 485.73 251.42"/></g><polygon class="cls-14" points="450.44 332.47 452.93 325.26 521.67 283.78 517.97 292.29 450.44 332.47"/><path class="cls-3" d="M515.61,305.79c-2.89,1.67-5.23,5.72-5.23,9.05,0,.63,.08,1.19,.24,1.67,.14,.42,.33,.78,.57,1.08l1.54-.89,.07-.04v1.87c.38,.06,.79,.05,1.22-.05,.5-.11,1.03-.31,1.59-.63,2.89-1.67,5.23-5.72,5.23-9.05,0-3.33-2.34-4.68-5.23-3.02Zm0,7.85l-1.58,.91v-1.82c0-1.01,.71-2.23,1.58-2.73s1.58-.1,1.58,.91c0,1.01-.71,2.23-1.58,2.73Zm0,2.81c-.56,.33-1.1,.5-1.59,.54v-1.03l1.58-.91c.59-.34,1.14-.87,1.59-1.5,.73-1,1.2-2.25,1.2-3.35,0-1.78-1.25-2.51-2.8-1.61-.96,.55-1.81,1.6-2.31,2.74-.31,.7-.49,1.43-.49,2.1v1.82l-.88,.51c-.21-.44-.32-.98-.32-1.63,0-2.56,1.79-5.66,4.01-6.94,2.21-1.28,4.01-.24,4.01,2.31,0,2.56-1.79,5.66-4.01,6.94Z"/><g><polygon class="cls-3" points="451.78 352.28 451.78 355.06 454.19 353.67 454.19 350.89 451.78 352.28"/><polygon class="cls-3" points="454.92 350.52 454.92 353.3 457.33 351.91 457.33 349.13 454.92 350.52"/><polygon class="cls-3" points="458.23 348.63 458.23 351.41 460.64 350.02 460.64 347.24 458.23 348.63"/><polygon class="cls-3" points="461.5 346.7 461.5 349.47 463.91 348.09 463.91 345.31 461.5 346.7"/><polygon class="cls-3" points="464.78 344.83 464.78 347.61 467.18 346.22 467.18 343.44 464.78 344.83"/><polygon class="cls-3" points="461.5 343.27 461.5 346.05 463.91 344.66 463.91 341.89 461.5 343.27"/><polygon class="cls-3" points="458.23 345.14 458.23 347.91 460.64 346.53 460.64 343.75 458.23 345.14"/><polygon class="cls-3" points="454.92 346.92 454.92 349.7 457.33 348.31 457.33 345.53 454.92 346.92"/><polygon class="cls-3" points="451.78 348.78 451.78 351.56 454.19 350.17 454.19 347.39 451.78 348.78"/></g></g><polygon class="cls-8" points="358.98 417.82 147.69 295.83 151.68 617.29 358.98 736.97 358.98 417.82"/><g><g><polygon class="cls-4" points="515.96 357.33 515.96 400.46 590.68 357.33 590.68 314.19 515.96 357.33"/><polygon class="cls-8" points="478.61 335.76 515.96 357.33 515.96 400.46 478.6 378.9 478.61 335.76"/><polygon class="cls-2" points="553.32 292.62 478.61 335.76 515.96 357.33 590.68 314.19 553.32 292.62"/></g><polygon class="cls-14" points="518.03 373.67 520.52 366.46 589.26 324.98 585.56 333.48 518.03 373.67"/><path class="cls-3" d="M583.2,346.99c-2.89,1.67-5.23,5.72-5.23,9.05,0,.63,.08,1.19,.24,1.67,.14,.42,.33,.78,.57,1.08l1.54-.89,.07-.04v1.87c.38,.06,.79,.05,1.22-.05,.5-.11,1.03-.31,1.59-.63,2.89-1.67,5.23-5.72,5.23-9.05,0-3.33-2.34-4.68-5.23-3.02Zm0,7.85l-1.58,.91v-1.82c0-1.01,.71-2.23,1.58-2.73s1.58-.1,1.58,.91c0,1.01-.71,2.23-1.58,2.73Zm0,2.81c-.56,.33-1.1,.5-1.59,.54v-1.03l1.58-.91c.59-.34,1.14-.87,1.59-1.5,.73-1,1.2-2.25,1.2-3.35,0-1.78-1.25-2.51-2.8-1.61-.96,.55-1.81,1.6-2.31,2.74-.31,.7-.49,1.43-.49,2.1v1.82l-.88,.51c-.21-.44-.32-.98-.32-1.63,0-2.56,1.79-5.66,4.01-6.94,2.21-1.28,4.01-.24,4.01,2.31,0,2.56-1.79,5.66-4.01,6.94Z"/><g><polygon class="cls-3" points="519.37 393.48 519.37 396.26 521.78 394.87 521.78 392.09 519.37 393.48"/><polygon class="cls-3" points="522.51 391.72 522.51 394.5 524.92 393.11 524.92 390.33 522.51 391.72"/><polygon class="cls-3" points="525.82 389.83 525.82 392.6 528.23 391.22 528.23 388.44 525.82 389.83"/><polygon class="cls-3" points="529.09 387.9 529.09 390.67 531.49 389.28 531.5 386.51 529.09 387.9"/><polygon class="cls-3" points="532.36 386.03 532.36 388.81 534.77 387.42 534.77 384.64 532.36 386.03"/><polygon class="cls-3" points="529.09 384.47 529.09 387.25 531.49 385.86 531.5 383.08 529.09 384.47"/><polygon class="cls-3" points="525.82 386.34 525.82 389.11 528.23 387.72 528.23 384.95 525.82 386.34"/><polygon class="cls-3" points="522.51 388.12 522.51 390.9 524.92 389.51 524.92 386.73 522.51 388.12"/><polygon class="cls-3" points="519.37 389.98 519.37 392.76 521.78 391.37 521.78 388.59 519.37 389.98"/></g></g><g><g><polygon class="cls-4" points="353.72 371.6 353.72 414.74 428.44 371.6 428.44 328.46 353.72 371.6"/><polygon class="cls-8" points="316.37 350.03 353.72 371.6 353.72 414.74 316.36 393.17 316.37 350.03"/><polygon class="cls-2" points="391.08 306.89 316.37 350.03 353.72 371.6 428.44 328.46 391.08 306.89"/></g><polygon class="cls-14" points="355.79 387.94 358.27 380.73 427.02 339.25 423.32 347.76 355.79 387.94"/><path class="cls-3" d="M420.96,361.26c-2.89,1.67-5.23,5.72-5.23,9.05,0,.63,.08,1.19,.24,1.67,.14,.42,.33,.78,.57,1.08l1.54-.89,.07-.04v1.87c.38,.06,.79,.05,1.22-.05,.5-.11,1.03-.31,1.59-.63,2.89-1.67,5.23-5.72,5.23-9.05,0-3.33-2.34-4.68-5.23-3.02Zm0,7.85l-1.58,.91v-1.82c0-1.01,.71-2.23,1.58-2.73s1.58-.1,1.58,.91c0,1.01-.71,2.23-1.58,2.73Zm0,2.81c-.56,.33-1.1,.5-1.59,.54v-1.03l1.58-.91c.59-.34,1.14-.87,1.59-1.5,.73-1,1.2-2.25,1.2-3.35,0-1.78-1.25-2.51-2.8-1.61-.96,.55-1.81,1.6-2.31,2.74-.31,.7-.49,1.43-.49,2.1v1.82l-.88,.51c-.21-.44-.32-.98-.32-1.63,0-2.56,1.79-5.66,4.01-6.94s4.01-.24,4.01,2.31c0,2.56-1.79,5.66-4.01,6.94Z"/><g><polygon class="cls-3" points="357.13 407.75 357.13 410.53 359.54 409.14 359.54 406.36 357.13 407.75"/><polygon class="cls-3" points="360.27 405.99 360.27 408.77 362.67 407.38 362.67 404.6 360.27 405.99"/><polygon class="cls-3" points="363.58 404.1 363.58 406.88 365.98 405.49 365.98 402.71 363.58 404.1"/><polygon class="cls-3" points="366.85 402.17 366.85 404.94 369.25 403.56 369.25 400.78 366.85 402.17"/><polygon class="cls-3" points="370.12 400.3 370.12 403.08 372.53 401.69 372.53 398.91 370.12 400.3"/><polygon class="cls-3" points="366.85 398.74 366.85 401.52 369.25 400.13 369.25 397.36 366.85 398.74"/><polygon class="cls-3" points="363.58 400.61 363.58 403.38 365.98 402 365.98 399.22 363.58 400.61"/><polygon class="cls-3" points="360.27 402.39 360.27 405.17 362.67 403.78 362.68 401 360.27 402.39"/><polygon class="cls-3" points="357.13 404.25 357.13 407.03 359.54 405.64 359.54 402.86 357.13 404.25"/></g></g><g><g><polygon class="cls-4" points="422.56 413.65 422.56 456.78 497.28 413.65 497.28 370.51 422.56 413.65"/><polygon class="cls-8" points="385.21 392.08 422.56 413.65 422.56 456.78 385.21 435.21 385.21 392.08"/><polygon class="cls-2" points="459.92 348.94 385.21 392.08 422.56 413.65 497.28 370.51 459.92 348.94"/></g><polygon class="cls-14" points="424.63 429.98 427.12 422.77 495.86 381.29 492.16 389.8 424.63 429.98"/><path class="cls-3" d="M489.8,403.3c-2.89,1.67-5.23,5.72-5.23,9.05,0,.63,.08,1.19,.24,1.67,.14,.42,.33,.78,.57,1.08l1.54-.89,.07-.04v1.87c.38,.06,.79,.05,1.22-.05,.5-.11,1.03-.31,1.59-.63,2.89-1.67,5.23-5.72,5.23-9.05,0-3.33-2.34-4.68-5.23-3.02Zm0,7.85l-1.58,.91v-1.82c0-1.01,.71-2.23,1.58-2.73s1.58-.1,1.58,.91c0,1.01-.71,2.23-1.58,2.73Zm0,2.81c-.56,.33-1.1,.5-1.59,.54v-1.03l1.58-.91c.59-.34,1.14-.87,1.59-1.5,.73-1,1.2-2.25,1.2-3.35,0-1.78-1.25-2.51-2.8-1.61-.96,.55-1.81,1.6-2.31,2.74-.31,.7-.49,1.43-.49,2.1v1.82l-.88,.51c-.21-.44-.32-.98-.32-1.63,0-2.56,1.79-5.66,4.01-6.94s4.01-.24,4.01,2.31c0,2.56-1.79,5.66-4.01,6.94Z"/><g><polygon class="cls-3" points="425.97 449.8 425.97 452.58 428.38 451.19 428.38 448.41 425.97 449.8"/><polygon class="cls-3" points="429.11 448.04 429.11 450.82 431.52 449.43 431.52 446.65 429.11 448.04"/><polygon class="cls-3" points="432.42 446.14 432.42 448.92 434.83 447.53 434.83 444.75 432.42 446.14"/><polygon class="cls-3" points="435.69 444.21 435.69 446.99 438.1 445.6 438.1 442.82 435.69 444.21"/><polygon class="cls-3" points="438.97 442.35 438.97 445.13 441.37 443.74 441.37 440.96 438.97 442.35"/><polygon class="cls-3" points="435.69 440.79 435.69 443.57 438.1 442.18 438.1 439.4 435.69 440.79"/><polygon class="cls-3" points="432.42 442.65 432.42 445.43 434.83 444.04 434.83 441.26 432.42 442.65"/><polygon class="cls-3" points="429.11 444.43 429.11 447.21 431.52 445.82 431.52 443.04 429.11 444.43"/><polygon class="cls-3" points="425.97 446.3 425.97 449.07 428.38 447.69 428.38 444.91 425.97 446.3"/></g></g><polygon class="cls-2" points="358.98 417.82 428.07 377.93 220.79 258.24 147.69 295.83 358.98 417.82"/><polygon class="cls-13" points="152.31 366.44 356.12 484.84 356.72 559.71 153.24 441.59 152.31 366.44"/><polygon class="cls-7" points="152.31 366.44 153.24 441.59 216.99 404.02 152.31 366.44"/><g><g><path class="cls-2" d="M259.21,475.85l26.77,15.55c.58,.34,1.38,.34,1.96,0l12.99-7.45c.64-.37,.64-1.29,0-1.66l-27.72-16.11c-.56-.33-1.25-.34-1.83-.04l-12.12,6.44c-1.29,.69-1.33,2.53-.06,3.26Z"/><path class="cls-2" d="M274.61,466.97l26.65,15.48c.58,.34,1.38,.34,1.96,0l13.82-7.92c.27-.15,.27-.54,0-.7l-28.55-16.59c-.56-.33-1.25-.34-1.83-.04l-12,6.37c-1.35,.71-1.38,2.63-.06,3.39Z"/><path class="cls-2" d="M290.23,458.25l26.46,15.37c.58,.34,1.38,.34,1.96,0l12.99-7.45c.64-.37,.64-1.29,0-1.66l-27.72-16.11c-.56-.33-1.25-.34-1.83-.04l-11.8,6.27c-1.43,.76-1.47,2.8-.07,3.61Z"/><g><polygon class="cls-12" points="268.71 480.31 269.84 480.97 270.95 480.33 269.83 479.7 268.71 480.31"/><polygon class="cls-12" points="270.09 481.1 271.23 481.76 272.34 481.11 271.21 480.49 270.09 481.1"/><polygon class="cls-12" points="271.65 481.98 272.76 482.63 273.85 482 272.75 481.39 271.65 481.98"/><polygon class="cls-12" points="273.07 482.81 274.18 483.46 275.27 482.83 274.17 482.22 273.07 482.81"/><polygon class="cls-12" points="274.49 483.62 275.6 484.26 276.69 483.64 275.59 483.02 274.49 483.62"/><polygon class="cls-12" points="275.87 484.43 276.98 485.07 278.07 484.45 276.97 483.83 275.87 484.43"/></g><g><polygon class="cls-12" points="283.21 470.46 284.35 471.12 285.46 470.48 284.34 469.85 283.21 470.46"/><polygon class="cls-12" points="284.6 471.25 285.74 471.91 286.85 471.27 285.72 470.64 284.6 471.25"/><polygon class="cls-12" points="286.16 472.14 287.27 472.78 288.36 472.15 287.26 471.54 286.16 472.14"/><polygon class="cls-12" points="287.58 472.96 288.69 473.61 289.78 472.98 288.68 472.37 287.58 472.96"/><polygon class="cls-12" points="289 473.77 290.11 474.42 291.2 473.79 290.1 473.18 289 473.77"/><polygon class="cls-12" points="290.38 474.58 291.49 475.22 292.58 474.6 291.48 473.98 290.38 474.58"/></g><g><polygon class="cls-12" points="297.57 460.83 298.71 461.49 299.82 460.85 298.69 460.22 297.57 460.83"/><polygon class="cls-12" points="298.95 461.62 300.09 462.28 301.2 461.64 300.08 461.01 298.95 461.62"/><polygon class="cls-12" points="300.51 462.51 301.62 463.15 302.71 462.52 301.61 461.91 300.51 462.51"/><polygon class="cls-12" points="301.93 463.33 303.04 463.98 304.13 463.35 303.03 462.74 301.93 463.33"/><polygon class="cls-12" points="303.35 464.14 304.46 464.79 305.55 464.16 304.45 463.55 303.35 464.14"/><polygon class="cls-12" points="304.73 464.95 305.85 465.59 306.93 464.97 305.83 464.35 304.73 464.95"/></g></g><g><ellipse class="cls-11" cx="302.71" cy="456.3" rx="6.28" ry="2.28"/><rect class="cls-11" x="296.43" y="454.02" width="12.56" height="2.28"/><ellipse class="cls-9" cx="302.71" cy="454.02" rx="6.28" ry="2.28"/></g><g><ellipse class="cls-11" cx="315.79" cy="464.29" rx="6.28" ry="2.28"/><rect class="cls-11" x="309.51" y="462.01" width="12.56" height="2.28"/><ellipse class="cls-9" cx="315.79" cy="462.01" rx="6.28" ry="2.28"/></g><g><ellipse class="cls-11" cx="288" cy="465.57" rx="6.28" ry="2.28"/><rect class="cls-11" x="281.72" y="463.29" width="12.56" height="2.28"/><ellipse class="cls-9" cx="288" cy="463.29" rx="6.28" ry="2.28"/></g><g><ellipse class="cls-11" cx="301.08" cy="473.57" rx="6.28" ry="2.28"/><rect class="cls-11" x="294.8" y="471.29" width="12.56" height="2.28"/><ellipse class="cls-9" cx="301.08" cy="471.29" rx="6.28" ry="2.28"/></g><g><ellipse class="cls-11" cx="272.12" cy="474.8" rx="6.28" ry="2.28"/><rect class="cls-11" x="265.84" y="472.52" width="12.56" height="2.28"/><ellipse class="cls-9" cx="272.12" cy="472.52" rx="6.28" ry="2.28"/></g><g><ellipse class="cls-11" cx="285.2" cy="482.79" rx="6.28" ry="2.28"/><rect class="cls-11" x="278.92" y="480.51" width="12.56" height="2.28"/><ellipse class="cls-9" cx="285.2" cy="480.51" rx="6.28" ry="2.28"/></g></g><g><g><path class="cls-2" d="M300.08,499.23l26.77,15.55c.58,.34,1.38,.34,1.96,0l12.99-7.45c.64-.37,.64-1.29,0-1.66l-27.72-16.11c-.56-.33-1.25-.34-1.83-.04l-12.12,6.44c-1.29,.69-1.33,2.53-.06,3.26Z"/><path class="cls-2" d="M315.47,490.36l26.65,15.48c.58,.34,1.38,.34,1.96,0l13.82-7.92c.27-.15,.27-.54,0-.7l-28.55-16.59c-.56-.33-1.25-.34-1.83-.04l-12,6.37c-1.35,.71-1.38,2.63-.06,3.39Z"/><path class="cls-2" d="M331.09,481.64l26.46,15.37c.58,.34,1.38,.34,1.96,0l12.99-7.45c.64-.37,.64-1.29,0-1.66l-27.72-16.11c-.56-.33-1.25-.34-1.83-.04l-11.8,6.27c-1.43,.76-1.47,2.8-.07,3.61Z"/><g><polygon class="cls-12" points="309.57 503.7 310.71 504.36 311.82 503.71 310.69 503.09 309.57 503.7"/><polygon class="cls-12" points="310.95 504.49 312.09 505.14 313.2 504.5 312.08 503.88 310.95 504.49"/><polygon class="cls-12" points="312.51 505.37 313.62 506.02 314.71 505.39 313.61 504.78 312.51 505.37"/><polygon class="cls-12" points="313.93 506.2 315.04 506.84 316.13 506.22 315.03 505.6 313.93 506.2"/><polygon class="cls-12" points="315.35 507.01 316.46 507.65 317.55 507.03 316.45 506.41 315.35 507.01"/><polygon class="cls-12" points="316.73 507.82 317.85 508.46 318.93 507.83 317.83 507.22 316.73 507.82"/></g><g><polygon class="cls-12" points="324.08 493.85 325.21 494.51 326.33 493.87 325.2 493.24 324.08 493.85"/><polygon class="cls-12" points="325.46 494.64 326.6 495.3 327.71 494.65 326.59 494.03 325.46 494.64"/><polygon class="cls-12" points="327.02 495.52 328.13 496.17 329.22 495.54 328.12 494.93 327.02 495.52"/><polygon class="cls-12" points="328.44 496.35 329.55 497 330.64 496.37 329.54 495.76 328.44 496.35"/><polygon class="cls-12" points="329.86 497.16 330.97 497.8 332.06 497.18 330.96 496.56 329.86 497.16"/><polygon class="cls-12" points="331.24 497.97 332.35 498.61 333.44 497.99 332.34 497.37 331.24 497.97"/></g><g><polygon class="cls-12" points="338.43 484.22 339.57 484.88 340.68 484.24 339.56 483.61 338.43 484.22"/><polygon class="cls-12" points="339.82 485.01 340.95 485.67 342.07 485.02 340.94 484.4 339.82 485.01"/><polygon class="cls-12" points="341.37 485.89 342.49 486.54 343.57 485.91 342.47 485.3 341.37 485.89"/><polygon class="cls-12" points="342.79 486.72 343.91 487.37 344.99 486.74 343.89 486.13 342.79 486.72"/><polygon class="cls-12" points="344.21 487.53 345.33 488.17 346.41 487.55 345.31 486.93 344.21 487.53"/><polygon class="cls-12" points="345.6 488.34 346.71 488.98 347.8 488.36 346.7 487.74 345.6 488.34"/></g></g><g><ellipse class="cls-11" cx="343.57" cy="479.68" rx="6.28" ry="2.28"/><rect class="cls-11" x="337.29" y="477.4" width="12.56" height="2.28"/><ellipse class="cls-9" cx="343.57" cy="477.4" rx="6.28" ry="2.28"/></g><g><ellipse class="cls-11" cx="356.65" cy="487.68" rx="6.28" ry="2.28"/><rect class="cls-11" x="350.37" y="485.4" width="12.56" height="2.28"/><ellipse class="cls-9" cx="356.65" cy="485.4" rx="6.28" ry="2.28"/></g><g><ellipse class="cls-11" cx="328.86" cy="488.96" rx="6.28" ry="2.28"/><rect class="cls-11" x="322.58" y="486.68" width="12.56" height="2.28"/><ellipse class="cls-9" cx="328.86" cy="486.68" rx="6.28" ry="2.28"/></g><g><ellipse class="cls-11" cx="341.94" cy="496.96" rx="6.28" ry="2.28"/><rect class="cls-11" x="335.66" y="494.68" width="12.56" height="2.28"/><ellipse class="cls-9" cx="341.94" cy="494.68" rx="6.28" ry="2.28"/></g><g><ellipse class="cls-11" cx="312.98" cy="498.19" rx="6.28" ry="2.28"/><rect class="cls-11" x="306.7" y="495.91" width="12.56" height="2.28"/><ellipse class="cls-9" cx="312.98" cy="495.91" rx="6.28" ry="2.28"/></g><g><ellipse class="cls-11" cx="326.06" cy="506.18" rx="6.28" ry="2.28"/><rect class="cls-11" x="319.78" y="503.9" width="12.56" height="2.28"/><ellipse class="cls-9" cx="326.06" cy="503.9" rx="6.28" ry="2.28"/></g></g><g><g><path class="cls-2" d="M218.29,454.09l26.77,15.55c.58,.34,1.38,.34,1.96,0l12.99-7.45c.64-.37,.64-1.29,0-1.66l-27.72-16.11c-.56-.33-1.25-.34-1.83-.04l-12.12,6.44c-1.29,.69-1.33,2.53-.06,3.26Z"/><path class="cls-2" d="M233.68,445.22l26.65,15.48c.58,.34,1.38,.34,1.96,0l13.82-7.92c.27-.15,.27-.54,0-.7l-28.55-16.59c-.56-.33-1.25-.34-1.83-.04l-12,6.37c-1.35,.71-1.38,2.63-.06,3.39Z"/><path class="cls-2" d="M249.3,436.5l26.46,15.37c.58,.34,1.38,.34,1.96,0l12.99-7.45c.64-.37,.64-1.29,0-1.66l-27.72-16.11c-.56-.33-1.25-.34-1.83-.04l-11.8,6.27c-1.43,.76-1.47,2.8-.07,3.61Z"/><g><polygon class="cls-12" points="227.78 458.56 228.92 459.22 230.03 458.57 228.9 457.95 227.78 458.56"/><polygon class="cls-12" points="229.16 459.35 230.3 460 231.41 459.36 230.29 458.74 229.16 459.35"/><polygon class="cls-12" points="230.72 460.23 231.83 460.88 232.92 460.25 231.82 459.64 230.72 460.23"/><polygon class="cls-12" points="232.14 461.06 233.25 461.7 234.34 461.08 233.24 460.46 232.14 461.06"/><polygon class="cls-12" points="233.56 461.87 234.68 462.51 235.76 461.89 234.66 461.27 233.56 461.87"/><polygon class="cls-12" points="234.94 462.68 236.06 463.32 237.14 462.69 236.04 462.08 234.94 462.68"/></g><g><polygon class="cls-12" points="242.29 448.71 243.43 449.37 244.54 448.73 243.41 448.1 242.29 448.71"/><polygon class="cls-12" points="243.67 449.5 244.81 450.16 245.92 449.51 244.8 448.89 243.67 449.5"/><polygon class="cls-12" points="245.23 450.38 246.34 451.03 247.43 450.4 246.33 449.79 245.23 450.38"/><polygon class="cls-12" points="246.65 451.21 247.76 451.86 248.85 451.23 247.75 450.62 246.65 451.21"/><polygon class="cls-12" points="248.07 452.02 249.18 452.66 250.27 452.04 249.17 451.42 248.07 452.02"/><polygon class="cls-12" points="249.45 452.83 250.57 453.47 251.65 452.85 250.55 452.23 249.45 452.83"/></g><g><polygon class="cls-12" points="256.64 439.08 257.78 439.74 258.89 439.1 257.77 438.47 256.64 439.08"/><polygon class="cls-12" points="258.03 439.87 259.17 440.53 260.28 439.88 259.15 439.26 258.03 439.87"/><polygon class="cls-12" points="259.59 440.75 260.7 441.4 261.79 440.77 260.69 440.16 259.59 440.75"/><polygon class="cls-12" points="261.01 441.58 262.12 442.23 263.21 441.6 262.11 440.99 261.01 441.58"/><polygon class="cls-12" points="262.43 442.39 263.54 443.03 264.63 442.41 263.53 441.79 262.43 442.39"/><polygon class="cls-12" points="263.81 443.2 264.92 443.84 266.01 443.22 264.91 442.6 263.81 443.2"/></g></g><g><ellipse class="cls-11" cx="261.79" cy="434.54" rx="6.28" ry="2.28"/><rect class="cls-11" x="255.51" y="432.26" width="12.56" height="2.28"/><ellipse class="cls-9" cx="261.79" cy="432.26" rx="6.28" ry="2.28"/></g><g><ellipse class="cls-11" cx="274.86" cy="442.54" rx="6.28" ry="2.28"/><rect class="cls-11" x="268.58" y="440.26" width="12.56" height="2.28"/><ellipse class="cls-9" cx="274.86" cy="440.26" rx="6.28" ry="2.28"/></g><g><ellipse class="cls-11" cx="247.07" cy="443.82" rx="6.28" ry="2.28"/><rect class="cls-11" x="240.79" y="441.54" width="12.56" height="2.28"/><ellipse class="cls-9" cx="247.07" cy="441.54" rx="6.28" ry="2.28"/></g><g><ellipse class="cls-11" cx="260.15" cy="451.81" rx="6.28" ry="2.28"/><rect class="cls-11" x="253.87" y="449.54" width="12.56" height="2.28"/><ellipse class="cls-9" cx="260.15" cy="449.54" rx="6.28" ry="2.28"/></g><g><ellipse class="cls-11" cx="231.2" cy="453.05" rx="6.28" ry="2.28"/><rect class="cls-11" x="224.92" y="450.77" width="12.56" height="2.28"/><ellipse class="cls-9" cx="231.2" cy="450.77" rx="6.28" ry="2.28"/></g><g><ellipse class="cls-11" cx="244.27" cy="461.04" rx="6.28" ry="2.28"/><rect class="cls-11" x="237.99" y="458.76" width="12.56" height="2.28"/><ellipse class="cls-9" cx="244.27" cy="458.76" rx="6.28" ry="2.28"/></g></g><polygon class="cls-13" points="356.91 559.42 203.76 648.87 0 530.64 153.44 441.31 356.91 559.42"/><polygon class="cls-6" points="203.76 648.87 203.76 665.83 356.72 577.74 356.72 559.71 203.76 648.87"/><polygon class="cls-10" points="358.98 417.82 358.98 736.97 589.32 603.99 589.32 444.4 428.07 537.51 428.07 377.93 358.98 417.82"/><polygon class="cls-4" points="0 548.14 0 530.64 203.76 648.87 203.76 665.68 0 548.14"/><path class="cls-4" d="M665.11,122.38l-.83,435.01-301.33,172.71-2.22-426.64L665.11,122.38m4.01-7.04l-312.41,185.84,2.27,435.79,309.29-177.27,.85-444.37h0Z"/><path class="cls-4" d="M151.7,187.77l201.06,115.75,2.09,107.45-203.09-112.15-.06-111.05m-4-6.92l.06,120.33,211.22,116.64-2.27-116.64-209.02-120.33h0Z"/><path class="cls-4" d="M458.18,4.59l202.88,110.89-304.37,181.06-201-115.72L458.18,4.59m-.06-4.59L147.7,180.85l209.02,120.33L669.12,115.34,458.11,0h0Z"/><polygon class="cls-5" points="356.97 301.95 153.38 180.85 458.16 3.21 663.57 115.34 356.97 301.95"/><g><g><path class="cls-2" d="M90.48,569.89l26.77,15.55c.58,.34,1.38,.34,1.96,0l12.99-7.45c.64-.37,.64-1.29,0-1.66l-27.72-16.11c-.56-.33-1.25-.34-1.83-.04l-12.12,6.44c-1.29,.69-1.33,2.53-.06,3.26Z"/><path class="cls-2" d="M105.88,561.02l26.65,15.48c.58,.34,1.38,.34,1.96,0l13.82-7.92c.27-.15,.27-.54,0-.7l-28.55-16.59c-.56-.33-1.25-.34-1.83-.04l-12,6.37c-1.35,.71-1.38,2.63-.06,3.39Z"/><path class="cls-2" d="M121.5,552.29l26.46,15.37c.58,.34,1.38,.34,1.96,0l12.99-7.45c.64-.37,.64-1.29,0-1.66l-27.72-16.11c-.56-.33-1.25-.34-1.83-.04l-11.8,6.27c-1.43,.76-1.47,2.8-.07,3.61Z"/><g><polygon class="cls-12" points="99.98 574.35 101.11 575.01 102.22 574.37 101.1 573.74 99.98 574.35"/><polygon class="cls-12" points="101.36 575.14 102.5 575.8 103.61 575.16 102.48 574.53 101.36 575.14"/><polygon class="cls-12" points="102.92 576.03 104.03 576.67 105.12 576.04 104.02 575.43 102.92 576.03"/><polygon class="cls-12" points="104.34 576.85 105.45 577.5 106.54 576.87 105.44 576.26 104.34 576.85"/><polygon class="cls-12" points="105.76 577.66 106.87 578.31 107.96 577.68 106.86 577.07 105.76 577.66"/><polygon class="cls-12" points="107.14 578.47 108.25 579.11 109.34 578.49 108.24 577.87 107.14 578.47"/></g><g><polygon class="cls-12" points="114.48 564.5 115.62 565.16 116.73 564.52 115.61 563.89 114.48 564.5"/><polygon class="cls-12" points="115.87 565.29 117.01 565.95 118.12 565.31 116.99 564.68 115.87 565.29"/><polygon class="cls-12" points="117.43 566.18 118.54 566.82 119.63 566.19 118.53 565.58 117.43 566.18"/><polygon class="cls-12" points="118.85 567 119.96 567.65 121.05 567.02 119.95 566.41 118.85 567"/><polygon class="cls-12" points="120.27 567.81 121.38 568.46 122.47 567.83 121.37 567.22 120.27 567.81"/><polygon class="cls-12" points="121.65 568.62 122.76 569.27 123.85 568.64 122.75 568.03 121.65 568.62"/></g><g><polygon class="cls-12" points="128.84 554.87 129.98 555.53 131.09 554.89 129.96 554.26 128.84 554.87"/><polygon class="cls-12" points="130.22 555.66 131.36 556.32 132.47 555.68 131.35 555.05 130.22 555.66"/><polygon class="cls-12" points="131.78 556.55 132.89 557.19 133.98 556.56 132.88 555.95 131.78 556.55"/><polygon class="cls-12" points="133.2 557.37 134.31 558.02 135.4 557.39 134.3 556.78 133.2 557.37"/><polygon class="cls-12" points="134.62 558.18 135.73 558.83 136.82 558.2 135.72 557.59 134.62 558.18"/><polygon class="cls-12" points="136 558.99 137.12 559.64 138.2 559.01 137.1 558.4 136 558.99"/></g></g><g><ellipse class="cls-11" cx="133.98" cy="550.34" rx="6.28" ry="2.28"/><rect class="cls-11" x="127.7" y="548.06" width="12.56" height="2.28"/><ellipse class="cls-9" cx="133.98" cy="548.06" rx="6.28" ry="2.28"/></g><g><ellipse class="cls-11" cx="147.06" cy="558.33" rx="6.28" ry="2.28"/><rect class="cls-11" x="140.78" y="556.05" width="12.56" height="2.28"/><ellipse class="cls-9" cx="147.06" cy="556.05" rx="6.28" ry="2.28"/></g><g><ellipse class="cls-11" cx="119.27" cy="559.61" rx="6.28" ry="2.28"/><rect class="cls-11" x="112.99" y="557.33" width="12.56" height="2.28"/><ellipse class="cls-9" cx="119.27" cy="557.33" rx="6.28" ry="2.28"/></g><g><ellipse class="cls-11" cx="132.35" cy="567.61" rx="6.28" ry="2.28"/><rect class="cls-11" x="126.07" y="565.33" width="12.56" height="2.28"/><ellipse class="cls-9" cx="132.35" cy="565.33" rx="6.28" ry="2.28"/></g><g><ellipse class="cls-11" cx="103.39" cy="568.84" rx="6.28" ry="2.28"/><rect class="cls-11" x="97.11" y="566.56" width="12.56" height="2.28"/><ellipse class="cls-9" cx="103.39" cy="566.56" rx="6.28" ry="2.28"/></g><g><ellipse class="cls-11" cx="116.47" cy="576.83" rx="6.28" ry="2.28"/><rect class="cls-11" x="110.19" y="574.55" width="12.56" height="2.28"/><ellipse class="cls-9" cx="116.47" cy="574.55" rx="6.28" ry="2.28"/></g></g><g><g><path class="cls-2" d="M131.35,593.28l26.77,15.55c.58,.34,1.38,.34,1.96,0l12.99-7.45c.64-.37,.64-1.29,0-1.66l-27.72-16.11c-.56-.33-1.25-.34-1.83-.04l-12.12,6.44c-1.29,.69-1.33,2.53-.06,3.26Z"/><path class="cls-2" d="M146.74,584.4l26.65,15.48c.58,.34,1.38,.34,1.96,0l13.82-7.92c.27-.15,.27-.54,0-.7l-28.55-16.59c-.56-.33-1.25-.34-1.83-.04l-12,6.37c-1.35,.71-1.38,2.63-.06,3.39Z"/><path class="cls-2" d="M162.36,575.68l26.46,15.37c.58,.34,1.38,.34,1.96,0l12.99-7.45c.64-.37,.64-1.29,0-1.66l-27.72-16.11c-.56-.33-1.25-.34-1.83-.04l-11.8,6.27c-1.43,.76-1.47,2.8-.07,3.61Z"/><g><polygon class="cls-12" points="140.84 597.74 141.98 598.4 143.09 597.76 141.96 597.13 140.84 597.74"/><polygon class="cls-12" points="142.22 598.53 143.36 599.19 144.47 598.54 143.35 597.92 142.22 598.53"/><polygon class="cls-12" points="143.78 599.41 144.89 600.06 145.98 599.43 144.88 598.82 143.78 599.41"/><polygon class="cls-12" points="145.2 600.24 146.31 600.89 147.4 600.26 146.3 599.64 145.2 600.24"/><polygon class="cls-12" points="146.62 601.05 147.73 601.69 148.82 601.07 147.72 600.45 146.62 601.05"/><polygon class="cls-12" points="148 601.86 149.12 602.5 150.2 601.88 149.1 601.26 148 601.86"/></g><g><polygon class="cls-12" points="155.35 587.89 156.48 588.55 157.6 587.91 156.47 587.28 155.35 587.89"/><polygon class="cls-12" points="156.73 588.68 157.87 589.34 158.98 588.69 157.86 588.07 156.73 588.68"/><polygon class="cls-12" points="158.29 589.57 159.4 590.21 160.49 589.58 159.39 588.97 158.29 589.57"/><polygon class="cls-12" points="159.71 590.39 160.82 591.04 161.91 590.41 160.81 589.8 159.71 590.39"/><polygon class="cls-12" points="161.13 591.2 162.24 591.85 163.33 591.22 162.23 590.6 161.13 591.2"/><polygon class="cls-12" points="162.51 592.01 163.62 592.65 164.71 592.03 163.61 591.41 162.51 592.01"/></g><g><polygon class="cls-12" points="169.7 578.26 170.84 578.92 171.95 578.28 170.83 577.65 169.7 578.26"/><polygon class="cls-12" points="171.09 579.05 172.22 579.71 173.34 579.07 172.21 578.44 171.09 579.05"/><polygon class="cls-12" points="172.64 579.94 173.76 580.58 174.84 579.95 173.74 579.34 172.64 579.94"/><polygon class="cls-12" points="174.06 580.76 175.18 581.41 176.26 580.78 175.16 580.17 174.06 580.76"/><polygon class="cls-12" points="175.48 581.57 176.6 582.22 177.68 581.59 176.58 580.98 175.48 581.57"/><polygon class="cls-12" points="176.87 582.38 177.98 583.02 179.07 582.4 177.97 581.78 176.87 582.38"/></g></g><g><ellipse class="cls-11" cx="174.84" cy="573.72" rx="6.28" ry="2.28"/><rect class="cls-11" x="168.56" y="571.44" width="12.56" height="2.28"/><ellipse class="cls-9" cx="174.84" cy="571.44" rx="6.28" ry="2.28"/></g><g><ellipse class="cls-11" cx="187.92" cy="581.72" rx="6.28" ry="2.28"/><rect class="cls-11" x="181.64" y="579.44" width="12.56" height="2.28"/><ellipse class="cls-9" cx="187.92" cy="579.44" rx="6.28" ry="2.28"/></g><g><ellipse class="cls-11" cx="160.13" cy="583" rx="6.28" ry="2.28"/><rect class="cls-11" x="153.85" y="580.72" width="12.56" height="2.28"/><ellipse class="cls-9" cx="160.13" cy="580.72" rx="6.28" ry="2.28"/></g><g><ellipse class="cls-11" cx="173.21" cy="591" rx="6.28" ry="2.28"/><rect class="cls-11" x="166.93" y="588.72" width="12.56" height="2.28"/><ellipse class="cls-9" cx="173.21" cy="588.72" rx="6.28" ry="2.28"/></g><g><ellipse class="cls-11" cx="144.25" cy="592.23" rx="6.28" ry="2.28"/><rect class="cls-11" x="137.97" y="589.95" width="12.56" height="2.28"/><ellipse class="cls-9" cx="144.25" cy="589.95" rx="6.28" ry="2.28"/></g><g><ellipse class="cls-11" cx="157.33" cy="600.22" rx="6.28" ry="2.28"/><rect class="cls-11" x="151.05" y="597.94" width="12.56" height="2.28"/><ellipse class="cls-9" cx="157.33" cy="597.94" rx="6.28" ry="2.28"/></g></g><g><g><path class="cls-2" d="M49.56,548.13l26.77,15.55c.58,.34,1.38,.34,1.96,0l12.99-7.45c.64-.37,.64-1.29,0-1.66l-27.72-16.11c-.56-.33-1.25-.34-1.83-.04l-12.12,6.44c-1.29,.69-1.33,2.53-.06,3.26Z"/><path class="cls-2" d="M64.95,539.26l26.65,15.48c.58,.34,1.38,.34,1.96,0l13.82-7.92c.27-.15,.27-.54,0-.7l-28.55-16.59c-.56-.33-1.25-.34-1.83-.04l-12,6.37c-1.35,.71-1.38,2.63-.06,3.39Z"/><path class="cls-2" d="M80.57,530.54l26.46,15.37c.58,.34,1.38,.34,1.96,0l12.99-7.45c.64-.37,.64-1.29,0-1.66l-27.72-16.11c-.56-.33-1.25-.34-1.83-.04l-11.8,6.27c-1.43,.76-1.47,2.8-.07,3.61Z"/><g><polygon class="cls-12" points="59.05 552.6 60.19 553.26 61.3 552.62 60.17 551.99 59.05 552.6"/><polygon class="cls-12" points="60.43 553.39 61.57 554.05 62.68 553.4 61.56 552.78 60.43 553.39"/><polygon class="cls-12" points="61.99 554.27 63.1 554.92 64.19 554.29 63.09 553.68 61.99 554.27"/><polygon class="cls-12" points="63.41 555.1 64.52 555.74 65.61 555.12 64.51 554.5 63.41 555.1"/><polygon class="cls-12" points="64.83 555.91 65.95 556.55 67.03 555.93 65.93 555.31 64.83 555.91"/><polygon class="cls-12" points="66.21 556.72 67.33 557.36 68.41 556.74 67.31 556.12 66.21 556.72"/></g><g><polygon class="cls-12" points="73.56 542.75 74.7 543.41 75.81 542.77 74.68 542.14 73.56 542.75"/><polygon class="cls-12" points="74.94 543.54 76.08 544.2 77.19 543.55 76.07 542.93 74.94 543.54"/><polygon class="cls-12" points="76.5 544.42 77.61 545.07 78.7 544.44 77.6 543.83 76.5 544.42"/><polygon class="cls-12" points="77.92 545.25 79.03 545.9 80.12 545.27 79.02 544.66 77.92 545.25"/><polygon class="cls-12" points="79.34 546.06 80.45 546.7 81.54 546.08 80.44 545.46 79.34 546.06"/><polygon class="cls-12" points="80.72 546.87 81.84 547.51 82.92 546.89 81.82 546.27 80.72 546.87"/></g><g><polygon class="cls-12" points="87.91 533.12 89.05 533.78 90.16 533.14 89.04 532.51 87.91 533.12"/><polygon class="cls-12" points="89.3 533.91 90.44 534.57 91.55 533.92 90.42 533.3 89.3 533.91"/><polygon class="cls-12" points="90.86 534.8 91.97 535.44 93.06 534.81 91.96 534.2 90.86 534.8"/><polygon class="cls-12" points="92.28 535.62 93.39 536.27 94.48 535.64 93.38 535.03 92.28 535.62"/><polygon class="cls-12" points="93.7 536.43 94.81 537.08 95.9 536.45 94.8 535.83 93.7 536.43"/><polygon class="cls-12" points="95.08 537.24 96.19 537.88 97.28 537.26 96.18 536.64 95.08 537.24"/></g></g><g><ellipse class="cls-11" cx="93.06" cy="528.58" rx="6.28" ry="2.28"/><rect class="cls-11" x="86.78" y="526.3" width="12.56" height="2.28"/><ellipse class="cls-9" cx="93.06" cy="526.3" rx="6.28" ry="2.28"/></g><g><ellipse class="cls-11" cx="106.13" cy="536.58" rx="6.28" ry="2.28"/><rect class="cls-11" x="99.85" y="534.3" width="12.56" height="2.28"/><ellipse class="cls-9" cx="106.13" cy="534.3" rx="6.28" ry="2.28"/></g><g><ellipse class="cls-11" cx="78.34" cy="537.86" rx="6.28" ry="2.28"/><rect class="cls-11" x="72.06" y="535.58" width="12.56" height="2.28"/><ellipse class="cls-9" cx="78.34" cy="535.58" rx="6.28" ry="2.28"/></g><g><ellipse class="cls-11" cx="91.42" cy="545.86" rx="6.28" ry="2.28"/><rect class="cls-11" x="85.14" y="543.58" width="12.56" height="2.28"/><ellipse class="cls-9" cx="91.42" cy="543.58" rx="6.28" ry="2.28"/></g><g><ellipse class="cls-11" cx="62.47" cy="547.09" rx="6.28" ry="2.28"/><rect class="cls-11" x="56.19" y="544.81" width="12.56" height="2.28"/><ellipse class="cls-9" cx="62.47" cy="544.81" rx="6.28" ry="2.28"/></g><g><ellipse class="cls-11" cx="75.54" cy="555.08" rx="6.28" ry="2.28"/><rect class="cls-11" x="69.26" y="552.8" width="12.56" height="2.28"/><ellipse class="cls-9" cx="75.54" cy="552.8" rx="6.28" ry="2.28"/></g></g><g><g><path class="cls-2" d="M147.66,540.31l26.77,15.55c.58,.34,1.38,.34,1.96,0l12.99-7.45c.64-.37,.64-1.29,0-1.66l-27.72-16.11c-.56-.33-1.25-.34-1.83-.04l-12.12,6.44c-1.29,.69-1.33,2.53-.06,3.26Z"/><path class="cls-2" d="M163.05,531.44l26.65,15.48c.58,.34,1.38,.34,1.96,0l13.82-7.92c.27-.15,.27-.54,0-.7l-28.55-16.59c-.56-.33-1.25-.34-1.83-.04l-12,6.37c-1.35,.71-1.38,2.63-.06,3.39Z"/><path class="cls-2" d="M178.68,522.71l26.46,15.37c.58,.34,1.38,.34,1.96,0l12.99-7.45c.64-.37,.64-1.29,0-1.66l-27.72-16.11c-.56-.33-1.25-.34-1.83-.04l-11.8,6.27c-1.43,.76-1.47,2.8-.07,3.61Z"/><g><polygon class="cls-12" points="157.15 544.77 158.29 545.43 159.4 544.79 158.28 544.16 157.15 544.77"/><polygon class="cls-12" points="158.54 545.56 159.68 546.22 160.79 545.58 159.66 544.95 158.54 545.56"/><polygon class="cls-12" points="160.1 546.45 161.21 547.09 162.3 546.47 161.2 545.85 160.1 546.45"/><polygon class="cls-12" points="161.52 547.28 162.63 547.92 163.72 547.29 162.62 546.68 161.52 547.28"/><polygon class="cls-12" points="162.94 548.09 164.05 548.73 165.14 548.1 164.04 547.49 162.94 548.09"/><polygon class="cls-12" points="164.32 548.9 165.43 549.54 166.52 548.91 165.42 548.3 164.32 548.9"/></g><g><polygon class="cls-12" points="171.66 534.93 172.8 535.58 173.91 534.94 172.79 534.32 171.66 534.93"/><polygon class="cls-12" points="173.05 535.71 174.18 536.37 175.3 535.73 174.17 535.1 173.05 535.71"/><polygon class="cls-12" points="174.6 536.6 175.72 537.24 176.8 536.62 175.7 536 174.6 536.6"/><polygon class="cls-12" points="176.02 537.43 177.14 538.07 178.22 537.44 177.12 536.83 176.02 537.43"/><polygon class="cls-12" points="177.44 538.24 178.56 538.88 179.64 538.25 178.54 537.64 177.44 538.24"/><polygon class="cls-12" points="178.83 539.05 179.94 539.69 181.03 539.06 179.93 538.45 178.83 539.05"/></g><g><polygon class="cls-12" points="186.02 525.3 187.16 525.95 188.27 525.31 187.14 524.69 186.02 525.3"/><polygon class="cls-12" points="187.4 526.08 188.54 526.74 189.65 526.1 188.53 525.47 187.4 526.08"/><polygon class="cls-12" points="188.96 526.97 190.07 527.61 191.16 526.99 190.06 526.37 188.96 526.97"/><polygon class="cls-12" points="190.38 527.8 191.49 528.44 192.58 527.81 191.48 527.2 190.38 527.8"/><polygon class="cls-12" points="191.8 528.61 192.91 529.25 194 528.62 192.9 528.01 191.8 528.61"/><polygon class="cls-12" points="193.18 529.42 194.3 530.06 195.38 529.43 194.28 528.82 193.18 529.42"/></g></g><g><ellipse class="cls-11" cx="191.16" cy="520.76" rx="6.28" ry="2.28"/><rect class="cls-11" x="184.88" y="518.48" width="12.56" height="2.28"/><ellipse class="cls-9" cx="191.16" cy="518.48" rx="6.28" ry="2.28"/></g><g><ellipse class="cls-11" cx="204.24" cy="528.75" rx="6.28" ry="2.28"/><rect class="cls-11" x="197.96" y="526.47" width="12.56" height="2.28"/><ellipse class="cls-9" cx="204.24" cy="526.47" rx="6.28" ry="2.28"/></g><g><ellipse class="cls-11" cx="176.45" cy="530.04" rx="6.28" ry="2.28"/><rect class="cls-11" x="170.17" y="527.76" width="12.56" height="2.28"/><ellipse class="cls-9" cx="176.45" cy="527.76" rx="6.28" ry="2.28"/></g><g><ellipse class="cls-11" cx="189.52" cy="538.03" rx="6.28" ry="2.28"/><rect class="cls-11" x="183.24" y="535.75" width="12.56" height="2.28"/><ellipse class="cls-9" cx="189.52" cy="535.75" rx="6.28" ry="2.28"/></g><g><ellipse class="cls-11" cx="160.57" cy="539.26" rx="6.28" ry="2.28"/><rect class="cls-11" x="154.29" y="536.98" width="12.56" height="2.28"/><ellipse class="cls-9" cx="160.57" cy="536.98" rx="6.28" ry="2.28"/></g><g><ellipse class="cls-11" cx="173.65" cy="547.26" rx="6.28" ry="2.28"/><rect class="cls-11" x="167.37" y="544.98" width="12.56" height="2.28"/><ellipse class="cls-9" cx="173.65" cy="544.98" rx="6.28" ry="2.28"/></g></g><g><g><path class="cls-2" d="M188.52,563.7l26.77,15.55c.58,.34,1.38,.34,1.96,0l12.99-7.45c.64-.37,.64-1.29,0-1.66l-27.72-16.11c-.56-.33-1.25-.34-1.83-.04l-12.12,6.44c-1.29,.69-1.33,2.53-.06,3.26Z"/><path class="cls-2" d="M203.92,554.83l26.65,15.48c.58,.34,1.38,.34,1.96,0l13.82-7.92c.27-.15,.27-.54,0-.7l-28.55-16.59c-.56-.33-1.25-.34-1.83-.04l-12,6.37c-1.35,.71-1.38,2.63-.06,3.39Z"/><path class="cls-2" d="M219.54,546.1l26.46,15.37c.58,.34,1.38,.34,1.96,0l12.99-7.45c.64-.37,.64-1.29,0-1.66l-27.72-16.11c-.56-.33-1.25-.34-1.83-.04l-11.8,6.27c-1.43,.76-1.47,2.8-.07,3.61Z"/><g><polygon class="cls-12" points="198.02 568.16 199.15 568.82 200.27 568.18 199.14 567.55 198.02 568.16"/><polygon class="cls-12" points="199.4 568.95 200.54 569.61 201.65 568.97 200.53 568.34 199.4 568.95"/><polygon class="cls-12" points="200.96 569.84 202.07 570.48 203.16 569.85 202.06 569.24 200.96 569.84"/><polygon class="cls-12" points="202.38 570.67 203.49 571.31 204.58 570.68 203.48 570.07 202.38 570.67"/><polygon class="cls-12" points="203.8 571.48 204.91 572.12 206 571.49 204.9 570.88 203.8 571.48"/><polygon class="cls-12" points="205.18 572.28 206.29 572.93 207.38 572.3 206.28 571.69 205.18 572.28"/></g><g><polygon class="cls-12" points="212.52 558.31 213.66 558.97 214.77 558.33 213.65 557.7 212.52 558.31"/><polygon class="cls-12" points="213.91 559.1 215.05 559.76 216.16 559.12 215.03 558.49 213.91 559.1"/><polygon class="cls-12" points="215.47 559.99 216.58 560.63 217.67 560.01 216.57 559.39 215.47 559.99"/><polygon class="cls-12" points="216.89 560.82 218 561.46 219.09 560.83 217.99 560.22 216.89 560.82"/><polygon class="cls-12" points="218.31 561.63 219.42 562.27 220.51 561.64 219.41 561.03 218.31 561.63"/><polygon class="cls-12" points="219.69 562.44 220.8 563.08 221.89 562.45 220.79 561.84 219.69 562.44"/></g><g><polygon class="cls-12" points="226.88 548.68 228.02 549.34 229.13 548.7 228 548.07 226.88 548.68"/><polygon class="cls-12" points="228.26 549.47 229.4 550.13 230.51 549.49 229.39 548.86 228.26 549.47"/><polygon class="cls-12" points="229.82 550.36 230.94 551 232.02 550.38 230.92 549.76 229.82 550.36"/><polygon class="cls-12" points="231.24 551.19 232.36 551.83 233.44 551.2 232.34 550.59 231.24 551.19"/><polygon class="cls-12" points="232.66 552 233.78 552.64 234.86 552.01 233.76 551.4 232.66 552"/><polygon class="cls-12" points="234.05 552.81 235.16 553.45 236.25 552.82 235.15 552.21 234.05 552.81"/></g></g><g><ellipse class="cls-11" cx="232.02" cy="544.15" rx="6.28" ry="2.28"/><rect class="cls-11" x="225.74" y="541.87" width="12.56" height="2.28"/><ellipse class="cls-9" cx="232.02" cy="541.87" rx="6.28" ry="2.28"/></g><g><ellipse class="cls-11" cx="245.1" cy="552.14" rx="6.28" ry="2.28"/><rect class="cls-11" x="238.82" y="549.86" width="12.56" height="2.28"/><ellipse class="cls-9" cx="245.1" cy="549.86" rx="6.28" ry="2.28"/></g><g><ellipse class="cls-11" cx="217.31" cy="553.43" rx="6.28" ry="2.28"/><rect class="cls-11" x="211.03" y="551.15" width="12.56" height="2.28"/><ellipse class="cls-9" cx="217.31" cy="551.15" rx="6.28" ry="2.28"/></g><g><ellipse class="cls-11" cx="230.39" cy="561.42" rx="6.28" ry="2.28"/><rect class="cls-11" x="224.11" y="559.14" width="12.56" height="2.28"/><ellipse class="cls-9" cx="230.39" cy="559.14" rx="6.28" ry="2.28"/></g><g><ellipse class="cls-11" cx="201.43" cy="562.65" rx="6.28" ry="2.28"/><rect class="cls-11" x="195.15" y="560.37" width="12.56" height="2.28"/><ellipse class="cls-9" cx="201.43" cy="560.37" rx="6.28" ry="2.28"/></g><g><ellipse class="cls-11" cx="214.51" cy="570.65" rx="6.28" ry="2.28"/><rect class="cls-11" x="208.23" y="568.37" width="12.56" height="2.28"/><ellipse class="cls-9" cx="214.51" cy="568.37" rx="6.28" ry="2.28"/></g></g><g><g><path class="cls-2" d="M106.74,518.56l26.77,15.55c.58,.34,1.38,.34,1.96,0l12.99-7.45c.64-.37,.64-1.29,0-1.66l-27.72-16.11c-.56-.33-1.25-.34-1.83-.04l-12.12,6.44c-1.29,.69-1.33,2.53-.06,3.26Z"/><path class="cls-2" d="M122.13,509.69l26.65,15.48c.58,.34,1.38,.34,1.96,0l13.82-7.92c.27-.15,.27-.54,0-.7l-28.55-16.59c-.56-.33-1.25-.34-1.83-.04l-12,6.37c-1.35,.71-1.38,2.63-.06,3.39Z"/><path class="cls-2" d="M137.75,500.96l26.46,15.37c.58,.34,1.38,.34,1.96,0l12.99-7.45c.64-.37,.64-1.29,0-1.66l-27.72-16.11c-.56-.33-1.25-.34-1.83-.04l-11.8,6.27c-1.43,.76-1.47,2.8-.07,3.61Z"/><g><polygon class="cls-12" points="116.23 523.02 117.37 523.68 118.48 523.04 117.35 522.41 116.23 523.02"/><polygon class="cls-12" points="117.61 523.81 118.75 524.47 119.86 523.83 118.74 523.2 117.61 523.81"/><polygon class="cls-12" points="119.17 524.7 120.28 525.34 121.37 524.71 120.27 524.1 119.17 524.7"/><polygon class="cls-12" points="120.59 525.53 121.7 526.17 122.79 525.54 121.69 524.93 120.59 525.53"/><polygon class="cls-12" points="122.01 526.33 123.12 526.98 124.21 526.35 123.11 525.74 122.01 526.33"/><polygon class="cls-12" points="123.39 527.14 124.51 527.79 125.59 527.16 124.49 526.55 123.39 527.14"/></g><g><polygon class="cls-12" points="130.74 513.17 131.87 513.83 132.99 513.19 131.86 512.56 130.74 513.17"/><polygon class="cls-12" points="132.12 513.96 133.26 514.62 134.37 513.98 133.25 513.35 132.12 513.96"/><polygon class="cls-12" points="133.68 514.85 134.79 515.49 135.88 514.87 134.78 514.25 133.68 514.85"/><polygon class="cls-12" points="135.1 515.68 136.21 516.32 137.3 515.69 136.2 515.08 135.1 515.68"/><polygon class="cls-12" points="136.52 516.49 137.63 517.13 138.72 516.5 137.62 515.89 136.52 516.49"/><polygon class="cls-12" points="137.9 517.29 139.01 517.94 140.1 517.31 139 516.7 137.9 517.29"/></g><g><polygon class="cls-12" points="145.09 503.54 146.23 504.2 147.34 503.56 146.22 502.93 145.09 503.54"/><polygon class="cls-12" points="146.48 504.33 147.61 504.99 148.73 504.35 147.6 503.72 146.48 504.33"/><polygon class="cls-12" points="148.03 505.22 149.15 505.86 150.23 505.24 149.13 504.62 148.03 505.22"/><polygon class="cls-12" points="149.45 506.05 150.57 506.69 151.65 506.06 150.55 505.45 149.45 506.05"/><polygon class="cls-12" points="150.87 506.86 151.99 507.5 153.07 506.87 151.97 506.26 150.87 506.86"/><polygon class="cls-12" points="152.26 507.67 153.37 508.31 154.46 507.68 153.36 507.07 152.26 507.67"/></g></g><g><ellipse class="cls-11" cx="150.23" cy="499.01" rx="6.28" ry="2.28"/><rect class="cls-11" x="143.95" y="496.73" width="12.56" height="2.28"/><ellipse class="cls-9" cx="150.23" cy="496.73" rx="6.28" ry="2.28"/></g><g><ellipse class="cls-11" cx="163.31" cy="507" rx="6.28" ry="2.28"/><rect class="cls-11" x="157.03" y="504.72" width="12.56" height="2.28"/><ellipse class="cls-9" cx="163.31" cy="504.72" rx="6.28" ry="2.28"/></g><g><ellipse class="cls-11" cx="135.52" cy="508.29" rx="6.28" ry="2.28"/><rect class="cls-11" x="129.24" y="506.01" width="12.56" height="2.28"/><ellipse class="cls-9" cx="135.52" cy="506.01" rx="6.28" ry="2.28"/></g><g><ellipse class="cls-11" cx="148.6" cy="516.28" rx="6.28" ry="2.28"/><rect class="cls-11" x="142.32" y="514" width="12.56" height="2.28"/><ellipse class="cls-9" cx="148.6" cy="514" rx="6.28" ry="2.28"/></g><g><ellipse class="cls-11" cx="119.64" cy="517.51" rx="6.28" ry="2.28"/><rect class="cls-11" x="113.36" y="515.23" width="12.56" height="2.28"/><ellipse class="cls-9" cx="119.64" cy="515.23" rx="6.28" ry="2.28"/></g><g><ellipse class="cls-11" cx="132.72" cy="525.51" rx="6.28" ry="2.28"/><rect class="cls-11" x="126.44" y="523.23" width="12.56" height="2.28"/><ellipse class="cls-9" cx="132.72" cy="523.23" rx="6.28" ry="2.28"/></g></g><g><g><path class="cls-2" d="M202.86,508.06l26.77,15.55c.58,.34,1.38,.34,1.96,0l12.99-7.45c.64-.37,.64-1.29,0-1.66l-27.72-16.11c-.56-.33-1.25-.34-1.83-.04l-12.12,6.44c-1.29,.69-1.33,2.53-.06,3.26Z"/><path class="cls-2" d="M218.26,499.19l26.65,15.48c.58,.34,1.38,.34,1.96,0l13.82-7.92c.27-.15,.27-.54,0-.7l-28.55-16.59c-.56-.33-1.25-.34-1.83-.04l-12,6.37c-1.35,.71-1.38,2.63-.06,3.39Z"/><path class="cls-2" d="M233.88,490.46l26.46,15.37c.58,.34,1.38,.34,1.96,0l12.99-7.45c.64-.37,.64-1.29,0-1.66l-27.72-16.11c-.56-.33-1.25-.34-1.83-.04l-11.8,6.27c-1.43,.76-1.47,2.8-.07,3.61Z"/><g><polygon class="cls-12" points="212.35 512.52 213.49 513.18 214.6 512.54 213.48 511.91 212.35 512.52"/><polygon class="cls-12" points="213.74 513.31 214.88 513.97 215.99 513.33 214.86 512.7 213.74 513.31"/><polygon class="cls-12" points="215.3 514.2 216.41 514.84 217.5 514.21 216.4 513.6 215.3 514.2"/><polygon class="cls-12" points="216.72 515.03 217.83 515.67 218.92 515.04 217.82 514.43 216.72 515.03"/><polygon class="cls-12" points="218.14 515.84 219.25 516.48 220.34 515.85 219.24 515.24 218.14 515.84"/><polygon class="cls-12" points="219.52 516.64 220.63 517.29 221.72 516.66 220.62 516.05 219.52 516.64"/></g><g><polygon class="cls-12" points="226.86 502.67 228 503.33 229.11 502.69 227.99 502.06 226.86 502.67"/><polygon class="cls-12" points="228.25 503.46 229.39 504.12 230.5 503.48 229.37 502.85 228.25 503.46"/><polygon class="cls-12" points="229.8 504.35 230.92 504.99 232 504.37 230.9 503.75 229.8 504.35"/><polygon class="cls-12" points="231.22 505.18 232.34 505.82 233.42 505.19 232.32 504.58 231.22 505.18"/><polygon class="cls-12" points="232.65 505.99 233.76 506.63 234.84 506 233.74 505.39 232.65 505.99"/><polygon class="cls-12" points="234.03 506.8 235.14 507.44 236.23 506.81 235.13 506.2 234.03 506.8"/></g><g><polygon class="cls-12" points="241.22 493.05 242.36 493.7 243.47 493.06 242.34 492.44 241.22 493.05"/><polygon class="cls-12" points="242.6 493.83 243.74 494.49 244.85 493.85 243.73 493.22 242.6 493.83"/><polygon class="cls-12" points="244.16 494.72 245.27 495.36 246.36 494.74 245.26 494.12 244.16 494.72"/><polygon class="cls-12" points="245.58 495.55 246.69 496.19 247.78 495.56 246.68 494.95 245.58 495.55"/><polygon class="cls-12" points="247 496.36 248.11 497 249.2 496.37 248.1 495.76 247 496.36"/><polygon class="cls-12" points="248.38 497.17 249.5 497.81 250.58 497.18 249.48 496.57 248.38 497.17"/></g></g><g><ellipse class="cls-11" cx="246.36" cy="488.51" rx="6.28" ry="2.28"/><rect class="cls-11" x="240.08" y="486.23" width="12.56" height="2.28"/><ellipse class="cls-9" cx="246.36" cy="486.23" rx="6.28" ry="2.28"/></g><g><ellipse class="cls-11" cx="259.44" cy="496.5" rx="6.28" ry="2.28"/><rect class="cls-11" x="253.16" y="494.22" width="12.56" height="2.28"/><ellipse class="cls-9" cx="259.44" cy="494.22" rx="6.28" ry="2.28"/></g><g><ellipse class="cls-11" cx="231.65" cy="497.79" rx="6.28" ry="2.28"/><rect class="cls-11" x="225.37" y="495.51" width="12.56" height="2.28"/><ellipse class="cls-9" cx="231.65" cy="495.51" rx="6.28" ry="2.28"/></g><g><ellipse class="cls-11" cx="244.72" cy="505.78" rx="6.28" ry="2.28"/><rect class="cls-11" x="238.44" y="503.5" width="12.56" height="2.28"/><ellipse class="cls-9" cx="244.72" cy="503.5" rx="6.28" ry="2.28"/></g><g><ellipse class="cls-11" cx="215.77" cy="507.01" rx="6.28" ry="2.28"/><rect class="cls-11" x="209.49" y="504.73" width="12.56" height="2.28"/><ellipse class="cls-9" cx="215.77" cy="504.73" rx="6.28" ry="2.28"/></g><g><ellipse class="cls-11" cx="228.85" cy="515.01" rx="6.28" ry="2.28"/><rect class="cls-11" x="222.57" y="512.73" width="12.56" height="2.28"/><ellipse class="cls-9" cx="228.85" cy="512.73" rx="6.28" ry="2.28"/></g></g><g><g><path class="cls-2" d="M243.72,531.45l26.77,15.55c.58,.34,1.38,.34,1.96,0l12.99-7.45c.64-.37,.64-1.29,0-1.66l-27.72-16.11c-.56-.33-1.25-.34-1.83-.04l-12.12,6.44c-1.29,.69-1.33,2.53-.06,3.26Z"/><path class="cls-2" d="M259.12,522.58l26.65,15.48c.58,.34,1.38,.34,1.96,0l13.82-7.92c.27-.15,.27-.54,0-.7l-28.55-16.59c-.56-.33-1.25-.34-1.83-.04l-12,6.37c-1.35,.71-1.38,2.63-.06,3.39Z"/><path class="cls-2" d="M274.74,513.85l26.46,15.37c.58,.34,1.38,.34,1.96,0l12.99-7.45c.64-.37,.64-1.29,0-1.66l-27.72-16.11c-.56-.33-1.25-.34-1.83-.04l-11.8,6.27c-1.43,.76-1.47,2.8-.07,3.61Z"/><g><polygon class="cls-12" points="253.22 535.91 254.35 536.57 255.47 535.93 254.34 535.3 253.22 535.91"/><polygon class="cls-12" points="254.6 536.7 255.74 537.36 256.85 536.72 255.73 536.09 254.6 536.7"/><polygon class="cls-12" points="256.16 537.59 257.27 538.23 258.36 537.6 257.26 536.99 256.16 537.59"/><polygon class="cls-12" points="257.58 538.42 258.69 539.06 259.78 538.43 258.68 537.82 257.58 538.42"/><polygon class="cls-12" points="259 539.22 260.11 539.87 261.2 539.24 260.1 538.63 259 539.22"/><polygon class="cls-12" points="260.38 540.03 261.49 540.68 262.58 540.05 261.48 539.44 260.38 540.03"/></g><g><polygon class="cls-12" points="267.73 526.06 268.86 526.72 269.97 526.08 268.85 525.45 267.73 526.06"/><polygon class="cls-12" points="269.11 526.85 270.25 527.51 271.36 526.87 270.23 526.24 269.11 526.85"/><polygon class="cls-12" points="270.67 527.74 271.78 528.38 272.87 527.75 271.77 527.14 270.67 527.74"/><polygon class="cls-12" points="272.09 528.57 273.2 529.21 274.29 528.58 273.19 527.97 272.09 528.57"/><polygon class="cls-12" points="273.51 529.38 274.62 530.02 275.71 529.39 274.61 528.78 273.51 529.38"/><polygon class="cls-12" points="274.89 530.18 276 530.83 277.09 530.2 275.99 529.59 274.89 530.18"/></g><g><polygon class="cls-12" points="282.08 516.43 283.22 517.09 284.33 516.45 283.2 515.82 282.08 516.43"/><polygon class="cls-12" points="283.47 517.22 284.6 517.88 285.71 517.24 284.59 516.61 283.47 517.22"/><polygon class="cls-12" points="285.02 518.11 286.14 518.75 287.22 518.12 286.12 517.51 285.02 518.11"/><polygon class="cls-12" points="286.44 518.94 287.56 519.58 288.64 518.95 287.54 518.34 286.44 518.94"/><polygon class="cls-12" points="287.86 519.75 288.98 520.39 290.06 519.76 288.96 519.15 287.86 519.75"/><polygon class="cls-12" points="289.25 520.55 290.36 521.2 291.45 520.57 290.35 519.96 289.25 520.55"/></g></g><g><ellipse class="cls-11" cx="287.22" cy="511.9" rx="6.28" ry="2.28"/><rect class="cls-11" x="280.94" y="509.62" width="12.56" height="2.28"/><ellipse class="cls-9" cx="287.22" cy="509.62" rx="6.28" ry="2.28"/></g><g><ellipse class="cls-11" cx="300.3" cy="519.89" rx="6.28" ry="2.28"/><rect class="cls-11" x="294.02" y="517.61" width="12.56" height="2.28"/><ellipse class="cls-9" cx="300.3" cy="517.61" rx="6.28" ry="2.28"/></g><g><ellipse class="cls-11" cx="272.51" cy="521.18" rx="6.28" ry="2.28"/><rect class="cls-11" x="266.23" y="518.9" width="12.56" height="2.28"/><ellipse class="cls-9" cx="272.51" cy="518.9" rx="6.28" ry="2.28"/></g><g><ellipse class="cls-11" cx="285.59" cy="529.17" rx="6.28" ry="2.28"/><rect class="cls-11" x="279.31" y="526.89" width="12.56" height="2.28"/><ellipse class="cls-9" cx="285.59" cy="526.89" rx="6.28" ry="2.28"/></g><g><ellipse class="cls-11" cx="256.63" cy="530.4" rx="6.28" ry="2.28"/><rect class="cls-11" x="250.35" y="528.12" width="12.56" height="2.28"/><ellipse class="cls-9" cx="256.63" cy="528.12" rx="6.28" ry="2.28"/></g><g><ellipse class="cls-11" cx="269.71" cy="538.4" rx="6.28" ry="2.28"/><rect class="cls-11" x="263.43" y="536.12" width="12.56" height="2.28"/><ellipse class="cls-9" cx="269.71" cy="536.12" rx="6.28" ry="2.28"/></g></g><g><g><path class="cls-2" d="M161.94,486.31l26.77,15.55c.58,.34,1.38,.34,1.96,0l12.99-7.45c.64-.37,.64-1.29,0-1.66l-27.72-16.11c-.56-.33-1.25-.34-1.83-.04l-12.12,6.44c-1.29,.69-1.33,2.53-.06,3.26Z"/><path class="cls-2" d="M177.33,477.44l26.65,15.48c.58,.34,1.38,.34,1.96,0l13.82-7.92c.27-.15,.27-.54,0-.7l-28.55-16.59c-.56-.33-1.25-.34-1.83-.04l-12,6.37c-1.35,.71-1.38,2.63-.06,3.39Z"/><path class="cls-2" d="M192.95,468.71l26.46,15.37c.58,.34,1.38,.34,1.96,0l12.99-7.45c.64-.37,.64-1.29,0-1.66l-27.72-16.11c-.56-.33-1.25-.34-1.83-.04l-11.8,6.27c-1.43,.76-1.47,2.8-.07,3.61Z"/><g><polygon class="cls-12" points="171.43 490.77 172.57 491.43 173.68 490.79 172.55 490.16 171.43 490.77"/><polygon class="cls-12" points="172.81 491.56 173.95 492.22 175.06 491.58 173.94 490.95 172.81 491.56"/><polygon class="cls-12" points="174.37 492.45 175.48 493.09 176.57 492.46 175.47 491.85 174.37 492.45"/><polygon class="cls-12" points="175.79 493.27 176.9 493.92 177.99 493.29 176.89 492.68 175.79 493.27"/><polygon class="cls-12" points="177.21 494.08 178.32 494.73 179.41 494.1 178.31 493.49 177.21 494.08"/><polygon class="cls-12" points="178.59 494.89 179.71 495.54 180.79 494.91 179.69 494.3 178.59 494.89"/></g><g><polygon class="cls-12" points="185.94 480.92 187.07 481.58 188.19 480.94 187.06 480.31 185.94 480.92"/><polygon class="cls-12" points="187.32 481.71 188.46 482.37 189.57 481.73 188.45 481.1 187.32 481.71"/><polygon class="cls-12" points="188.88 482.6 189.99 483.24 191.08 482.61 189.98 482 188.88 482.6"/><polygon class="cls-12" points="190.3 483.43 191.41 484.07 192.5 483.44 191.4 482.83 190.3 483.43"/><polygon class="cls-12" points="191.72 484.23 192.83 484.88 193.92 484.25 192.82 483.64 191.72 484.23"/><polygon class="cls-12" points="193.1 485.04 194.21 485.69 195.3 485.06 194.2 484.45 193.1 485.04"/></g><g><polygon class="cls-12" points="200.29 471.29 201.43 471.95 202.54 471.31 201.42 470.68 200.29 471.29"/><polygon class="cls-12" points="201.68 472.08 202.81 472.74 203.93 472.1 202.8 471.47 201.68 472.08"/><polygon class="cls-12" points="203.23 472.97 204.35 473.61 205.43 472.98 204.33 472.37 203.23 472.97"/><polygon class="cls-12" points="204.65 473.8 205.77 474.44 206.85 473.81 205.75 473.2 204.65 473.8"/><polygon class="cls-12" points="206.07 474.61 207.19 475.25 208.27 474.62 207.17 474.01 206.07 474.61"/><polygon class="cls-12" points="207.46 475.41 208.57 476.06 209.66 475.43 208.56 474.82 207.46 475.41"/></g></g><g><ellipse class="cls-11" cx="205.43" cy="466.76" rx="6.28" ry="2.28"/><rect class="cls-11" x="199.15" y="464.48" width="12.56" height="2.28"/><ellipse class="cls-9" cx="205.43" cy="464.48" rx="6.28" ry="2.28"/></g><g><ellipse class="cls-11" cx="218.51" cy="474.75" rx="6.28" ry="2.28"/><rect class="cls-11" x="212.23" y="472.47" width="12.56" height="2.28"/><ellipse class="cls-9" cx="218.51" cy="472.47" rx="6.28" ry="2.28"/></g><g><ellipse class="cls-11" cx="190.72" cy="476.03" rx="6.28" ry="2.28"/><rect class="cls-11" x="184.44" y="473.76" width="12.56" height="2.28"/><ellipse class="cls-9" cx="190.72" cy="473.76" rx="6.28" ry="2.28"/></g><g><ellipse class="cls-11" cx="203.8" cy="484.03" rx="6.28" ry="2.28"/><rect class="cls-11" x="197.52" y="481.75" width="12.56" height="2.28"/><ellipse class="cls-9" cx="203.8" cy="481.75" rx="6.28" ry="2.28"/></g><g><ellipse class="cls-11" cx="174.84" cy="485.26" rx="6.28" ry="2.28"/><rect class="cls-11" x="168.56" y="482.98" width="12.56" height="2.28"/><ellipse class="cls-9" cx="174.84" cy="482.98" rx="6.28" ry="2.28"/></g><g><ellipse class="cls-11" cx="187.92" cy="493.26" rx="6.28" ry="2.28"/><rect class="cls-11" x="181.64" y="490.98" width="12.56" height="2.28"/><ellipse class="cls-9" cx="187.92" cy="490.98" rx="6.28" ry="2.28"/></g></g><polygon class="cls-8" points="357.13 416.74 357.67 485.38 231.8 412.62 240.74 352.52 357.13 416.74"/><polygon class="cls-2" points="221.6 140.93 218.09 217.74 251.98 237.16 255.23 121.47 221.6 140.93"/><polygon class="cls-2" points="262.16 117.42 259.5 241.47 268.9 246.86 272.56 111.24 262.16 117.42"/></g></g></svg>