<svg xmlns="http://www.w3.org/2000/svg" viewBox="0 0 566.22 669.24"><defs><style>.cls-1{fill:#b7b7b7;}.cls-2{fill:#e8e8e8;}.cls-3{fill:#a0a0a0;}.cls-4{fill:#dbdbdb;}.cls-5{fill:#efefef;}.cls-6{fill:#f4f4f4;}.cls-7{fill:#5e5e5e;}.cls-8{fill:#f9f9f9;}.cls-9{fill:#b2b2b2;}.cls-10{fill:#d1cdcd;}.cls-11{fill:#d3d1d1;}.cls-12{fill:#070707;}.cls-13{fill:#d1d1d1;}.cls-14{fill:none;}.cls-15{fill:#ddd;}.cls-16{fill:#eaeaea;}.cls-17{fill:#1e1e1e;}</style></defs><g id="レイヤー_2" data-name="レイヤー 2"><g id="parts"><ellipse class="cls-1" cx="102.1" cy="615.25" rx="19.17" ry="6.96"/><rect class="cls-1" x="82.93" y="610.95" width="38.35" height="4.3"/><ellipse class="cls-2" cx="102.1" cy="610.95" rx="19.17" ry="6.96"/><ellipse class="cls-1" cx="102.1" cy="610.88" rx="8.98" ry="3.26"/><rect class="cls-1" x="93.12" y="574.15" width="17.97" height="36.73"/><ellipse class="cls-2" cx="189.4" cy="662.28" rx="19.17" ry="6.96"/><rect class="cls-1" x="180.41" y="625.48" width="17.97" height="36.73"/><ellipse class="cls-1" cx="547.05" cy="465.01" rx="19.17" ry="6.96"/><rect class="cls-1" x="527.87" y="460.71" width="38.35" height="4.3"/><ellipse class="cls-2" cx="547.05" cy="460.71" rx="19.17" ry="6.96"/><ellipse class="cls-1" cx="547.05" cy="460.64" rx="8.98" ry="3.26"/><rect class="cls-1" x="538.06" y="423.91" width="17.97" height="36.73"/><ellipse class="cls-3" cx="94.62" cy="421.28" rx="45.76" ry="16.61"/><rect class="cls-3" x="48.86" y="296.76" width="91.52" height="124.51"/><ellipse class="cls-2" cx="94.62" cy="296.76" rx="45.76" ry="16.61"/><path class="cls-3" d="M54.79,426.39s.94,15.57,4.64,16,5.58-16,5.58-16Z"/><path class="cls-3" d="M125.91,427.55s.94,15.58,4.64,16.05,5.58-16.05,5.58-16.05Z"/><ellipse class="cls-1" cx="34.91" cy="460.61" rx="34.91" ry="12.67"/><rect class="cls-1" y="365.62" width="69.83" height="95"/><ellipse class="cls-2" cx="34.91" cy="365.62" rx="34.91" ry="12.67"/><path class="cls-1" d="M58.79,465.4s.71,11.88,3.53,12.24,4.27-12.24,4.27-12.24Z"/><ellipse class="cls-1" cx="287.66" cy="281.53" rx="14.69" ry="5.33"/><rect class="cls-1" x="272.97" y="278.24" width="29.38" height="3.29"/><ellipse class="cls-2" cx="287.66" cy="278.24" rx="14.69" ry="5.33"/><ellipse class="cls-1" cx="287.66" cy="278.19" rx="6.88" ry="2.5"/><rect class="cls-1" x="280.78" y="250.05" width="13.77" height="28.14"/><ellipse class="cls-2" cx="287.66" cy="250.05" rx="6.88" ry="2.5"/><ellipse class="cls-1" cx="204.6" cy="330.19" rx="14.69" ry="5.33"/><rect class="cls-1" x="189.91" y="326.9" width="29.38" height="3.29"/><ellipse class="cls-2" cx="204.6" cy="326.9" rx="14.69" ry="5.33"/><ellipse class="cls-1" cx="204.6" cy="326.85" rx="6.88" ry="2.5"/><rect class="cls-1" x="197.72" y="298.71" width="13.77" height="28.14"/><ellipse class="cls-2" cx="204.6" cy="298.71" rx="6.88" ry="2.5"/><ellipse class="cls-1" cx="170.56" cy="314.03" rx="14.69" ry="5.33"/><rect class="cls-1" x="155.87" y="310.74" width="29.38" height="3.29"/><ellipse class="cls-2" cx="170.56" cy="310.74" rx="14.69" ry="5.33"/><ellipse class="cls-1" cx="170.56" cy="310.69" rx="6.88" ry="2.5"/><rect class="cls-1" x="163.68" y="282.55" width="13.77" height="28.14"/><ellipse class="cls-2" cx="170.56" cy="282.55" rx="6.88" ry="2.5"/><polygon class="cls-4" points="205.3 319.49 298.09 265.92 298.09 24.08 205.3 76.21 205.3 319.49"/><polygon class="cls-5" points="160.15 50.14 205.3 76.21 205.3 319.49 160.15 293.43 160.15 50.14"/><polygon class="cls-6" points="160.15 50.14 251.7 0 298.09 24.08 205.3 76.21 160.15 50.14"/><polygon class="cls-6" points="160.15 50.14 251.7 0 202.63 6.85 160.15 50.14"/><polygon class="cls-4" points="205.3 76.21 260.29 53.61 298.09 24.08 254.13 29.35 205.3 76.21"/><polygon class="cls-7" points="268.7 282.88 240.24 299.32 240.24 42.68 268.03 27.68 268.7 282.88"/><polygon class="cls-7" points="240.24 42.68 254.13 29.35 268.03 27.68 255.35 38.1 240.24 42.68"/><ellipse class="cls-1" cx="333.62" cy="341.4" rx="63.18" ry="33.81"/><rect class="cls-1" x="270.43" y="88.01" width="126.37" height="253.38"/><ellipse class="cls-2" cx="333.62" cy="88.01" rx="63.18" ry="33.81"/><ellipse class="cls-1" cx="333.62" cy="89.79" rx="79.79" ry="33.66"/><ellipse class="cls-2" cx="333.62" cy="86.23" rx="79.79" ry="33.66"/><polygon class="cls-8" points="324.77 563.84 324.77 406.52 222.58 347.52 222.59 504.84 324.77 563.84"/><polygon class="cls-6" points="222.58 347.52 463.2 208.62 564.95 264.5 324.77 406.52 222.58 347.52"/><polygon class="cls-5" points="324.76 406.52 564.95 264.5 564.95 421.82 324.77 563.84 324.76 406.52"/><polygon class="cls-5" points="337.17 418.09 337.16 545.46 556.03 415.1 557.92 290.64 337.17 418.09"/><polygon class="cls-7" points="441.5 439.13 441.5 416.53 448.21 412.64 448.21 435.25 441.5 439.13"/><polygon class="cls-7" points="462.02 427.42 462.02 404.82 468.74 400.93 468.74 423.54 462.02 427.42"/><polygon class="cls-8" points="189.41 642.17 189.4 484.85 87.22 425.86 87.22 583.18 189.41 642.17"/><polygon class="cls-6" points="87.22 425.86 223.47 347.2 325.65 406.19 189.4 484.85 87.22 425.86"/><polygon class="cls-5" points="189.4 484.85 325.65 406.19 325.65 563.51 189.4 642.17 189.4 484.85"/><polygon class="cls-5" points="201.8 496.43 201.8 623.79 316.59 558.22 315.9 430.55 201.8 496.43"/><polygon class="cls-7" points="250.81 547.26 250.81 524.66 257.52 520.77 257.52 543.38 250.81 547.26"/><polygon class="cls-7" points="269.24 537.64 269.24 515.04 275.96 511.15 275.96 533.76 269.24 537.64"/><polygon class="cls-9" points="254.91 432.89 262.55 437.57 262.38 390.14 254.22 385.43 254.91 432.89"/><polygon class="cls-1" points="141.76 409.37 141.76 424.41 209.32 384.11 209.32 370.37 141.76 409.37"/><polygon class="cls-10" points="116.45 394.75 141.76 409.37 141.76 424.41 116.44 410.24 116.45 394.75"/><polygon class="cls-11" points="184.21 355.63 116.45 394.75 141.76 409.37 209.32 370.37 184.21 355.63"/><ellipse class="cls-12" cx="137.72" cy="399.46" rx="4.05" ry="1.47"/><rect class="cls-12" x="133.67" y="382.92" width="8.09" height="16.54"/><ellipse class="cls-7" cx="137.72" cy="382.92" rx="4.05" ry="1.47"/><ellipse class="cls-12" cx="148.25" cy="393.09" rx="4.05" ry="1.47"/><rect class="cls-12" x="144.2" y="376.55" width="8.09" height="16.54"/><ellipse class="cls-7" cx="148.25" cy="376.55" rx="4.05" ry="1.47"/><ellipse class="cls-12" cx="158.78" cy="386.73" rx="4.05" ry="1.47"/><rect class="cls-12" x="154.73" y="370.19" width="8.09" height="16.54"/><ellipse class="cls-7" cx="158.78" cy="370.19" rx="4.05" ry="1.47"/><ellipse class="cls-12" cx="169.31" cy="380.37" rx="4.05" ry="1.47"/><rect class="cls-12" x="165.27" y="363.83" width="8.09" height="16.54"/><ellipse class="cls-7" cx="169.31" cy="363.83" rx="4.05" ry="1.47"/><ellipse class="cls-12" cx="179.84" cy="374" rx="4.05" ry="1.47"/><rect class="cls-12" x="175.8" y="357.47" width="8.09" height="16.54"/><ellipse class="cls-7" cx="179.84" cy="357.47" rx="4.05" ry="1.47"/><ellipse class="cls-12" cx="190.37" cy="367.64" rx="4.05" ry="1.47"/><rect class="cls-12" x="186.33" y="351.1" width="8.09" height="16.54"/><ellipse class="cls-7" cx="190.37" cy="351.1" rx="4.05" ry="1.47"/><path class="cls-1" d="M425.53,229.31s.87,37.37,4.26,38.5,5.14-38.5,5.14-38.5Z"/><path class="cls-1" d="M381.44,279.16S382,301.43,384,302.1,387,279.16,387,279.16Z"/><path class="cls-3" d="M285.9,336.35s.93,15.57,4.63,16,5.59-16,5.59-16Z"/><rect class="cls-5" x="262.55" y="459.31" width="2.85" height="132.3"/><rect class="cls-5" x="454.77" y="340.04" width="3.01" height="139.74"/><polygon class="cls-13" points="84.51 504.49 560.98 230.31 515.87 206.02 40.49 479.6 84.51 504.49"/><polygon class="cls-7" points="563 236.27 563 229.28 84.51 504.49 84.39 512.52 563 236.27"/><polygon class="cls-1" points="84.39 512.52 40.49 487.18 40.49 479.6 84.51 504.49 84.39 512.52"/><polygon class="cls-7" points="43.07 478.14 86.63 503.29 91.69 500.36 48.04 475.27 43.07 478.14"/><polygon class="cls-7" points="53.61 472.07 97.17 497.22 102.24 494.29 58.58 469.2 53.61 472.07"/><polygon class="cls-7" points="64.16 466 107.72 491.15 112.78 488.23 69.13 463.13 64.16 466"/><polygon class="cls-7" points="74.7 459.93 118.26 485.08 123.33 482.16 79.67 457.06 74.7 459.93"/><polygon class="cls-7" points="85.25 453.86 128.81 479.01 133.87 476.09 90.22 450.99 85.25 453.86"/><polygon class="cls-7" points="95.79 447.8 139.35 472.94 144.42 470.02 100.76 444.93 95.79 447.8"/><polygon class="cls-7" points="106.34 441.73 149.9 466.88 154.96 463.95 111.31 438.86 106.34 441.73"/><polygon class="cls-7" points="116.88 435.66 160.44 460.81 165.51 457.88 121.85 432.79 116.88 435.66"/><polygon class="cls-7" points="127.43 429.59 170.99 454.74 176.05 451.81 132.4 426.72 127.43 429.59"/><polygon class="cls-7" points="137.97 423.52 181.53 448.67 186.6 445.75 142.94 420.65 137.97 423.52"/><polygon class="cls-7" points="148.52 417.45 192.08 442.6 197.14 439.68 153.49 414.58 148.52 417.45"/><polygon class="cls-7" points="159.06 411.38 202.62 436.53 207.69 433.61 164.03 408.51 159.06 411.38"/><polygon class="cls-7" points="169.61 405.32 213.17 430.46 218.23 427.54 174.58 402.44 169.61 405.32"/><polygon class="cls-7" points="180.15 399.25 223.71 424.4 228.78 421.47 185.12 396.38 180.15 399.25"/><polygon class="cls-7" points="190.7 393.18 234.26 418.33 239.32 415.4 195.67 390.31 190.7 393.18"/><polygon class="cls-7" points="201.24 387.11 244.8 412.26 249.87 409.33 206.21 384.24 201.24 387.11"/><polygon class="cls-7" points="211.79 381.04 255.35 406.19 260.41 403.26 216.76 378.17 211.79 381.04"/><polygon class="cls-7" points="222.33 374.97 265.89 400.12 270.96 397.2 227.3 372.1 222.33 374.97"/><polygon class="cls-7" points="232.88 368.9 276.44 394.05 281.5 391.13 237.85 366.03 232.88 368.9"/><polygon class="cls-7" points="243.42 362.84 286.98 387.99 292.05 385.06 248.4 359.97 243.42 362.84"/><polygon class="cls-7" points="253.97 356.77 297.53 381.92 302.59 378.99 258.94 353.9 253.97 356.77"/><polygon class="cls-7" points="264.51 350.7 308.07 375.85 313.14 372.92 269.49 347.83 264.51 350.7"/><polygon class="cls-7" points="275.06 344.63 318.62 369.78 323.68 366.85 280.03 341.76 275.06 344.63"/><polygon class="cls-7" points="285.6 338.56 329.16 363.71 334.23 360.79 290.57 335.69 285.6 338.56"/><polygon class="cls-7" points="296.15 332.49 339.71 357.64 344.77 354.72 301.12 329.62 296.15 332.49"/><polygon class="cls-7" points="306.69 326.43 350.25 351.57 355.32 348.65 311.67 323.55 306.69 326.43"/><polygon class="cls-7" points="317.24 320.36 360.8 345.5 365.86 342.58 322.21 317.49 317.24 320.36"/><polygon class="cls-7" points="327.78 314.29 371.34 339.44 376.41 336.51 332.75 311.42 327.78 314.29"/><polygon class="cls-7" points="338.33 308.22 381.89 333.37 386.95 330.44 343.3 305.35 338.33 308.22"/><polygon class="cls-7" points="348.87 302.15 392.43 327.3 397.5 324.37 353.85 299.28 348.87 302.15"/><polygon class="cls-7" points="359.42 296.08 402.98 321.23 408.05 318.31 364.39 293.21 359.42 296.08"/><polygon class="cls-7" points="369.96 290.01 413.52 315.16 418.59 312.24 374.94 287.14 369.96 290.01"/><polygon class="cls-7" points="380.51 283.94 424.07 309.09 429.13 306.17 385.48 281.07 380.51 283.94"/><polygon class="cls-7" points="391.05 277.88 434.61 303.02 439.68 300.1 396.03 275.01 391.05 277.88"/><polygon class="cls-7" points="401.6 271.81 445.16 296.96 450.23 294.03 406.57 268.94 401.6 271.81"/><polygon class="cls-7" points="412.14 265.74 455.7 290.89 460.77 287.96 417.12 262.87 412.14 265.74"/><polygon class="cls-7" points="422.69 259.67 466.25 284.82 471.31 281.89 427.66 256.8 422.69 259.67"/><polygon class="cls-7" points="433.24 253.6 476.79 278.75 481.86 275.83 438.21 250.73 433.24 253.6"/><polygon class="cls-7" points="443.78 247.53 487.34 272.68 492.41 269.76 448.75 244.66 443.78 247.53"/><polygon class="cls-7" points="454.32 241.47 497.88 266.61 502.95 263.69 459.3 238.59 454.32 241.47"/><polygon class="cls-7" points="464.87 235.4 508.43 260.55 513.5 257.62 469.84 232.53 464.87 235.4"/><polygon class="cls-7" points="475.42 229.33 518.97 254.48 524.04 251.55 480.39 226.46 475.42 229.33"/><polygon class="cls-7" points="485.96 223.26 529.52 248.41 534.59 245.48 490.93 220.39 485.96 223.26"/><polygon class="cls-7" points="496.5 217.19 540.06 242.34 545.13 239.41 501.48 214.32 496.5 217.19"/><polygon class="cls-7" points="507.05 211.12 550.61 236.27 555.68 233.35 512.02 208.25 507.05 211.12"/><line class="cls-14" x1="438.72" y1="274.71" x2="67.38" y2="489.28"/><line class="cls-14" x1="438.72" y1="274.71" x2="275.11" y2="369.33"/><polygon class="cls-15" points="211.54 469.89 251.15 447.03 251.15 377.79 211.29 401.01 211.54 469.89"/><polygon class="cls-9" points="203.13 465.32 211.54 469.89 211.29 401.01 203.13 396.3 203.13 465.32"/><polygon class="cls-16" points="211.29 401.01 203.13 396.3 243.09 373.04 251.15 377.79 211.29 401.01"/><polygon class="cls-15" points="262.55 437.57 302.23 414.31 302.23 366.92 262.38 390.14 262.55 437.57"/><polygon class="cls-16" points="262.38 390.14 254.22 385.43 294.18 362.17 302.23 366.92 262.38 390.14"/><path class="cls-17" d="M139.16,382.23c.8-2.69,1.34-5.43,2.09-8.13a46.25,46.25,0,0,1,3.32-8.13c1.28-2.59,2.49-5.53,4.4-7.74,2.61-3,6.31-4.65,9.77-6.49a35.79,35.79,0,0,1,27.81-3.3c7.91,2,15.91,5.77,19.72,13.41A58.27,58.27,0,0,1,211,378a71.62,71.62,0,0,1,.7,16.74c-.12,1.93,2.88,1.92,3,0a73.79,73.79,0,0,0-4.46-31.18,25.2,25.2,0,0,0-7.82-11.06,37,37,0,0,0-11.63-6c-9.46-3.09-19.37-3.47-28.7.3-2.33.95-4.52,2.12-6.74,3.27a39.73,39.73,0,0,0-5.45,3.21,21.89,21.89,0,0,0-6.38,8A69,69,0,0,0,139,371.1c-1.12,3.38-1.72,6.92-2.73,10.33-.55,1.85,2.34,2.65,2.89.8Z"/><path class="cls-17" d="M149.69,375.48c.55-3.12,1.45-6.15,2-9.27a56,56,0,0,1,2.84-9.29c1.2-3.29,2.35-6.4,4.92-8.9a36,36,0,0,1,5-3.84,71.6,71.6,0,0,1,6.31-4c8.83-4.72,18.78-5.11,28.37-2.71a28.15,28.15,0,0,1,11.9,5.75c3.67,3.23,5.83,7.76,7.61,12.23a107.73,107.73,0,0,1,4.57,14.8,85.89,85.89,0,0,1,2.39,15.2c.1,1.92,3.1,1.93,3,0a100.15,100.15,0,0,0-6.24-28.63c-1.73-4.73-3.75-9.61-7-13.49a27,27,0,0,0-11.79-7.67c-9.38-3.31-20.29-3.83-29.64-.21a60.2,60.2,0,0,0-13.27,7.74,21.21,21.21,0,0,0-7.66,9.39,87.34,87.34,0,0,0-3.88,11.17c-.44,1.78-.65,3.61-1.12,5.38s-.89,3.69-1.22,5.58,2.56,2.7,2.89.79Z"/><path class="cls-17" d="M160.48,370.17c3.08-6.61,6.48-13.27,11.51-18.63a36.15,36.15,0,0,1,17.8-10.26,47.24,47.24,0,0,1,20.83-.34A26,26,0,0,1,221,345.5a57.83,57.83,0,0,1,8.58,7.74c2.94,3.25,4.58,7.43,6.31,11.4a47,47,0,0,1,4,13.07c.23,1.9,3.23,1.92,3,0a46.23,46.23,0,0,0-3.35-12.13c-1.61-3.91-3.21-8.14-5.59-11.65-2.25-3.31-5.35-6-8.37-8.59A31.49,31.49,0,0,0,215.05,339a48.18,48.18,0,0,0-22.57-1.33,40.35,40.35,0,0,0-19.93,9.15c-6.69,5.85-11,13.89-14.66,21.84-.81,1.74,1.77,3.26,2.59,1.51Z"/><path class="cls-17" d="M170.31,363.58l7.43-11.38c2.33-3.57,4.43-7.1,8.3-9.17a49.41,49.41,0,0,1,11.75-4.12,64.6,64.6,0,0,1,12.61-1.69,60.34,60.34,0,0,1,24.73,4.1c7.34,3,13.15,8.74,17.41,15.34A77.16,77.16,0,0,1,259,369.38c1.8,4.43,3.88,9.14,4.25,13.95.15,1.91,3.15,1.93,3,0-.35-4.56-2-8.85-3.69-13.07a93.38,93.38,0,0,0-5.79-12.42c-4.09-7.12-9.69-13.65-17-17.61-7.87-4.28-17.4-5.93-26.27-6a66.42,66.42,0,0,0-26.05,4.89,22.68,22.68,0,0,0-6.32,3.66,26.8,26.8,0,0,0-4.44,5.56q-4.52,6.87-9,13.77c-1.06,1.62,1.54,3.12,2.59,1.51Z"/><path class="cls-17" d="M181.44,357.1c2-7.24,7.24-13.07,13.59-16.89,7.51-4.51,16.37-6,25-6.3a83.53,83.53,0,0,1,13.51.52,28.87,28.87,0,0,1,6.49,1.57,26.16,26.16,0,0,1,5.66,3.26c3.41,2.4,7,4.49,10.33,7.06a71.25,71.25,0,0,1,7,6.33,54.55,54.55,0,0,1,8.26,9.93,52.18,52.18,0,0,1,5.46,12.9,1.5,1.5,0,0,0,2.89-.79,55.93,55.93,0,0,0-4.94-12.2A48.78,48.78,0,0,0,267,352.37a96.82,96.82,0,0,0-7.26-6.92,107,107,0,0,0-10.37-7.32c-1.93-1.24-3.72-2.71-5.75-3.79A25.32,25.32,0,0,0,237,332a68,68,0,0,0-14.25-1.13c-9.33,0-18.94,1.28-27.31,5.65-7.89,4.13-14.52,11.07-16.93,19.78a1.51,1.51,0,0,0,2.9.8Z"/><path class="cls-17" d="M192.36,350.73c3.53-7.13,7.52-14.67,14.52-19,3.63-2.24,7.69-3,11.87-3.39,4.62-.46,9.24-.9,13.87-1.07a75.24,75.24,0,0,1,26.55,3.77,43.84,43.84,0,0,1,10.6,4.85,31.5,31.5,0,0,1,8.21,8.31,63.64,63.64,0,0,1,6.08,11.66,80.49,80.49,0,0,1,4.48,13.23c.44,1.88,3.34,1.09,2.9-.8A80.73,80.73,0,0,0,287.32,356a79.53,79.53,0,0,0-5.54-11.41,37.67,37.67,0,0,0-7.87-9.28,38.26,38.26,0,0,0-10.79-6,75.57,75.57,0,0,0-27.32-5.06c-4.9,0-9.78.45-14.66.91-4.54.43-9.11.81-13.32,2.72-8.88,4-13.91,13-18,21.36-.85,1.72,1.73,3.24,2.59,1.51Z"/><rect class="cls-3" x="279.96" y="206.72" width="91.52" height="124.51"/><ellipse class="cls-2" cx="325.72" cy="206.72" rx="45.76" ry="16.61"/><ellipse class="cls-3" cx="325.72" cy="331.23" rx="45.76" ry="16.61"/><path class="cls-3" d="M357,337.51s.94,15.57,4.64,16,5.58-16,5.58-16Z"/><ellipse class="cls-1" cx="468.74" cy="247.61" rx="46.53" ry="16.89"/><rect class="cls-1" x="422.21" y="120.99" width="93.07" height="126.62"/><ellipse class="cls-2" cx="468.74" cy="120.99" rx="46.53" ry="16.89"/><path class="cls-1" d="M498.89,243.5s.86,37.37,4.26,38.5,5.14-38.5,5.14-38.5Z"/><ellipse class="cls-1" cx="407.2" cy="289.35" rx="27.74" ry="10.07"/><rect class="cls-1" x="379.46" y="213.88" width="55.47" height="75.47"/><ellipse class="cls-2" cx="407.2" cy="213.88" rx="27.74" ry="10.07"/><path class="cls-1" d="M427.43,292.12s.52,22.27,2.54,22.95S433,292.12,433,292.12Z"/></g></g></svg>