<?xml version="1.0" encoding="UTF-8"?><svg id="_イヤー_2" xmlns="http://www.w3.org/2000/svg" viewBox="0 0 566.22 673.54"><defs><style>.cls-1{fill:#b7b7b7;}.cls-2{fill:#ddd;}.cls-3{fill:#f4f4f4;}.cls-4{fill:#d1cdcd;}.cls-5{fill:#d1d1d1;}.cls-6{fill:#dbdbdb;}.cls-7{fill:#a0a0a0;}.cls-8{fill:#b2b2b2;}.cls-9{fill:#d3d1d1;}.cls-10{fill:#eaeaea;}.cls-11{fill:#f9f9f9;}.cls-12{fill:none;}.cls-13{fill:#e8e8e8;}.cls-14{fill:#efefef;}.cls-15{fill:#070707;}.cls-16{fill:#1e1e1e;}.cls-17{fill:#5e5e5e;}</style></defs><g id="parts"><g><ellipse class="cls-1" cx="102.1" cy="615.25" rx="19.17" ry="6.96"/><rect class="cls-1" x="82.93" y="610.95" width="38.35" height="4.3"/><ellipse class="cls-13" cx="102.1" cy="610.95" rx="19.17" ry="6.96"/><ellipse class="cls-1" cx="102.1" cy="610.88" rx="8.98" ry="3.26"/><rect class="cls-1" x="93.12" y="574.15" width="17.97" height="36.73"/><ellipse class="cls-1" cx="189.4" cy="666.58" rx="19.17" ry="6.96"/><rect class="cls-1" x="170.22" y="662.28" width="38.35" height="4.3"/><ellipse class="cls-13" cx="189.4" cy="662.28" rx="19.17" ry="6.96"/><ellipse class="cls-1" cx="189.4" cy="662.22" rx="8.98" ry="3.26"/><rect class="cls-1" x="180.41" y="625.48" width="17.97" height="36.73"/><ellipse class="cls-1" cx="547.05" cy="465.01" rx="19.17" ry="6.96"/><rect class="cls-1" x="527.87" y="460.71" width="38.35" height="4.3"/><ellipse class="cls-13" cx="547.05" cy="460.71" rx="19.17" ry="6.96"/><ellipse class="cls-1" cx="547.05" cy="460.64" rx="8.98" ry="3.26"/><rect class="cls-1" x="538.06" y="423.91" width="17.97" height="36.73"/><g><ellipse class="cls-7" cx="94.62" cy="421.28" rx="45.76" ry="16.61"/><rect class="cls-7" x="48.86" y="296.76" width="91.52" height="124.51"/><ellipse class="cls-13" cx="94.62" cy="296.76" rx="45.76" ry="16.61"/><path class="cls-7" d="M54.79,426.39s.94,15.57,4.63,16.04c3.7,.47,5.59-16.04,5.59-16.04h-10.22Z"/><path class="cls-7" d="M125.91,427.55s.94,15.57,4.63,16.04c3.7,.47,5.59-16.04,5.59-16.04h-10.22Z"/><ellipse class="cls-1" cx="34.91" cy="460.61" rx="34.91" ry="12.67"/><rect class="cls-1" y="365.62" width="69.83" height="95"/><ellipse class="cls-13" cx="34.91" cy="365.62" rx="34.91" ry="12.67"/></g><path class="cls-1" d="M4.53,464.51s.71,11.88,3.54,12.24c2.82,.36,4.26-12.24,4.26-12.24H4.53Z"/><path class="cls-1" d="M58.79,465.4s.71,11.88,3.54,12.24,4.26-12.24,4.26-12.24h-7.8Z"/><g><g><ellipse class="cls-1" cx="287.66" cy="281.53" rx="14.69" ry="5.33"/><rect class="cls-1" x="272.97" y="278.24" width="29.38" height="3.29"/><ellipse class="cls-13" cx="287.66" cy="278.24" rx="14.69" ry="5.33"/><ellipse class="cls-1" cx="287.66" cy="278.19" rx="6.88" ry="2.5"/><rect class="cls-1" x="280.78" y="250.05" width="13.77" height="28.14"/><ellipse class="cls-13" cx="287.66" cy="250.05" rx="6.88" ry="2.5"/></g><g><ellipse class="cls-1" cx="204.6" cy="330.19" rx="14.69" ry="5.33"/><rect class="cls-1" x="189.91" y="326.9" width="29.38" height="3.29"/><ellipse class="cls-13" cx="204.6" cy="326.9" rx="14.69" ry="5.33"/><ellipse class="cls-1" cx="204.6" cy="326.85" rx="6.88" ry="2.5"/><rect class="cls-1" x="197.72" y="298.71" width="13.77" height="28.14"/><ellipse class="cls-13" cx="204.6" cy="298.71" rx="6.88" ry="2.5"/></g><g><ellipse class="cls-1" cx="170.56" cy="314.03" rx="14.69" ry="5.33"/><rect class="cls-1" x="155.87" y="310.74" width="29.38" height="3.29"/><ellipse class="cls-13" cx="170.56" cy="310.74" rx="14.69" ry="5.33"/><ellipse class="cls-1" cx="170.56" cy="310.69" rx="6.88" ry="2.5"/><rect class="cls-1" x="163.68" y="282.55" width="13.77" height="28.14"/><ellipse class="cls-13" cx="170.56" cy="282.55" rx="6.88" ry="2.5"/></g><polygon class="cls-6" points="205.3 319.49 298.09 265.92 298.09 24.08 205.3 76.21 205.3 319.49"/><polygon class="cls-14" points="160.15 50.14 205.3 76.21 205.3 319.49 160.14 293.42 160.15 50.14"/><polygon class="cls-3" points="160.15 50.14 251.7 0 298.09 24.08 205.3 76.21 160.15 50.14"/><polygon class="cls-3" points="160.15 50.14 251.7 0 202.63 6.85 160.15 50.14"/><polygon class="cls-6" points="205.3 76.21 260.29 53.61 298.09 24.08 254.13 29.35 205.3 76.21"/><polygon class="cls-17" points="268.7 282.88 240.24 299.32 240.24 42.68 268.03 27.68 268.7 282.88"/></g><polygon class="cls-17" points="240.24 42.68 254.13 29.35 268.03 27.68 255.35 38.1 240.24 42.68"/><g><ellipse class="cls-1" cx="333.62" cy="341.4" rx="63.18" ry="33.81"/><rect class="cls-1" x="270.43" y="88.01" width="126.37" height="253.38"/><ellipse class="cls-13" cx="333.62" cy="88.01" rx="63.18" ry="33.81"/></g><ellipse class="cls-1" cx="333.62" cy="89.79" rx="79.79" ry="33.66"/><ellipse class="cls-13" cx="333.62" cy="86.23" rx="79.79" ry="33.66"/><g><polygon class="cls-11" points="324.77 563.84 324.77 406.52 222.58 347.52 222.59 504.84 324.77 563.84"/><polygon class="cls-3" points="222.58 347.52 463.2 208.62 564.95 264.5 324.77 406.52 222.58 347.52"/><polygon class="cls-14" points="324.76 406.52 564.95 264.5 564.95 421.83 324.77 563.84 324.76 406.52"/><polygon class="cls-14" points="337.16 418.09 337.16 545.46 556.03 415.1 557.92 290.64 337.16 418.09"/><polygon class="cls-17" points="441.5 439.13 441.5 416.53 448.21 412.64 448.21 435.25 441.5 439.13"/><polygon class="cls-17" points="462.02 427.41 462.02 404.82 468.74 400.93 468.74 423.54 462.02 427.41"/></g><g><polygon class="cls-11" points="189.4 642.17 189.4 484.85 87.22 425.86 87.22 583.18 189.4 642.17"/><polygon class="cls-3" points="87.22 425.86 223.47 347.2 325.65 406.19 189.4 484.85 87.22 425.86"/><polygon class="cls-14" points="189.4 484.85 325.65 406.19 325.65 563.51 189.4 642.17 189.4 484.85"/><polygon class="cls-14" points="201.8 496.42 201.8 623.79 316.59 558.22 315.9 430.55 201.8 496.42"/><polygon class="cls-17" points="250.81 547.26 250.81 524.66 257.53 520.77 257.53 543.38 250.81 547.26"/><polygon class="cls-17" points="269.24 537.64 269.24 515.04 275.96 511.15 275.96 533.76 269.24 537.64"/></g><polygon class="cls-8" points="254.91 432.89 262.55 437.58 262.38 390.14 254.22 385.43 254.91 432.89"/><polygon class="cls-1" points="141.76 409.37 141.76 424.41 209.32 384.11 209.32 370.37 141.76 409.37"/><polygon class="cls-4" points="116.45 394.75 141.76 409.37 141.76 424.41 116.44 410.23 116.45 394.75"/><polygon class="cls-9" points="184.21 355.63 116.45 394.75 141.76 409.37 209.32 370.37 184.21 355.63"/><g><ellipse class="cls-15" cx="137.72" cy="399.46" rx="4.05" ry="1.47"/><rect class="cls-15" x="133.67" y="382.92" width="8.09" height="16.54"/><ellipse class="cls-17" cx="137.72" cy="382.92" rx="4.05" ry="1.47"/></g><g><ellipse class="cls-15" cx="148.25" cy="393.09" rx="4.05" ry="1.47"/><rect class="cls-15" x="144.2" y="376.55" width="8.09" height="16.54"/><ellipse class="cls-17" cx="148.25" cy="376.55" rx="4.05" ry="1.47"/></g><g><ellipse class="cls-15" cx="158.78" cy="386.73" rx="4.05" ry="1.47"/><rect class="cls-15" x="154.73" y="370.19" width="8.09" height="16.54"/><ellipse class="cls-17" cx="158.78" cy="370.19" rx="4.05" ry="1.47"/></g><g><ellipse class="cls-15" cx="169.31" cy="380.37" rx="4.05" ry="1.47"/><rect class="cls-15" x="165.27" y="363.83" width="8.09" height="16.54"/><ellipse class="cls-17" cx="169.31" cy="363.83" rx="4.05" ry="1.47"/></g><g><ellipse class="cls-15" cx="179.84" cy="374" rx="4.05" ry="1.47"/><rect class="cls-15" x="175.8" y="357.47" width="8.09" height="16.54"/><ellipse class="cls-17" cx="179.84" cy="357.47" rx="4.05" ry="1.47"/></g><g><ellipse class="cls-15" cx="190.37" cy="367.64" rx="4.05" ry="1.47"/><rect class="cls-15" x="186.33" y="351.1" width="8.09" height="16.54"/><ellipse class="cls-17" cx="190.37" cy="351.1" rx="4.05" ry="1.47"/></g><path class="cls-1" d="M425.53,229.31s.86,37.37,4.26,38.5c3.4,1.13,5.14-38.5,5.14-38.5h-9.4Z"/><path class="cls-1" d="M381.44,279.16s.51,22.28,2.54,22.95c2.03,.67,3.06-22.95,3.06-22.95h-5.6Z"/><path class="cls-7" d="M285.9,336.35s.94,15.57,4.63,16.04,5.59-16.04,5.59-16.04h-10.22Z"/><rect class="cls-14" x="262.55" y="459.31" width="2.85" height="132.3"/><rect class="cls-14" x="454.77" y="340.04" width="3.01" height="139.74"/><polygon class="cls-5" points="84.51 504.49 560.98 230.31 515.86 206.02 40.49 479.6 84.51 504.49"/><polygon class="cls-17" points="563 236.27 563 229.28 84.51 504.49 84.39 512.52 563 236.27"/><polygon class="cls-1" points="84.39 512.52 40.49 487.18 40.49 479.6 84.51 504.49 84.39 512.52"/><g><polygon class="cls-17" points="43.07 478.14 86.63 503.29 91.69 500.36 48.04 475.27 43.07 478.14"/><polygon class="cls-17" points="53.61 472.07 97.17 497.22 102.24 494.29 58.58 469.2 53.61 472.07"/><polygon class="cls-17" points="64.16 466 107.72 491.15 112.78 488.23 69.13 463.13 64.16 466"/><polygon class="cls-17" points="74.7 459.93 118.26 485.08 123.33 482.16 79.67 457.06 74.7 459.93"/><polygon class="cls-17" points="85.25 453.86 128.81 479.01 133.87 476.09 90.22 450.99 85.25 453.86"/><polygon class="cls-17" points="95.79 447.8 139.35 472.94 144.42 470.02 100.76 444.93 95.79 447.8"/><polygon class="cls-17" points="106.34 441.73 149.9 466.88 154.96 463.95 111.31 438.86 106.34 441.73"/><polygon class="cls-17" points="116.88 435.66 160.44 460.81 165.51 457.88 121.85 432.79 116.88 435.66"/><polygon class="cls-17" points="127.43 429.59 170.99 454.74 176.05 451.81 132.4 426.72 127.43 429.59"/><polygon class="cls-17" points="137.97 423.52 181.53 448.67 186.6 445.75 142.94 420.65 137.97 423.52"/><polygon class="cls-17" points="148.52 417.45 192.08 442.6 197.14 439.68 153.49 414.58 148.52 417.45"/><polygon class="cls-17" points="159.06 411.38 202.62 436.53 207.69 433.61 164.03 408.51 159.06 411.38"/><polygon class="cls-17" points="169.61 405.32 213.17 430.46 218.23 427.54 174.58 402.45 169.61 405.32"/><polygon class="cls-17" points="180.15 399.25 223.71 424.4 228.78 421.47 185.12 396.38 180.15 399.25"/><polygon class="cls-17" points="190.7 393.18 234.26 418.33 239.32 415.4 195.67 390.31 190.7 393.18"/><polygon class="cls-17" points="201.24 387.11 244.8 412.26 249.87 409.33 206.21 384.24 201.24 387.11"/><polygon class="cls-17" points="211.79 381.04 255.35 406.19 260.41 403.27 216.76 378.17 211.79 381.04"/><polygon class="cls-17" points="222.33 374.97 265.89 400.12 270.96 397.2 227.3 372.1 222.33 374.97"/><polygon class="cls-17" points="232.88 368.9 276.44 394.05 281.5 391.13 237.85 366.03 232.88 368.9"/><polygon class="cls-17" points="243.42 362.84 286.98 387.98 292.05 385.06 248.39 359.97 243.42 362.84"/><polygon class="cls-17" points="253.97 356.77 297.53 381.92 302.59 378.99 258.94 353.9 253.97 356.77"/><polygon class="cls-17" points="264.51 350.7 308.07 375.85 313.14 372.92 269.48 347.83 264.51 350.7"/><polygon class="cls-17" points="275.06 344.63 318.62 369.78 323.68 366.85 280.03 341.76 275.06 344.63"/><polygon class="cls-17" points="285.6 338.56 329.16 363.71 334.23 360.79 290.58 335.69 285.6 338.56"/><polygon class="cls-17" points="296.15 332.49 339.71 357.64 344.77 354.72 301.12 329.62 296.15 332.49"/><polygon class="cls-17" points="306.69 326.42 350.25 351.57 355.32 348.65 311.67 323.55 306.69 326.42"/><polygon class="cls-17" points="317.24 320.36 360.8 345.5 365.86 342.58 322.21 317.49 317.24 320.36"/><polygon class="cls-17" points="327.78 314.29 371.34 339.44 376.41 336.51 332.76 311.42 327.78 314.29"/><polygon class="cls-17" points="338.33 308.22 381.89 333.37 386.95 330.44 343.3 305.35 338.33 308.22"/><polygon class="cls-17" points="348.87 302.15 392.43 327.3 397.5 324.37 353.85 299.28 348.87 302.15"/><polygon class="cls-17" points="359.42 296.08 402.98 321.23 408.04 318.31 364.39 293.21 359.42 296.08"/><polygon class="cls-17" points="369.96 290.01 413.52 315.16 418.59 312.24 374.94 287.14 369.96 290.01"/><polygon class="cls-17" points="380.51 283.94 424.07 309.09 429.13 306.17 385.48 281.07 380.51 283.94"/><polygon class="cls-17" points="391.05 277.88 434.61 303.03 439.68 300.1 396.03 275.01 391.05 277.88"/><polygon class="cls-17" points="401.6 271.81 445.16 296.96 450.23 294.03 406.57 268.94 401.6 271.81"/><polygon class="cls-17" points="412.14 265.74 455.7 290.89 460.77 287.96 417.12 262.87 412.14 265.74"/><polygon class="cls-17" points="422.69 259.67 466.25 284.82 471.32 281.89 427.66 256.8 422.69 259.67"/><polygon class="cls-17" points="433.23 253.6 476.79 278.75 481.86 275.83 438.21 250.73 433.23 253.6"/><polygon class="cls-17" points="443.78 247.53 487.34 272.68 492.41 269.76 448.75 244.66 443.78 247.53"/><polygon class="cls-17" points="454.32 241.46 497.88 266.61 502.95 263.69 459.3 238.59 454.32 241.46"/><polygon class="cls-17" points="464.87 235.4 508.43 260.55 513.5 257.62 469.84 232.53 464.87 235.4"/><polygon class="cls-17" points="475.42 229.33 518.97 254.48 524.04 251.55 480.39 226.46 475.42 229.33"/><polygon class="cls-17" points="485.96 223.26 529.52 248.41 534.59 245.48 490.93 220.39 485.96 223.26"/><polygon class="cls-17" points="496.51 217.19 540.06 242.34 545.13 239.41 501.48 214.32 496.51 217.19"/><polygon class="cls-17" points="507.05 211.12 550.61 236.27 555.68 233.35 512.02 208.25 507.05 211.12"/></g><line class="cls-12" x1="438.72" y1="274.71" x2="67.38" y2="489.28"/><line class="cls-12" x1="438.72" y1="274.71" x2="275.11" y2="369.33"/><polygon class="cls-2" points="211.54 469.89 251.15 447.03 251.14 377.79 211.29 401.01 211.54 469.89"/><polygon class="cls-8" points="203.14 465.32 211.54 469.89 211.29 401.01 203.14 396.3 203.14 465.32"/><polygon class="cls-10" points="211.29 401.01 203.14 396.3 243.09 373.04 251.14 377.79 211.29 401.01"/><polygon class="cls-2" points="262.55 437.58 302.23 414.31 302.23 366.92 262.38 390.14 262.55 437.58"/><polygon class="cls-10" points="262.38 390.14 254.22 385.43 294.18 362.17 302.23 366.92 262.38 390.14"/><path class="cls-16" d="M139.16,382.23c.8-2.69,1.34-5.43,2.09-8.13,.8-2.86,2-5.47,3.31-8.13s2.5-5.53,4.4-7.74c2.61-3.03,6.31-4.65,9.77-6.49,4.44-2.37,9.25-4.07,14.28-4.56,4.58-.44,9.09,.11,13.53,1.25,7.91,2.03,15.9,5.78,19.72,13.41,2.48,4.96,3.84,10.72,4.76,16.17s1.07,11.15,.7,16.74c-.13,1.93,2.87,1.92,3,0,.7-10.55-.67-21.28-4.46-31.18-1.67-4.36-4.14-8.15-7.82-11.06-3.45-2.73-7.47-4.6-11.63-5.96-9.46-3.09-19.37-3.47-28.71,.31-2.32,.94-4.52,2.11-6.74,3.27-1.87,.97-3.75,1.95-5.45,3.21-2.91,2.16-4.74,4.87-6.38,8.03s-3.42,6.37-4.54,9.74-1.73,6.91-2.73,10.33c-.55,1.86,2.35,2.65,2.89,.8h0Z"/><path class="cls-16" d="M149.69,375.48c.55-3.13,1.45-6.16,2.01-9.28s1.73-6.26,2.84-9.29c1.2-3.28,2.35-6.4,4.92-8.89,1.52-1.47,3.27-2.66,5.01-3.84,2.07-1.4,4.1-2.84,6.31-4.02,8.83-4.72,18.78-5.11,28.37-2.71,4.28,1.07,8.55,2.8,11.9,5.75,3.67,3.23,5.83,7.76,7.61,12.24,1.91,4.8,3.38,9.78,4.57,14.8s2.13,10.07,2.39,15.19c.1,1.92,3.1,1.93,3,0-.5-9.7-2.93-19.53-6.24-28.63-1.72-4.73-3.75-9.61-7.02-13.49-3.08-3.65-7.33-6.09-11.79-7.67-9.38-3.32-20.29-3.83-29.64-.21-4.81,1.87-9.11,4.73-13.27,7.74-3.46,2.5-6.05,5.42-7.66,9.39-1.47,3.62-2.92,7.37-3.88,11.17-.45,1.78-.65,3.6-1.13,5.38s-.89,3.69-1.22,5.58,2.56,2.7,2.89,.8h0Z"/><path class="cls-16" d="M160.48,370.17c3.08-6.61,6.48-13.27,11.51-18.63s11-8.55,17.81-10.26,14-1.75,20.83-.34c3.83,.79,7.26,2.24,10.41,4.56s6.04,4.91,8.58,7.73c2.94,3.26,4.57,7.43,6.31,11.41,1.82,4.17,3.44,8.53,3.98,13.07,.23,1.89,3.23,1.92,3,0-.5-4.21-1.74-8.21-3.35-12.13s-3.21-8.14-5.59-11.65c-2.25-3.31-5.35-6-8.37-8.59s-6.56-5.03-10.54-6.34c-7.13-2.35-15.21-2.56-22.57-1.33-7.31,1.22-14.32,4.26-19.92,9.15-6.7,5.85-10.96,13.89-14.66,21.84-.81,1.74,1.77,3.26,2.59,1.51h0Z"/><path class="cls-16" d="M170.31,363.58l7.43-11.38c2.33-3.57,4.43-7.1,8.3-9.17,3.63-1.94,7.76-3.16,11.75-4.11s8.36-1.55,12.61-1.69c8.33-.28,16.99,.92,24.73,4.1,7.34,3.01,13.15,8.75,17.4,15.34,2.58,4,4.67,8.31,6.46,12.72s3.89,9.14,4.25,13.95c.15,1.91,3.15,1.93,3,0-.35-4.56-2.04-8.85-3.69-13.07s-3.52-8.45-5.79-12.42c-4.09-7.12-9.69-13.65-16.98-17.61-7.87-4.28-17.4-5.92-26.27-6.04-8.87-.11-17.84,1.51-26.04,4.89-2.27,.94-4.46,2.04-6.32,3.66s-3.15,3.58-4.45,5.56c-3.01,4.58-5.99,9.18-8.99,13.77-1.06,1.62,1.54,3.13,2.59,1.51h0Z"/><path class="cls-16" d="M181.44,357.1c2-7.24,7.24-13.07,13.59-16.89,7.51-4.51,16.37-6.05,25.02-6.3,4.48-.13,9.06-.08,13.51,.52,2.2,.29,4.41,.78,6.49,1.57s3.86,2,5.66,3.26c3.42,2.4,7.03,4.49,10.34,7.05,2.49,1.94,4.8,4.09,7.02,6.33,3.06,3.09,5.99,6.2,8.26,9.94,2.44,4.02,4.19,8.38,5.46,12.9,.52,1.85,3.42,1.07,2.89-.8-1.19-4.23-2.79-8.36-4.94-12.2s-4.76-7.04-7.75-10.12c-2.33-2.4-4.69-4.77-7.26-6.92-3.27-2.72-6.8-5.02-10.37-7.32-1.93-1.24-3.72-2.71-5.75-3.8s-4.31-1.85-6.58-2.34c-4.65-1-9.51-1.13-14.25-1.13-9.33,0-18.94,1.28-27.31,5.65-7.89,4.12-14.53,11.07-16.93,19.78-.51,1.86,2.38,2.66,2.89,.8h0Z"/><path class="cls-16" d="M192.36,350.73c3.53-7.13,7.52-14.67,14.52-18.97,3.63-2.23,7.69-2.97,11.87-3.39,4.61-.46,9.24-.9,13.87-1.07,9.11-.34,17.89,.95,26.55,3.78,3.7,1.21,7.34,2.69,10.6,4.84s5.98,5.13,8.21,8.31c2.51,3.59,4.36,7.64,6.08,11.66,1.83,4.28,3.42,8.69,4.48,13.23,.44,1.88,3.33,1.08,2.89-.8-.99-4.23-2.45-8.35-4.12-12.36s-3.32-7.82-5.54-11.41-4.76-6.73-7.87-9.28-6.92-4.5-10.79-5.98c-8.71-3.33-18-5.12-27.32-5.07-4.9,.03-9.78,.46-14.66,.92-4.54,.43-9.12,.8-13.32,2.72-8.89,4.04-13.91,13.01-18.05,21.36-.85,1.72,1.73,3.25,2.59,1.51h0Z"/><rect class="cls-7" x="279.96" y="206.72" width="91.52" height="124.51"/><ellipse class="cls-13" cx="325.72" cy="206.72" rx="45.76" ry="16.61"/><ellipse class="cls-7" cx="325.72" cy="331.23" rx="45.76" ry="16.61"/><path class="cls-7" d="M357.01,337.51s.94,15.57,4.63,16.04c3.7,.47,5.59-16.04,5.59-16.04h-10.22Z"/><ellipse class="cls-1" cx="468.74" cy="247.61" rx="46.53" ry="16.89"/><rect class="cls-1" x="422.21" y="120.99" width="93.07" height="126.62"/><ellipse class="cls-13" cx="468.74" cy="120.99" rx="46.53" ry="16.89"/><path class="cls-1" d="M498.89,243.5s.86,37.37,4.26,38.5c3.4,1.13,5.14-38.5,5.14-38.5h-9.4Z"/><ellipse class="cls-1" cx="407.2" cy="289.35" rx="27.74" ry="10.07"/><rect class="cls-1" x="379.46" y="213.88" width="55.47" height="75.47"/><ellipse class="cls-13" cx="407.2" cy="213.88" rx="27.74" ry="10.07"/><path class="cls-1" d="M427.43,292.12s.51,22.28,2.54,22.95,3.06-22.95,3.06-22.95h-5.6Z"/></g></g></svg>