<?xml version="1.0" encoding="UTF-8"?><svg id="_イヤー_2" xmlns="http://www.w3.org/2000/svg" xmlns:xlink="http://www.w3.org/1999/xlink" viewBox="0 0 673.21 797.72"><defs><style>.cls-1{fill:#b7b7b7;}.cls-2{fill:#ddd;}.cls-3{fill:#dbfcf9;}.cls-4{fill:#f4f4f4;}.cls-5{fill:#fff;}.cls-6{fill:#d1cdcd;}.cls-7{fill:#bfbfbf;}.cls-8{fill:#a0a0a0;}.cls-9{fill:#b2b2b2;}.cls-10{fill:#ccfffb;}.cls-11{fill:#d3d1d1;}.cls-12{fill:#e0e0e0;}.cls-13{fill:#282828;}.cls-14{fill:#eaeaea;}.cls-15{fill:#03190f;}.cls-16{fill:#f9f9f9;}.cls-17{clip-path:url(#clippath);}.cls-18{fill:none;}.cls-19{fill:#e8e8e8;}.cls-20{fill:#515151;}.cls-21{fill:#efefef;}.cls-22{fill:#05331e;}.cls-23{fill:#a8a8a8;}.cls-24{fill:#cecece;}.cls-25{fill:#070707;}</style><clipPath id="clippath"><path class="cls-18" d="M76.8,231.65v292.02c0,16.63,37.14,30.11,82.94,30.11s82.94-13.48,82.94-30.11V231.65H76.8Z"/></clipPath></defs><g id="parts"><g><g><g><polygon class="cls-13" points="495.72 565.72 489.58 568.84 503.87 596.22 510.1 593.08 495.72 565.72"/><path class="cls-13" d="M491.93,573.07c-.37-2.01,.2-4.07,1.54-5.61,2.43-2.79,6.66-3.08,9.45-.65,3.23,2.03,5.9,4.86,7.73,8.2,1.95,3.27,3.03,6.99,3.13,10.8,.39,2.03-.18,4.12-1.55,5.67-2.44,2.76-6.65,3.03-9.41,.59-3.25-2.01-5.92-4.83-7.77-8.17-1.94-3.28-3.01-7-3.13-10.8v-.03Z"/><path class="cls-25" d="M486.17,575.95c-.37-2.01,.2-4.07,1.54-5.61,2.43-2.79,6.66-3.08,9.45-.65,3.23,2.03,5.9,4.86,7.73,8.2,1.95,3.27,3.03,6.99,3.13,10.8,.39,2.03-.18,4.12-1.55,5.67-2.44,2.76-6.65,3.03-9.41,.59-3.25-2.01-5.92-4.83-7.77-8.17-1.94-3.28-3.01-7-3.13-10.8v-.03Z"/><ellipse class="cls-23" cx="497.15" cy="582.3" rx="2.69" ry="4.67" transform="translate(-224.54 326.59) rotate(-30)"/></g><g><polygon class="cls-13" points="655.03 480.11 648.88 483.23 663.17 510.6 669.4 507.47 655.03 480.11"/><path class="cls-13" d="M651.23,487.46c-.37-2.01,.2-4.07,1.54-5.61,2.43-2.79,6.66-3.08,9.45-.65,3.23,2.03,5.9,4.86,7.73,8.2,1.95,3.27,3.03,6.99,3.13,10.8,.39,2.03-.18,4.12-1.55,5.67-2.44,2.76-6.65,3.03-9.41,.59-3.25-2.01-5.92-4.83-7.77-8.17-1.94-3.28-3.01-7-3.13-10.8v-.03Z"/><path class="cls-25" d="M645.47,490.34c-.37-2.01,.2-4.07,1.54-5.61,2.43-2.79,6.66-3.08,9.45-.65,3.23,2.03,5.9,4.86,7.73,8.2,1.95,3.27,3.03,6.99,3.13,10.8,.39,2.03-.18,4.12-1.55,5.67-2.44,2.76-6.65,3.03-9.41,.59-3.25-2.01-5.92-4.83-7.77-8.17-1.94-3.28-3.01-7-3.13-10.8v-.03Z"/><ellipse class="cls-23" cx="656.45" cy="496.69" rx="2.69" ry="4.67" transform="translate(-160.4 394.77) rotate(-30)"/></g><g><polygon class="cls-13" points="387.99 508.27 381.85 511.39 396.14 538.77 402.37 535.63 387.99 508.27"/><path class="cls-13" d="M384.2,515.62c-.37-2.01,.2-4.07,1.54-5.61,2.43-2.79,6.66-3.08,9.45-.65,3.23,2.03,5.9,4.86,7.73,8.2,1.95,3.27,3.03,6.99,3.13,10.8,.39,2.03-.18,4.12-1.55,5.67-2.44,2.76-6.65,3.03-9.41,.59-3.25-2.01-5.92-4.83-7.77-8.17-1.94-3.28-3.01-7-3.13-10.8v-.03Z"/><path class="cls-25" d="M378.44,518.5c-.37-2.01,.2-4.07,1.54-5.61,2.43-2.79,6.66-3.08,9.45-.65,3.23,2.03,5.9,4.86,7.73,8.2,1.95,3.27,3.03,6.99,3.13,10.8,.39,2.03-.18,4.12-1.55,5.67-2.44,2.76-6.65,3.03-9.41,.59-3.25-2.01-5.92-4.83-7.77-8.17-1.94-3.28-3.01-7-3.13-10.8v-.03Z"/><ellipse class="cls-23" cx="389.42" cy="524.85" rx="2.69" ry="4.67" transform="translate(-210.25 265.03) rotate(-30)"/></g><g><polygon class="cls-4" points="505.4 570.19 671.83 474.84 547.01 402.77 380.57 498.86 505.4 570.19"/><polygon class="cls-21" points="505.4 570.19 505.4 579.49 671.83 485.56 671.83 474.84 505.4 570.19"/><polygon class="cls-16" points="380.57 498.86 505.4 570.19 505.4 579.49 380.57 507.47 380.57 498.86"/></g><g><ellipse class="cls-1" cx="502.86" cy="471.12" rx="19.07" ry="6.92"/><rect class="cls-1" x="483.79" y="216.05" width="38.15" height="255.07"/><ellipse class="cls-19" cx="502.86" cy="216.05" rx="19.07" ry="6.92"/></g><g><polygon class="cls-2" points="421.32 309.71 596.58 208.53 596.58 13.04 420.61 115.58 421.32 309.71"/><polygon class="cls-9" points="397.62 296.83 421.32 309.71 420.61 115.58 397.62 102.3 397.62 296.83"/><polygon class="cls-14" points="420.61 115.58 397.62 102.3 573.34 0 596.58 13.04 420.61 115.58"/><polygon class="cls-20" points="441.02 277.8 578.59 198.39 578.59 44.95 440.47 125.43 441.02 277.8"/></g><path class="cls-15" d="M470.41,244.75c6.81-.88,13.18,2.52,17.54,7.59,4.8,5.58,6.78,13.13,7.69,20.28,2.04,15.98,.66,32.37-.89,48.33s-3.6,32.13-3.7,48.29c-.05,8.04,.41,16.09,1.61,24.04s3.59,16.26,5.46,24.38c3.71,16.15,6,32.71,6.52,49.28,.46,14.68-1.43,31.09-12.78,41.67-5.28,4.92-12.13,7.43-19.13,8.7-7.18,1.31-14.72,1.66-22,1.55-7.67-.12-14.77-1.9-20.95-6.57-5.56-4.2-9.9-9.85-13.71-15.62-8.27-12.53-14.67-26.32-24.51-37.78-8.69-10.12-21.14-18.42-34.82-18.97-3.26-.13-6.53,.25-9.68,1.08-1.86,.49-1.07,3.39,.8,2.89,13.86-3.66,27.99,3.46,37.75,13,11.03,10.79,17.67,25.13,25.78,38.04,7.6,12.1,17.28,24.21,32.31,26.39,7.54,1.09,15.47,.56,23.02-.18,7.21-.71,14.51-2.16,20.89-5.74,13.19-7.4,18.75-22.5,19.85-36.86,.65-8.45,.08-16.99-.67-25.41s-1.92-16.91-3.47-25.28-3.76-16.69-5.72-25.04-2.96-16.09-3.34-24.29c-.77-16.63,1.04-33.24,2.74-49.76s3.34-33.28,2.24-49.96c-.49-7.48-1.55-15.08-4.81-21.91-2.99-6.24-8.06-11.46-14.58-13.98-2.99-1.15-6.24-1.59-9.41-1.17-1.89,.24-1.91,3.25,0,3h0Z"/><g><polygon class="cls-1" points="456.56 465.95 456.56 495.03 665.48 375.8 665.47 345.34 456.56 465.95"/><g><polygon class="cls-6" points="386.92 425.75 456.56 465.95 456.56 495.03 386.92 456.2 386.92 425.75"/><polygon class="cls-11" points="595.84 305.13 386.92 425.75 456.56 465.95 665.47 345.34 595.84 305.13"/></g></g><g><polygon class="cls-2" points="425.31 319.35 469.49 296.77 469.49 216.61 425.03 241.14 425.31 319.35"/><polygon class="cls-8" points="415.34 313.48 425.31 318.89 425.03 241.14 415.34 235.49 415.34 313.48"/><polygon class="cls-14" points="425.03 241.14 415.34 235.49 460.51 211.31 469.49 216.61 425.03 241.14"/><polygon class="cls-20" points="427.06 265.8 427.26 243.64 446.72 233.43 446.72 256.14 427.06 265.8"/><polygon class="cls-20" points="448.63 255.17 448.82 232.33 468.3 221.49 468.3 244.85 448.63 255.17"/><polygon class="cls-20" points="427.05 291.21 427.26 267.98 446.72 258.35 446.72 281.07 427.05 291.21"/><polygon class="cls-20" points="448.63 280.09 448.82 257.25 468.3 247.07 468.3 270.44 448.63 280.09"/><ellipse class="cls-1" cx="438.8" cy="298.79" rx="7.87" ry="4.54" transform="translate(-39.36 529.41) rotate(-60)"/><ellipse class="cls-20" cx="440.42" cy="299.73" rx="7.87" ry="4.54" transform="translate(-39.36 531.28) rotate(-60)"/><ellipse class="cls-1" cx="459.2" cy="288.59" rx="7.87" ry="4.54" transform="translate(-20.33 541.97) rotate(-60)"/><ellipse class="cls-20" cx="460.09" cy="289" rx="7.87" ry="4.54" transform="translate(-20.24 542.95) rotate(-60)"/></g><g><g><ellipse class="cls-19" cx="615.8" cy="312.14" rx="11.55" ry="4.19"/><ellipse class="cls-10" cx="615.8" cy="343.58" rx="11.55" ry="4.19"/><g><path class="cls-10" d="M615.76,272.38v39.76h-11.52s-.47-16.61,2.21-21.13c2.68-4.53,5.16-8.6,5.43-12.57,.27-3.97,.41-6.06,.41-6.06h3.47Z"/><path class="cls-10" d="M615.74,272.38v39.76h11.61s.38-16.61-2.3-21.13c-2.68-4.53-5.16-8.6-5.43-12.57s-.41-6.06-.41-6.06h-3.47Z"/></g><g><path class="cls-16" d="M615.81,272.38v25.1h0s-11.98-1.95-9.3-6.47c2.68-4.53,5.16-8.6,5.43-12.57,.27-3.97,.41-6.06,.41-6.06h3.47Z"/><path class="cls-16" d="M615.79,272.38l.02,25.1h0s11.97-1.95,9.29-6.48c-2.68-4.53-5.16-8.6-5.43-12.57-.27-3.97-.41-6.06-.41-6.06h-3.47Z"/></g><rect class="cls-10" x="604.25" y="312.14" width="23.1" height="31.43"/><path class="cls-10" d="M625.95,293.79c-.14-.51-.57-2.15-.57-2.15l-19.27,.06-.5,4.85,10.78,3.11,9.56-5.87Z"/><path class="cls-3" d="M625.45,292.17c0,1.98-4.43,3.59-9.89,3.59s-9.44-1.75-9.44-3.74,3.97-3.45,9.44-3.45,9.89,1.61,9.89,3.59Z"/><path class="cls-22" d="M615.8,316.64c-6.38,0-11.55-1.88-11.55-4.19v12.07c0,2.32,5.17,4.19,11.55,4.19s11.55-1.88,11.55-4.19v-12.07c0,2.32-5.17,4.19-11.55,4.19Z"/><ellipse class="cls-1" cx="615.81" cy="272.57" rx="4.37" ry="1.59"/><rect class="cls-1" x="611.44" y="271.59" width="8.74" height=".98"/><ellipse class="cls-19" cx="615.81" cy="271.59" rx="4.37" ry="1.59"/><path class="cls-5" d="M613.37,274.02s-1.34,12.84-2.41,14.95-1.89,3.98-2.13,5.68-.6,20.96-.6,20.96l1.75,.46s-.42-18.58,.64-22.06c.4-1.31,1.79-3.41,2.19-5.36,.41-1.95,1.73-14.49,1.73-14.49l-1.18-.14Z"/></g><g><ellipse class="cls-19" cx="591.61" cy="325.09" rx="11.55" ry="4.19"/><ellipse class="cls-10" cx="591.61" cy="356.52" rx="11.55" ry="4.19"/><g><path class="cls-10" d="M591.57,285.33v39.76h-11.52s-.47-16.61,2.21-21.13c2.68-4.53,5.16-8.6,5.43-12.57s.41-6.06,.41-6.06h3.47Z"/><path class="cls-10" d="M591.55,285.33v39.76h11.61s.38-16.61-2.3-21.13c-2.68-4.53-5.16-8.6-5.43-12.57-.27-3.97-.41-6.06-.41-6.06h-3.47Z"/></g><g><path class="cls-16" d="M591.61,285.33v25.1h0s-11.98-1.95-9.3-6.47,5.16-8.6,5.43-12.57c.27-3.97,.41-6.06,.41-6.06h3.47Z"/><path class="cls-16" d="M591.6,285.33l.02,25.1h0s11.97-1.95,9.29-6.48c-2.68-4.53-5.16-8.6-5.43-12.57-.27-3.97-.41-6.06-.41-6.06h-3.47Z"/></g><rect class="cls-10" x="580.05" y="325.09" width="23.1" height="31.43"/><path class="cls-10" d="M601.76,306.73c-.14-.51-.57-2.15-.57-2.15l-19.27,.06-.5,4.85,10.78,3.11,9.56-5.87Z"/><path class="cls-3" d="M601.25,305.12c0,1.98-4.43,3.59-9.89,3.59s-9.44-1.75-9.44-3.74,3.97-3.45,9.44-3.45,9.89,1.61,9.89,3.59Z"/><path class="cls-22" d="M591.61,329.58c-6.38,0-11.55-1.88-11.55-4.19v12.07c0,2.32,5.17,4.19,11.55,4.19s11.55-1.88,11.55-4.19v-12.07c0,2.32-5.17,4.19-11.55,4.19Z"/><ellipse class="cls-1" cx="591.61" cy="285.52" rx="4.37" ry="1.59"/><rect class="cls-1" x="587.24" y="284.54" width="8.74" height=".98"/><ellipse class="cls-19" cx="591.61" cy="284.54" rx="4.37" ry="1.59"/><path class="cls-5" d="M589.17,286.97s-1.34,12.84-2.41,14.95-1.89,3.98-2.13,5.68-.6,20.96-.6,20.96l1.75,.46s-.42-18.58,.64-22.06c.4-1.31,1.79-3.41,2.19-5.36,.41-1.95,1.73-14.49,1.73-14.49l-1.18-.14Z"/></g><g><ellipse class="cls-19" cx="567.41" cy="338.03" rx="11.55" ry="4.19"/><ellipse class="cls-10" cx="567.41" cy="369.47" rx="11.55" ry="4.19"/><g><path class="cls-10" d="M567.37,298.27v39.76h-11.52s-.47-16.61,2.21-21.13,5.16-8.6,5.43-12.57c.27-3.97,.41-6.06,.41-6.06h3.47Z"/><path class="cls-10" d="M567.36,298.27v39.76h11.61s.38-16.61-2.3-21.13c-2.68-4.53-5.16-8.6-5.43-12.57s-.41-6.06-.41-6.06h-3.47Z"/></g><g><path class="cls-16" d="M567.42,298.27v25.1h0s-11.98-1.95-9.3-6.47,5.16-8.6,5.43-12.57c.27-3.97,.41-6.06,.41-6.06h3.47Z"/><path class="cls-16" d="M567.4,298.27l.02,25.1h0s11.97-1.95,9.29-6.48c-2.68-4.53-5.16-8.6-5.43-12.57s-.41-6.06-.41-6.06h-3.47Z"/></g><rect class="cls-10" x="555.86" y="338.03" width="23.1" height="31.43"/><path class="cls-10" d="M577.56,319.68c-.14-.51-.57-2.15-.57-2.15l-19.27,.06-.5,4.85,10.78,3.11,9.56-5.87Z"/><path class="cls-3" d="M577.06,318.06c0,1.98-4.43,3.59-9.89,3.59s-9.44-1.75-9.44-3.74,3.97-3.45,9.44-3.45,9.89,1.61,9.89,3.59Z"/><path class="cls-22" d="M567.41,342.53c-6.38,0-11.55-1.88-11.55-4.19v12.07c0,2.32,5.17,4.19,11.55,4.19s11.55-1.88,11.55-4.19v-12.07c0,2.32-5.17,4.19-11.55,4.19Z"/><ellipse class="cls-1" cx="567.42" cy="298.46" rx="4.37" ry="1.59"/><rect class="cls-1" x="563.05" y="297.48" width="8.74" height=".98"/><ellipse class="cls-19" cx="567.42" cy="297.48" rx="4.37" ry="1.59"/><path class="cls-5" d="M564.98,299.91s-1.34,12.84-2.41,14.95c-1.07,2.11-1.89,3.98-2.13,5.68-.24,1.71-.6,20.96-.6,20.96l1.75,.46s-.42-18.58,.64-22.06c.4-1.31,1.79-3.41,2.19-5.36s1.73-14.49,1.73-14.49l-1.18-.14Z"/></g><g><ellipse class="cls-19" cx="543.22" cy="350.98" rx="11.55" ry="4.19"/><ellipse class="cls-10" cx="543.22" cy="382.41" rx="11.55" ry="4.19"/><g><path class="cls-10" d="M543.18,311.22v39.76h-11.52s-.47-16.61,2.21-21.13c2.68-4.53,5.16-8.6,5.43-12.57,.27-3.97,.41-6.06,.41-6.06h3.47Z"/><path class="cls-10" d="M543.16,311.22v39.76h11.61s.38-16.61-2.3-21.13c-2.68-4.53-5.16-8.6-5.43-12.57s-.41-6.06-.41-6.06h-3.47Z"/></g><g><path class="cls-16" d="M543.23,311.22v25.1h0s-11.98-1.95-9.3-6.47c2.68-4.53,5.16-8.6,5.43-12.57,.27-3.97,.41-6.06,.41-6.06h3.47Z"/><path class="cls-16" d="M543.21,311.22l.02,25.1h0s11.97-1.95,9.29-6.48c-2.68-4.53-5.16-8.6-5.43-12.57s-.41-6.06-.41-6.06h-3.47Z"/></g><rect class="cls-10" x="531.66" y="350.98" width="23.1" height="31.43"/><path class="cls-10" d="M553.37,332.62c-.14-.51-.57-2.15-.57-2.15l-19.27,.06-.5,4.85,10.78,3.11,9.56-5.87Z"/><path class="cls-3" d="M552.86,331.01c0,1.98-4.43,3.59-9.89,3.59s-9.44-1.75-9.44-3.74,3.97-3.45,9.44-3.45,9.89,1.61,9.89,3.59Z"/><path class="cls-22" d="M543.22,355.48c-6.38,0-11.55-1.88-11.55-4.19v12.07c0,2.32,5.17,4.19,11.55,4.19s11.55-1.88,11.55-4.19v-12.07c0,2.32-5.17,4.19-11.55,4.19Z"/><ellipse class="cls-1" cx="543.23" cy="311.41" rx="4.37" ry="1.59"/><rect class="cls-1" x="538.85" y="310.43" width="8.74" height=".98"/><ellipse class="cls-19" cx="543.23" cy="310.43" rx="4.37" ry="1.59"/><path class="cls-5" d="M540.78,312.86s-1.34,12.84-2.41,14.95c-1.07,2.11-1.89,3.98-2.13,5.68s-.6,20.96-.6,20.96l1.75,.46s-.42-18.58,.64-22.06c.4-1.31,1.79-3.41,2.19-5.36,.41-1.95,1.73-14.49,1.73-14.49l-1.18-.14Z"/></g><g><ellipse class="cls-19" cx="519.02" cy="363.93" rx="11.55" ry="4.19"/><ellipse class="cls-10" cx="519.02" cy="395.36" rx="11.55" ry="4.19"/><g><path class="cls-10" d="M518.99,324.17v39.76h-11.52s-.47-16.61,2.21-21.13c2.68-4.53,5.16-8.6,5.43-12.57,.27-3.97,.41-6.06,.41-6.06h3.47Z"/><path class="cls-10" d="M518.97,324.17v39.76h11.61s.38-16.61-2.3-21.13-5.16-8.6-5.43-12.57c-.27-3.97-.41-6.06-.41-6.06h-3.47Z"/></g><g><path class="cls-16" d="M519.03,324.17v25.1h0s-11.98-1.95-9.3-6.47c2.68-4.53,5.16-8.6,5.43-12.57,.27-3.97,.41-6.06,.41-6.06h3.47Z"/><path class="cls-16" d="M519.01,324.17l.02,25.1h0s11.97-1.95,9.29-6.48c-2.68-4.53-5.16-8.6-5.43-12.57-.27-3.97-.41-6.06-.41-6.06h-3.47Z"/></g><rect class="cls-10" x="507.47" y="363.93" width="23.1" height="31.43"/><path class="cls-10" d="M529.17,345.57c-.14-.51-.57-2.15-.57-2.15l-19.27,.06-.5,4.85,10.78,3.11,9.56-5.87Z"/><path class="cls-3" d="M528.67,343.95c0,1.98-4.43,3.59-9.89,3.59s-9.44-1.75-9.44-3.74,3.97-3.45,9.44-3.45,9.89,1.61,9.89,3.59Z"/><path class="cls-22" d="M519.02,368.42c-6.38,0-11.55-1.88-11.55-4.19v12.07c0,2.32,5.17,4.19,11.55,4.19s11.55-1.88,11.55-4.19v-12.07c0,2.32-5.17,4.19-11.55,4.19Z"/><ellipse class="cls-1" cx="519.03" cy="324.36" rx="4.37" ry="1.59"/><rect class="cls-1" x="514.66" y="323.38" width="8.74" height=".98"/><ellipse class="cls-19" cx="519.03" cy="323.38" rx="4.37" ry="1.59"/><path class="cls-5" d="M516.59,325.81s-1.34,12.84-2.41,14.95c-1.07,2.11-1.89,3.98-2.13,5.68s-.6,20.96-.6,20.96l1.75,.46s-.42-18.58,.64-22.06c.4-1.31,1.79-3.41,2.19-5.36,.41-1.95,1.73-14.49,1.73-14.49l-1.18-.14Z"/></g><g><ellipse class="cls-19" cx="494.83" cy="376.87" rx="11.55" ry="4.19"/><ellipse class="cls-10" cx="494.83" cy="408.3" rx="11.55" ry="4.19"/><g><path class="cls-10" d="M494.79,337.11v39.76h-11.52s-.47-16.61,2.21-21.13c2.68-4.53,5.16-8.6,5.43-12.57s.41-6.06,.41-6.06h3.47Z"/><path class="cls-10" d="M494.77,337.11v39.76h11.61s.38-16.61-2.3-21.13-5.16-8.6-5.43-12.57c-.27-3.97-.41-6.06-.41-6.06h-3.47Z"/></g><g><path class="cls-16" d="M494.84,337.11v25.1h0s-11.98-1.95-9.3-6.47c2.68-4.53,5.16-8.6,5.43-12.57,.27-3.97,.41-6.06,.41-6.06h3.47Z"/><path class="cls-16" d="M494.82,337.11l.02,25.1h0s11.97-1.95,9.29-6.48-5.16-8.6-5.43-12.57c-.27-3.97-.41-6.06-.41-6.06h-3.47Z"/></g><rect class="cls-10" x="483.28" y="376.87" width="23.1" height="31.43"/><path class="cls-10" d="M504.98,358.51c-.14-.51-.57-2.15-.57-2.15l-19.27,.06-.5,4.85,10.78,3.11,9.56-5.87Z"/><path class="cls-3" d="M504.48,356.9c0,1.98-4.43,3.59-9.89,3.59s-9.44-1.75-9.44-3.74,3.97-3.45,9.44-3.45,9.89,1.61,9.89,3.59Z"/><path class="cls-22" d="M494.83,381.37c-6.38,0-11.55-1.88-11.55-4.19v12.07c0,2.32,5.17,4.19,11.55,4.19s11.55-1.88,11.55-4.19v-12.07c0,2.32-5.17,4.19-11.55,4.19Z"/><ellipse class="cls-1" cx="494.84" cy="337.3" rx="4.37" ry="1.59"/><rect class="cls-1" x="490.47" y="336.32" width="8.74" height=".98"/><ellipse class="cls-19" cx="494.84" cy="336.32" rx="4.37" ry="1.59"/><path class="cls-5" d="M492.4,338.75s-1.34,12.84-2.41,14.95c-1.07,2.11-1.89,3.98-2.13,5.68-.24,1.71-.6,20.96-.6,20.96l1.75,.46s-.42-18.58,.64-22.06c.4-1.31,1.79-3.41,2.19-5.36,.41-1.95,1.73-14.49,1.73-14.49l-1.18-.14Z"/></g><g><ellipse class="cls-19" cx="470.63" cy="389.82" rx="11.55" ry="4.19"/><ellipse class="cls-10" cx="470.63" cy="421.25" rx="11.55" ry="4.19"/><g><path class="cls-10" d="M470.6,350.06v39.76h-11.52s-.47-16.61,2.21-21.13c2.68-4.53,5.16-8.6,5.43-12.57s.41-6.06,.41-6.06h3.47Z"/><path class="cls-10" d="M470.58,350.06v39.76h11.61s.38-16.61-2.3-21.13c-2.68-4.53-5.16-8.6-5.43-12.57s-.41-6.06-.41-6.06h-3.47Z"/></g><g><path class="cls-16" d="M470.64,350.06v25.1h0s-11.98-1.95-9.3-6.47c2.68-4.53,5.16-8.6,5.43-12.57,.27-3.97,.41-6.06,.41-6.06h3.47Z"/><path class="cls-16" d="M470.63,350.06l.02,25.1h0s11.97-1.95,9.29-6.48-5.16-8.6-5.43-12.57c-.27-3.97-.41-6.06-.41-6.06h-3.47Z"/></g><rect class="cls-10" x="459.08" y="389.82" width="23.1" height="31.43"/><path class="cls-10" d="M480.79,371.46c-.14-.51-.57-2.15-.57-2.15l-19.27,.06-.5,4.85,10.78,3.11,9.56-5.87Z"/><path class="cls-3" d="M480.28,369.84c0,1.98-4.43,3.59-9.89,3.59s-9.44-1.75-9.44-3.74,3.97-3.45,9.44-3.45,9.89,1.61,9.89,3.59Z"/><path class="cls-22" d="M470.63,394.31c-6.38,0-11.55-1.88-11.55-4.19v12.07c0,2.32,5.17,4.19,11.55,4.19s11.55-1.88,11.55-4.19v-12.07c0,2.32-5.17,4.19-11.55,4.19Z"/><ellipse class="cls-1" cx="470.64" cy="350.25" rx="4.37" ry="1.59"/><rect class="cls-1" x="466.27" y="349.27" width="8.74" height=".98"/><ellipse class="cls-19" cx="470.64" cy="349.27" rx="4.37" ry="1.59"/><path class="cls-5" d="M468.2,351.7s-1.34,12.84-2.41,14.95-1.89,3.98-2.13,5.68c-.24,1.71-.6,20.96-.6,20.96l1.75,.46s-.42-18.58,.64-22.06c.4-1.31,1.79-3.41,2.19-5.36,.41-1.95,1.73-14.49,1.73-14.49l-1.18-.14Z"/></g><g><ellipse class="cls-19" cx="446.44" cy="402.76" rx="11.55" ry="4.19"/><ellipse class="cls-10" cx="446.44" cy="434.2" rx="11.55" ry="4.19"/><g><path class="cls-10" d="M446.4,363v39.76h-11.52s-.47-16.61,2.21-21.13c2.68-4.53,5.16-8.6,5.43-12.57s.41-6.06,.41-6.06h3.47Z"/><path class="cls-10" d="M446.39,363v39.76h11.61s.38-16.61-2.3-21.13c-2.68-4.53-5.16-8.6-5.43-12.57-.27-3.97-.41-6.06-.41-6.06h-3.47Z"/></g><g><path class="cls-16" d="M446.45,363v25.1h0s-11.98-1.95-9.3-6.47c2.68-4.53,5.16-8.6,5.43-12.57,.27-3.97,.41-6.06,.41-6.06h3.47Z"/><path class="cls-16" d="M446.43,363l.02,25.1h0s11.97-1.95,9.29-6.48c-2.68-4.53-5.16-8.6-5.43-12.57s-.41-6.06-.41-6.06h-3.47Z"/></g><rect class="cls-10" x="434.89" y="402.76" width="23.1" height="31.43"/><path class="cls-10" d="M456.59,384.4c-.14-.51-.57-2.15-.57-2.15l-19.27,.06-.5,4.85,10.78,3.11,9.56-5.87Z"/><path class="cls-3" d="M456.09,382.79c0,1.98-4.43,3.59-9.89,3.59s-9.44-1.75-9.44-3.74,3.97-3.45,9.44-3.45,9.89,1.61,9.89,3.59Z"/><path class="cls-22" d="M446.44,407.26c-6.38,0-11.55-1.88-11.55-4.19v12.07c0,2.32,5.17,4.19,11.55,4.19s11.55-1.88,11.55-4.19v-12.07c0,2.32-5.17,4.19-11.55,4.19Z"/><ellipse class="cls-1" cx="446.45" cy="363.19" rx="4.37" ry="1.59"/><rect class="cls-1" x="442.08" y="362.21" width="8.74" height=".98"/><ellipse class="cls-19" cx="446.45" cy="362.21" rx="4.37" ry="1.59"/><path class="cls-5" d="M444.01,364.64s-1.34,12.84-2.41,14.95c-1.07,2.11-1.89,3.98-2.13,5.68-.24,1.71-.6,20.96-.6,20.96l1.75,.46s-.42-18.58,.64-22.06c.4-1.31,1.79-3.41,2.19-5.36,.41-1.95,1.73-14.49,1.73-14.49l-1.18-.14Z"/></g></g></g><g><ellipse class="cls-19" cx="336.33" cy="444.45" rx="13.24" ry="4.8"/><ellipse class="cls-10" cx="336.33" cy="480.46" rx="13.24" ry="4.8"/><g><path class="cls-10" d="M336.29,398.9v45.55h-13.19s-.54-19.03,2.53-24.21c3.07-5.18,5.92-9.85,6.22-14.4s.47-6.94,.47-6.94h3.97Z"/><path class="cls-10" d="M336.27,398.9v45.55h13.3s.43-19.03-2.64-24.21c-3.07-5.18-5.92-9.85-6.22-14.4-.3-4.55-.47-6.94-.47-6.94h-3.97Z"/></g><g><path class="cls-16" d="M336.34,398.9v28.76h0s-13.73-2.23-10.66-7.42c3.07-5.18,5.92-9.85,6.22-14.4s.47-6.94,.47-6.94h3.97Z"/><path class="cls-16" d="M336.32,398.9l.02,28.76h0s13.71-2.23,10.64-7.42c-3.07-5.18-5.92-9.85-6.22-14.4-.3-4.55-.47-6.94-.47-6.94h-3.97Z"/></g><rect class="cls-10" x="323.1" y="444.45" width="26.47" height="36.01"/><path class="cls-10" d="M347.96,423.42c-.16-.58-.65-2.47-.65-2.47l-22.08,.07-.57,5.55,12.35,3.56,10.95-6.72Z"/><path class="cls-3" d="M347.38,421.57c0,2.27-5.08,4.12-11.34,4.12s-10.81-2.01-10.81-4.28,4.55-3.95,10.81-3.95,11.34,1.84,11.34,4.12Z"/><path class="cls-22" d="M336.33,449.6c-7.31,0-13.24-2.15-13.24-4.8v13.83c0,2.65,5.93,4.8,13.24,4.8s13.24-2.15,13.24-4.8v-13.83c0,2.65-5.93,4.8-13.24,4.8Z"/><ellipse class="cls-1" cx="336.34" cy="399.12" rx="5.01" ry="1.82"/><rect class="cls-1" x="331.33" y="397.99" width="10.02" height="1.12"/><ellipse class="cls-19" cx="336.34" cy="397.99" rx="5.01" ry="1.82"/><path class="cls-5" d="M333.54,400.78s-1.54,14.71-2.76,17.13c-1.22,2.42-2.17,4.56-2.44,6.51s-.68,24.01-.68,24.01l2.01,.52s-.48-21.29,.73-25.27c.46-1.5,2.05-3.91,2.51-6.14s1.99-16.6,1.99-16.6l-1.36-.16Z"/></g><ellipse class="cls-1" cx="171.54" cy="790.31" rx="20.4" ry="7.41"/><rect class="cls-1" x="151.14" y="785.74" width="40.8" height="4.58"/><ellipse class="cls-19" cx="171.54" cy="785.74" rx="20.4" ry="7.41"/><ellipse class="cls-1" cx="171.54" cy="785.67" rx="9.56" ry="3.47"/><rect class="cls-1" x="161.98" y="699.03" width="19.12" height="86.63"/><ellipse class="cls-1" cx="381.82" cy="675.34" rx="20.4" ry="7.41"/><rect class="cls-1" x="361.42" y="670.77" width="40.8" height="4.58"/><ellipse class="cls-19" cx="381.82" cy="670.77" rx="20.4" ry="7.41"/><ellipse class="cls-1" cx="381.82" cy="670.7" rx="9.56" ry="3.47"/><rect class="cls-1" x="372.27" y="584.07" width="19.12" height="86.63"/><ellipse class="cls-1" cx="20.45" cy="697.82" rx="20.4" ry="7.41"/><rect class="cls-1" x=".06" y="693.25" width="40.8" height="4.58"/><ellipse class="cls-19" cx="20.45" cy="693.25" rx="20.4" ry="7.41"/><ellipse class="cls-1" cx="20.45" cy="693.18" rx="9.56" ry="3.47"/><rect class="cls-1" x="10.89" y="609.19" width="19.12" height="83.98"/><polygon class="cls-2" points="174.61 310.45 174.61 713.7 404.97 580.69 407.42 176.04 174.61 310.45"/><polygon class="cls-16" points="0 209.63 174.61 310.45 174.61 713.7 0 612.89 0 209.63"/><polygon class="cls-4" points="232.81 75.22 407.42 176.04 174.61 310.45 0 209.63 232.81 75.22"/><polygon class="cls-7" points="232.81 377.66 404.97 478.47 174.61 604.18 0 503.38 232.81 377.66"/><polygon class="cls-24" points="29.09 520.18 261.91 394.47 261.91 92.02 29.09 226.44 29.09 520.18"/><polygon class="cls-16" points="29.09 226.44 29.09 520.18 174.61 604.18 174.61 713.7 0 612.89 0 209.63 29.09 226.44"/><polygon class="cls-12" points="246.21 101.09 392.29 184.77 392.29 485.39 251.01 400.35 246.21 101.09"/><polygon class="cls-4" points="392.29 184.77 246.21 101.09 261.91 92.02 407.42 176.04 392.29 184.77"/><polygon class="cls-21" points="392.29 485.39 392.29 184.77 407.42 176.04 404.97 580.69 174.61 713.7 174.61 604.18 392.29 485.39"/><path class="cls-16" d="M76.8,231.65v292.02c0,16.63,37.14,30.11,82.94,30.11s82.94-13.48,82.94-30.11V231.65H76.8Z"/><g class="cls-17"><polygon class="cls-24" points="101.61 238.73 122.56 247.9 122.56 555.99 99.98 547.47 101.61 238.73"/></g><ellipse class="cls-4" cx="159.74" cy="231.65" rx="82.94" ry="30.11"/><ellipse class="cls-20" cx="159.74" cy="231.65" rx="37.18" ry="13.5"/><ellipse class="cls-20" cx="221.67" cy="502.41" rx="8.62" ry="3.13"/><rect class="cls-20" x="213.05" y="437.59" width="17.24" height="64.82"/><ellipse class="cls-20" cx="221.67" cy="437.59" rx="8.62" ry="3.13"/><ellipse class="cls-1" cx="221.67" cy="455.42" rx="23.06" ry="8.38"/><rect class="cls-1" x="198.6" y="450.26" width="46.13" height="5.17"/><ellipse class="cls-19" cx="221.67" cy="450.26" rx="23.06" ry="8.38"/><ellipse class="cls-1" cx="221.67" cy="449.01" rx="29.3" ry="10.63"/><rect class="cls-1" x="192.37" y="430.09" width="58.6" height="18.92"/><ellipse class="cls-19" cx="221.67" cy="430.09" rx="29.3" ry="10.63"/><ellipse class="cls-20" cx="221.67" cy="430.51" rx="10.91" ry="3.96"/><rect class="cls-20" x="210.76" y="348.49" width="21.81" height="82"/><ellipse class="cls-20" cx="221.67" cy="348.49" rx="10.91" ry="3.96"/><ellipse class="cls-1" cx="221.67" cy="371.06" rx="29.18" ry="10.59"/><rect class="cls-1" x="192.48" y="364.52" width="58.36" height="6.54"/><ellipse class="cls-19" cx="221.67" cy="364.52" rx="29.18" ry="10.59"/><ellipse class="cls-1" cx="221.67" cy="362.95" rx="37.07" ry="13.46"/><rect class="cls-1" x="184.6" y="339" width="74.14" height="23.94"/><ellipse class="cls-19" cx="221.67" cy="339" rx="37.07" ry="13.46"/><polygon class="cls-1" points="226.28 269.38 224.29 369.2 392.29 285.43 392.29 184.24 226.28 269.38"/><polygon class="cls-12" points="171.55 237.78 226.28 269.38 226.28 370.78 171.54 339.63 171.55 237.78"/><polygon class="cls-4" points="337.55 152.64 171.55 237.78 226.28 269.38 392.29 184.24 337.55 152.64"/><polygon class="cls-1" points="320.88 321.04 373.06 295.02 373.06 290.99 319.25 318.72 320.88 321.04"/></g></g></svg>