<svg xmlns="http://www.w3.org/2000/svg" viewBox="0 0 97.14 100.32"><defs><style>.cls-1{fill:#bc9e80;}.cls-2{fill:#dbbb96;}.cls-3{fill:#8f7743;}.cls-4{fill:#e3cb9d;}</style></defs><g id="レイヤー_2" data-name="レイヤー 2"><g id="レイヤー_3" data-name="レイヤー 3"><polygon class="cls-1" points="97.14 67.3 39.93 100.32 38.86 56.08 97.14 22.43 97.14 67.3"/><polygon class="cls-2" points="0 33.65 0.65 77.57 39.93 100.32 38.86 56.08 0 33.65"/><path class="cls-3" d="M14.3,55.58l7.9,4.56a1,1,0,0,0,1.53-.88v-.71a1,1,0,0,0-.52-.89l-7.93-4.45a1,1,0,0,0-1.52.95l0,.6A1,1,0,0,0,14.3,55.58Z"/><polygon class="cls-4" points="14.05 41.89 14.05 50.21 24.81 56.29 24.81 48.11 14.05 41.89"/><polygon class="cls-2" points="0 33.65 38.86 56.08 97.14 22.43 58.28 0 0 33.65"/><polygon class="cls-4" points="24.81 48.11 82.67 14.08 71.38 7.56 14.05 41.89 24.81 48.11"/></g></g></svg>