<?xml version="1.0" encoding="UTF-8"?><svg id="_イヤー_2" xmlns="http://www.w3.org/2000/svg" viewBox="0 0 405.78 563.77"><defs><style>.cls-1{fill:#b7b7b7;}.cls-2{fill:#f4f4f4;}.cls-3{fill:#d1d1d1;}.cls-4{fill:#f9f9f9;}.cls-5{fill:#efefef;}.cls-6{fill:#cecece;}.cls-7{fill:#5e5e5e;}</style></defs><g id="parts"><g><g><polygon class="cls-3" points="224.02 293.45 405.78 188.51 360.33 162.29 178.58 267.22 224.02 293.45"/><polygon class="cls-7" points="405.77 196.67 405.77 188.15 224.01 293.08 224.01 301.48 405.77 196.67"/><polygon class="cls-1" points="224.01 301.48 178.58 275.07 178.58 267.22 224.02 293.45 224.01 301.48"/><g><polygon class="cls-7" points="183.86 264.18 228.97 290.22 234.21 287.19 189.01 261.2 183.86 264.18"/><polygon class="cls-7" points="192.77 259.02 237.88 285.06 243.13 282.03 197.92 256.05 192.77 259.02"/><polygon class="cls-7" points="201.69 253.86 246.8 279.91 252.05 276.88 206.84 250.89 201.69 253.86"/><polygon class="cls-7" points="210.61 248.7 255.72 274.75 260.97 271.72 215.76 245.73 210.61 248.7"/><polygon class="cls-7" points="219.53 243.55 264.64 269.59 269.88 266.56 224.68 240.57 219.53 243.55"/><polygon class="cls-7" points="228.44 238.39 273.55 264.43 278.8 261.4 233.59 235.42 228.44 238.39"/><polygon class="cls-7" points="237.36 233.23 282.47 259.28 287.72 256.25 242.51 230.26 237.36 233.23"/><polygon class="cls-7" points="246.28 228.07 291.39 254.12 296.64 251.09 251.43 225.1 246.28 228.07"/><polygon class="cls-7" points="255.2 222.92 300.31 248.96 305.55 245.93 260.35 219.94 255.2 222.92"/><polygon class="cls-7" points="264.11 217.76 309.22 243.8 314.47 240.77 269.26 214.79 264.11 217.76"/><polygon class="cls-7" points="273.03 212.6 318.14 238.65 323.39 235.62 278.18 209.63 273.03 212.6"/><polygon class="cls-7" points="281.95 207.44 327.06 233.49 332.31 230.46 287.1 204.47 281.95 207.44"/><polygon class="cls-7" points="290.87 202.29 335.98 228.33 341.22 225.3 296.02 199.31 290.87 202.29"/><polygon class="cls-7" points="299.78 197.13 344.89 223.17 350.14 220.14 304.93 194.16 299.78 197.13"/><polygon class="cls-7" points="308.7 191.97 353.81 218.02 359.06 214.99 313.85 189 308.7 191.97"/><polygon class="cls-7" points="317.62 186.81 362.73 212.86 367.98 209.83 322.77 183.84 317.62 186.81"/><polygon class="cls-7" points="326.54 181.66 371.65 207.7 376.89 204.67 331.69 178.68 326.54 181.66"/><polygon class="cls-7" points="335.45 176.5 380.56 202.54 385.81 199.52 340.6 173.53 335.45 176.5"/><polygon class="cls-7" points="344.37 171.34 389.48 197.39 394.73 194.36 349.52 168.37 344.37 171.34"/><polygon class="cls-7" points="353.29 166.18 398.4 192.23 403.65 189.2 358.44 163.21 353.29 166.18"/></g></g><polygon class="cls-2" points="383.69 171.26 364.22 182.49 67.05 10.91 85.95 0 383.69 171.26"/><polygon class="cls-5" points="364.24 563.77 383.69 552.54 383.69 171.26 364.22 182.49 364.24 563.77"/><path class="cls-4" d="M364.22,182.49L67.05,10.91l.83,380.81,296.36,172.06V182.49Zm-137.05,108.77l-45.44-25.86v-91.8l45.44,25.45v92.22Z"/><g><polygon class="cls-3" points="45.44 396.57 227.2 291.63 181.75 265.41 0 370.34 45.44 396.57"/><polygon class="cls-7" points="227.19 299.79 227.19 291.27 45.43 396.2 45.43 404.6 227.19 299.79"/><polygon class="cls-1" points="45.43 404.6 0 378.19 0 370.34 45.44 396.57 45.43 404.6"/><g><polygon class="cls-7" points="5.28 367.3 50.39 393.34 55.63 390.31 10.42 364.32 5.28 367.3"/><polygon class="cls-7" points="14.19 362.14 59.3 388.18 64.55 385.15 19.34 359.17 14.19 362.14"/><polygon class="cls-7" points="23.11 356.98 68.22 383.03 73.47 380 28.26 354.01 23.11 356.98"/><polygon class="cls-7" points="32.03 351.82 77.14 377.87 82.39 374.84 37.18 348.85 32.03 351.82"/><polygon class="cls-7" points="40.95 346.67 86.06 372.71 91.3 369.68 46.09 343.69 40.95 346.67"/><polygon class="cls-7" points="49.86 341.51 94.97 367.55 100.22 364.52 55.01 338.54 49.86 341.51"/><polygon class="cls-7" points="58.78 336.35 103.89 362.4 109.14 359.37 63.93 333.38 58.78 336.35"/><polygon class="cls-7" points="67.7 331.19 112.81 357.24 118.06 354.21 72.85 328.22 67.7 331.19"/><polygon class="cls-7" points="76.62 326.04 121.73 352.08 126.97 349.05 81.76 323.06 76.62 326.04"/><polygon class="cls-7" points="85.53 320.88 130.64 346.92 135.89 343.89 90.68 317.91 85.53 320.88"/><polygon class="cls-7" points="94.45 315.72 139.56 341.77 144.81 338.74 99.6 312.75 94.45 315.72"/><polygon class="cls-7" points="103.37 310.56 148.48 336.61 153.73 333.58 108.52 307.59 103.37 310.56"/><polygon class="cls-7" points="112.29 305.41 157.4 331.45 162.64 328.42 117.43 302.43 112.29 305.41"/><polygon class="cls-7" points="121.2 300.25 166.31 326.29 171.56 323.26 126.35 297.28 121.2 300.25"/><polygon class="cls-7" points="130.12 295.09 175.23 321.14 180.48 318.11 135.27 292.12 130.12 295.09"/><polygon class="cls-7" points="139.04 289.93 184.15 315.98 189.4 312.95 144.19 286.96 139.04 289.93"/><polygon class="cls-7" points="147.96 284.78 193.07 310.82 198.31 307.79 153.1 281.8 147.96 284.78"/><polygon class="cls-7" points="156.87 279.62 201.98 305.66 207.23 302.63 162.02 276.65 156.87 279.62"/><polygon class="cls-7" points="165.79 274.46 210.9 300.51 216.15 297.48 170.94 271.49 165.79 274.46"/><polygon class="cls-7" points="174.71 269.3 219.82 295.35 225.07 292.32 179.86 266.33 174.71 269.3"/></g></g><polygon class="cls-6" points="181.75 173.61 159.97 161.74 159.97 277.98 181.75 265.41 181.75 173.61"/><polygon class="cls-6" points="181 265.89 182.8 264.79 227.19 290.22 227.19 291.27 226.36 291.75 181 265.89"/></g></g></svg>