<?xml version="1.0" encoding="UTF-8"?><svg id="_イヤー_2" xmlns="http://www.w3.org/2000/svg" viewBox="0 0 178.37 319.54"><defs><style>.cls-1{fill:#b7b7b7;}.cls-2{fill:#ddd;}.cls-3{fill:#f4f4f4;}.cls-4{fill:#f9f9f9;}.cls-5{fill:#e8e8e8;}.cls-6{fill:#515151;}</style></defs><g id="parts"><g><polygon class="cls-2" points="89.18 113.58 89.18 319.54 178.36 268.05 178.37 62.09 89.18 113.58"/><polygon class="cls-4" points="0 62.09 89.18 113.58 89.18 319.54 0 268.05 0 62.09"/><polygon class="cls-3" points="89.18 10.6 178.37 62.09 89.18 113.58 0 62.09 89.18 10.6"/><g><ellipse class="cls-1" cx="112.47" cy="69.26" rx="27.16" ry="9.86"/><rect class="cls-1" x="85.31" y="63.17" width="54.32" height="6.09"/><ellipse class="cls-5" cx="112.47" cy="63.17" rx="27.16" ry="9.86"/><ellipse class="cls-1" cx="112.46" cy="61.59" rx="12.46" ry="4.52"/><polygon class="cls-1" points="77.59 36.21 100.33 62.62 124.72 62.4 146.88 36.78 77.59 36.21"/><ellipse class="cls-1" cx="112.47" cy="32.72" rx="36.17" ry="13.13"/><rect class="cls-1" x="76.3" y="12.97" width="72.34" height="19.75"/><ellipse class="cls-5" cx="112.47" cy="13.13" rx="36.17" ry="13.13"/></g><polygon class="cls-6" points="104.04 131.6 104.04 194.81 168.21 158.37 168.21 94.56 104.04 131.6"/><polygon class="cls-6" points="109.12 112.61 109.12 117.23 158.43 89.12 158.43 84.15 109.12 112.61"/><polygon class="cls-6" points="75.6 131.6 75.59 194.81 11.42 158.37 11.42 94.56 75.6 131.6"/></g></g></svg>