<?xml version="1.0" encoding="UTF-8"?><svg id="_イヤー_2" xmlns="http://www.w3.org/2000/svg" xmlns:xlink="http://www.w3.org/1999/xlink" viewBox="0 0 270.95 512.2"><defs><style>.cls-1{clip-path:url(#clippath);}.cls-2{fill:none;}.cls-3{fill:#0ba063;}.cls-4{fill:#9e7b0d;}.cls-5{fill:#0c8e56;}</style><clipPath id="clippath"><path class="cls-2" d="M270.95,217.6c0,74.82-60.65,135.47-135.47,135.47S0,292.42,0,217.6,60.65,0,135.47,0s135.47,142.78,135.47,217.6Z"/></clipPath></defs><g id="parts"><g><rect class="cls-4" x="113.94" y="318.27" width="43.06" height="193.94" rx="21.53" ry="21.53"/><g><path class="cls-3" d="M270.95,217.6c0,74.82-60.65,135.47-135.47,135.47S0,292.42,0,217.6,60.65,0,135.47,0s135.47,142.78,135.47,217.6Z"/><g class="cls-1"><path class="cls-5" d="M254.44,120.65s19.89,201.87-206.71,273.5c-220.23,69.62,262.52,81.95,262.52,81.95l44.09-246.05-99.9-109.4Z"/></g></g></g></g></svg>