<?xml version="1.0" encoding="UTF-8"?><svg id="_イヤー_2" xmlns="http://www.w3.org/2000/svg" viewBox="0 0 604.78 362.86"><defs><style>.cls-1{stroke:#1a1a1a;stroke-miterlimit:10;stroke-width:.75px;}.cls-1,.cls-2{fill:#dda772;}.cls-3{fill:#1a1a1a;}</style></defs><g id="parts"><g><polygon class="cls-2" points="23.26 82.71 0 170.58 51.44 188.67 93.04 135.69 93.04 188.67 131.81 206.76 131.81 284.3 95.63 310.14 113.72 335.99 147.32 320.48 170.58 209.35 201.59 209.35 201.59 307.56 180.92 335.99 201.59 362.86 227.44 335.99 242.87 193.84 328.24 139.44 356.67 167.99 398.02 167.99 398.02 222.78 385.1 258.08 361.83 271.38 367 286.88 398.02 271.38 441.67 222.78 441.67 100.8 421.91 49.11 469.25 69.78 529.83 103.38 604.78 80.12 604.78 26.47 584.11 62.03 469.25 33.8 392.85 10.34 302.39 0 263.61 33.8 219.69 62.03 124.06 69.78 59.03 62.03 20.68 33.8 23.26 82.71"/><polyline class="cls-1" points="62.62 93.14 74.68 69.88 81.57 98.31"/><circle class="cls-3" cx="57.45" cy="117.3" r="5.17"/></g></g></svg>