<?xml version="1.0" encoding="UTF-8"?><svg id="_イヤー_2" xmlns="http://www.w3.org/2000/svg" xmlns:xlink="http://www.w3.org/1999/xlink" viewBox="0 0 782.51 715.26"><defs><style>.cls-1{fill:#b7b7b7;}.cls-2{fill:#f4f4f4;}.cls-3{fill:#fff;}.cls-4{fill:#d1d1d1;}.cls-5{fill:#dbdbdb;}.cls-6{clip-path:url(#clippath-2);}.cls-7{fill:#e0e0e0;}.cls-8{clip-path:url(#clippath-1);}.cls-9{fill:#c2c3c4;}.cls-10{fill:#f9f9f9;}.cls-11{clip-path:url(#clippath);}.cls-12{fill:none;}.cls-13{fill:#e8e8e8;}.cls-14{fill:#efefef;}.cls-15{fill:#cecece;}.cls-16{fill:#9e9e9e;}.cls-17{fill:#5e5e5e;}</style><clipPath id="clippath"><polygon class="cls-12" points="221.05 216.76 228.77 241.26 217.93 243.28 204.92 228.6 211.42 219.17 221.05 216.76"/></clipPath><clipPath id="clippath-1"><polygon class="cls-12" points="319.55 270 327.26 294.5 316.43 296.52 303.41 281.84 309.92 272.41 319.55 270"/></clipPath><clipPath id="clippath-2"><polyline class="cls-12" points="368.27 440.68 316.87 411.01 520.32 296.18 569.08 324.42"/></clipPath></defs><g id="parts"><g><ellipse class="cls-1" cx="211.69" cy="452.22" rx="23.6" ry="8.57"/><rect class="cls-1" x="188.1" y="446.93" width="47.19" height="5.29"/><ellipse class="cls-13" cx="211.69" cy="446.93" rx="23.6" ry="8.57"/><ellipse class="cls-1" cx="211.69" cy="446.85" rx="11.06" ry="4.01"/><rect class="cls-1" x="200.64" y="401.65" width="22.11" height="45.2"/><ellipse class="cls-13" cx="211.69" cy="401.65" rx="11.06" ry="4.01"/><ellipse class="cls-1" cx="233.3" cy="640.91" rx="23.6" ry="8.57"/><rect class="cls-1" x="209.7" y="635.62" width="47.19" height="5.29"/><ellipse class="cls-13" cx="233.3" cy="635.62" rx="23.6" ry="8.57"/><ellipse class="cls-1" cx="233.3" cy="635.54" rx="11.06" ry="4.01"/><rect class="cls-1" x="222.24" y="590.33" width="22.11" height="45.2"/><ellipse class="cls-13" cx="233.3" cy="590.33" rx="11.06" ry="4.01"/><ellipse class="cls-1" cx="120.38" cy="578.03" rx="23.6" ry="8.57"/><rect class="cls-1" x="96.78" y="572.74" width="47.19" height="5.29"/><ellipse class="cls-13" cx="120.38" cy="572.74" rx="23.6" ry="8.57"/><ellipse class="cls-1" cx="120.38" cy="572.65" rx="11.06" ry="4.01"/><rect class="cls-1" x="109.32" y="527.45" width="22.11" height="45.2"/><ellipse class="cls-13" cx="120.38" cy="527.45" rx="11.06" ry="4.01"/><ellipse class="cls-1" cx="23.6" cy="504.43" rx="23.6" ry="8.57"/><rect class="cls-1" y="499.14" width="47.19" height="5.29"/><ellipse class="cls-13" cx="23.6" cy="499.14" rx="23.6" ry="8.57"/><ellipse class="cls-1" cx="23.6" cy="499.06" rx="11.06" ry="4.01"/><rect class="cls-1" x="12.54" y="453.86" width="22.11" height="45.2"/><ellipse class="cls-13" cx="23.6" cy="453.86" rx="11.06" ry="4.01"/><ellipse class="cls-1" cx="489.49" cy="641.53" rx="23.6" ry="8.57"/><rect class="cls-1" x="465.89" y="636.24" width="47.19" height="5.29"/><ellipse class="cls-13" cx="489.49" cy="636.24" rx="23.6" ry="8.57"/><ellipse class="cls-1" cx="489.49" cy="636.16" rx="11.06" ry="4.01"/><rect class="cls-1" x="478.43" y="590.96" width="22.11" height="45.2"/><ellipse class="cls-1" cx="374.3" cy="706.69" rx="23.6" ry="8.57"/><rect class="cls-1" x="350.7" y="701.4" width="47.19" height="5.29"/><ellipse class="cls-13" cx="374.3" cy="701.4" rx="23.6" ry="8.57"/><ellipse class="cls-1" cx="374.3" cy="701.32" rx="11.06" ry="4.01"/><rect class="cls-1" x="363.24" y="656.12" width="22.11" height="45.2"/><ellipse class="cls-13" cx="374.3" cy="656.12" rx="11.06" ry="4.01"/><polygon class="cls-5" points="79.4 513.2 228.45 427.14 228.45 38.68 79.4 122.42 79.4 513.2"/><polygon class="cls-14" points="6.87 80.54 79.4 122.42 79.4 513.2 6.87 471.33 6.87 80.54"/><polygon class="cls-2" points="6.87 80.54 153.93 0 228.45 38.68 79.4 122.42 6.87 80.54"/><polygon class="cls-2" points="6.87 80.54 153.93 0 75.11 11.01 6.87 80.54"/><polygon class="cls-5" points="79.4 122.42 167.74 86.11 228.45 38.68 157.84 47.14 79.4 122.42"/><polygon class="cls-17" points="181.24 454.4 135.52 480.8 135.52 68.56 180.16 44.47 181.24 454.4"/><polygon class="cls-10" points="374.31 683.68 374.3 460.38 79.4 290.12 79.4 513.2 374.31 683.68"/><polygon class="cls-2" points="77.96 290.12 225.41 214.6 513.08 379.43 372.86 460.38 77.96 290.12"/><polygon class="cls-14" points="372.86 460.38 513.08 379.43 513.08 603.56 374.3 683.93 372.86 460.38"/><polygon class="cls-17" points="432.02 574.69 432.02 542.62 441.55 537.1 441.55 569.19 432.02 574.69"/><polygon class="cls-17" points="458.18 561.03 458.18 528.96 467.72 523.44 467.72 555.53 458.18 561.03"/><polygon class="cls-17" points="135.52 68.56 157.84 47.14 180.16 44.47 159.8 61.21 135.52 68.56"/><ellipse class="cls-1" cx="253.09" cy="300.57" rx="40.27" ry="14.62"/><polygon class="cls-1" points="212.83 301.61 212.83 268.86 293.36 268.86 293.36 300.57 212.83 301.61"/><ellipse class="cls-13" cx="253.09" cy="268.86" rx="40.27" ry="14.62"/><g><ellipse class="cls-1" cx="253.85" cy="268.07" rx="29.58" ry="10.74"/><polygon class="cls-1" points="224.27 268.07 203.84 227.95 302.34 227.95 283.43 268.07 224.27 268.07"/><ellipse class="cls-13" cx="253.09" cy="227.95" rx="49.25" ry="17.88"/><path class="cls-15" d="M298.61,227.95c0,8.8-21.04,15.93-45.28,15.93s-46.96-7.13-46.96-15.93,22.72-15.93,46.96-15.93,45.28,7.13,45.28,15.93Z"/><g class="cls-11"><path class="cls-16" d="M299.13,227.95c0,8.8-21.04,15.93-45.28,15.93s-46.96-7.13-46.96-15.93,22.72-15.93,46.96-15.93,45.28,7.13,45.28,15.93Z"/></g></g><ellipse class="cls-1" cx="351.59" cy="353.81" rx="40.27" ry="14.62"/><polygon class="cls-1" points="311.32 354.85 311.32 322.1 391.86 322.1 391.86 353.81 311.32 354.85"/><ellipse class="cls-13" cx="351.59" cy="322.1" rx="40.27" ry="14.62"/><g><ellipse class="cls-1" cx="352.35" cy="321.31" rx="29.58" ry="10.74"/><polygon class="cls-1" points="322.77 321.31 302.34 281.19 400.84 281.19 381.93 321.31 322.77 321.31"/><ellipse class="cls-13" cx="351.59" cy="281.19" rx="49.25" ry="17.88"/><path class="cls-15" d="M397.11,281.19c0,8.8-21.04,15.93-45.28,15.93s-46.96-7.13-46.96-15.93,22.72-15.93,46.96-15.93,45.28,7.13,45.28,15.93Z"/><g class="cls-8"><path class="cls-16" d="M397.63,281.19c0,8.8-21.04,15.93-45.28,15.93s-46.96-7.13-46.96-15.93,22.72-15.93,46.96-15.93,45.28,7.13,45.28,15.93Z"/></g></g><polygon class="cls-15" points="60.38 265.65 141.95 216.55 235.95 271.98 235.95 328.92 152.95 376.82 60.38 321.24 60.38 265.65"/><polygon class="cls-9" points="121.15 387.43 172.44 358.82 171.62 348.13 121.15 374.07 121.15 387.43"/><polygon class="cls-7" points="60.38 265.65 153.52 319.43 152.95 376.82 60.38 323.38 60.38 265.65"/><polygon class="cls-7" points="84.1 352.85 84.1 366.21 121.15 387.43 121.15 374.07 84.1 352.85"/><polygon class="cls-7" points="60.38 323.38 84.1 352.85 121.15 374.07 152.95 376.82 60.38 323.38"/><polygon class="cls-9" points="153.52 319.43 152.95 376.82 235.95 328.92 235.95 271.98 153.52 319.43"/><polygon class="cls-3" points="63.68 267.56 153.52 319.43 157.57 317.09 67.63 265.16 63.68 267.56"/><polygon class="cls-7" points="141.02 220.67 144.92 274.65 165.09 301.37 174.7 307.24 235.95 271.98 141.02 220.67"/><polygon class="cls-3" points="153.52 319.43 150.27 317.55 233.01 270.24 235.95 271.98 153.52 319.43"/><polygon class="cls-3" points="63.68 267.56 60.38 265.65 141.95 216.55 144.92 218.31 63.68 267.56"/><polygon class="cls-3" points="144.92 218.31 233.01 270.24 228.19 273 141.02 220.67 144.92 218.31"/><polygon class="cls-15" points="178.37 340.48 259.94 291.38 353.94 346.81 353.94 403.75 270.94 451.65 178.37 396.06 178.37 340.48"/><polygon class="cls-9" points="239.14 462.26 290.43 433.65 289.61 422.96 239.14 448.9 239.14 462.26"/><polygon class="cls-7" points="178.37 340.48 271.51 394.26 270.94 451.65 178.37 398.21 178.37 340.48"/><polygon class="cls-7" points="202.09 427.67 202.09 441.04 239.14 462.26 239.14 448.9 202.09 427.67"/><polygon class="cls-7" points="178.37 398.21 202.09 427.67 239.14 448.9 270.94 451.65 178.37 398.21"/><polygon class="cls-9" points="271.51 394.26 270.94 451.65 353.94 403.75 353.94 346.81 271.51 394.26"/><polygon class="cls-3" points="181.67 342.38 271.51 394.26 275.56 391.92 185.62 339.99 181.67 342.38"/><polygon class="cls-7" points="259.01 295.5 262.91 349.48 283.08 376.2 292.69 382.07 353.94 346.81 259.01 295.5"/><polygon class="cls-3" points="271.51 394.26 268.26 392.38 351 345.07 353.94 346.81 271.51 394.26"/><polygon class="cls-3" points="181.67 342.38 178.37 340.48 259.94 291.38 262.91 293.14 181.67 342.38"/><polygon class="cls-3" points="262.91 293.14 351 345.07 346.18 347.83 259.01 295.5 262.91 293.14"/><polygon class="cls-4" points="362.36 384.84 515.96 298.47 566.65 325.83 413.93 414.32 362.36 384.84"/><g><polygon class="cls-17" points="413.93 426.78 413.93 414.32 566.65 325.83 566.65 338.32 413.93 426.78"/><polygon class="cls-1" points="362.53 384.61 413.93 414.28 413.93 426.78 362.53 397 362.53 384.61"/><g class="cls-6"><polygon class="cls-17" points="290.2 407.54 362.49 449.28 369.24 445.39 296.79 403.74 290.2 407.54"/><polygon class="cls-17" points="350.97 372.29 423.26 414.03 430 410.13 357.56 368.49 350.97 372.29"/><polygon class="cls-17" points="361.15 366.38 433.44 408.12 440.19 404.23 367.74 362.58 361.15 366.38"/><polygon class="cls-17" points="371.33 360.48 443.62 402.22 450.37 398.32 377.92 356.67 371.33 360.48"/><polygon class="cls-17" points="381.52 354.57 453.81 396.31 460.55 392.41 388.1 350.77 381.52 354.57"/><polygon class="cls-17" points="391.7 348.66 463.99 390.4 470.73 386.51 398.29 344.86 391.7 348.66"/><polygon class="cls-17" points="401.88 342.76 474.17 384.5 480.92 380.6 408.47 338.95 401.88 342.76"/><polygon class="cls-17" points="412.06 336.85 484.35 378.59 491.1 374.69 418.65 333.05 412.06 336.85"/><polygon class="cls-17" points="422.11 331.09 494.4 372.83 501.15 368.93 428.7 327.29 422.11 331.09"/><polygon class="cls-17" points="432.16 325.33 504.45 367.07 511.2 363.17 438.75 321.53 432.16 325.33"/><polygon class="cls-17" points="442.21 319.57 514.5 361.31 521.24 357.41 448.8 315.76 442.21 319.57"/><polygon class="cls-17" points="452.26 313.81 524.55 355.54 531.29 351.65 458.85 310 452.26 313.81"/><polygon class="cls-17" points="462.31 308.05 534.6 349.78 541.34 345.89 468.89 304.24 462.31 308.05"/><polygon class="cls-17" points="472.35 302.28 544.65 344.02 551.39 340.13 478.94 298.48 472.35 302.28"/><polygon class="cls-17" points="482.4 296.52 554.69 338.26 561.44 334.37 488.99 292.72 482.4 296.52"/><polygon class="cls-17" points="492.45 290.76 564.74 332.5 571.49 328.6 499.04 286.96 492.45 290.76"/><polygon class="cls-17" points="502.5 285 574.79 326.74 581.54 322.84 509.09 281.2 502.5 285"/><polygon class="cls-17" points="512.55 279.24 584.84 320.98 591.58 317.08 519.14 275.44 512.55 279.24"/><polygon class="cls-17" points="522.6 273.48 594.89 315.22 601.63 311.32 529.19 269.68 522.6 273.48"/><polygon class="cls-17" points="532.65 267.72 604.94 309.46 611.68 305.56 539.23 263.91 532.65 267.72"/><polygon class="cls-17" points="542.69 261.96 614.99 303.69 621.73 299.8 549.28 258.15 542.69 261.96"/><polygon class="cls-17" points="552.74 256.2 625.03 297.93 631.78 294.04 559.33 252.39 552.74 256.2"/><polygon class="cls-17" points="562.79 250.43 635.08 292.17 641.83 288.28 569.38 246.63 562.79 250.43"/><polygon class="cls-17" points="572.84 244.67 645.13 286.41 651.87 282.52 579.43 240.87 572.84 244.67"/><polygon class="cls-17" points="582.89 238.91 655.18 280.65 661.92 276.75 589.48 235.11 582.89 238.91"/><polygon class="cls-17" points="592.94 233.15 665.23 274.89 671.97 270.99 599.52 229.35 592.94 233.15"/><polygon class="cls-17" points="602.99 227.39 675.28 269.13 682.02 265.23 609.57 223.59 602.99 227.39"/><polygon class="cls-17" points="613.03 221.63 685.33 263.37 692.07 259.47 619.62 217.83 613.03 221.63"/><polygon class="cls-17" points="623.08 215.87 695.37 257.6 702.12 253.71 629.67 212.06 623.08 215.87"/><polygon class="cls-17" points="633.13 210.11 705.42 251.84 712.17 247.95 639.72 206.3 633.13 210.11"/><polygon class="cls-17" points="643.18 204.35 715.47 246.08 722.21 242.19 649.77 200.54 643.18 204.35"/><polygon class="cls-17" points="653.23 198.58 725.52 240.32 732.26 236.43 659.82 194.78 653.23 198.58"/><polygon class="cls-17" points="663.28 192.82 735.57 234.56 742.31 230.67 669.86 189.02 663.28 192.82"/><polygon class="cls-17" points="673.33 187.06 745.62 228.8 752.36 224.9 679.91 183.26 673.33 187.06"/><polygon class="cls-17" points="683.37 181.3 755.66 223.04 762.41 219.14 689.96 177.5 683.37 181.3"/><polygon class="cls-17" points="693.42 175.54 765.71 217.28 772.46 213.38 700.01 171.74 693.42 175.54"/><polygon class="cls-17" points="703.47 169.78 775.76 211.52 782.51 207.62 710.06 165.97 703.47 169.78"/></g></g></g></g></svg>