<svg xmlns="http://www.w3.org/2000/svg" viewBox="0 0 90.47 119.69"><defs><style>.cls-1{fill:#e8e8e8;}.cls-2{fill:#ccfffb;}.cls-3{fill:#f9f9f9;}.cls-4{fill:#dbfcf9;}.cls-5{fill:#05331e;}.cls-6{fill:#b7b7b7;}.cls-7{fill:#fff;}</style></defs><g id="レイヤー_2" data-name="レイヤー 2"><g id="レイヤー_3" data-name="レイヤー 3"><ellipse class="cls-1" cx="57.58" cy="44.85" rx="12.3" ry="4.46"/><ellipse class="cls-2" cx="57.58" cy="78.3" rx="12.3" ry="4.46"/><path class="cls-2" d="M57.54,2.53V44.85H45.28s-.5-17.68,2.36-22.5S53.13,13.2,53.42,9s.43-6.45.43-6.45Z"/><path class="cls-2" d="M57.52,2.53V44.85H69.87s.41-17.68-2.45-22.5S61.93,13.2,61.65,9s-.44-6.45-.44-6.45Z"/><path class="cls-3" d="M57.59,2.53V29.25h0s-12.76-2.08-9.9-6.9S53.18,13.2,53.46,9s.44-6.45.44-6.45Z"/><path class="cls-3" d="M57.57,2.53l0,26.72h0s12.74-2.08,9.88-6.9S62,13.2,61.69,9s-.43-6.45-.43-6.45Z"/><rect class="cls-2" x="45.28" y="44.85" width="24.59" height="33.46"/><path class="cls-2" d="M68.38,25.31c-.15-.54-.6-2.29-.6-2.29l-20.51.07-.53,5.15,11.47,3.31Z"/><path class="cls-4" d="M67.85,23.59c0,2.11-4.72,3.82-10.54,3.82s-10-1.86-10-4,4.23-3.66,10-3.66S67.85,21.48,67.85,23.59Z"/><path class="cls-5" d="M57.58,49.63c-6.79,0-12.3-2-12.3-4.46V58c0,2.47,5.51,4.47,12.3,4.47s12.29-2,12.29-4.47V45.17C69.87,47.63,64.37,49.63,57.58,49.63Z"/><ellipse class="cls-6" cx="57.59" cy="2.73" rx="4.65" ry="1.69"/><rect class="cls-6" x="52.93" y="1.69" width="9.31" height="1.04"/><ellipse class="cls-1" cx="57.59" cy="1.69" rx="4.65" ry="1.69"/><path class="cls-7" d="M55,4.28s-1.43,13.66-2.56,15.91a20.67,20.67,0,0,0-2.27,6c-.25,1.81-.63,22.3-.63,22.3L51.4,49s-.45-19.78.67-23.48c.43-1.4,1.9-3.63,2.34-5.71S56.25,4.42,56.25,4.42Z"/><ellipse class="cls-1" cx="78.15" cy="56.49" rx="12.3" ry="4.46"/><ellipse class="cls-2" cx="78.15" cy="89.94" rx="12.3" ry="4.46"/><path class="cls-2" d="M78.11,14.17V56.49H65.86s-.5-17.68,2.35-22.5S73.7,24.84,74,20.61s.43-6.44.43-6.44Z"/><path class="cls-2" d="M78.09,14.17V56.49H90.45S90.85,38.81,88,34s-5.5-9.15-5.78-13.38-.44-6.44-.44-6.44Z"/><path class="cls-3" d="M78.16,14.17V40.88h0S65.4,38.81,68.26,34,73.75,24.84,74,20.61s.43-6.44.43-6.44Z"/><path class="cls-3" d="M78.14,14.17l0,26.71h0S90.9,38.81,88,34s-5.49-9.15-5.77-13.38-.44-6.44-.44-6.44Z"/><rect class="cls-2" x="65.86" y="56.49" width="24.59" height="33.46"/><path class="cls-2" d="M89,37c-.15-.54-.6-2.29-.6-2.29l-20.51.07-.53,5.15,11.47,3.31Z"/><path class="cls-4" d="M88.42,35.23c0,2.11-4.72,3.82-10.53,3.82s-10-1.86-10-4,4.23-3.66,10-3.66S88.42,33.12,88.42,35.23Z"/><path class="cls-5" d="M78.15,61.27c-6.79,0-12.29-2-12.29-4.46V69.65c0,2.47,5.5,4.47,12.29,4.47s12.3-2,12.3-4.47V56.81C90.45,59.27,84.94,61.27,78.15,61.27Z"/><ellipse class="cls-6" cx="78.16" cy="14.37" rx="4.65" ry="1.69"/><rect class="cls-6" x="73.51" y="13.33" width="9.31" height="1.04"/><ellipse class="cls-1" cx="78.16" cy="13.33" rx="4.65" ry="1.69"/><path class="cls-7" d="M75.56,15.92S74.13,29.58,73,31.83a20.52,20.52,0,0,0-2.26,6.05c-.26,1.81-.64,22.3-.64,22.3l1.87.49s-.45-19.79.67-23.48c.43-1.4,1.9-3.63,2.34-5.71s1.84-15.42,1.84-15.42Z"/><ellipse class="cls-1" cx="34.95" cy="56.49" rx="12.3" ry="4.46"/><ellipse class="cls-2" cx="34.95" cy="89.94" rx="12.3" ry="4.46"/><path class="cls-2" d="M34.92,14.17V56.49H22.66S22.16,38.81,25,34s5.5-9.15,5.78-13.38.43-6.44.43-6.44Z"/><path class="cls-2" d="M34.9,14.17V56.49H47.25s.4-17.68-2.45-22.5S39.3,24.84,39,20.61s-.43-6.44-.43-6.44Z"/><path class="cls-3" d="M35,14.17V40.88h0S22.21,38.81,25.06,34s5.5-9.15,5.78-13.38.43-6.44.43-6.44Z"/><path class="cls-3" d="M34.94,14.17l0,26.71h0S47.7,38.81,44.85,34s-5.5-9.15-5.78-13.38-.43-6.44-.43-6.44Z"/><rect class="cls-2" x="22.66" y="56.49" width="24.59" height="33.46"/><path class="cls-2" d="M45.76,37c-.15-.54-.61-2.29-.61-2.29l-20.51.07-.53,5.15,11.47,3.31Z"/><path class="cls-4" d="M45.22,35.23c0,2.11-4.71,3.82-10.53,3.82s-10-1.86-10-4,4.23-3.66,10-3.66S45.22,33.12,45.22,35.23Z"/><path class="cls-5" d="M35,61.27c-6.79,0-12.29-2-12.29-4.46V69.65c0,2.47,5.5,4.47,12.29,4.47s12.3-2,12.3-4.47V56.81C47.25,59.27,41.74,61.27,35,61.27Z"/><ellipse class="cls-6" cx="34.96" cy="14.37" rx="4.65" ry="1.69"/><rect class="cls-6" x="30.31" y="13.33" width="9.31" height="1.04"/><ellipse class="cls-1" cx="34.96" cy="13.33" rx="4.65" ry="1.69"/><path class="cls-7" d="M32.37,15.92S30.94,29.58,29.8,31.83a20.52,20.52,0,0,0-2.26,6.05c-.25,1.81-.63,22.3-.63,22.3l1.86.49s-.45-19.79.68-23.48c.42-1.4,1.9-3.63,2.33-5.71s1.85-15.42,1.85-15.42Z"/><ellipse class="cls-1" cx="57.53" cy="68.93" rx="12.3" ry="4.46"/><ellipse class="cls-2" cx="57.53" cy="102.38" rx="12.3" ry="4.46"/><path class="cls-2" d="M57.49,26.61V68.93H45.23s-.5-17.68,2.36-22.5,5.49-9.15,5.77-13.38.44-6.44.44-6.44Z"/><path class="cls-2" d="M57.47,26.61V68.93H69.82s.41-17.68-2.45-22.5-5.49-9.15-5.78-13.38-.43-6.44-.43-6.44Z"/><path class="cls-3" d="M57.54,26.61V53.32h0s-12.76-2.07-9.91-6.89,5.5-9.15,5.78-13.38.44-6.44.44-6.44Z"/><path class="cls-3" d="M57.52,26.61l0,26.71h0s12.73-2.07,9.88-6.89-5.5-9.15-5.78-13.38-.43-6.44-.43-6.44Z"/><rect class="cls-2" x="45.23" y="68.93" width="24.59" height="33.46"/><path class="cls-2" d="M68.33,49.39c-.15-.54-.6-2.29-.6-2.29l-20.51.06-.54,5.16,11.48,3.31Z"/><path class="cls-4" d="M67.79,47.67c0,2.11-4.71,3.82-10.53,3.82s-10-1.87-10-4,4.23-3.66,10-3.66S67.79,45.56,67.79,47.67Z"/><path class="cls-5" d="M57.53,73.71c-6.79,0-12.3-2-12.3-4.46V82.09c0,2.47,5.51,4.47,12.3,4.47s12.29-2,12.29-4.47V69.25C69.82,71.71,64.32,73.71,57.53,73.71Z"/><ellipse class="cls-6" cx="57.54" cy="26.81" rx="4.65" ry="1.69"/><rect class="cls-6" x="52.88" y="25.77" width="9.31" height="1.04"/><ellipse class="cls-1" cx="57.54" cy="25.77" rx="4.65" ry="1.69"/><path class="cls-7" d="M54.94,28.35S53.51,42,52.38,44.27a20.57,20.57,0,0,0-2.27,6c-.25,1.81-.63,22.3-.63,22.3l1.86.49S50.9,53.32,52,49.62c.42-1.39,1.9-3.62,2.33-5.7S56.2,28.5,56.2,28.5Z"/><ellipse class="cls-1" cx="12.33" cy="68.93" rx="12.3" ry="4.46"/><ellipse class="cls-2" cx="12.33" cy="102.38" rx="12.3" ry="4.46"/><path class="cls-2" d="M12.29,26.61V68.93H0s-.5-17.68,2.36-22.5,5.49-9.15,5.78-13.38.43-6.44.43-6.44Z"/><path class="cls-2" d="M12.27,26.61V68.93H24.62s.41-17.68-2.45-22.5-5.49-9.15-5.77-13.38S16,26.61,16,26.61Z"/><path class="cls-3" d="M12.34,26.61V53.32h0s-12.76-2.07-9.9-6.89,5.49-9.15,5.77-13.38.44-6.44.44-6.44Z"/><path class="cls-3" d="M12.32,26.61l0,26.71h0s12.74-2.07,9.88-6.89-5.49-9.15-5.78-13.38S16,26.61,16,26.61Z"/><rect class="cls-2" x="0.03" y="68.93" width="24.59" height="33.46"/><path class="cls-2" d="M23.13,49.39c-.15-.54-.6-2.29-.6-2.29L2,47.16l-.53,5.16L13,55.63Z"/><path class="cls-4" d="M22.6,47.67c0,2.11-4.72,3.82-10.54,3.82s-10-1.87-10-4,4.23-3.66,10-3.66S22.6,45.56,22.6,47.67Z"/><path class="cls-5" d="M12.33,73.71c-6.79,0-12.3-2-12.3-4.46V82.09c0,2.47,5.51,4.47,12.3,4.47s12.29-2,12.29-4.47V69.25C24.62,71.71,19.12,73.71,12.33,73.71Z"/><ellipse class="cls-6" cx="12.34" cy="26.81" rx="4.65" ry="1.69"/><rect class="cls-6" x="7.68" y="25.77" width="9.31" height="1.04"/><ellipse class="cls-1" cx="12.34" cy="25.77" rx="4.65" ry="1.69"/><path class="cls-7" d="M9.74,28.35S8.31,42,7.18,44.27a20.57,20.57,0,0,0-2.27,6c-.25,1.81-.63,22.3-.63,22.3l1.87.49s-.45-19.79.67-23.49c.43-1.39,1.9-3.62,2.34-5.7S11,28.5,11,28.5Z"/><ellipse class="cls-1" cx="36.44" cy="81.77" rx="12.3" ry="4.46"/><ellipse class="cls-2" cx="36.44" cy="115.23" rx="12.3" ry="4.46"/><path class="cls-2" d="M36.4,39.45V81.77H24.14s-.5-17.68,2.36-22.5S32,50.12,32.28,45.9s.43-6.45.43-6.45Z"/><path class="cls-2" d="M36.38,39.45V81.77H48.74s.4-17.68-2.45-22.5-5.5-9.15-5.78-13.37-.44-6.45-.44-6.45Z"/><path class="cls-3" d="M36.45,39.45V66.17h0s-12.76-2.08-9.9-6.9S32,50.12,32.32,45.9s.44-6.45.44-6.45Z"/><path class="cls-3" d="M36.43,39.45l0,26.72h0s12.74-2.08,9.88-6.9-5.49-9.15-5.78-13.37-.43-6.45-.43-6.45Z"/><rect class="cls-2" x="24.14" y="81.77" width="24.59" height="33.46"/><path class="cls-2" d="M47.24,62.23c-.15-.54-.6-2.29-.6-2.29L26.13,60l-.53,5.15,11.47,3.31Z"/><path class="cls-4" d="M46.71,60.51c0,2.11-4.72,3.82-10.53,3.82s-10-1.86-10-4,4.23-3.67,10.05-3.67S46.71,58.4,46.71,60.51Z"/><path class="cls-5" d="M36.44,86.55c-6.79,0-12.3-2-12.3-4.46V94.94c0,2.46,5.51,4.46,12.3,4.46s12.3-2,12.3-4.46V82.09C48.74,84.56,43.23,86.55,36.44,86.55Z"/><ellipse class="cls-6" cx="36.45" cy="39.65" rx="4.65" ry="1.69"/><rect class="cls-6" x="31.8" y="38.61" width="9.31" height="1.04"/><ellipse class="cls-1" cx="36.45" cy="38.61" rx="4.65" ry="1.69"/><path class="cls-7" d="M33.85,41.2s-1.43,13.66-2.56,15.91a20.62,20.62,0,0,0-2.26,6c-.26,1.81-.64,22.3-.64,22.3l1.87.49s-.45-19.78.67-23.48c.43-1.4,1.9-3.63,2.34-5.71s1.84-15.42,1.84-15.42Z"/></g></g></svg>