<svg xmlns="http://www.w3.org/2000/svg" viewBox="0 0 115.73 149.27"><defs><style>.cls-1{fill:#a81a24;}.cls-2{fill:#af1924;}.cls-3{fill:#b21b26;}.cls-4{fill:#c31a1f;}.cls-5{fill:#ce202c;}.cls-6{fill:#f4e4e6;}</style></defs><g id="レイヤー_2" data-name="レイヤー 2"><g id="レイヤー_4" data-name="レイヤー 4"><polygon class="cls-1" points="57.8 149.27 115.73 115.86 115.59 108.23 57.8 142.18 57.8 149.27"/><polygon class="cls-2" points="0.24 115.82 0 108.37 57.8 142.18 57.8 149.27 0.24 115.82"/><path class="cls-3" d="M.83,109.8,57,142.22a1.69,1.69,0,0,0,1.66,0l56.14-32.42a1.66,1.66,0,0,0,0-2.87L58.63,74.52a1.64,1.64,0,0,0-1.66,0L.83,106.93A1.65,1.65,0,0,0,.83,109.8Z"/><ellipse class="cls-4" cx="57.8" cy="106.37" rx="33.15" ry="17.86"/><polygon class="cls-4" points="64.81 3.77 90.95 106.37 24.65 106.37 50.79 3.77 64.81 3.77"/><ellipse class="cls-5" cx="57.8" cy="3.78" rx="7.01" ry="3.78"/><path class="cls-6" d="M39.73,47.18s2.68,6.27,18.07,6.71,18.07-6.71,18.07-6.71l3.64,14.28s-4,6.33-21.71,6.55-21.71-6.55-21.71-6.55Z"/><path class="cls-6" d="M42.86,34.9A24,24,0,0,0,57.8,39.55,28.18,28.18,0,0,0,72.74,34.9L70.47,26A23.27,23.27,0,0,1,57.8,30.06,21.8,21.8,0,0,1,45.13,26Z"/></g></g></svg>