<svg xmlns="http://www.w3.org/2000/svg" viewBox="0 0 381.65 370.68"><defs><style>.cls-1{fill:#fc942d;}.cls-2{fill:#d1792a;}.cls-3{fill:#e5842c;}</style></defs><g id="レイヤー_2" data-name="レイヤー 2"><g id="レイヤー_6" data-name="レイヤー 6"><polygon class="cls-1" points="0 349.84 29.42 366.83 88.25 332.86 58.84 315.88 0 349.84"/><polygon class="cls-2" points="29.42 370.68 88.25 337.28 88.25 332.86 29.42 366.83 29.42 370.68"/><polygon class="cls-3" points="0 353.79 0 349.84 29.42 366.83 29.42 370.68 0 353.79"/><polygon class="cls-1" points="293.4 179.75 322.81 196.74 381.65 162.77 352.23 145.79 293.4 179.75"/><polygon class="cls-2" points="322.81 200.6 381.65 167.19 381.65 162.77 322.81 196.74 322.81 200.6"/><polygon class="cls-3" points="293.39 183.7 293.4 179.75 322.81 196.74 322.81 200.6 293.39 183.7"/><ellipse class="cls-1" cx="44.13" cy="340.4" rx="10.46" ry="3.8"/><rect class="cls-1" x="33.67" y="194.34" width="20.91" height="146.07"/><ellipse class="cls-1" cx="44.13" cy="194.34" rx="10.46" ry="3.8"/><ellipse class="cls-1" cx="337.52" cy="168.71" rx="10.46" ry="3.8"/><rect class="cls-1" x="327.07" y="22.65" width="20.91" height="146.07"/><ellipse class="cls-1" cx="337.52" cy="22.65" rx="10.46" ry="3.8"/><polygon class="cls-1" points="343.94 119.84 46.36 291.65 37.28 275.94 343.13 99.36 343.94 119.84"/><polygon class="cls-1" points="340.33 16.01 43.86 187.21 38.48 169.28 327.58 2.64 340.33 16.01"/><path class="cls-1" d="M33.67,194.34s-.34-10.71,0-15S38,169.26,38.47,169,62,176.44,62,176.44a14.15,14.15,0,0,0-5.65,5.83c-1.92,3.94-1.74,11.39-1.74,11.39Z"/><path class="cls-1" d="M348,22.65V11.46C345.2,1.86,335.46-.13,334,0c-6.75,1.46-17.38,10-17.38,10l10.45,13.35Z"/><rect class="cls-1" x="85.17" y="149.79" width="16.6" height="107.46"/><rect class="cls-1" x="126.43" y="125.76" width="16.6" height="107.46"/><rect class="cls-1" x="167.7" y="101.74" width="16.6" height="107.46"/><rect class="cls-1" x="208.97" y="77.71" width="16.6" height="107.46"/><rect class="cls-1" x="250.24" y="53.69" width="16.6" height="107.46"/><rect class="cls-1" x="291.5" y="29.67" width="16.6" height="107.46"/></g></g></svg>