<svg xmlns="http://www.w3.org/2000/svg" xmlns:xlink="http://www.w3.org/1999/xlink" viewBox="0 0 747.38 275.35"><defs><style>.cls-1,.cls-14{fill:none;}.cls-2{fill:#5e5e5e;}.cls-3{fill:#a0a0a0;}.cls-4{fill:#777;}.cls-5{fill:#cecece;}.cls-6{fill:#dbbb96;}.cls-7{fill:#e3cb9d;}.cls-8{fill:#8f7743;}.cls-9{fill:#efefef;}.cls-10{fill:#d3d1d1;}.cls-11{fill:#9b9898;}.cls-12{fill:#03190f;}.cls-13{clip-path:url(#clip-path);}.cls-14{stroke:#707070;stroke-miterlimit:10;}.cls-15{fill:#0c8e56;}.cls-16{fill:#09ab6f;}.cls-17{fill:#e0e0e0;}</style><clipPath id="clip-path"><circle class="cls-1" cx="653.18" cy="177.53" r="47.08"/></clipPath></defs><g id="レイヤー_2" data-name="レイヤー 2"><g id="parts"><rect class="cls-2" x="15.61" y="209.96" width="557.79" height="30.06"/><circle class="cls-2" cx="15.03" cy="224.99" r="15.03"/><circle class="cls-2" cx="573.4" cy="224.99" r="15.03"/><rect class="cls-3" x="15.33" y="213.76" width="557.85" height="22.86"/><circle class="cls-3" cx="15.36" cy="225.19" r="11.43"/><circle class="cls-3" cx="573.18" cy="225.19" r="11.43"/><rect class="cls-4" x="15.03" y="213.76" width="558.47" height="6.79"/><circle class="cls-5" cx="15.03" cy="225.19" r="11.43"/><circle class="cls-2" cx="15.03" cy="225.19" r="6.19"/><circle class="cls-5" cx="84.83" cy="225.19" r="11.43"/><circle class="cls-2" cx="84.83" cy="225.19" r="6.19"/><circle class="cls-5" cx="154.62" cy="225.19" r="11.43"/><circle class="cls-2" cx="154.62" cy="225.19" r="6.19"/><circle class="cls-5" cx="224.42" cy="225.19" r="11.43"/><circle class="cls-2" cx="224.42" cy="225.19" r="6.19"/><circle class="cls-5" cx="294.22" cy="225.19" r="11.43"/><circle class="cls-2" cx="294.22" cy="225.19" r="6.19"/><circle class="cls-5" cx="364.01" cy="225.19" r="11.43"/><circle class="cls-2" cx="364.01" cy="225.19" r="6.19"/><circle class="cls-5" cx="433.81" cy="225.19" r="11.43"/><circle class="cls-2" cx="433.81" cy="225.19" r="6.19"/><circle class="cls-5" cx="503.61" cy="225.19" r="11.43"/><circle class="cls-2" cx="503.61" cy="225.19" r="6.19"/><circle class="cls-5" cx="573.4" cy="225.19" r="11.43"/><circle class="cls-2" cx="573.4" cy="225.19" r="6.19"/><rect class="cls-6" x="62.99" y="145.92" width="69.32" height="64.04"/><rect class="cls-7" x="87.73" y="145.92" width="19.21" height="10.68"/><rect class="cls-6" x="190.05" y="145.92" width="69.32" height="64.04"/><rect class="cls-8" x="216.43" y="163.36" width="16.56" height="5.24" rx="2.37"/><rect class="cls-8" x="89.06" y="165.44" width="16.56" height="5.24" rx="2.37"/><rect class="cls-6" x="186.75" y="113.33" width="3.71" height="51.96" transform="translate(-43.02 102.87) rotate(-27.51)"/><rect class="cls-6" x="259.13" y="112.96" width="3.71" height="51.96" transform="translate(428.28 382.72) rotate(-152.49)"/><rect class="cls-9" x="479.24" y="7.22" width="268.14" height="268.14"/><rect class="cls-10" x="650.1" y="52" width="6.16" height="28.1"/><rect class="cls-10" x="630.63" y="52" width="6.16" height="28.1"/><rect class="cls-10" x="650.1" y="92.56" width="6.16" height="28.1"/><rect class="cls-11" x="621.96" width="40.81" height="55.96"/><rect class="cls-11" x="621.96" y="75.84" width="40.81" height="18.27"/><circle class="cls-11" cx="653.18" cy="177.53" r="57.12"/><circle class="cls-12" cx="653.18" cy="177.53" r="47.08"/><g class="cls-13"><rect class="cls-10" x="650.28" y="128.68" width="5.8" height="46.99"/></g><rect class="cls-11" x="479.24" y="249.15" width="268.14" height="12.67"/><rect class="cls-14" x="492.46" y="101.94" width="54.81" height="54.81" rx="14.95"/><circle class="cls-15" cx="509.65" cy="114.76" r="5.65"/><circle class="cls-16" cx="530.09" cy="114.76" r="5.65"/><rect class="cls-12" x="499.47" y="127.11" width="3.39" height="22.34"/><rect class="cls-12" x="506.49" y="127.11" width="3.39" height="22.34"/><rect class="cls-12" x="513.52" y="127.11" width="3.39" height="22.34"/><rect class="cls-12" x="520.54" y="127.11" width="3.39" height="22.34"/><rect class="cls-12" x="527.57" y="127.11" width="3.39" height="22.34"/><rect class="cls-17" x="492.5" y="171.44" width="52.06" height="70.29"/><rect class="cls-12" x="537.24" y="199.75" width="3" height="19.19"/><circle class="cls-10" cx="653.18" cy="177.53" r="7.05"/><path class="cls-12" d="M624,56.28c.1,9.78-4.47,18.56-9.66,26.57C608.94,91.18,602.81,99,598.48,108c-9.17,19-11.24,40.54-10.43,61.41.42,10.75,1.77,21.38,3,32.06.66,5.64,1.06,11.52-.68,17a21.19,21.19,0,0,1-7.13,10.05c-6.52,5.2-16.38,6.64-23,.86-4.21-3.65-4.9-8.73-4.89-14,0-6.16.11-12.33.17-18.49l.35-37c.09-9.71,1.06-22.72-9-28.16a11.82,11.82,0,0,0-6.38-1.44c-1.92.13-1.93,3.13,0,3,4.71-.33,8.63,3.16,10.5,7.25,2.38,5.2,2,11.3,1.91,16.86l-.35,37.77-.18,18.64c-.05,5.42.12,11,3.6,15.45,5.69,7.31,15.77,8.49,23.87,4.9a24.7,24.7,0,0,0,14.7-21.46c.47-5.84-.5-11.68-1.22-17.46-.66-5.3-1.22-10.61-1.64-15.93-1.65-21.18-1.07-43.15,6.62-63.21,3.73-9.74,9.5-18.18,15.36-26.72,5.4-7.89,10.91-16.28,12.73-25.83a36.47,36.47,0,0,0,.66-7.22,1.5,1.5,0,0,0-3,0Z"/><path class="cls-12" d="M539.17,139.27c5,.29,9.3,3.47,12.08,7.47,3.24,4.65,4.45,10.32,4.89,15.88.49,6.26.36,12.58.45,18.85l.25,20c.15,11.3-1,24.58,6,34.25,2.82,3.91,6.82,7.19,11.59,8.31a16.8,16.8,0,0,0,13.94-3.19c9.42-7.1,10.5-19.27,8.91-30.12-1.83-12.5-6-24.56-9.45-36.67-5.78-20.42-10.18-44.34,1.52-63.65a44.6,44.6,0,0,1,10.55-11.66c4.43-3.53,9.28-6.51,13.77-10,8-6.1,15.64-15,15.12-25.74A18.23,18.23,0,0,0,627,56c-.84-1.74-3.42-.22-2.59,1.51,4.53,9.41-2.13,20-9.11,26.16-8.2,7.17-18.39,11.92-25.26,20.59-13.3,16.79-12.52,39.94-7.9,59.71,2.82,12.12,7,23.88,9.92,36,2.64,10.76,5.66,24.06-1.08,34-2.61,3.82-6.75,7-11.46,7.53S570.2,239.51,567,236c-8-8.6-7-21.73-7.11-32.59l-.25-19.5c-.08-6.28,0-12.58-.33-18.85-.5-10.29-3.35-22-13.37-27a17.13,17.13,0,0,0-6.75-1.81c-1.93-.11-1.92,2.89,0,3Z"/></g></g></svg>